<?xml version="1.0" encoding="UTF-8"?><svg xmlns="http://www.w3.org/2000/svg" viewBox="0 0 30 30"><defs><style>.f{fill:#92c156;}.g{fill:#fefefe;}</style></defs><g id="a"/><g id="b"><g id="c"><g><rect class="f" width="30" height="30" rx="5" ry="5"/><g id="d"><g id="e"><path class="g" d="M24,10.34s-.08,.09-.12,.13l-5.05,5.05-5.84,5.84c-.23,.23-.17,.24-.41,0-2.09-2.09-4.18-4.18-6.27-6.26-.14-.14-.16-.22,0-.36,.58-.56,1.16-1.14,1.72-1.72,.13-.14,.21-.12,.33,0,1.41,1.42,2.84,2.84,4.24,4.26,.15,.15,.23,.13,.36,0,1.73-1.74,3.46-3.47,5.2-5.2,1.18-1.18,2.36-2.37,3.56-3.55,.3-.3,.22-.28,.5,0,.56,.55,1.12,1.12,1.68,1.68,.04,.04,.09,.07,.11,.15h0Z"/></g></g></g></g></g></svg>