<?xml version="1.0" encoding="UTF-8"?><svg id="a" xmlns="http://www.w3.org/2000/svg" viewBox="0 0 99 99"><defs><style>.b{fill:#fff;}.c{fill:#92c156;}.d{fill:#f34336;}.e{fill:#ff9d3b;}.f{fill:#008ebb;}.g{fill:#6f499b;}</style></defs><path class="g" d="M48.14,41.79v-12.37c-1.28,1.11-3.58,3.03-7.42,2.8-5.42-.32-8.66-5.2-8.66-9.73,0-2.64,1.11-5.33,2.96-7.18,1.54-1.54,3.52-2.43,5.69-2.55,3.83-.23,6.14,1.69,7.42,2.8v-.17h0c0-11.26-11.72-18.72-21.91-13.9-5.43,2.56-10.33,6.05-14.52,10.24C7.54,15.91,4.08,20.79,1.51,26.17c-4.85,10.2,2.65,21.97,13.95,21.97h0c.81,0,1.54,.35,2.05,.94,.66,.48,.99,1.18,.78,1.98-.03,.13-.1,.26-.19,.4-.09,.44-.28,.84-.57,1.19-.23,.27-.31,.37-.76,1-.66,.92-1.44,2.45-1.32,4.47,.11,1.78,1.01,3.45,2.48,4.55,1.33,1,2.94,1.55,4.56,1.55s3.24-.55,4.57-1.55c.24-.18,.46-.38,.67-.58,.76-.76,1.69-2.07,1.81-3.97,.12-2.02-.65-3.54-1.32-4.47-.46-.62-.53-.73-.76-1-.3-.36-.49-.76-.57-1.2-.09-.14-.15-.27-.19-.39-.18-.65,.02-1.26,.48-1.7,.08-.08,.17-.16,.27-.23,.06-.07,.12-.13,.18-.2,.51-.5,1.19-.78,1.91-.78h12.28c.28-1.52,1-2.99,2.18-4.18,1.18-1.18,2.64-1.9,4.17-2.18h0Z"/><path class="c" d="M57.28,48.14h12.29c-1.11-1.28-3.03-3.58-2.8-7.42,.13-2.18,1.01-4.15,2.55-5.68,1.85-1.85,4.55-2.96,7.18-2.96,4.54,0,9.41,3.24,9.73,8.65,.23,3.83-1.69,6.14-2.8,7.42h.17c11.26,0,18.73-11.72,13.9-21.9-5.13-10.82-13.88-19.58-24.69-24.72-10.2-4.85-21.97,2.65-21.97,13.95,0,.72-.28,1.41-.78,1.91-.05,.05-.11,.1-.17,.15-.08,.11-.16,.21-.24,.29-.46,.46-1.06,.65-1.72,.48-.12-.03-.25-.1-.39-.18-.44-.09-.84-.28-1.2-.57-.27-.23-.37-.31-1-.77-.92-.66-2.45-1.44-4.47-1.32-1.9,.11-3.21,1.05-3.97,1.81-.21,.21-.41,.44-.58,.67-1,1.33-1.55,2.94-1.55,4.55s.55,3.24,1.55,4.56c1.11,1.47,2.77,2.38,4.56,2.48,2.02,.12,3.55-.65,4.47-1.32,.61-.45,.72-.53,1-.77,.35-.29,.75-.48,1.18-.56,.14-.09,.28-.16,.41-.19,.78-.21,1.48,.11,1.94,.75,.61,.5,.97,1.25,.97,2.07v12.27c1.55,.26,3.05,.99,4.25,2.19s1.9,2.64,2.18,4.18h0Z"/><path class="f" d="M41.79,50.84h-12.36c1.11,1.28,3.03,3.58,2.8,7.42-.13,2.18-1.01,4.15-2.55,5.69-1.85,1.85-4.54,2.96-7.18,2.96h-.09c-4.51-.04-9.33-3.27-9.65-8.65-.23-3.83,1.69-6.14,2.8-7.42h-.17c-11.26,0-18.73,11.73-13.9,21.9,5.14,10.85,13.93,19.63,24.79,24.77,10.16,4.81,21.88-2.64,21.88-13.88h0v-.2c-1.28,1.11-3.58,3.03-7.42,2.8-5.42-.32-8.66-5.2-8.66-9.73,0-2.64,1.11-5.33,2.96-7.18,1.54-1.54,3.51-2.43,5.68-2.55,3.83-.23,6.14,1.69,7.42,2.8v-12.3c-1.53-.28-2.99-1-4.17-2.18-1.2-1.2-1.93-2.69-2.19-4.25h0Z"/><path class="d" d="M50.85,69.47c0,.72-.28,1.41-.78,1.91-.05,.05-.11,.1-.17,.15-.08,.11-.16,.21-.25,.3-.46,.46-1.06,.65-1.72,.48-.13-.03-.26-.1-.39-.19-.43-.09-.84-.28-1.2-.57-.27-.23-.37-.31-1-.76-.92-.66-2.45-1.44-4.47-1.32-1.9,.11-3.21,1.05-3.97,1.81-.21,.21-.41,.44-.58,.67-1,1.33-1.55,2.94-1.55,4.56s.55,3.24,1.55,4.55c1.11,1.47,2.77,2.38,4.56,2.48,2.02,.12,3.55-.65,4.47-1.32,.62-.46,.73-.53,1-.76,.35-.29,.75-.48,1.19-.56,.14-.09,.27-.16,.4-.19,.77-.21,1.47,.11,1.94,.75,.61,.5,.98,1.25,.98,2.08,0,11,11.32,18.41,21.38,13.94,4.7-2.09,9.61-5.05,14.05-9.24L54.04,55.98c-.97,.68-2.06,1.12-3.19,1.31v12.19Z"/><path class="e" d="M83.53,50.84c-.81,0-1.54-.35-2.05-.93-.66-.48-.99-1.18-.78-1.97,.03-.12,.1-.26,.19-.39,.09-.44,.28-.85,.57-1.2,.23-.27,.31-.37,.77-1,.66-.92,1.44-2.45,1.32-4.47-.11-1.78-1.01-3.45-2.48-4.55-1.33-1-2.94-1.55-4.57-1.55s-3.24,.55-4.56,1.55c-.24,.18-.46,.38-.67,.58-.76,.76-1.69,2.07-1.81,3.97-.12,2.02,.65,3.54,1.32,4.47,.45,.61,.53,.72,.77,1,.3,.36,.49,.77,.57,1.2,.09,.14,.15,.27,.19,.39,.18,.65-.02,1.26-.48,1.71-.08,.08-.18,.16-.28,.23-.05,.06-.11,.13-.17,.19-.51,.5-1.19,.78-1.91,.78h-12.19c-.19,1.13-.62,2.22-1.31,3.19l32.24,32.24c4.19-4.45,7.15-9.35,9.24-14.05,4.47-10.06-2.93-21.38-13.94-21.38h0Z"/><path class="b" d="M57.28,48.14c-.28-1.53-1-2.99-2.18-4.18-1.2-1.2-2.69-1.93-4.25-2.19-.89-.15-1.81-.15-2.7,0-1.53,.28-2.99,1-4.17,2.18-1.18,1.18-1.9,2.64-2.18,4.17-.16,.89-.16,1.81,0,2.7,.26,1.55,.99,3.05,2.19,4.25s2.64,1.9,4.17,2.18c.89,.16,1.81,.16,2.7,0,1.13-.19,2.22-.62,3.19-1.31,.38-.26,.73-.55,1.06-.88s.62-.69,.88-1.06c.68-.97,1.12-2.06,1.31-3.19,.15-.89,.15-1.8,0-2.7h0Z"/></svg>