<?xml version="1.0" encoding="UTF-8"?><svg xmlns="http://www.w3.org/2000/svg" viewBox="0 0 351.25 100"><defs><style>.d{fill:#fff;}.e{fill:#92c156;}.f{fill:#f34336;}.g{fill:#ff9d3b;}.h{fill:#333;}.i{fill:#008ebb;}.j{fill:#6f499b;}</style></defs><g id="a"/><g id="b"><g id="c"><g><g><path class="h" d="M136.64,64.76l-5,14.8h-13.62L139.78,15.47h17.41l22.7,64.09h-14.57l-5.27-14.8h-23.41Zm20.43-11.36c-4.55-13.53-7.45-22.17-9-27.93h-.09c-1.58,6.32-4.78,16.37-8.43,27.93h17.52Z"/><path class="h" d="M187.3,44.5c0-4.78-.01-9.03-.09-13.05h13.07c.17,1.08,.35,5.85,.35,8.45,2.12-5.5,7.25-9.52,15.44-9.56v12.71c-9.67-.25-15.44,2.35-15.44,15.54v20.98h-13.32V44.5Z"/><path class="h" d="M223.18,44.5c0-4.78-.01-9.03-.09-13.05h13.07c.17,1.08,.35,5.85,.35,8.45,2.12-5.5,7.25-9.52,15.44-9.56v12.71c-9.67-.25-15.44,2.35-15.44,15.54v20.98h-13.32V44.5Z"/><path class="h" d="M298.13,67.13c0,4.58,.37,11.27,.65,12.43h-12.73c-.37-.95-.65-3.49-.67-4.7-1.74,2.7-5.02,5.82-13.53,5.82-11.6,0-16.5-7.63-16.5-15.09,0-10.96,8.8-16.02,22.91-16.02h6.87v-2.94c0-3.42-1.23-6.78-7.41-6.78-5.62,0-6.86,2.39-7.47,5.87h-12.67c.72-8.55,6.01-15.47,20.64-15.39,12.89,.08,19.9,5.12,19.9,16.57v20.23Zm-12.98-9.47h-5.43c-8.03,0-11,2.45-11,7.09,0,3.48,2.14,6.42,6.93,6.42,8.46,0,9.51-5.89,9.51-12.24v-1.26Z"/><path class="h" d="M318.22,31.44c4.97,16.6,9.31,31.42,10.07,35.86h.09c1.04-4.85,3.86-15.64,9.6-35.86h13.26l-16.17,49.5c-4.6,13.84-8.44,17.97-19.99,17.97-1.18,0-3.93-.09-6.24-.36v-10.7c.9,.1,2.37,.2,3.45,.2,4.89,0,7.36-1.7,9.16-7.02l-17.51-49.59h14.28Z"/></g><g><path class="j" d="M48.63,42.22v-12.29c0-.07,0-.14,0-.2-1.29,1.12-3.62,3.06-7.49,2.83-5.47-.32-8.74-5.25-8.74-9.83,0-2.67,1.12-5.38,2.99-7.25,1.56-1.56,3.55-2.45,5.75-2.58,3.87-.23,6.2,1.71,7.49,2.83,0-.05,0-.11,0-.17h0c0-11.37-11.84-18.91-22.12-14.04-5.48,2.59-10.43,6.11-14.66,10.34-4.22,4.22-7.72,9.15-10.31,14.59-4.9,10.3,2.68,22.19,14.09,22.19h0c.82,0,1.56,.35,2.07,.95,.67,.48,1,1.19,.79,2-.03,.13-.1,.26-.19,.4-.09,.44-.28,.85-.58,1.2-.23,.27-.31,.37-.77,1.01-.67,.93-1.45,2.47-1.33,4.51,.11,1.8,1.02,3.48,2.5,4.6,1.34,1.01,2.97,1.57,4.6,1.57,1.63,0,3.27-.56,4.61-1.57,.24-.18,.46-.38,.68-.59,.77-.77,1.71-2.09,1.83-4.01,.12-2.04-.66-3.58-1.33-4.51-.46-.63-.54-.74-.77-1.01-.3-.36-.49-.77-.58-1.21-.09-.14-.15-.27-.19-.39-.18-.66,.02-1.27,.48-1.72,.08-.08,.17-.16,.27-.23,.06-.07,.12-.13,.18-.2,.51-.51,1.2-.79,1.93-.79h12.4c.28-1.54,1.01-3.02,2.2-4.22,1.19-1.19,2.67-1.92,4.21-2.2Z"/><path class="e" d="M57.86,48.63h12.21c.07,0,.14,0,.2,0-1.12-1.29-3.06-3.62-2.83-7.49,.13-2.2,1.02-4.19,2.58-5.74,1.87-1.87,4.59-2.99,7.25-2.99,4.58,0,9.5,3.27,9.83,8.74,.23,3.87-1.71,6.2-2.83,7.49,.05,0,.11,0,.17,0h0c11.37,0,18.91-11.84,14.04-22.12-5.18-10.93-14.02-19.78-24.93-24.97-10.3-4.9-22.19,2.68-22.19,14.09,0,.73-.28,1.42-.79,1.93-.05,.05-.11,.1-.17,.15-.08,.11-.16,.21-.24,.29-.46,.46-1.07,.66-1.74,.48-.12-.03-.25-.1-.39-.18-.44-.09-.85-.28-1.21-.58-.27-.23-.37-.31-1.01-.78-.93-.67-2.47-1.45-4.51-1.33-1.92,.11-3.24,1.06-4.01,1.83-.21,.21-.41,.44-.59,.68-1.01,1.34-1.57,2.97-1.57,4.6,0,1.63,.56,3.27,1.57,4.61,1.12,1.48,2.8,2.4,4.6,2.5,2.04,.12,3.58-.66,4.51-1.33,.62-.45,.73-.54,1.01-.78,.35-.29,.76-.48,1.19-.57,.14-.09,.28-.16,.41-.19,.79-.21,1.49,.11,1.96,.76,.62,.51,.98,1.26,.98,2.09v12.39c1.57,.26,3.08,1,4.29,2.21,1.19,1.19,1.92,2.67,2.2,4.22Z"/><path class="i" d="M42.21,51.36h-12.28c-.07,0-.14,0-.2,0,1.12,1.29,3.06,3.62,2.83,7.49-.13,2.2-1.02,4.19-2.58,5.75-1.87,1.87-4.58,2.99-7.25,2.99-.03,0-.06,0-.09,0-4.55-.04-9.42-3.3-9.74-8.74-.23-3.87,1.71-6.2,2.83-7.49-.05,0-.11,0-.17,0h0c-11.37,0-18.91,11.85-14.04,22.12,5.19,10.96,14.07,19.83,25.03,25.02,10.26,4.86,22.09-2.67,22.09-14.02h0c0-.07,0-.14,0-.2-1.29,1.12-3.62,3.06-7.49,2.83-5.47-.32-8.74-5.25-8.74-9.83,0-2.67,1.12-5.38,2.99-7.25,1.56-1.56,3.54-2.45,5.74-2.58,3.87-.23,6.2,1.71,7.49,2.83,0-.05,0-.11,0-.17v-12.25c-1.54-.28-3.02-1.01-4.21-2.2-1.21-1.21-1.95-2.72-2.21-4.29Z"/><path class="f" d="M51.36,70.18c0,.73-.28,1.42-.79,1.93-.05,.05-.11,.1-.17,.15-.08,.11-.16,.21-.25,.3-.46,.46-1.07,.66-1.74,.48-.13-.03-.26-.1-.39-.19-.43-.09-.85-.28-1.21-.58-.27-.23-.37-.31-1.01-.77-.93-.67-2.47-1.45-4.51-1.33-1.92,.11-3.24,1.06-4.01,1.83-.21,.21-.41,.44-.59,.68-1.01,1.34-1.57,2.97-1.57,4.61,0,1.63,.56,3.27,1.57,4.6,1.12,1.48,2.8,2.4,4.6,2.5,2.04,.12,3.58-.66,4.51-1.33,.63-.46,.74-.54,1.01-.77,.35-.29,.76-.48,1.2-.57,.14-.09,.27-.16,.4-.19,.78-.21,1.48,.11,1.96,.76,.62,.51,.99,1.26,.99,2.1,0,11.11,11.43,18.59,21.59,14.08,4.75-2.11,9.7-5.1,14.19-9.33L54.58,56.55c-.98,.69-2.08,1.13-3.22,1.32v12.31Z"/><path class="g" d="M84.36,51.36c-.82,0-1.56-.35-2.07-.94-.67-.48-1-1.19-.79-1.99,.03-.12,.1-.26,.19-.39,.09-.44,.28-.86,.58-1.21,.23-.27,.31-.37,.78-1.01,.67-.93,1.45-2.47,1.33-4.51-.11-1.8-1.02-3.48-2.5-4.6-1.34-1.01-2.97-1.57-4.61-1.57s-3.27,.56-4.6,1.57c-.24,.18-.46,.38-.68,.59-.77,.77-1.71,2.09-1.83,4.01-.12,2.04,.66,3.58,1.33,4.51,.45,.62,.54,.73,.78,1.01,.3,.36,.49,.78,.58,1.21,.09,.14,.15,.27,.19,.39,.18,.66-.02,1.27-.48,1.73-.08,.08-.18,.16-.28,.23-.05,.06-.11,.13-.17,.19-.51,.51-1.2,.79-1.93,.79h-12.31c-.19,1.14-.63,2.24-1.32,3.22l32.56,32.56c4.23-4.49,7.22-9.44,9.33-14.19,4.51-10.16-2.96-21.59-14.08-21.59Z"/><path class="d" d="M57.86,48.63c-.28-1.55-1.01-3.02-2.2-4.22-1.21-1.21-2.72-1.95-4.29-2.21-.9-.15-1.83-.15-2.73,.01-1.54,.28-3.02,1.01-4.21,2.2-1.19,1.19-1.92,2.67-2.2,4.21-.16,.9-.16,1.83-.01,2.73,.26,1.57,1,3.08,2.21,4.29,1.19,1.19,2.67,1.92,4.21,2.2,.9,.16,1.83,.16,2.73,.01,1.14-.19,2.24-.63,3.22-1.32,.38-.26,.74-.56,1.07-.89,.34-.34,.63-.7,.89-1.07,.69-.98,1.13-2.08,1.32-3.22,.15-.9,.15-1.82-.01-2.73Z"/></g></g></g></g></svg>