<?xml version="1.0" encoding="UTF-8"?><svg xmlns="http://www.w3.org/2000/svg" viewBox="0 0 20 12.01"><defs><style>.d{fill:#606060;}</style></defs><g id="a"/><g id="b"><g id="c"><path class="d" d="M10.01,7.17c.54-.54,1.06-1.07,1.59-1.6,1.64-1.64,3.29-3.29,4.93-4.93,.98-.98,2.54-.79,3.21,.38,.42,.75,.33,1.68-.25,2.32-.1,.11-.21,.21-.31,.32-2.55,2.55-5.09,5.09-7.64,7.64-.96,.96-2.12,.96-3.08,0C5.84,8.68,3.23,6.07,.62,3.45-.47,2.36-.06,.58,1.38,.11,2.08-.12,2.72,.01,3.3,.48c.09,.07,.17,.16,.26,.24,2.09,2.09,4.19,4.19,6.28,6.28,.05,.05,.1,.1,.18,.17Z"/></g></g></svg>