<?xml version="1.0" encoding="UTF-8"?><svg xmlns="http://www.w3.org/2000/svg" viewBox="0 0 672.14 78.21"><defs><style>.d{fill:none;stroke:#606060;stroke-miterlimit:10;stroke-width:4px;}.e{fill:#008ebb;}.f{fill:#606060;}.g{fill:#6f499b;}</style></defs><g id="a"/><g id="b"><g id="c"><g><g><path class="e" d="M0,67.48c0-4.32,2.63-6.91,5.98-6.91,1.66,0,2.95,.79,3.76,1.67l-1.13,1.33c-.68-.7-1.51-1.19-2.59-1.19-2.29,0-3.87,1.91-3.87,5.02s1.48,5.08,3.82,5.08c1.22,0,2.14-.54,2.93-1.4l1.12,1.31c-1.06,1.22-2.41,1.91-4.12,1.91-3.33,0-5.89-2.48-5.89-6.82Z"/><path class="e" d="M11.47,69.12c0-3.3,2.21-5.2,4.66-5.2s4.66,1.91,4.66,5.2-2.21,5.19-4.66,5.19-4.66-1.89-4.66-5.19Zm7.2,0c0-2.09-.97-3.49-2.54-3.49s-2.52,1.4-2.52,3.49,.97,3.49,2.52,3.49,2.54-1.39,2.54-3.49Z"/><path class="e" d="M23.22,64.17h1.69l.16,1.39h.05c.85-.9,1.84-1.64,3.06-1.64,1.48,0,2.3,.68,2.74,1.82,.97-1.04,1.98-1.82,3.22-1.82,2.07,0,3.04,1.4,3.04,3.92v6.23h-2.07v-5.98c0-1.71-.54-2.4-1.66-2.4-.68,0-1.4,.45-2.23,1.35v7.02h-2.07v-5.98c0-1.71-.52-2.4-1.66-2.4-.67,0-1.4,.45-2.21,1.35v7.02h-2.07v-9.9Z"/><path class="e" d="M40.18,64.17h1.69l.16,1.08h.05c.86-.72,1.94-1.33,3.06-1.33,2.5,0,3.91,2,3.91,5.04,0,3.4-2.03,5.35-4.27,5.35-.88,0-1.76-.4-2.61-1.12l.07,1.69v3.2h-2.07v-13.92Zm6.73,4.83c0-2.07-.67-3.35-2.32-3.35-.77,0-1.51,.4-2.34,1.21v4.84c.77,.67,1.53,.9,2.14,.9,1.44,0,2.52-1.28,2.52-3.6Z"/><path class="e" d="M50.67,71.44c0-2.12,1.8-3.22,5.92-3.67-.02-1.15-.43-2.16-1.89-2.16-1.04,0-2.02,.47-2.86,1.01l-.77-1.4c1.03-.65,2.41-1.3,4-1.3,2.47,0,3.6,1.57,3.6,4.2v5.96h-1.69l-.16-1.13h-.07c-.9,.77-1.96,1.37-3.15,1.37-1.71,0-2.92-1.12-2.92-2.86Zm5.92,.07v-2.43c-2.93,.34-3.93,1.1-3.93,2.21,0,.97,.67,1.37,1.55,1.37s1.57-.41,2.38-1.15Z"/><path class="e" d="M61.6,64.17h1.69l.16,1.37h.05c.92-.88,1.93-1.62,3.28-1.62,2.11,0,3.04,1.4,3.04,3.92v6.23h-2.07v-5.98c0-1.71-.5-2.4-1.67-2.4-.92,0-1.55,.47-2.41,1.35v7.02h-2.07v-9.9Z"/><path class="e" d="M72.04,78.02l.4-1.62c.18,.05,.47,.14,.72,.14,1.08,0,1.71-.79,2.07-1.85l.2-.68-3.93-9.83h2.12l1.84,5.1c.29,.88,.59,1.87,.9,2.79h.09c.25-.9,.52-1.89,.77-2.79l1.58-5.1h2.02l-3.64,10.5c-.77,2.12-1.82,3.55-3.91,3.55-.5,0-.9-.07-1.24-.2Z"/><path class="e" d="M86.85,60.8h2.09v13.27h-2.09v-13.27Z"/><path class="e" d="M92.23,64.17h1.69l.16,1.37h.05c.92-.88,1.93-1.62,3.28-1.62,2.11,0,3.04,1.4,3.04,3.92v6.23h-2.07v-5.98c0-1.71-.5-2.4-1.67-2.4-.92,0-1.55,.47-2.41,1.35v7.02h-2.07v-9.9Z"/><path class="e" d="M103.8,65.83h-1.35v-1.55l1.35-.11v-1.24c0-2.03,.92-3.44,3.13-3.44,.67,0,1.3,.14,1.75,.32l-.41,1.57c-.36-.16-.74-.25-1.08-.25-.88,0-1.31,.58-1.31,1.78v1.26h2v1.66h-2v8.25h-2.07v-8.25Z"/><path class="e" d="M108.77,69.12c0-3.3,2.21-5.2,4.66-5.2s4.66,1.91,4.66,5.2-2.21,5.19-4.66,5.19-4.66-1.89-4.66-5.19Zm7.2,0c0-2.09-.97-3.49-2.54-3.49s-2.52,1.4-2.52,3.49,.97,3.49,2.52,3.49,2.54-1.39,2.54-3.49Z"/></g><g><path class="g" d="M172.4,60.8h2.09v11.51h5.62v1.76h-7.71v-13.27Z"/><path class="g" d="M181.31,69.12c0-3.3,2.21-5.2,4.66-5.2s4.66,1.91,4.66,5.2-2.21,5.19-4.66,5.19-4.66-1.89-4.66-5.19Zm7.2,0c0-2.09-.97-3.49-2.54-3.49s-2.52,1.4-2.52,3.49,.97,3.49,2.52,3.49,2.54-1.39,2.54-3.49Z"/><path class="g" d="M192.36,69.12c0-3.3,2.29-5.2,4.9-5.2,1.26,0,2.18,.5,2.9,1.13l-1.03,1.35c-.54-.49-1.1-.77-1.76-.77-1.67,0-2.86,1.4-2.86,3.49s1.15,3.49,2.79,3.49c.83,0,1.57-.4,2.16-.9l.86,1.37c-.92,.81-2.09,1.22-3.22,1.22-2.68,0-4.74-1.89-4.74-5.19Z"/><path class="g" d="M201.59,71.44c0-2.12,1.8-3.22,5.92-3.67-.02-1.15-.43-2.16-1.89-2.16-1.04,0-2.02,.47-2.86,1.01l-.77-1.4c1.03-.65,2.41-1.3,4-1.3,2.47,0,3.6,1.57,3.6,4.2v5.96h-1.69l-.16-1.13h-.07c-.9,.77-1.96,1.37-3.15,1.37-1.71,0-2.92-1.12-2.92-2.86Zm5.92,.07v-2.43c-2.93,.34-3.92,1.1-3.92,2.21,0,.97,.67,1.37,1.55,1.37s1.57-.41,2.38-1.15Z"/><path class="g" d="M212.54,70.83v-5.01h-1.44v-1.55l1.55-.11,.23-2.74h1.73v2.74h2.57v1.66h-2.57v5.02c0,1.19,.41,1.8,1.44,1.8,.34,0,.77-.11,1.06-.23l.38,1.53c-.56,.18-1.22,.36-1.94,.36-2.23,0-3.01-1.39-3.01-3.48Z"/><path class="g" d="M219.09,61.07c0-.74,.52-1.22,1.28-1.22s1.3,.49,1.3,1.22-.54,1.24-1.3,1.24-1.28-.49-1.28-1.24Zm.25,3.1h2.07v9.9h-2.07v-9.9Z"/><path class="g" d="M223.8,69.12c0-3.3,2.21-5.2,4.66-5.2s4.66,1.91,4.66,5.2-2.21,5.19-4.66,5.19-4.66-1.89-4.66-5.19Zm7.2,0c0-2.09-.97-3.49-2.54-3.49s-2.52,1.4-2.52,3.49,.97,3.49,2.52,3.49,2.54-1.39,2.54-3.49Z"/><path class="g" d="M235.56,64.17h1.69l.16,1.37h.05c.92-.88,1.93-1.62,3.28-1.62,2.11,0,3.04,1.4,3.04,3.92v6.23h-2.07v-5.98c0-1.71-.5-2.4-1.67-2.4-.92,0-1.55,.47-2.41,1.35v7.02h-2.07v-9.9Z"/></g><g><path class="g" d="M318.91,60.8h3.44c4.07,0,6.39,2.27,6.39,6.59s-2.32,6.68-6.28,6.68h-3.55v-13.27Zm3.29,11.56c2.84,0,4.38-1.67,4.38-4.97s-1.53-4.88-4.38-4.88h-1.21v9.85h1.21Z"/><path class="g" d="M331.06,61.07c0-.74,.52-1.22,1.28-1.22s1.3,.49,1.3,1.22-.54,1.24-1.3,1.24-1.28-.49-1.28-1.24Zm.25,3.1h2.07v9.9h-2.07v-9.9Z"/><path class="g" d="M335.15,64.17h2.12l1.69,5.33c.29,.97,.58,1.98,.86,2.95h.07c.29-.97,.59-1.98,.86-2.95l1.69-5.33h2.02l-3.42,9.9h-2.39l-3.51-9.9Z"/><path class="g" d="M346.04,61.07c0-.74,.52-1.22,1.28-1.22s1.3,.49,1.3,1.22-.54,1.24-1.3,1.24-1.28-.49-1.28-1.24Zm.25,3.1h2.07v9.9h-2.07v-9.9Z"/><path class="g" d="M350.41,72.94l.97-1.33c.88,.68,1.75,1.13,2.81,1.13,1.19,0,1.75-.58,1.75-1.33,0-.9-1.12-1.3-2.18-1.71-1.33-.5-2.79-1.21-2.79-2.88s1.33-2.9,3.53-2.9c1.31,0,2.41,.54,3.21,1.17l-.97,1.28c-.68-.5-1.39-.86-2.2-.86-1.1,0-1.6,.54-1.6,1.22,0,.85,.97,1.17,2.05,1.57,1.39,.52,2.92,1.13,2.92,3.01,0,1.66-1.31,3.01-3.76,3.01-1.37,0-2.75-.58-3.73-1.37Z"/><path class="g" d="M359.84,61.07c0-.74,.52-1.22,1.28-1.22s1.3,.49,1.3,1.22-.54,1.24-1.3,1.24-1.28-.49-1.28-1.24Zm.25,3.1h2.07v9.9h-2.07v-9.9Z"/><path class="g" d="M364.56,69.12c0-3.3,2.21-5.2,4.66-5.2s4.66,1.91,4.66,5.2-2.21,5.19-4.66,5.19-4.66-1.89-4.66-5.19Zm7.2,0c0-2.09-.97-3.49-2.54-3.49s-2.52,1.4-2.52,3.49,.97,3.49,2.52,3.49,2.54-1.39,2.54-3.49Z"/><path class="g" d="M376.31,64.17h1.69l.16,1.37h.05c.92-.88,1.93-1.62,3.28-1.62,2.11,0,3.04,1.4,3.04,3.92v6.23h-2.07v-5.98c0-1.71-.5-2.4-1.67-2.4-.92,0-1.55,.47-2.41,1.35v7.02h-2.07v-9.9Z"/></g><g><path class="g" d="M447.54,60.8h3.44c4.07,0,6.39,2.27,6.39,6.59s-2.32,6.68-6.28,6.68h-3.55v-13.27Zm3.29,11.56c2.84,0,4.38-1.67,4.38-4.97s-1.53-4.88-4.38-4.88h-1.21v9.85h1.21Z"/><path class="g" d="M459.24,69.12c0-3.21,2.21-5.2,4.52-5.2,2.63,0,4.05,1.89,4.05,4.68,0,.41-.05,.81-.11,1.06h-6.43c.16,1.89,1.35,3.02,3.06,3.02,.88,0,1.64-.27,2.36-.74l.72,1.31c-.92,.61-2.05,1.04-3.35,1.04-2.68,0-4.83-1.91-4.83-5.19Zm6.77-.9c0-1.69-.77-2.68-2.21-2.68-1.24,0-2.34,.95-2.54,2.68h4.75Z"/><path class="g" d="M470.12,64.17h1.69l.16,1.08h.05c.86-.72,1.94-1.33,3.06-1.33,2.5,0,3.91,2,3.91,5.04,0,3.4-2.03,5.35-4.27,5.35-.88,0-1.76-.4-2.61-1.12l.07,1.69v3.2h-2.07v-13.92Zm6.73,4.83c0-2.07-.67-3.35-2.32-3.35-.77,0-1.51,.4-2.34,1.21v4.84c.77,.67,1.53,.9,2.14,.9,1.44,0,2.52-1.28,2.52-3.6Z"/><path class="g" d="M480.61,71.44c0-2.12,1.8-3.22,5.92-3.67-.02-1.15-.43-2.16-1.89-2.16-1.04,0-2.02,.47-2.86,1.01l-.77-1.4c1.03-.65,2.41-1.3,4-1.3,2.47,0,3.6,1.57,3.6,4.2v5.96h-1.69l-.16-1.13h-.07c-.9,.77-1.96,1.37-3.15,1.37-1.71,0-2.92-1.12-2.92-2.86Zm5.92,.07v-2.43c-2.93,.34-3.93,1.1-3.93,2.21,0,.97,.67,1.37,1.55,1.37s1.57-.41,2.38-1.15Z"/><path class="g" d="M491.54,64.17h1.69l.16,1.78h.05c.7-1.28,1.75-2.03,2.81-2.03,.49,0,.81,.07,1.12,.22l-.38,1.8c-.34-.11-.59-.16-.99-.16-.81,0-1.78,.56-2.4,2.12v6.18h-2.07v-9.9Z"/><path class="g" d="M499.22,70.83v-5.01h-1.44v-1.55l1.55-.11,.23-2.74h1.73v2.74h2.57v1.66h-2.57v5.02c0,1.19,.41,1.8,1.44,1.8,.34,0,.77-.11,1.06-.23l.38,1.53c-.56,.18-1.22,.36-1.94,.36-2.23,0-3.01-1.39-3.01-3.48Z"/><path class="g" d="M506.03,64.17h1.69l.16,1.39h.05c.85-.9,1.84-1.64,3.06-1.64,1.48,0,2.3,.68,2.74,1.82,.97-1.04,1.98-1.82,3.22-1.82,2.07,0,3.04,1.4,3.04,3.92v6.23h-2.07v-5.98c0-1.71-.54-2.4-1.66-2.4-.68,0-1.4,.45-2.23,1.35v7.02h-2.07v-5.98c0-1.71-.52-2.4-1.66-2.4-.67,0-1.4,.45-2.21,1.35v7.02h-2.07v-9.9Z"/><path class="g" d="M522.28,69.12c0-3.21,2.21-5.2,4.52-5.2,2.63,0,4.05,1.89,4.05,4.68,0,.41-.05,.81-.11,1.06h-6.43c.16,1.89,1.35,3.02,3.06,3.02,.88,0,1.64-.27,2.36-.74l.72,1.31c-.92,.61-2.05,1.04-3.35,1.04-2.68,0-4.83-1.91-4.83-5.19Zm6.77-.9c0-1.69-.77-2.68-2.21-2.68-1.24,0-2.34,.95-2.54,2.68h4.75Z"/><path class="g" d="M533.15,64.17h1.69l.16,1.37h.05c.92-.88,1.93-1.62,3.28-1.62,2.11,0,3.04,1.4,3.04,3.92v6.23h-2.07v-5.98c0-1.71-.5-2.4-1.67-2.4-.92,0-1.55,.47-2.41,1.35v7.02h-2.07v-9.9Z"/><path class="g" d="M544.71,70.83v-5.01h-1.44v-1.55l1.55-.11,.23-2.74h1.73v2.74h2.57v1.66h-2.57v5.02c0,1.19,.41,1.8,1.44,1.8,.34,0,.77-.11,1.06-.23l.38,1.53c-.56,.18-1.22,.36-1.94,.36-2.23,0-3.01-1.39-3.01-3.48Z"/></g><g><path class="g" d="M621.79,62.57h-3.89v-1.76h9.89v1.76h-3.91v11.51h-2.09v-11.51Z"/><path class="g" d="M627.78,69.12c0-3.21,2.21-5.2,4.52-5.2,2.63,0,4.05,1.89,4.05,4.68,0,.41-.05,.81-.11,1.06h-6.43c.16,1.89,1.35,3.02,3.06,3.02,.88,0,1.64-.27,2.36-.74l.72,1.31c-.92,.61-2.05,1.04-3.35,1.04-2.68,0-4.83-1.91-4.83-5.19Zm6.77-.9c0-1.69-.77-2.68-2.21-2.68-1.24,0-2.34,.95-2.54,2.68h4.75Z"/><path class="g" d="M637.81,71.44c0-2.12,1.8-3.22,5.92-3.67-.02-1.15-.43-2.16-1.89-2.16-1.04,0-2.02,.47-2.86,1.01l-.77-1.4c1.03-.65,2.41-1.3,4-1.3,2.47,0,3.6,1.57,3.6,4.2v5.96h-1.69l-.16-1.13h-.07c-.9,.77-1.96,1.37-3.15,1.37-1.71,0-2.92-1.12-2.92-2.86Zm5.92,.07v-2.43c-2.93,.34-3.93,1.1-3.93,2.21,0,.97,.67,1.37,1.55,1.37s1.57-.41,2.38-1.15Z"/><path class="g" d="M648.73,64.17h1.69l.16,1.39h.05c.85-.9,1.84-1.64,3.06-1.64,1.48,0,2.3,.68,2.74,1.82,.97-1.04,1.98-1.82,3.22-1.82,2.07,0,3.04,1.4,3.04,3.92v6.23h-2.07v-5.98c0-1.71-.54-2.4-1.66-2.4-.68,0-1.4,.45-2.23,1.35v7.02h-2.07v-5.98c0-1.71-.52-2.4-1.66-2.4-.67,0-1.4,.45-2.21,1.35v7.02h-2.07v-9.9Z"/><path class="g" d="M664.65,72.94l.97-1.33c.88,.68,1.75,1.13,2.81,1.13,1.19,0,1.75-.58,1.75-1.33,0-.9-1.12-1.3-2.18-1.71-1.33-.5-2.79-1.21-2.79-2.88s1.33-2.9,3.53-2.9c1.31,0,2.41,.54,3.2,1.17l-.97,1.28c-.68-.5-1.39-.86-2.2-.86-1.1,0-1.6,.54-1.6,1.22,0,.85,.97,1.17,2.05,1.57,1.39,.52,2.92,1.13,2.92,3.01,0,1.66-1.31,3.01-3.76,3.01-1.37,0-2.75-.58-3.73-1.37Z"/></g><circle class="e" cx="58.97" cy="20" r="20"/><path class="f" d="M205.27,4c8.82,0,16,7.18,16,16s-7.18,16-16,16-16-7.18-16-16,7.18-16,16-16M205.27,0C194.22,0,185.27,8.95,185.27,20s8.95,20,20,20,20-8.95,20-20S216.32,0,205.27,0h0Z"/><path class="f" d="M351.57,4c8.82,0,16,7.18,16,16s-7.18,16-16,16-16-7.18-16-16,7.18-16,16-16M351.57,0C340.52,0,331.57,8.95,331.57,20s8.95,20,20,20,20-8.95,20-20S362.62,0,351.57,0h0Z"/><path class="f" d="M497.87,4c8.82,0,16,7.18,16,16s-7.18,16-16,16-16-7.18-16-16,7.18-16,16-16M497.87,0C486.82,0,477.87,8.95,477.87,20s8.95,20,20,20,20-8.95,20-20S508.92,0,497.87,0h0Z"/><path class="f" d="M645.05,4c8.82,0,16,7.18,16,16s-7.18,16-16,16-16-7.18-16-16,7.18-16,16-16M645.05,0c-11.05,0-20,8.95-20,20s8.95,20,20,20,20-8.95,20-20S656.1,0,645.05,0h0Z"/><line class="d" x1="83.97" y1="20" x2="181.15" y2="20"/><line class="d" x1="229.83" y1="20" x2="327.01" y2="20"/><line class="d" x1="376.57" y1="20" x2="473.75" y2="20"/><line class="d" x1="522.87" y1="20" x2="620.05" y2="20"/></g></g></g></svg>