<?xml version="1.0" encoding="UTF-8"?><svg xmlns="http://www.w3.org/2000/svg" viewBox="0 0 70 50"><defs><style>.d{fill:#fff;}</style></defs><g id="a"/><g id="b"><g id="c"><g><path class="d" d="M35.03,10c-9.89,0-19.79,0-29.68,0-.65,0-1.3-.05-1.92-.26C1.2,8.99-.18,6.87,.03,4.49,.22,2.27,2.01,.39,4.26,.05c.31-.05,.62-.05,.94-.05C25.07,0,44.93,0,64.8,0c1.99,0,3.54,.81,4.54,2.53,1.76,3.02-.13,6.91-3.58,7.41-.37,.05-.75,.06-1.13,.06-9.87,0-19.74,0-29.6,0Z"/><path class="d" d="M35.02,20c9.89,0,19.79,0,29.68,0,.8,0,1.58,.1,2.32,.43,2.03,.9,3.25,3.07,2.93,5.32-.3,2.09-2.03,3.86-4.17,4.19-.33,.05-.67,.06-1.01,.06-19.84,0-39.68,0-59.52,0-1.71,0-3.13-.59-4.19-1.95-2.34-3-.53-7.48,3.23-8,.36-.05,.73-.05,1.09-.05,9.88,0,19.76,0,29.64,0Z"/><path class="d" d="M35.02,40c9.89,0,19.79,0,29.68,0,.8,0,1.58,.1,2.32,.43,2.03,.9,3.24,3.07,2.92,5.32-.3,2.09-2.03,3.86-4.17,4.19-.32,.05-.65,.06-.97,.06-19.87,0-39.73,0-59.6,0-1.97,0-3.51-.8-4.52-2.5-1.79-3.03,.13-6.97,3.61-7.45,.36-.05,.73-.05,1.09-.05,9.88,0,19.76,0,29.64,0Z"/></g></g></g></svg>