<?xml version="1.0" encoding="UTF-8"?><svg xmlns="http://www.w3.org/2000/svg" viewBox="0 0 50 50"><defs><style>.d{fill:#606060;}</style></defs><g id="a"/><g id="b"><g id="c"><g><path class="d" d="M43.84,0c.41,.1,.82,.18,1.22,.3,2.86,.86,4.89,3.52,4.92,6.51,.02,1.41,0,2.83,0,4.31h-.65c-16.24,0-32.47,0-48.71,0-.21,0-.42,0-.63,.01V6.15c.03-.11,.07-.21,.09-.32C.54,3.4,1.88,1.65,4.12,.62,4.75,.33,5.47,.2,6.15,0,18.72,0,31.28,0,43.84,0Z"/><path class="d" d="M0,38.86c4.64,0,9.28,0,13.91,.01,.19,0,.39,0,.62,0v11.12h-.49c-2.29,0-4.59,0-6.88,0-3.67,0-6.41-2.3-7.08-5.92-.01-.08-.05-.15-.08-.23v-4.98Z"/><path class="d" d="M0,13.87c4.65,0,9.3,0,13.95,.01,.19,0,.38,0,.6,0v9.74h-.6c-4.45,0-8.91,0-13.36,0-.19,0-.39,0-.58,.01V13.87Z"/><path class="d" d="M0,26.36c4.65,0,9.3,0,13.95,.01,.19,0,.38,0,.6,0v9.74h-.6c-4.45,0-8.91,0-13.36,0-.19,0-.39,0-.58,.01v-9.76Z"/><path class="d" d="M32.6,49.98h-15.2v-11.08h15.2v11.08Z"/><path class="d" d="M35.45,49.98v-11.07h14.55c0,.69,.02,1.37,0,2.04-.04,1.22,.03,2.46-.21,3.64-.62,3.13-3.43,5.37-6.61,5.4-2.46,.02-4.91,0-7.37,0-.11,0-.22,0-.36-.02Z"/><path class="d" d="M32.61,13.91v9.67h-15.2V13.91h15.2Z"/><path class="d" d="M17.4,26.4h15.2v9.68h-15.2v-9.68Z"/><path class="d" d="M35.45,13.91h14.52v9.68h-14.52V13.91Z"/><path class="d" d="M35.44,36.08v-9.66h14.51v9.66h-14.51Z"/></g></g></g></svg>