<?xml version="1.0" encoding="UTF-8"?><svg xmlns="http://www.w3.org/2000/svg" viewBox="0 0 315.35 120"><defs><style>.d{fill:#fff;}.e{fill:#f69f21;}.f{fill:#00889c;}</style></defs><g id="a"/><g id="b"><g id="c"><g><path class="e" d="M0,56.14H0c0-11.49,6.64-21.41,16.29-26.2l2.63-1.15c3.22-1.22,6.69-1.91,10.34-1.91h6.45c-3.64,4.49-4.55,9.32-2.95,13.18l4.33,10.42c-1.62-3.91-.68-8.83,3.1-13.37,6.4-7.7,18.53-11.43,27.1-8.31,3.51,1.28,5.88,3.51,7,6.23l-3.38-8.14h17.72l-2.85,1.7c-.9,2.81-1.34,4.24-2.23,7.04l3.14,7.57-4.72,5.69-9.16-.32c-3.11,2.01-4.68,3.01-7.79,5.02l-1.89,7.45q-5.69,1.75-11.38,3.49h0l-4.48-5.5c-3.5,.03-5.28,.04-8.77,.05l-7.99,5.58-2.21-.8-4.15-10c-1.86-1.96-2.79-2.96-4.63-4.93l-9.41,.44,4.33,10.42,9.41-.44c1.66,1.77,2.59,2.77,4.12,4.39l-6.65-2.42,4.33,10.42,9.2,3.35,7.99-5.58c3.49-.02,5.27-.03,8.77-.05h0l4.48,5.5q5.68-1.74,11.38-3.49l1.89-7.45c3.11-2.01,4.68-3.01,7.79-5.02h0l9.16,.32,6.89-8.3-3.9-9.4c.25-.77,.51-1.59,.82-2.59l8.49-5.05c-.73-3.68-.82-4.08-1.42-7.07h188.91c16.16,0,29.26,13.1,29.26,29.26h0v8.51c0,16.16-13.1,29.26-29.26,29.26H29.26c-16.16,0-29.26-13.1-29.26-29.26"/><g><path class="d" d="M112.68,51.84h-10.48v-7.93h30.34v7.93h-10.48v25.06h-9.38v-25.06Z"/><path class="d" d="M135.42,43.91h21.5v7.93h-12.12v4.19h10.25v7.47h-10.25v5.47h12.66v7.93h-22.05V43.91Z"/><path class="d" d="M188.59,75.43c-2.92,1.37-6.42,1.96-9.57,1.96-11.07,0-18.5-7.38-18.5-16.95s7.7-17.04,18.5-17.04c3.28,0,6.47,.68,9.11,1.87v9.2c-2.41-1.5-5.69-2.73-8.93-2.73-5.56,0-9.29,3.6-9.29,8.61s3.46,8.7,9.48,8.7c3.24,0,6.42-1.14,9.2-2.87v9.25Z"/><path class="d" d="M192.74,43.91h9.38v11.89h11.75v-11.89h9.38v32.98h-9.38v-13.17h-11.75v13.17h-9.38V43.91Z"/><path class="d" d="M236.61,51.84h-10.48v-7.93h30.34v7.93h-10.48v25.06h-9.38v-25.06Z"/><path class="d" d="M256.44,43.91h10.07l4.56,12.89c.96,2.73,1.87,5.38,2.73,8.02h.09c.91-2.69,1.91-5.51,2.87-8.11l4.69-12.8h9.66l-12.62,32.98h-9.43l-12.62-32.98Z"/></g><g><path class="f" d="M64.73,106.43l-2.37,13.44h-3.27l2.37-13.44h3.28Z"/><path class="f" d="M80.58,119.87h-3.27l-4-8.29-1.47,8.29h-3.27l2.37-13.44h3.28l4,8.33,1.47-8.33h3.27l-2.37,13.44Z"/><path class="f" d="M98.83,106.43l-.44,2.59h-3.58l-1.91,10.86h-3.27l1.91-10.86h-3.56l.46-2.59h10.4Z"/><path class="f" d="M107.12,109.01l-.48,2.79h4.39l-.44,2.47h-4.39l-.54,3.01h4.96l-.46,2.58h-8.23l2.37-13.44h8.23l-.46,2.59h-4.96Z"/><path class="f" d="M127.16,107.37c.73,.63,1.09,1.45,1.09,2.46,0,.29-.03,.57-.08,.82-.15,.89-.54,1.69-1.17,2.39-.63,.7-1.46,1.2-2.51,1.49l2.16,5.32h-3.7l-1.9-5.07h-.78l-.9,5.07h-3.27l2.37-13.44h5.5c1.39,0,2.45,.32,3.18,.95Zm-2.3,3.02c0-.41-.13-.72-.39-.95-.26-.22-.65-.34-1.16-.34h-2.03l-.59,3.37h2.03c.6,0,1.07-.15,1.43-.44,.35-.29,.58-.71,.68-1.24,.03-.2,.04-.34,.04-.4Z"/><path class="f" d="M144.45,119.87h-3.27l-4-8.29-1.47,8.29h-3.27l2.37-13.44h3.28l4,8.33,1.47-8.33h3.27l-2.37,13.44Z"/><path class="f" d="M159.44,117.49h-5.02l-1.22,2.37h-3.43l7.24-13.44h3.79l2.49,13.44h-3.47l-.38-2.37Zm-.38-2.49l-.78-4.98-2.57,4.98h3.35Z"/><path class="f" d="M180.64,106.43l-.44,2.59h-3.58l-1.91,10.86h-3.27l1.91-10.86h-3.56l.46-2.59h10.4Z"/><path class="f" d="M189.39,106.43l-2.37,13.44h-3.27l2.37-13.44h3.28Z"/><path class="f" d="M196.62,119.29c-.86-.47-1.53-1.14-2-1.99-.47-.85-.71-1.84-.71-2.95,0-1.57,.34-2.97,1.01-4.2s1.62-2.19,2.82-2.88c1.21-.69,2.57-1.03,4.11-1.03,1.15,0,2.16,.23,3.03,.7,.87,.47,1.54,1.12,2.01,1.97s.71,1.82,.71,2.92c0,1.57-.34,2.98-1.02,4.22s-1.62,2.21-2.83,2.91c-1.21,.7-2.59,1.04-4.14,1.04-1.14,0-2.13-.24-3-.71Zm5.72-2.97c.64-.43,1.13-1.02,1.48-1.75,.35-.73,.53-1.53,.53-2.38,0-.92-.26-1.64-.77-2.16s-1.22-.78-2.14-.78c-.84,0-1.59,.22-2.23,.65-.65,.43-1.14,1.01-1.49,1.73s-.53,1.52-.53,2.38c0,.92,.26,1.64,.77,2.17,.51,.53,1.23,.8,2.16,.8,.84,0,1.58-.22,2.22-.65Z"/><path class="f" d="M224.12,119.87h-3.27l-4-8.29-1.47,8.29h-3.27l2.37-13.44h3.28l4,8.33,1.47-8.33h3.27l-2.37,13.44Z"/><path class="f" d="M239.11,117.49h-5.02l-1.22,2.37h-3.43l7.24-13.44h3.79l2.49,13.44h-3.47l-.38-2.37Zm-.38-2.49l-.78-4.98-2.57,4.98h3.35Z"/><path class="f" d="M251.98,117.38h4.29l-.44,2.49h-7.56l2.37-13.44h3.28l-1.93,10.95Z"/></g><path class="f" d="M81.96,48.88l-9.16-.32c-3.11,2.01-4.68,3.01-7.79,5.02l-1.89,7.45q-5.69,1.75-11.38,3.49l-4.48-5.5c-3.5,.03-5.28,.04-8.77,.05l-7.99,5.58-9.2-3.35,2.84-7.46c-1.86-1.96-2.79-2.96-4.63-4.93l-9.41,.44q-.82-4.11-1.64-8.23l8.49-5.05c.9-2.81,1.34-4.23,2.23-7.04l-5.32-4.95,6.89-8.3,9.17,.31c3.1-2,4.68-3.01,7.79-5.02l1.89-7.45q5.68-1.74,11.37-3.48l4.48,5.5c3.5-.03,5.27-.04,8.78-.06L72.23,0l9.2,3.35-2.84,7.47c1.84,1.97,2.79,2.96,4.62,4.94l9.41-.44q.82,4.11,1.65,8.22l-8.49,5.05c-.9,2.81-1.35,4.24-2.23,7.04l5.31,4.96-6.89,8.3Zm-42.2-2.59c8.56,3.11,20.7-.6,27.11-8.31,6.4-7.7,4.64-16.49-3.92-19.6-8.57-3.12-20.7,.61-27.1,8.31-6.41,7.71-4.66,16.48,3.91,19.6"/></g></g></g></svg>