<?xml version="1.0" encoding="UTF-8"?><svg xmlns="http://www.w3.org/2000/svg" viewBox="0 0 50 50"><defs><style>.d{fill:#fff;}</style></defs><g id="a"/><g id="b"><g id="c"><path class="d" d="M25.04,0C11.21,0,0,11.19,0,24.99c0,13.81,11.21,25.02,25.02,25.01,13.78,0,24.98-11.22,24.98-25.01C50,11.22,38.79,0,25.04,0Zm-.82,27.4c2.73,2.46,5.47,4.94,8.2,7.4,1.63,1.47,1.31,3.81-.63,4.82-1.25,.63-2.8,.49-3.86-.38-.18-.15-.35-.32-.53-.47-4.24-3.83-8.47-7.64-12.71-11.46-1.6-1.44-1.6-3.18,0-4.62,4.36-3.93,8.7-7.85,13.06-11.76,1.81-1.64,4.78-1.02,5.56,1.14,.38,1.05,.17,2.01-.62,2.88-.12,.14-.27,.26-.4,.39-3.48,3.14-6.97,6.29-10.45,9.42-.08,.07-.16,.15-.27,.26,.9,.81,1.77,1.59,2.65,2.38Z"/></g></g></svg>