<?xml version="1.0" encoding="UTF-8"?><svg xmlns="http://www.w3.org/2000/svg" viewBox="0 0 149.93 150"><defs><style>.d{fill:#bdbdbd;}.e{fill:#efefef;}</style></defs><g id="a"/><g id="b"><g id="c"><g><rect class="d" x="0" width="149.93" height="150"/><g><g><path class="e" d="M45.51,104.12c0,.89-.15,1.66-.44,2.32-.29,.66-.74,1.17-1.34,1.54-.6,.37-1.35,.55-2.25,.55s-1.67-.18-2.26-.55c-.6-.37-1.04-.88-1.33-1.55-.29-.66-.44-1.44-.44-2.33s.15-1.65,.44-2.31c.29-.66,.74-1.17,1.33-1.54,.6-.36,1.35-.55,2.27-.55s1.65,.18,2.25,.55c.6,.36,1.04,.88,1.33,1.54,.29,.66,.44,1.43,.44,2.32Zm-6.44,0c0,.97,.19,1.73,.58,2.28,.38,.55,1,.83,1.84,.83s1.46-.28,1.84-.83c.38-.55,.57-1.31,.57-2.28s-.19-1.73-.56-2.28c-.38-.55-.99-.83-1.83-.83s-1.45,.28-1.84,.83c-.39,.55-.58,1.31-.58,2.28Z"/><path class="e" d="M50.61,101.8c.76,0,1.37,.28,1.84,.85,.46,.56,.7,1.4,.7,2.51s-.24,1.95-.71,2.53c-.48,.57-1.09,.86-1.85,.86-.48,0-.87-.09-1.16-.26-.3-.18-.53-.38-.71-.61h-.1c.02,.15,.05,.32,.07,.5,.02,.18,.03,.35,.03,.5v2.64h-1.51v-9.38h1.22l.22,.86h.07c.18-.27,.42-.5,.72-.7s.7-.29,1.19-.29Zm-.43,1.22c-.54,0-.91,.16-1.13,.48-.22,.32-.33,.8-.34,1.45v.19c0,.7,.11,1.23,.32,1.6s.61,.56,1.18,.56c.47,0,.82-.19,1.05-.58,.23-.39,.34-.92,.34-1.59s-.11-1.19-.34-1.56c-.23-.37-.59-.55-1.07-.55Z"/><path class="e" d="M57.21,107.33c.18,0,.37-.02,.55-.05,.18-.04,.35-.08,.5-.13v1.13c-.16,.07-.37,.13-.62,.19-.26,.05-.52,.08-.8,.08-.37,0-.7-.06-1.01-.19-.3-.12-.54-.34-.72-.64-.18-.3-.26-.73-.26-1.27v-3.38h-.88v-.66l.96-.53,.48-1.38h.95v1.43h1.85v1.14h-1.85v3.37c0,.3,.08,.53,.24,.68,.16,.15,.37,.22,.62,.22Z"/><path class="e" d="M60.32,99.41c.23,0,.43,.06,.59,.17s.25,.32,.25,.62-.08,.5-.25,.62-.36,.18-.59,.18-.43-.06-.59-.18c-.16-.12-.25-.33-.25-.62s.08-.5,.25-.62c.16-.12,.36-.17,.59-.17Zm.76,2.51v6.5h-1.51v-6.5h1.51Z"/><path class="e" d="M70.46,101.8c.74,0,1.29,.19,1.66,.56s.56,.98,.56,1.82v4.24h-1.51v-3.95c0-.97-.37-1.45-1.1-1.45-.53,0-.9,.17-1.13,.52-.22,.34-.34,.84-.34,1.5v3.38h-1.51v-3.95c0-.97-.37-1.45-1.12-1.45-.55,0-.93,.19-1.14,.58-.21,.38-.31,.93-.31,1.64v3.18h-1.51v-6.5h1.16l.22,.85h.08c.19-.34,.46-.58,.81-.74,.35-.16,.71-.23,1.09-.23,.49,0,.9,.08,1.23,.25,.33,.16,.59,.42,.76,.76h.12c.2-.35,.48-.61,.84-.77s.74-.24,1.14-.24Z"/><path class="e" d="M77.16,101.8c.84,0,1.48,.18,1.91,.55,.44,.37,.65,.94,.65,1.7v4.37h-1.07l-.3-.9h-.05c-.28,.35-.58,.61-.89,.77s-.74,.25-1.27,.25c-.58,0-1.07-.16-1.45-.49s-.58-.84-.58-1.52,.25-1.18,.74-1.51,1.24-.52,2.24-.56l1.13-.04v-.32c0-.41-.1-.7-.3-.88s-.48-.27-.84-.27c-.33,0-.64,.05-.94,.14s-.6,.21-.89,.34l-.48-1.06c.32-.17,.69-.3,1.1-.41,.41-.1,.84-.16,1.29-.16Zm.28,3.58c-.66,.02-1.12,.14-1.38,.34s-.38,.48-.38,.82c0,.31,.09,.53,.27,.67,.18,.13,.42,.2,.71,.2,.44,0,.81-.13,1.12-.38,.3-.25,.46-.62,.46-1.12v-.55l-.79,.02Z"/><path class="e" d="M83.13,108.42h-1.51v-9.12h1.51v9.12Z"/><path class="e" d="M93.3,106.08c0,.76-.28,1.36-.83,1.8-.55,.44-1.32,.66-2.29,.66s-1.74-.16-2.4-.48v-1.44c.36,.16,.76,.31,1.19,.44,.43,.13,.87,.2,1.32,.2,.51,0,.89-.1,1.13-.3s.36-.46,.36-.79c0-.36-.15-.64-.46-.85-.3-.21-.75-.44-1.33-.68-.35-.15-.69-.33-1.01-.54s-.58-.47-.79-.79c-.21-.32-.31-.73-.31-1.22,0-.74,.26-1.31,.77-1.72,.52-.41,1.21-.62,2.07-.62,.46,0,.88,.05,1.28,.14,.4,.1,.79,.23,1.19,.41l-.49,1.24c-.36-.15-.7-.27-1.03-.36-.32-.09-.66-.13-1-.13-.42,0-.73,.09-.95,.28-.22,.19-.32,.43-.32,.73,0,.24,.06,.44,.18,.6,.12,.16,.31,.31,.56,.44s.58,.29,.98,.47c.46,.2,.85,.41,1.18,.62s.58,.48,.75,.78c.17,.3,.26,.68,.26,1.13Z"/><path class="e" d="M95.53,99.41c.23,0,.43,.06,.59,.17s.25,.32,.25,.62-.08,.5-.25,.62-.36,.18-.59,.18-.43-.06-.59-.18c-.16-.12-.25-.33-.25-.62s.08-.5,.25-.62c.16-.12,.36-.17,.59-.17Zm.76,2.51v6.5h-1.51v-6.5h1.51Z"/><path class="e" d="M102.62,108.42h-4.99v-.92l3.19-4.43h-3.01v-1.15h4.71v1.02l-3.13,4.32h3.23v1.16Z"/><path class="e" d="M106.6,101.8c.87,0,1.56,.26,2.07,.78,.51,.52,.76,1.24,.76,2.17v.77h-4.29c.02,.59,.18,1.05,.49,1.37,.31,.32,.74,.49,1.3,.49,.42,0,.79-.04,1.13-.13,.34-.08,.68-.21,1.03-.37v1.21c-.32,.15-.65,.26-1,.34-.34,.07-.76,.11-1.24,.11-.63,0-1.19-.12-1.69-.37-.49-.24-.88-.61-1.15-1.11-.28-.5-.41-1.11-.41-1.85,0-1.11,.28-1.96,.83-2.54s1.28-.88,2.17-.88Zm0,1.12c-.41,0-.74,.13-.99,.39-.25,.26-.4,.65-.44,1.16h2.79c0-.45-.12-.82-.34-1.11-.22-.29-.56-.44-1.03-.44Z"/><path class="e" d="M110.74,102.71c0-.34,.09-.59,.26-.73,.18-.14,.39-.21,.65-.21s.46,.07,.65,.21c.18,.14,.28,.38,.28,.73s-.09,.56-.28,.71c-.18,.14-.4,.22-.65,.22s-.47-.07-.65-.22c-.18-.14-.26-.38-.26-.71Zm0,4.94c0-.34,.09-.57,.26-.71,.18-.14,.39-.21,.65-.21s.46,.07,.65,.21c.18,.14,.28,.38,.28,.71s-.09,.56-.28,.71c-.18,.14-.4,.22-.65,.22s-.47-.07-.65-.22c-.18-.14-.26-.38-.26-.71Z"/></g><g><path class="e" d="M48.75,121.78c0-.62,.05-1.22,.16-1.82,.11-.6,.3-1.14,.59-1.62,.28-.48,.68-.87,1.19-1.16,.51-.29,1.17-.43,1.98-.43,.17,0,.35,0,.56,.02,.2,.02,.37,.04,.5,.08v.9c-.14-.05-.31-.08-.49-.11-.18-.02-.36-.04-.55-.04-.55,0-1.01,.09-1.38,.28-.37,.18-.66,.44-.87,.76-.21,.32-.37,.69-.46,1.1-.1,.42-.16,.86-.18,1.33h.07c.18-.28,.44-.52,.77-.71,.33-.2,.75-.29,1.26-.29,.74,0,1.34,.23,1.8,.68,.46,.45,.68,1.09,.68,1.93,0,.9-.25,1.6-.74,2.11-.49,.51-1.15,.77-1.99,.77-.54,0-1.04-.14-1.48-.41-.44-.27-.79-.69-1.05-1.25-.26-.56-.39-1.27-.39-2.12Zm2.9,2.89c.5,0,.91-.16,1.22-.49s.47-.83,.47-1.51c0-.54-.14-.98-.41-1.3-.28-.32-.69-.48-1.24-.48-.38,0-.7,.08-.98,.23-.28,.16-.5,.35-.65,.59-.16,.24-.23,.49-.23,.74,0,.34,.07,.69,.2,1.03,.14,.34,.34,.62,.61,.84,.27,.22,.61,.33,1.02,.33Z"/><path class="e" d="M61.22,121.15c0,.92-.1,1.71-.29,2.37s-.5,1.17-.91,1.52c-.42,.35-.97,.53-1.66,.53-.97,0-1.68-.39-2.14-1.17-.46-.78-.69-1.86-.69-3.25,0-.93,.09-1.72,.28-2.38,.19-.66,.49-1.16,.91-1.51,.42-.35,.96-.52,1.64-.52,.96,0,1.68,.39,2.15,1.16,.47,.77,.71,1.85,.71,3.25Zm-4.63,0c0,1.18,.13,2.06,.4,2.64s.73,.88,1.37,.88,1.1-.29,1.37-.87c.28-.58,.41-1.46,.41-2.65s-.14-2.04-.41-2.63-.73-.88-1.37-.88-1.11,.29-1.37,.88-.4,1.46-.4,2.63Z"/><path class="e" d="M68.08,121.15c0,.92-.1,1.71-.29,2.37s-.5,1.17-.91,1.52c-.42,.35-.97,.53-1.66,.53-.97,0-1.68-.39-2.14-1.17-.46-.78-.69-1.86-.69-3.25,0-.93,.09-1.72,.28-2.38,.19-.66,.49-1.16,.91-1.51,.42-.35,.96-.52,1.64-.52,.96,0,1.68,.39,2.15,1.16,.47,.77,.71,1.85,.71,3.25Zm-4.63,0c0,1.18,.13,2.06,.4,2.64s.73,.88,1.37,.88,1.1-.29,1.37-.87c.28-.58,.41-1.46,.41-2.65s-.14-2.04-.41-2.63-.73-.88-1.37-.88-1.11,.29-1.37,.88-.4,1.46-.4,2.63Z"/><path class="e" d="M74.33,122.16l-2.22-3.14h1.2l1.66,2.42,1.64-2.42h1.19l-2.22,3.14,2.34,3.29h-1.2l-1.75-2.57-1.78,2.57h-1.19l2.33-3.29Z"/><path class="e" d="M81.91,121.78c0-.62,.05-1.22,.16-1.82,.11-.6,.3-1.14,.59-1.62,.28-.48,.68-.87,1.19-1.16,.51-.29,1.17-.43,1.98-.43,.17,0,.35,0,.56,.02,.2,.02,.37,.04,.5,.08v.9c-.14-.05-.31-.08-.49-.11-.18-.02-.36-.04-.55-.04-.55,0-1.01,.09-1.38,.28-.37,.18-.66,.44-.87,.76-.21,.32-.37,.69-.46,1.1-.1,.42-.16,.86-.18,1.33h.07c.18-.28,.44-.52,.77-.71,.33-.2,.75-.29,1.26-.29,.74,0,1.34,.23,1.8,.68,.46,.45,.68,1.09,.68,1.93,0,.9-.25,1.6-.74,2.11-.49,.51-1.15,.77-1.99,.77-.54,0-1.04-.14-1.48-.41-.44-.27-.79-.69-1.05-1.25-.26-.56-.39-1.27-.39-2.12Zm2.9,2.89c.5,0,.91-.16,1.22-.49s.47-.83,.47-1.51c0-.54-.14-.98-.41-1.3-.28-.32-.69-.48-1.24-.48-.38,0-.7,.08-.98,.23-.28,.16-.5,.35-.65,.59-.16,.24-.23,.49-.23,.74,0,.34,.07,.69,.2,1.03,.14,.34,.34,.62,.61,.84,.27,.22,.61,.33,1.02,.33Z"/><path class="e" d="M94.39,121.15c0,.92-.1,1.71-.29,2.37s-.5,1.17-.91,1.52c-.42,.35-.97,.53-1.66,.53-.97,0-1.68-.39-2.14-1.17-.46-.78-.69-1.86-.69-3.25,0-.93,.09-1.72,.28-2.38,.19-.66,.49-1.16,.91-1.51,.42-.35,.96-.52,1.64-.52,.96,0,1.68,.39,2.15,1.16,.47,.77,.71,1.85,.71,3.25Zm-4.63,0c0,1.18,.13,2.06,.4,2.64s.73,.88,1.37,.88,1.1-.29,1.37-.87c.28-.58,.41-1.46,.41-2.65s-.14-2.04-.41-2.63-.73-.88-1.37-.88-1.11,.29-1.37,.88-.4,1.46-.4,2.63Z"/><path class="e" d="M101.25,121.15c0,.92-.1,1.71-.29,2.37s-.5,1.17-.91,1.52c-.42,.35-.97,.53-1.66,.53-.97,0-1.68-.39-2.14-1.17-.46-.78-.69-1.86-.69-3.25,0-.93,.09-1.72,.28-2.38,.19-.66,.49-1.16,.91-1.51,.42-.35,.96-.52,1.64-.52,.96,0,1.68,.39,2.15,1.16,.47,.77,.71,1.85,.71,3.25Zm-4.63,0c0,1.18,.13,2.06,.4,2.64s.73,.88,1.37,.88,1.1-.29,1.37-.87c.28-.58,.41-1.46,.41-2.65s-.14-2.04-.41-2.63-.73-.88-1.37-.88-1.11,.29-1.37,.88-.4,1.46-.4,2.63Z"/></g></g><g><path class="e" d="M34.98,20V84.72H114.94V20H34.98Zm73.69,56.39c0,1.38-.41,1.79-1.82,1.79H43.22c-1.41,0-1.82-.4-1.82-1.79,0-16.06,0-32.12,0-48.18,0-1.36,.42-1.79,1.76-1.79,21.25,0,42.5,0,63.75,0,1.34,0,1.76,.42,1.76,1.79v48.18Z"/><path class="e" d="M87.19,38.67c-.16-.16-.34-.31-.62-.57-6.9,6.9-13.75,13.75-20.62,20.62-1.95-1.94-3.92-3.87-5.83-5.85-.48-.49-.72-.43-1.16,.02-3.52,3.57-7.02,7.17-10.64,10.64-1.24,1.18-1.83,2.36-1.68,4.08,.15,1.73,.03,3.48,.03,5.26h56.78v-.74c0-5.53,0-11.07,.01-16.6,0-.47-.14-.8-.47-1.13-5.27-5.24-10.52-10.49-15.78-15.73Z"/><path class="e" d="M54.42,47.09c4.27-.01,7.66-3.44,7.66-7.74,0-4.31-3.42-7.69-7.77-7.69-4.27,0-7.66,3.43-7.65,7.74,0,4.31,3.43,7.7,7.77,7.69Z"/></g></g></g></g></svg>