<?xml version="1.0" encoding="UTF-8"?><svg xmlns="http://www.w3.org/2000/svg" viewBox="0 0 325.71 320"><defs><style>.d{fill:#fff;}.e{fill:#0e7c96;}.f{fill:#fd664d;}.g{fill:#bfbfbf;}.h{fill:#001030;}.i{fill:#5b3b89;}.j{fill:#92c156;}.k{fill:#f34336;}.l{fill:#ff9d3b;}.m{fill:#333;}.n{fill:#424242;}.o{fill:none;}.p{fill:#4d3875;}.q{fill:#7753aa;}.r{fill:#f88800;}.s{fill:#ffaa01;}.t{fill:#81ad42;}.u{fill:#2e3052;}.v{fill:#efefef;}.w{fill:#008ebb;}.x{fill:#dcedf9;}.y{fill:#6f499b;}.a`{fill:#fc8664;}.aa{fill:#c4c4c4;}.ab{fill:#000b29;}.ac{fill:#f9af8b;}</style></defs><g id="a"/><g id="b"><g id="c"><g><path class="o" d="M47.61,92.99c1.75,0,3.17-1.42,3.17-3.17s-1.42-3.17-3.17-3.17-3.17,1.42-3.17,3.17,1.42,3.17,3.17,3.17Z"/><path class="o" d="M47.66,56.86c1.75,0,3.17-1.42,3.17-3.17s-1.42-3.17-3.17-3.17-3.17,1.42-3.17,3.17,1.42,3.17,3.17,3.17Z"/><path class="o" d="M79.39,65.35c1.75,0,3.17-1.42,3.17-3.17s-1.42-3.17-3.17-3.17-3.17,1.42-3.17,3.17,1.42,3.17,3.17,3.17Z"/><polygon class="o" points="256.27 47.99 256.27 47.99 259.72 47.15 285.93 40.71 285.92 40.71 256.27 47.99"/><circle class="o" cx="95.99" cy="78.37" r="3.17"/><path class="o" d="M292.06,296.61c-.3-.15-.58-.34-.84-.54-.16-.12-.33-.25-.48-.39h0c-1.16-1.08-1.87-2.62-1.82-4.31,.29-9.4,.7-27.36-.2-32.83-.78-4.69-2.03-23.58-2.88-37.17v79.37c3.21,.26,6.24,.54,9.11,.82l-.44-4.33c-.88-.03-1.72-.25-2.46-.62Z"/><path class="o" d="M306.78,151.11c.01,.3,.03,.6,.04,.91v-.06c-.01-.29-.03-.56-.04-.85Z"/><path class="o" d="M134.19,107.52c-.05-.52-.06-1.06,0-1.61,.13-1.49,.65-3.07,1.62-4.74h0l-3.88-25.01-.23-1.48,.02-1.02-1.49,5.5-5.05,31.26s3.04,4.13,2.79,6.26c-.04,.32-.13,.67-.27,1.05h14.87c-4.67-2.78-7.98-6.16-8.38-10.22Z"/><path class="o" d="M175.75,74.42c-3.45-1.05-6.4-2.54-8.92-4.26,.37,3.89,1.07,8.17,2.3,13.57,0,.02,.01,.05,.02,.08,2.37-3.24,4.99-6.46,7.68-9.09-.36-.09-.71-.18-1.09-.3Z"/><circle class="o" cx="30.81" cy="74.59" r="3.17"/><path class="o" d="M205.55,108.02c.23-.63,.68-.87,1.26-.91l-.76-1.82c-1.13,.11-1.89,.14-1.89,.14-.84-.66-1.73-2.02-2.24-2.98,.17-.02,.34-.04,.52-.06-4.97-4.27-12.75-11.69-14.51-16.41,0,0-5.76,13.38-15.01,23.09,4.87,2.44,10.25,5.46,14.38,8.67h18.09s-.63-7.49,.17-9.72Z"/><path class="x" d="M186.56,62.07c-.09,0-1.66,.13-2.27,.11-1.8-.06-4.24-.47-6.72-1.63-1.76-.82-4.28-2.95-6.91-5.48-1.32-1.27-2.66-2.64-3.95-4-.25,7.44-.5,12.76,.11,19.1,2.52,1.72,5.47,3.21,8.92,4.26,.38,.11,.73,.2,1.09,.3,4.24-4.15,8.63-6.81,12.37-5.67,.12,.04,.23,.08,.35,.12,.25-2.24-.22-4.82-1.25-7.34-.58,.09-1.16,.18-1.72,.25h-.01Z"/><path class="aa" d="M66.27,306.22s-.03-.02-.07-.05l.11,.09s.03,0,.05,0c-.03-.01-.06-.02-.08-.04Z"/><path class="g" d="M302.28,302.35c.19,.17,.38,.35,.59,.53,.95-.04,1.58,.47,1.61,.5,.15,.13,.17,.35,.04,.5-.05,.06-.12,.07-.19,.09,.68,.1,1.11,.45,1.14,.48,.13,.11,.13,.27,.06,.41,.78,.06,1.29,.46,1.32,.49,.15,.13,.17,.35,.04,.5-.13,.15-.35,.16-.5,.04,.44,.31,.83,.52,1.12,.57,2.94,.56,2.94,5.06,1.15,5.28-5.17,.65-14.02-1.49-14.02-1.49,0,0-.82-5.77-.46-7.58,.15-.75,.42-.98,.79-1.03v-.07c-2.88-.28-5.91-.56-9.12-.82v3.91h-11.98c.04,2.37-.32,5.46-.32,5.46,0,0-19.96,.87-20.4-.08-.45-.95-.9-2.81,1.67-3.23,.82-.14,2.16-.81,3.64-1.67-.02-.02-.04-.02-.06-.03-.1-.14-.08-.32,.04-.44H83.79v6.14h-3.67v-6.14h-15.73c.15,.13,.31,.26,.46,.39,1.14-.09,1.92,.49,1.97,.52,.19,.15,.22,.41,.07,.6-.05,.06-.11,.09-.17,.12,.8,.1,1.32,.49,1.35,.52,.16,.12,.2,.33,.12,.5,.93,.04,1.55,.5,1.59,.53,.19,.15,.22,.41,.07,.59-.14,.18-.4,.21-.58,.08,.54,.34,1.01,.58,1.36,.63,3.57,.54,3.78,5.96,1.64,6.31-6.2,1.02-16.97-1.14-16.97-1.14,0,0-1.25-6.92-.91-9.11,.03-.21,.08-.38,.13-.53H30.71v6.14h-3.67v-6.14H15.26v-1.21c-9.79,1.49-15.26,3.16-15.26,4.92,0,6.43,72.91,11.63,162.86,11.63s162.86-5.21,162.86-11.63c0-2.2-8.56-4.26-23.44-6.02Z"/><path class="aa" d="M304,303.91s-.03-.02-.06-.04l.08,.08s.07,0,.1,0c-.04-.01-.09-.01-.13-.04Z"/><polygon class="l" points="183.09 209.12 183.09 209.12 218 178.07 218 178.08 183.09 209.12"/><polygon class="l" points="117.66 208.81 117.66 208.81 81.34 176.51 81.34 176.51 117.66 208.81"/><rect class="l" x="137.4" y="208.78" width="0" height="35.19"/><polygon class="l" points="176.49 214.99 163.34 226.69 176.5 214.99 176.49 214.99"/><path class="l" d="M24.6,289.37s.03,0,.05,0c.04-.02,.08-.05,.12-.07-.05,.02-.08,.03-.08,.04-.03,.02-.06,.02-.09,.03Z"/><polygon class="l" points="27.04 301.14 26.02 302.06 23.1 304.65 27.04 304.65 27.04 301.94 27.04 301.14"/><path class="l" d="M36.72,190.01c-.14,.49-.24,.94-.33,1.38h4.35l-.59-8.78-3.43,7.4Z"/><polygon class="l" points="64.05 161.14 64.05 161.14 63.56 160.7 63.55 160.7 64.05 161.14"/><path class="l" d="M80.12,269.13h-15.09c-.93,11.99-2.22,23.71-2.81,28.81h.34c.13,.42,.18,.84,.19,1.25,.03,.82-.12,1.63-.38,2.43l-.94-.02-.12,1.16c.16-.03,.3-.04,.41-.04,.32,0,1.37,.85,2.66,1.93h15.73v-35.52Z"/><path class="l" d="M277.39,258.55c-.91,5.48-.5,23.43-.21,32.83,.01,.46-.03,.9-.12,1.33l8.78,7.81v-79.15c-.13-2.15-.26-4.16-.36-5.97-.07-1.27-.14-2.43-.2-3.47-1.48,.04-2.96,.04-4.44,.01-.07,1.21-.16,2.6-.25,4.13-.8,13.37-2.31,37.13-3.19,42.46Z"/><path class="l" d="M37.49,248.97h-6.77v16.62h3.57c.95-5.18,2.04-10.94,3.21-16.62Z"/><polygon class="l" points="30.97 285.61 30.71 285.52 30.71 286.14 30.88 285.99 30.97 285.61"/><polygon class="l" points="50.24 255.21 46.1 265.59 51.28 265.59 50.24 255.21"/><path class="l" d="M72.46,182.79l-.89,8.6h3.63c.37,0,.71,.08,1.02,.2-.22-.86-.53-1.78-.93-2.77l-2.83-6.03Z"/><path class="l" d="M33.64,269.13h-2.93v12.45l.73,.25c.45-2.68,1.21-7.23,2.19-12.7Z"/><polygon class="l" points="80.12 265.59 80.12 253.93 67.01 265.59 80.12 265.59"/><path class="l" d="M72.51,248.97h-6.43c-.02,1.85-.08,3.82-.16,5.87l6.6-5.87Z"/><polygon class="l" points="44.69 269.13 41.86 276.23 49.84 269.13 44.69 269.13"/><path class="l" d="M261.19,257.73c-.54-10.66,.24-29.52,.85-41.27h0c.13-2.57,.26-4.78,.36-6.51-1.62-.32-3.25-.68-4.87-1.08-.09-6.12-.18-30.6,.31-50.69,0-.39,.02-.79,.03-1.18,0-.19,.01-.39,.02-.58v-.03c0-.25,.01-.5,.02-.75,0-.04,0-.08,0-.12l-7.33,11.7-.43-1.74c-.58,.63-1.17,1.22-1.76,1.74-2.16,1.91-4.26,2.91-5.98,2.06-.23-.11-.47-.26-.72-.43l-52.03,46.11,71.82,63.88c.08-6.85,.04-14.54-.29-21.11Z"/><polygon class="l" points="225.79 171.15 225.79 171.15 235.62 162.41 235.62 162.4 225.79 171.15"/><path class="l" d="M16.85,297.76c-2.15-.76-.94-6.31,2.84-6.22,.36,0,.89-.15,1.52-.4-.21,.1-.47,.02-.59-.19-.12-.22-.04-.49,.18-.6,.04-.02,.77-.38,1.74-.25-.05-.19,.03-.39,.21-.49,.04-.02,.64-.33,1.49-.29-.06-.04-.12-.09-.16-.16-.12-.22-.04-.49,.18-.6,.05-.03,.96-.49,2.12-.18,.23-.13,.45-.26,.66-.38v-39.02h-5.3c1.11-6.76,6.47-11.66,12.72-11.64h1.32c-4.85-3.26-5.77-14.53-.93-18.48h.02l1.6-5.09-.18-1.05c-3.95-4.54-10.85-13.53-10.1-20.16,1.5-13.08,12.74-28.08,12.74-28.08,3.95-1.64,7.14-2.76,10.31-3.41-1.71-.17-3.27-.55-4.57-1.22-.12-.06-.22-.1-.35-.17-.12-.06-.21-.14-.32-.21-.06-.04-.12-.08-.18-.12-.7-.47-1.24-1.02-1.64-1.65-.02-.03-.04-.05-.06-.08-.03-.04-.04-.1-.06-.14-.73-1.29-.95-2.9-.88-4.78l-25.9-22.96v-11.98l27.41,24.38h0l-27.41-24.38v182.14l2.17-1.93c-.2-.06-.4-.13-.59-.19Z"/><polygon class="l" points="244.27 154.71 244.28 154.7 243.66 155.25 243.66 155.25 244.27 154.71"/><path class="l" d="M86.33,192.72c.02,.21,.04,.42,.06,.63,.66,9.38-8.55,18.46-11.73,21.31l-.1,.58h.04v.83c0,.21-.03,.42-.06,.63l1.38,7.09s-.04,0-.06,.01c1.31,1.94,2.02,4.2,1.63,6.81-.57,3.79-2.26,5.8-4.42,6.73h3.31c2.49-.02,4.83,.77,6.82,2.13l27.89-24.81-24.75-21.94Z"/><path class="l" d="M259.82,304.23c-.05-.15-.01-.31,.12-.41,.03-.02,.49-.33,1.18-.37-.07-.02-.13-.05-.18-.11-.11-.16-.08-.38,.08-.49,.04-.02,.7-.47,1.63-.35,1.62-1.03,2.92-1.83,3.28-1.85,.22-.01,.46,.07,.69,.2v-3.64c-3.09-.21-5.51-2.77-5.41-5.85,0-.32,.02-.67,.03-1.01l-78.19-69.54-32.5,28.81-32.86-29.12-29.22,25.99c.27,.79,.48,1.61,.62,2.46h-3.39l-1.91,1.7v53.98h174.63s.03-.04,.05-.05c.03-.02,.57-.37,1.34-.36Z"/><path class="l" d="M272.37,301.75c.59,0,1.04,.17,1.24,.76,.16,.48,.23,1.26,.25,2.14h3.44l-4.85-4.31-.08,1.42Z"/><path class="l" d="M55.61,303.87l-.27-2.41-1.16-.03c-.14-.57-.22-1.14-.25-1.72-.03-.63,0-1.25,.09-1.88h.51l-1.95-19.4-15.71,13.97c-.69,2.96-2.29,7.27-2.29,7.27,0,0-1.57,.04-3.86-.03v5h23.78c.22-.65,.61-.78,1.11-.78Z"/><path class="r" d="M42.68,142.13l-27.41-24.38v11.98l25.9,22.96c.1-2.64,.75-5.81,1.31-9.41,.06-.39,.13-.77,.2-1.15Z"/><path class="r" d="M61.35,160.72c.9,.11,1.8,.25,2.7,.42l-.5-.44c-.69-.01-1.43,0-2.2,.03Z"/><path class="r" d="M117.66,208.81l-36.32-32.3c2.34,4.97,4.49,10.8,4.99,16.2l24.75,21.94,6.57-5.84Z"/><path class="r" d="M243.82,155.4c.15-.22,.3-.46,.45-.69l-.61,.54,.16,.14Z"/><polygon class="r" points="83.79 250.67 85.7 248.97 83.79 248.97 83.79 250.67"/><path class="r" d="M49.84,269.13l-7.98,7.09-3.22,8.08,.35,.12c-.02,1.35-.6,2.49-1.37,3.54l-1.34-.47-.57,1.3c.87,.11,1.5,.19,1.47,1.64-.01,.49-.13,1.19-.32,1.97l15.71-13.97-.94-9.3h-1.8Z"/><path class="r" d="M65.3,265.59h1.71l13.11-11.66v-4.96h-7.61l-6.6,5.87c-.14,3.43-.36,7.08-.62,10.76Z"/><polygon class="r" points="30.71 286.14 30.71 286.7 30.88 285.99 30.71 286.14"/><path class="r" d="M23.1,304.65l2.92-2.59,1.03-.91v-1.66c-3.21-.22-6.84-.66-9.61-1.52l-2.17,1.93v4.76h7.84Z"/><path class="r" d="M111.09,214.66l-27.89,24.81c2.38,1.62,4.26,4.08,5.27,7.04l29.22-25.99,6.56-5.83h0l-6.6-5.87h0l-6.57,5.84Z"/><path class="r" d="M277.06,292.71c-.23,1.07-.75,2.03-1.49,2.79-.09,.09-.19,.17-.28,.25-.19,.17-.38,.32-.59,.47-.15,.1-.29,.21-.45,.3-.5,.27-1.04,.47-1.61,.6l-.15,2.66-.03,.58,4.85,4.31h8.55v-4.13l-8.78-7.81Z"/><path class="r" d="M187.29,117.74c1.46,1.13,2.77,2.29,3.83,3.45,3.55,3.85,11.72,33.98,14.16,43.2,.44-.21,.7-.34,.7-.34l1.31,3.02c-.5,.5-1.03,.95-1.58,1.36l.87,1.94c.28-.6,.68-1.21,1.19-1.39,.42-.15,2.29,.19,4.62,.62,1-.57,1.97-.37,2.02-.36,.24,.05,.38,.29,.33,.53-.02,.08-.06,.14-.11,.19,.78-.26,1.43-.12,1.48-.11,.2,.05,.33,.22,.33,.41,.88-.37,1.66-.21,1.7-.2,.24,.06,.38,.29,.33,.53,0,.03-.02,.04-.03,.07,2.08,.3,3.92,.46,4.92,.24,1.13-.25,1.9-.1,2.42,.25l9.83-8.74c-6.46-8.43-13.73-21.24-13.73-21.24h0c-3.08-4.29-10.62-7.74-10.86-8.04-.93-1.18,4.09,.37,4.09,.37,0,0-5.06-2.97-4.8-3.44,.42-.76,5.58,1.32,5.58,1.32,0,0-6.38-3.42-5.54-4.05,.85-.62,5.9,2.21,5.9,2.21-2.03-1.27-2.91-2.18-3.27-2.79-.22-.38,.22-.8,.61-.58,1.4,.8,4.42,2.55,5.88,3.62,1.66,1.22,4.13,2.42,4.13,2.42,.57-1.85-.67-3.85,.18-3.89,2.31-.13,2.85,4.65,3.41,6.77,.34,1.29-.07,2.67-.43,3.56,2.11,2.33,6.25,6.82,9.54,9.87,3.7,3.43,6.66,6.1,7.36,6.74l.62-.55c.45-.69,.92-1.4,1.41-2.16,.29-.46,.6-.93,.9-1.41l-.29-1.16,13.43-19.37h0c.07-.19,.15-.35,.22-.46h0c2.5-3.36,15.04-8.73,18.51-11.12,.03,.05,.08,.13,.14,.22v-1.49h-91.33Z"/><path class="r" d="M47.43,130.93s.02,.05,.05,.13c.74-1.04,1.69-1.92,2.82-2.52,5.62-3.01,11.55-1.41,13.59-.19,.94,.56,1.66,1.4,2.22,2.35l.08-.06s4.59,7.11,4.09,14.51,.68,15.95-5.95,15.58c-.24-.01-.5-.01-.76-.02l.5,.44c3.54,.64,7,1.69,10.32,3.09,0,0,3.67,5.29,6.97,12.29l36.32,32.3,6.6,5.87,26.29,23.39h0l-26.29-23.39-6.56,5.83,32.86,29.12,32.5-28.81,78.19,69.54c.09-3.16,.19-7.16,.24-11.52l-71.82-63.88,52.03-46.11c-1.71-1.15-3.84-3.54-6.07-6.45l-9.83,8.74c.91,.63,1.05,1.89,1.01,2.73-.02,.55-4.08,2.32-8.8,4.2l-34.91,31.05h0l34.91-31.05c-6.56,2.61-14.39,5.42-14.39,5.42,0,0-3.53-6.42-3.69-8.79-.06-.84,.45-1.26,1.21-1.52l-1.05-2.02c-.96,.29-1.6,.4-1.6,.4l-2.11-3.38c.27-.08,.57-.19,.88-.3-3.61-6.93-12.76-25.16-16.78-39.18,0,0-24.55-3.03-37.91-10.98h-14.87c-.79,2.19-3.06,5.14-4.94,5.3-2.2,.19,2.53-5.17,1.41-5-1.35,.21-10.48,7.7-12.41,7.7s2.27-3.48,3.9-4.36c0,0-4.32,1.93-5.33,2.94-1.01,1.01-1.74-1.15,3.29-4.21,0,0-4.61,2.62-4.92,2.66-1.03,.14,1.9-3.29,4.42-4.53,0,0-3.7,1.8-4.07,1.81-.47,.01,.41-.98,2.62-2.3H15.26l27.41,24.39c1.39-7.19,4.75-11.2,4.75-11.2Zm129.07,84.06h0l-13.15,11.7,13.15-11.7Z"/><path class="ac" d="M206.8,107.11c1.47-.1,3.78,1.1,5.55,.72,0,0,.64-.85,1.42-1.42l-1.08-2.31c-2.18,.67-4.87,1.02-6.64,1.19l.76,1.82Z"/><path class="m" d="M212.35,107.83c-1.76,.38-4.08-.83-5.55-.72-.58,.04-1.03,.28-1.26,.91-.8,2.23-.17,9.72-.17,9.72,0,0,20.93-.04,24.72-.04,1.32,0,1.61-3.21-1.54-3.81-1.01-.19-2.63-1.07-4.41-2.18-.15,.15-.39,.17-.56,.04-.04-.03-.97-.68-2.2-.07-1.06,.53-1.92,2.03-1.93,2.04-.06,.1-.15,.17-.26,.2-.11,.03-.24,.02-.34-.04-.21-.12-.29-.39-.16-.6,.04-.07,1-1.74,2.29-2.39,.22-.11,.44-.19,.65-.25-.32-.17-1.09-.45-2.03,.03-1.05,.53-1.92,2.03-1.93,2.04-.06,.1-.15,.17-.26,.2-.11,.03-.24,.02-.34-.04-.21-.12-.29-.39-.17-.6,.04-.07,1-1.74,2.29-2.39,.5-.25,.95-.34,1.36-.35-.03-.01-.06-.02-.08-.04-.04-.03-.97-.68-2.2-.07-1.06,.53-1.92,2.03-1.93,2.04-.06,.1-.15,.17-.26,.2-.11,.03-.24,.02-.34-.04-.21-.12-.29-.39-.16-.6,.04-.07,1-1.74,2.29-2.39,.4-.2,.78-.3,1.12-.34-1.96-1.33-3.54-2.38-3.98-2.41-.41-.03-.86,.2-1.27,.5-.77,.57-1.42,1.42-1.42,1.42Z"/><path class="d" d="M215.6,111.05c-.12,.21-.05,.48,.16,.6,.11,.06,.23,.07,.34,.04,.1-.03,.2-.1,.26-.2,0-.02,.87-1.51,1.93-2.04,1.22-.62,2.16,.04,2.2,.07,.03,.02,.06,.03,.08,.04-.41,.01-.87,.1-1.36,.35-1.29,.65-2.25,2.32-2.29,2.39-.12,.21-.05,.48,.17,.6,.11,.06,.23,.07,.34,.04,.1-.03,.2-.1,.26-.2,0-.02,.87-1.51,1.93-2.04,.95-.48,1.71-.2,2.03-.03-.21,.06-.43,.14-.65,.25-1.29,.65-2.25,2.32-2.29,2.39-.12,.21-.05,.48,.16,.6,.11,.06,.23,.07,.34,.04,.1-.03,.2-.1,.26-.2,0-.02,.87-1.51,1.93-2.04,1.22-.62,2.16,.04,2.2,.07,.17,.13,.41,.1,.56-.04,.02-.02,.04-.03,.05-.05,.15-.2,.1-.47-.09-.62-.04-.03-.69-.48-1.64-.49,.07-.18,.02-.39-.14-.51-.04-.03-.58-.42-1.4-.49,.07-.03,.13-.07,.17-.13,.15-.2,.1-.47-.09-.62-.04-.03-.85-.61-1.99-.48-.35,.04-.72,.13-1.12,.34-1.29,.65-2.25,2.32-2.29,2.39Z"/><path class="m" d="M187.91,85.99c1.77,4.72,9.54,12.14,14.51,16.41,.76-.09,1.52-.2,2.26-.33,.13-.02,.27-.05,.4-.07-.13-.11-.27-.22-.4-.33-9.58-7.87-14.3-14.51-16.59-18.93-.09-.17-.23-.23-.33-.23-.08,0-.14,.05-.18,.15-5.47,12.87-11.97,20.85-16.71,25.42,.66,.32,1.34,.65,2.03,1,9.25-9.71,15.01-23.09,15.01-23.09Z"/><path class="m" d="M176.83,74.72c-2.69,2.63-5.32,5.85-7.68,9.09,1.24,4.3-1.04,14.83-8.71,19.66,.3,.12,4.23,1.67,9.32,4.08,4.66-4.42,11.24-12.33,16.76-25.34,.22-.51,.67-.83,1.21-.85,.58-.02,1.12,.31,1.4,.85,2.31,4.45,7.15,11.22,17.17,19.28,.09,.07,.18,.14,.27,.22,.72-.16,1.41-.32,2.05-.49,1.23-.32,2.28-.63,3.04-.88-.31-.58-.63-1.15-.93-1.71-.05,0-.09,.02-.14,0-.02,0-.05,0-.07-.01-.3-.07-.49-.34-.45-.63,.02-.15,.05-.3,.07-.45-10.98-19.97-15.88-26.7-20.58-28.37-.11-.04-.23-.08-.35-.12-3.74-1.14-8.13,1.52-12.37,5.67Z"/><path class="h" d="M206.57,101.7c-.09-.07-.18-.15-.27-.22-10.02-8.05-14.86-14.82-17.17-19.28-.28-.54-.82-.87-1.4-.85-.54,.02-.99,.34-1.21,.85-5.52,13-12.1,20.91-16.76,25.34,.37,.17,.74,.35,1.12,.54,4.74-4.57,11.24-12.54,16.71-25.42,.04-.1,.1-.14,.18-.15,.1,0,.24,.05,.33,.23,2.29,4.42,7.01,11.06,16.59,18.93,.13,.11,.27,.22,.4,.33-.13,.02-.27,.05-.4,.07-.74,.13-1.5,.24-2.26,.33-.17,.02-.34,.04-.52,.06,.51,.96,1.4,2.32,2.24,2.98,0,0,.76-.04,1.89-.14,1.77-.17,4.47-.52,6.64-1.19,.64-.2,1.24-.42,1.75-.68l-1.51-3.52s-.48,.17-1.28,.43c-.76,.24-1.8,.56-3.04,.88-.64,.17-1.33,.33-2.05,.49Z"/><path class="j" d="M166.83,47.59c-.03,1.21-.07,2.37-.11,3.48,1.29,1.36,2.63,2.73,3.95,4,2.63,2.53,5.15,4.66,6.91,5.48,2.47,1.15,4.91,1.56,6.72,1.63,.61,.02,2.18-.1,2.27-.11h.01c.56-.07,1.14-.16,1.72-.24,6.32-.95,13.66-2.93,22.68-6.61v-.03c-.08,0-.12,0-.12,0l-1.05-3.2-2.05-.99c-2.27,.41-6.54,1.09-11.41,1.44-2.67,.19-8.84,.47-11.11,.84-.56-.25-1.12-.53-1.66-.82-9.96-5.38-16.55-16.3-16.6-16.38,.01,4.42-.06,8.19-.15,11.52Z"/><path class="ac" d="M221.02,44.24h.01l.03,.1h0l.06,.2s-.05-.02-.08-.02c-.17-.03-.38,.06-.62,.34-.32,.38-.67,.83-1,1.29-.76,1.05-1.48,2.19-1.85,2.76l-4.28,4c-.29,.28-.83,.36-1.19,.18l-2.16-1.04-.15-.07,1.05,3.2s.04,0,.11,0c.56,0,3.27-.18,5.97-2.55,2.2-1.93,3.42-4.03,4-5.84,.09-.15,.17-.29,.24-.41,.32-.56,.35-1.25,.16-1.62,.07-1.13-.15-1.98-.54-2.35-.41-.38-1.39-.15-2.55,.33l2.52,1.22c.13,.06,.21,.16,.26,.26Z"/><path class="h" d="M221.02,44.24s.04,.07,.05,.1l-.03-.11h-.01Z"/><path class="h" d="M221.07,44.36c0,.05,0,.11-.02,.17,.03,0,.05,.01,.08,.02l-.06-.19Z"/><path class="h" d="M209.95,52.06l2.16,1.04c.36,.18,.89,.1,1.19-.18l4.28-4c.36-.58,1.09-1.71,1.85-2.76l-6.37,5.95c-.29,.27-.82,.35-1.19,.18l-2.18-1.06-.15-.07-.74-.36-1.73-.84c-.16-.08-.25-.2-.29-.32h0l.24,.8v.04c.05,.12,.15,.22,.3,.29l.45,.22,2.05,.99,.15,.07Z"/><path class="u" d="M207.07,49.97l1.73,.84,.74,.36,.15,.07,2.18,1.06c.36,.17,.89,.09,1.19-.18l6.37-5.95c.34-.47,.68-.92,1-1.29,.24-.29,.45-.38,.62-.34,.01-.06,.03-.11,.02-.17h0s-.03-.08-.05-.11c-.05-.1-.12-.19-.26-.26l-2.52-1.22-2.28-1.1c-.36-.18-.89-.09-1.19,.18l-2.42,2.26s.29,.05,.59,.22c.06,.03,.11,.07,.17,.11,.23,.17,.43,.42,.47,.8,.08,.69-.43,.68-.97,.55-.21-.05-.43-.12-.62-.18-.04-.01-.07-.01-.11-.02-.08-.02-.16-.03-.24-.04-.51-.06-.93,.08-1.01,.17l-3.69,3.44c-.16,.15-.21,.33-.16,.49,.04,.13,.13,.25,.29,.32Z"/><path class="ac" d="M211.64,45.54c.08,0,.16,.02,.24,.04,.04,0,.07,0,.11,.02,.19,.06,.41,.13,.62,.18,.54,.13,1.05,.14,.97-.55-.04-.38-.25-.63-.47-.8-.06-.04-.11-.08-.17-.11-.3-.17-.59-.22-.59-.22-1.96-.28-2.01,1.95-1.72,1.61,.08-.09,.49-.23,1.01-.17Z"/><path class="t" d="M141.32,94.77h0c7.77-2.17,13.44-7.53,16.83-11.65,3.66-4.45,5.53-8.46,5.54-8.5,.09-.19,0-.43-.19-.52-.2-.09-.43,0-.52,.19-.02,.04-1.85,3.97-5.45,8.35-3.31,4.02-8.85,9.27-16.42,11.38-.21,.06-.33,.27-.27,.48,.06,.21,.27,.33,.48,.27Z"/><path class="t" d="M162.29,86.84c-.07,.07-6.75,6.77-13.97,7.97-.21,.03-.35,.24-.32,.45,.03,.21,.24,.35,.45,.32,.58-.1,1.15-.22,1.71-.38,6.75-1.85,12.43-7.55,12.69-7.81,.15-.15,.15-.4,0-.55s-.4-.15-.55,0Z"/><path class="t" d="M143.67,45.62c.58-.1,1.15-.23,1.71-.38,6.75-1.87,12.41-7.58,12.67-7.84,.15-.15,.15-.4,0-.55-.15-.15-.4-.15-.55,0-.07,.07-6.73,6.78-13.95,8-.21,.03-.35,.24-.32,.45,.04,.21,.24,.35,.45,.32Z"/><path class="ac" d="M206.59,170.36l-.87-1.94c-2.01,1.48-4.19,2.32-5.63,2.75l1.05,2.02c1.39-.48,3.63-.42,4.95-1.37,0,0,.17-.73,.51-1.45Z"/><path class="m" d="M223.37,170.9c-1,.23-2.84,.07-4.92-.24-.08,.19-.29,.31-.5,.26-.04,0-1.16-.24-2.04,.82-.76,.91-.95,2.62-.95,2.64-.01,.12-.07,.22-.15,.29-.09,.07-.21,.11-.33,.1-.24-.03-.42-.24-.39-.49,0-.08,.22-2,1.15-3.11,.16-.19,.33-.35,.5-.49-.36-.02-1.17,.02-1.85,.84-.75,.91-.95,2.62-.95,2.64-.01,.12-.07,.22-.15,.29-.09,.08-.21,.12-.33,.1-.24-.03-.42-.24-.39-.48,0-.08,.22-2,1.15-3.11,.35-.43,.74-.69,1.11-.86-.03,0-.06,0-.09,0-.04,0-1.16-.24-2.04,.82-.76,.91-.95,2.62-.95,2.64-.01,.12-.07,.22-.15,.29-.09,.07-.21,.11-.33,.1-.24-.03-.42-.24-.39-.49,0-.08,.22-1.99,1.15-3.11,.29-.35,.59-.58,.9-.76-2.33-.44-4.19-.77-4.62-.62-.51,.18-.91,.78-1.19,1.39-.34,.73-.51,1.45-.51,1.45-1.32,.95-3.57,.89-4.95,1.37-.76,.26-1.26,.68-1.21,1.52,.16,2.37,3.69,8.79,3.69,8.79,0,0,7.83-2.81,14.39-5.42h0c4.71-1.88,8.77-3.65,8.8-4.2,.04-.84-.1-2.1-1.01-2.73h0c-.52-.36-1.29-.51-2.42-.25Z"/><path class="d" d="M211.5,170.35c-.93,1.11-1.14,3.03-1.15,3.11-.03,.24,.15,.46,.39,.49,.12,.01,.24-.03,.33-.1,.08-.07,.14-.17,.15-.29,0-.02,.19-1.73,.95-2.64,.88-1.05,2-.83,2.04-.82,.03,0,.06,0,.09,0-.37,.17-.76,.44-1.11,.86-.93,1.11-1.14,3.03-1.15,3.11-.03,.24,.15,.46,.39,.48,.12,.01,.24-.03,.33-.1,.08-.07,.14-.17,.15-.29,0-.02,.2-1.73,.95-2.64,.68-.81,1.49-.86,1.85-.84-.17,.14-.34,.29-.5,.49-.93,1.11-1.14,3.03-1.15,3.11-.03,.24,.15,.46,.39,.49,.12,.01,.24-.03,.33-.1,.08-.07,.14-.17,.15-.29,0-.02,.19-1.73,.95-2.64,.88-1.05,2-.83,2.04-.82,.21,.05,.42-.07,.5-.26,.01-.02,.03-.04,.03-.07,.06-.24-.09-.47-.33-.53-.05-.01-.82-.17-1.7,.2,0-.19-.13-.37-.33-.41-.04-.01-.69-.15-1.48,.11,.05-.05,.09-.12,.11-.19,.06-.24-.09-.47-.33-.53-.05-.01-1.02-.22-2.02,.36-.3,.17-.61,.41-.9,.76Z"/><path class="m" d="M134.18,105.91c1.42,1.39,3.72,3.31,7.25,5.44,2.92,1.77,6.99,3.85,12.47,5.98,.35,.13,.72,.27,1.08,.41h0c.78,.29,1.58,.59,2.42,.88,6.4,2.25,14.42,4.47,24.45,6.36,.85,.16,1.55,.77,1.83,1.59,1.91,5.72,9.97,28.22,16.41,40.2,2.06-.88,4.15-1.87,5.2-2.38-2.44-9.22-10.62-39.35-14.16-43.2-1.07-1.16-2.37-2.31-3.83-3.45h0c-4.13-3.21-9.51-6.23-14.38-8.67-.69-.34-1.37-.68-2.03-1-.38-.18-.75-.36-1.12-.54-5.09-2.41-9.02-3.96-9.32-4.08h-.03c-.91-.27-1.9-.51-2.95-.75-8.51-1.92-20.74-3.11-21.66-1.54h0c-.97,1.67-1.48,3.25-1.62,4.74Z"/><path class="m" d="M182.58,126.93c-.14-.42-.5-.73-.94-.82-11.29-2.12-20.07-4.68-26.86-7.22-.28-.11-.56-.21-.84-.32-.74-.28-1.44-.56-2.13-.84h0c-4.78-1.95-8.42-3.84-11.1-5.47-2.94-1.79-5.04-3.42-6.51-4.74,.4,4.06,3.71,7.44,8.38,10.22h0c13.36,7.94,37.91,10.98,37.91,10.98,4.03,14.02,13.18,32.25,16.78,39.18,.54-.19,1.14-.42,1.76-.68-6.48-12.13-14.53-34.56-16.44-40.28Z"/><path class="h" d="M207.3,167.06l-1.31-3.02s-.27,.13-.7,.34c-1.05,.51-3.14,1.5-5.2,2.38-6.43-11.98-14.5-34.48-16.41-40.2-.27-.82-.97-1.43-1.83-1.59-10.03-1.89-18.05-4.11-24.45-6.36-.83-.29-1.64-.58-2.42-.88h0c-.36-.14-.73-.27-1.08-.41-5.48-2.13-9.55-4.21-12.47-5.98-3.53-2.14-5.83-4.05-7.25-5.44-.05,.55-.05,1.09,0,1.61,1.47,1.32,3.57,2.95,6.51,4.74,2.68,1.63,6.32,3.53,11.1,5.47h0c.69,.28,1.4,.56,2.13,.84,.28,.11,.56,.21,.84,.32,6.79,2.54,15.58,5.09,26.86,7.22,.44,.08,.8,.4,.94,.82,1.91,5.72,9.95,28.15,16.44,40.28-.62,.25-1.21,.48-1.76,.68-.31,.11-.61,.21-.88,.3l2.11,3.38s.63-.11,1.6-.4c1.44-.43,3.63-1.27,5.63-2.75,.55-.4,1.08-.85,1.58-1.36Z"/><path class="ac" d="M109.05,120.04c.38,0,4.07-1.81,4.07-1.81-2.52,1.24-5.45,4.67-4.42,4.53,.31-.04,4.92-2.66,4.92-2.66-5.03,3.06-4.3,5.21-3.29,4.21,1.01-1.01,5.33-2.94,5.33-2.94-1.63,.88-5.83,4.36-3.9,4.36s11.06-7.49,12.41-7.7c1.12-.17-3.62,5.19-1.41,5,1.88-.17,4.15-3.11,4.94-5.3h0c.14-.38,.23-.74,.27-1.06,.25-2.14-2.79-6.26-2.79-6.26-5.22,1.48-6.27-.75-6.27-.75,0,0-4.04,6.28-6.51,7.65-.26,.14-.49,.28-.72,.42h0c-2.21,1.32-3.09,2.31-2.62,2.3Z"/><path class="j" d="M125.17,110.42l5.05-31.26,1.49-5.5-.02,1.02,.23,1.48,3.88,25.01h0c.91-1.56,13.15-.38,21.66,1.54,1.05,.24,2.04,.48,2.95,.74h.03c7.67-4.82,9.95-15.34,8.71-19.64,0-.03-.01-.05-.02-.08-1.23-5.4-1.93-9.68-2.3-13.57-.61-6.34-.36-11.65-.11-19.1,.04-1.11,.07-2.26,.11-3.48,.09-3.33,.16-7.1,.15-11.52h0l-7.42-1.03-.59-.08-1.69-.23-2.82-.39-.21,1.19s-1.89,2.49-4.15,1.88c-2.27-.61-4.18-3.54-4.18-3.54l.04-.25-.81,.27-2.21,.75-.53,.18-9.83,3.32h0s-10.25,19.68-12.58,40.27l-1.1,31.26s1.05,2.23,6.27,.75Zm37.67-23.04c-.26,.26-5.93,5.96-12.69,7.81-.56,.15-1.13,.28-1.71,.38-.21,.04-.41-.11-.45-.32-.04-.21,.1-.41,.32-.45,7.22-1.2,13.9-7.9,13.97-7.97,.15-.15,.4-.15,.55,0s.15,.4,0,.55Zm-19.3-42.52c7.22-1.22,13.88-7.94,13.95-8,.15-.15,.4-.16,.55,0,.15,.15,.16,.4,0,.55-.26,.26-5.92,5.97-12.67,7.84-.56,.16-1.13,.29-1.71,.38-.21,.04-.41-.11-.45-.32-.04-.21,.1-.41,.32-.45Zm-2.42,49.17c7.57-2.11,13.11-7.35,16.42-11.38,3.6-4.38,5.43-8.31,5.45-8.35,.09-.19,.32-.28,.52-.19,.19,.09,.28,.32,.19,.52-.02,.04-1.88,4.04-5.54,8.5-3.39,4.12-9.06,9.48-16.83,11.65h0c-.21,.06-.42-.06-.48-.27-.06-.21,.06-.42,.27-.48Z"/><path class="u" d="M143.12,15.34s.02,.02,.03,.03h0c.77,.51,.88,1.32,.88,2.18,0,.29-.02,.58-.04,.86l1.39,.25,.06-.31c.13-.6,.17-.88,.21-1.45,.08-1.25-.54-3.3,.39-3.88,.76-.48,1.17-.83,1.41-1.15,.5-.66,.29-1.15,.99-2.2,.86-1.28,4.75-1.35,6.73,.06,2.07,1.48,4.46,1.39,5.41,1.79,.88,.37,1.87,1.77,1.54,2.93-.03,.09-.04,.18-.08,.27-.59,1.2,.36,2.16,.4,3.52,0,.24-.04,.56-.11,.9-.16,.74-.46,1.62-.73,2.36l.43,.08,.31,.05,.37,.06h0s.02-.07,.03-.1c.02-.07,.04-.15,.06-.22,.12-.42,.25-.84,.35-1.25,.02-.07,.03-.14,.05-.21,.06-.25,.12-.48,.17-.72,.03-.14,.07-.28,.1-.42,.01-.06,.03-.12,.04-.18-.01,.06-.03,.12-.04,.18h.06c.23-.62,.41-1.26,.53-1.93,.12-.68,.17-1.36,.16-2.03h0s3.31-.31,3.44-3.45c.11-2.67-3.26-1.52-2.63-3.51,.63-1.99,1.56-3.74-.99-4.71-2.23-.85-2.55,.72-5.17-2.11-3.1-3.34-6.96,2.45-10.18,2.07-4.76-.55-5.83,2-6.67,4.05-.59,1.45,0,2.77,.41,3.43-.3,.74-.53,1.51-.68,2.33-.13,.73-.18,1.46-.17,2.18,.52-.22,1.06-.07,1.54,.23Zm20.94,.37c.05-.3,.07-.6,.07-.89,0-.09,0-.19-.01-.28,0,.09,.01,.19,.01,.28,0,.3-.02,.59-.07,.89-.06,.37-.13,.77-.2,1.19,.08-.42,.15-.82,.2-1.19Zm-15.73-8.48c.94-.18,1.98-.32,3.1-.38-1.12,.05-2.16,.2-3.1,.38-1.04,.2-1.98,.68-2.75,1.34,.77-.66,1.71-1.13,2.75-1.34Z"/><path class="a`" d="M163.38,19.18c-.06,.25-.12,.5-.19,.75-.02,.07-.03,.14-.05,.21-.11,.41-.22,.83-.35,1.25,.6-.29,1.08-.39,1.12-.4,.15-.03,.29,.07,.32,.22,.03,.15-.07,.29-.22,.32-.01,0-.64,.14-1.34,.55,.39,.36,.55,.72,.56,.74,.06,.14,0,.3-.15,.36-.05,.02-.1,.03-.15,.02-.09-.02-.17-.07-.21-.16,0,0-.1-.21-.32-.45-.1,.28-.19,.57-.3,.85-.3,.82-.65,1.62-1.03,2.4,2.49,.16,4.53-4.15,3.69-6.04-.32-.73-.79-.98-1.26-1h-.06c-.03,.13-.06,.26-.09,.39Z"/><path class="f" d="M164.02,21.53c.15-.03,.25-.17,.22-.32-.03-.15-.17-.25-.32-.22-.04,0-.53,.11-1.12,.4-.02,.07-.05,.15-.07,.22-.01,.03-.02,.07-.03,.1h0c-.03,.1-.06,.2-.09,.3,.03,.02,.06,.05,.08,.07,.69-.41,1.33-.55,1.34-.55Z"/><path class="f" d="M162.94,23.2c.05,0,.1,0,.15-.02,.14-.06,.21-.22,.15-.36,0-.02-.17-.38-.56-.74-.02-.02-.06-.05-.08-.07-.02,.05-.03,.1-.05,.14-.05,.14-.09,.29-.14,.43,.22,.24,.32,.45,.32,.45,.04,.09,.12,.15,.21,.16Z"/><path class="ac" d="M150.08,37.41c2.27,.61,4.15-1.88,4.15-1.88l.21-1.19,.11-.63c-4.17-.12-6.85-1.03-8.09-3.02l-.52,2.93-.04,.25s1.91,2.94,4.18,3.54Z"/><path class="a`" d="M154.56,33.71l.33-1.84c-.23,.06-.46,.12-.7,.16-3.57,.61-5.98-.27-7.63-1.82l-.08,.48c1.24,1.99,3.92,2.91,8.09,3.02Z"/><path class="ac" d="M164.13,14.81c0-.09,0-.19-.01-.28,0,.09,.01,.19,.01,.28,0,.3-.02,.59-.07,.89-.06,.37-.13,.77-.2,1.19,.08-.42,.15-.82,.2-1.19,.05-.3,.07-.6,.07-.89Z"/><path class="ac" d="M151.43,6.85c-1.12,.05-2.16,.2-3.1,.38-1.04,.2-1.98,.68-2.75,1.34,.77-.66,1.71-1.13,2.75-1.34,.94-.18,1.98-.33,3.1-.38Z"/><path class="ac" d="M163.14,20.13c-.11,.41-.23,.83-.35,1.25-.02,.07-.04,.15-.06,.22,.02-.07,.05-.15,.07-.22,.12-.42,.24-.84,.35-1.25Z"/><path class="ac" d="M163.47,18.79c.01-.06,.03-.12,.04-.18-.01,.06-.03,.12-.04,.18-.03,.14-.07,.28-.1,.42-.06,.24-.11,.48-.17,.72,.06-.25,.13-.51,.19-.75,.03-.13,.06-.26,.09-.39Z"/><path class="ac" d="M154.18,32.03c.24-.04,.47-.09,.7-.16,2.79-.77,4.79-3.18,6.2-6.04,.38-.77,.73-1.58,1.03-2.4,.1-.28,.2-.57,.3-.85,.05-.14,.1-.29,.14-.43,.02-.05,.03-.1,.05-.14,.03-.1,.06-.2,.09-.3l-.37-.06-.31-.05-.43-.08c.27-.74,.57-1.63,.73-2.36,.07-.34,.12-.66,.11-.9-.03-1.36-.98-2.32-.4-3.52,.04-.09,.06-.18,.08-.27,.33-1.16-.66-2.56-1.54-2.93-.94-.4-3.33-.32-5.41-1.79-1.98-1.41-5.87-1.34-6.73-.06-.7,1.04-.49,1.54-.99,2.2-.24,.32-.65,.67-1.41,1.15-.93,.58-.31,2.63-.39,3.88-.04,.57-.08,.85-.21,1.45l-.06,.31-1.39-.25c.03-.29,.04-.57,.04-.86,0-.86-.11-1.67-.88-2.18h0s-.02-.02-.03-.03c-.48-.3-1.02-.46-1.54-.23-.18,.08-.36,.2-.53,.38-1.65,1.71-1.27,7.97,2.16,7.2,.38,2.51,1.24,5.55,3.35,7.52,1.65,1.54,4.06,2.42,7.63,1.82Zm-10.87-11.45c0,.07-.04,.12-.09,.17-.06,.05-.13,.09-.21,.08,0,0-.01,0-.02,0-.02,0-.04,0-.05-.01-.11-.04-.19-.16-.17-.28,.02-.22,.02-.42,0-.62-.03-.33-.11-.64-.22-.92-.06,0-.12,.01-.18,.03-.36,.09-.59,.24-.59,.24-.08,.06-.18,.07-.26,.03-.05-.02-.09-.05-.12-.1-.09-.12-.06-.3,.06-.39,.01-.01,.28-.2,.71-.31,.05-.01,.1-.02,.15-.03-.1-.19-.2-.35-.3-.5-.29-.41-.55-.66-.56-.67-.11-.1-.12-.28-.02-.39,.09-.09,.22-.1,.32-.04,.02,.01,.05,0,.07,.02,.04,.04,.71,.65,1.14,1.64,.25,.57,.42,1.27,.35,2.06Zm15.35-.68c-.11,.61-.51,1.05-.9,.98-.39-.07-.62-.62-.51-1.23,.11-.61,.51-1.05,.9-.98s.62,.62,.51,1.23Zm2.18-3.12c.1,.53-.14,.72-.38,1.18-2.23-1.31-4.77-1.2-4.77-1.2v-1.08c2.42-.57,5.14,1.1,5.14,1.1Zm-7.83,5.98c.05-.02,.13-.07,.18-.23,.27-.93,.57-4.16,.57-4.19,.01-.15,.15-.26,.3-.25,.15,.01,.26,.15,.25,.3-.01,.13-.31,3.31-.59,4.29-.11,.37-.34,.53-.51,.59-.19,.07-.41,.07-.62,.04-.46-.08-.88-.34-.95-.38-.13-.08-.17-.25-.09-.38,.08-.13,.25-.17,.38-.09,.23,.14,.79,.4,1.07,.3Zm-5.56-8.34s3.13-.64,5.21,.73l-.37,1.01s-2.34-.98-4.89-.51c-.06-.51-.23-.78,.05-1.24Zm2.97,4.03c-.11,.61-.51,1.05-.9,.98-.39-.07-.62-.62-.51-1.23,.11-.61,.51-1.05,.9-.98,.39,.07,.62,.62,.51,1.23Zm-1.48,7.05c-.08-.4-.11-.79-.11-1.13l6.88,1.22c-.04,.1-.09,.2-.14,.31-.5,1.1-1.61,2.65-3.87,2.25-1.85-.33-2.52-1.51-2.76-2.64Zm1.28,3.46s-.02-.04-.03-.06c-.07-.1-.08-.23,0-.33,.1-.11,.27-.13,.39-.03,0,0,.44,.38,.99,.48,.5,.09,1.04-.11,1.04-.12,.14-.06,.3,.01,.36,.15,.06,.14-.01,.3-.15,.36,0,0-.06,.02-.14,.05-.23,.07-.71,.19-1.2,.1-.7-.12-1.24-.59-1.26-.61Z"/><path class="u" d="M158.16,18.67c-.39-.07-.79,.37-.9,.98-.11,.61,.12,1.16,.51,1.23,.39,.07,.79-.37,.9-.98,.11-.61-.12-1.16-.51-1.23Z"/><path class="u" d="M149.03,18.19c-.11,.61,.12,1.16,.51,1.23,.39,.07,.79-.37,.9-.98,.11-.61-.12-1.16-.51-1.23-.39-.07-.79,.37-.9,.98Z"/><path class="u" d="M160.47,17.96c.23-.46,.48-.65,.38-1.18,0,0-2.72-1.67-5.15-1.1v1.08s2.54-.11,4.77,1.2Z"/><path class="u" d="M152.3,16.16l.37-1.01c-2.08-1.37-5.21-.73-5.21-.73-.28,.46-.12,.73-.05,1.24,2.55-.47,4.89,.51,4.89,.51Z"/><path class="a`" d="M151.56,22.55c-.08,.13-.04,.3,.09,.38,.07,.04,.49,.3,.95,.38,.21,.04,.42,.04,.62-.04,.18-.07,.41-.22,.51-.59,.28-.98,.58-4.16,.59-4.29,.01-.15-.1-.29-.25-.3-.15-.01-.29,.1-.3,.25,0,.03-.31,3.26-.57,4.19-.05,.16-.12,.21-.18,.23-.28,.11-.84-.15-1.07-.3-.13-.08-.3-.04-.38,.09Z"/><path class="d" d="M155.58,25.89c.05-.11,.1-.21,.14-.31l-6.88-1.22c0,.35,.03,.74,.11,1.13,.23,1.14,.91,2.32,2.76,2.64,2.27,.4,3.38-1.16,3.87-2.25Z"/><path class="a`" d="M152.7,29.46c.08-.02,.13-.04,.14-.05,.14-.06,.21-.22,.15-.36-.06-.14-.22-.21-.36-.15,0,0-.54,.21-1.04,.12-.55-.1-.99-.47-.99-.48-.11-.1-.29-.09-.39,.03-.08,.1-.07,.23,0,.33,.01,.02,.01,.04,.03,.06,.02,.02,.56,.48,1.26,.61,.49,.09,.98-.03,1.2-.1Z"/><path class="a`" d="M141.83,16.88s-.04-.01-.07-.02c-.11-.05-.24-.05-.32,.04-.1,.11-.09,.29,.02,.39,0,0,.27,.26,.56,.67,.1,.15,.2,.31,.3,.5,.13-.03,.26-.05,.4-.06,.12,0,.2,.07,.25,.18,.01,.03,.04,.05,.04,.09,0,.05-.02,.08-.04,.12-.04,.09-.11,.16-.22,.17-.07,0-.13,.02-.2,.03,.1,.28,.19,.59,.22,.92,.02,.2,.02,.41,0,.62-.01,.13,.06,.24,.17,.28,.02,0,.04,0,.05,.01,0,0,.01,0,.02,0,.08,0,.16-.03,.21-.08,.05-.04,.08-.1,.09-.17,.08-.79-.09-1.49-.35-2.06-.43-.99-1.1-1.6-1.14-1.64Z"/><path class="a`" d="M142.96,18.78s.05-.08,.04-.12c0-.03-.03-.06-.04-.09-.04-.1-.13-.18-.25-.18-.15,0-.28,.03-.4,.06-.05,.01-.1,.02-.15,.03-.43,.12-.7,.3-.71,.31-.12,.09-.15,.26-.06,.39,.03,.04,.08,.08,.12,.1,.08,.03,.18,.02,.26-.03,0,0,.23-.16,.59-.24,.05-.01,.12-.02,.18-.03,.07-.01,.13-.03,.2-.03,.1,0,.18-.08,.22-.17Z"/><path class="ac" d="M248.39,167.23l-.68-3.7-1.88-10.2h0l-.14-.79c-.49,.76-.95,1.47-1.41,2.16h0c-.15,.24-.31,.48-.45,.7l-.16-.14h0c-.7-.64-3.66-3.31-7.36-6.74-3.29-3.05-7.43-7.54-9.54-9.87,.37-.88,.77-2.26,.43-3.56-.56-2.11-1.1-6.9-3.41-6.77-.84,.05,.39,2.04-.18,3.89,0,0-2.47-1.19-4.13-2.42-1.46-1.08-4.47-2.82-5.88-3.62-.38-.22-.83,.2-.61,.58,.36,.61,1.24,1.52,3.27,2.79,0,0-5.05-2.83-5.9-2.21-.85,.62,5.54,4.05,5.54,4.05,0,0-5.16-2.08-5.58-1.32-.26,.46,4.8,3.44,4.8,3.44,0,0-5.02-1.55-4.09-.37,.24,.3,7.79,3.75,10.86,8.03h0s7.27,12.82,13.73,21.25h0c2.23,2.92,4.37,5.3,6.07,6.45,.25,.17,.49,.32,.72,.43,1.71,.85,3.82-.15,5.98-2.06Z"/><path class="a`" d="M245.83,153.32l1.88,10.2,.68,3.7c.58-.52,1.17-1.11,1.76-1.74l-.84-3.38-2.41-9.73h0l-.31-1.25c-.3,.48-.6,.95-.9,1.41l.14,.78h0Z"/><path class="ac" d="M268.98,297.25h-1.95c-.14,0-.27-.01-.4-.02v3.64c.76,.42,1.46,1.38,1.46,1.38,1.33,.31,3.09-.48,4.28-.49l.08-1.42,.03-.58,.15-2.66c-.41,.09-.83,.15-1.26,.15h-2.4Z"/><path class="m" d="M266.63,297.23c.13,0,.26,.02,.4,.02h4.35c.43,0,.85-.06,1.26-.15,.57-.12,1.11-.32,1.61-.6,.16-.09,.3-.19,.45-.3-.15,.1-.29,.21-.45,.29,.11-1.2,.19-2.73,.23-4.68,0-.45,.02-.93,.02-1.4,.05-4.72-.1-10.33-.24-15.78-.2-7.33-.39-14.25,.02-17.2,.77-5.57,2.35-32.39,3.11-45.62-4.99-.26-9.99-.88-14.98-1.88-.1,1.73-.22,3.94-.36,6.51h0c-.61,11.76-1.4,30.62-.85,41.27,.33,6.57,.37,14.26,.29,21.11-.05,4.36-.14,8.37-.24,11.52-.01,.34-.02,.69-.03,1.01-.1,3.08,2.32,5.64,5.41,5.85Z"/><path class="m" d="M275.5,274.61c.16,5.88,.32,11.95,.23,16.9,0,.11,0,.23,0,.33-.03,1.41-.08,2.61-.15,3.64-.09,.09-.19,.17-.29,.25,.09-.08,.2-.16,.28-.25,.74-.76,1.27-1.72,1.49-2.79,.09-.43,.14-.87,.12-1.33-.29-9.4-.7-27.36,.21-32.83,.88-5.34,2.39-29.09,3.19-42.46,.09-1.53,.18-2.92,.25-4.13-.74-.01-1.47-.03-2.21-.06-.76,13.24-2.35,40.12-3.12,45.72-.39,2.85-.21,9.73,0,17Z"/><path class="h" d="M274.25,274.65c.15,5.45,.3,11.06,.24,15.78,0,.47-.01,.95-.02,1.4-.04,1.95-.13,3.48-.23,4.68,.16-.09,.3-.19,.45-.29,.21-.14,.41-.3,.59-.47,.09-.08,.2-.16,.29-.25,.07-1.03,.12-2.23,.15-3.64,0-.11,0-.22,0-.33,.1-4.95-.07-11.02-.23-16.9-.2-7.28-.38-14.15,0-17,.77-5.61,2.36-32.48,3.12-45.72-.42-.02-.83-.04-1.25-.06-.75,13.23-2.34,40.05-3.11,45.62-.41,2.95-.22,9.87-.02,17.2Z"/><path class="m" d="M272.37,301.75c-1.2,.01-2.95,.8-4.28,.49,0,0-.7-.96-1.46-1.38-.23-.13-.46-.21-.69-.2-.36,.02-1.66,.83-3.28,1.85,.28,.04,.59,.12,.91,.29,.89,.47,1.57,1.52,1.77,1.85,.03,.05,.05,.09,.06,.1,.09,.17,.03,.38-.14,.48-.09,.05-.19,.05-.28,.03-.08-.03-.16-.08-.2-.17,0,0-.1-.19-.28-.43-.27-.39-.73-.95-1.25-1.23-.98-.51-1.76,0-1.79,.01-.04,.03-.09,.02-.13,.03,.35,0,.74,.08,1.16,.3,.41,.21,.77,.55,1.06,.88,.45,.52,.74,1.03,.76,1.06,.09,.17,.03,.38-.15,.48-.09,.05-.19,.05-.28,.02-.08-.03-.16-.08-.2-.17,0-.01-.49-.86-1.14-1.4-.12-.1-.25-.19-.38-.26-.76-.4-1.39-.19-1.65-.06,.17,.05,.34,.12,.52,.21,.06,.03,.12,.07,.18,.11,.95,.59,1.62,1.78,1.65,1.83,.09,.17,.03,.38-.14,.48-.09,.05-.19,.05-.28,.02-.08-.03-.16-.08-.21-.17,0-.01-.68-1.22-1.53-1.66-.98-.51-1.76,0-1.79,.01-.14,.1-.32,.06-.44-.05-1.47,.85-2.81,1.53-3.64,1.67-2.57,.43-2.11,2.28-1.67,3.23,.45,.95,20.4,.08,20.4,.08,0,0,.36-3.09,.32-5.46-.02-.87-.09-1.65-.25-2.14-.2-.59-.66-.77-1.24-.76Z"/><path class="d" d="M258.89,305.17s.8-.53,1.79-.01c.85,.44,1.52,1.65,1.53,1.66,.05,.08,.12,.14,.21,.17,.09,.03,.19,.02,.28-.02,.17-.09,.24-.31,.14-.48-.03-.05-.7-1.24-1.65-1.83-.06-.04-.12-.08-.18-.11-.18-.09-.35-.16-.52-.21,.26-.13,.89-.34,1.65,.06,.13,.07,.26,.16,.38,.26,.66,.53,1.14,1.39,1.14,1.4,.05,.08,.12,.14,.2,.17,.09,.03,.19,.02,.28-.02,.17-.09,.24-.31,.15-.48-.02-.03-.31-.55-.76-1.06-.29-.33-.65-.67-1.06-.88-.42-.22-.81-.29-1.16-.3,.04-.01,.09,0,.13-.03,.03-.02,.8-.53,1.79-.01,.52,.27,.98,.83,1.25,1.23,.17,.25,.27,.43,.28,.43,.05,.08,.12,.14,.2,.17,.09,.03,.19,.02,.28-.03,.17-.09,.24-.31,.14-.48,0,0-.03-.04-.06-.1-.19-.32-.87-1.38-1.77-1.85-.32-.17-.63-.25-.91-.29-.93-.12-1.59,.32-1.63,.35-.16,.11-.2,.33-.08,.49,.04,.06,.11,.09,.18,.11-.69,.04-1.15,.35-1.18,.37-.14,.09-.18,.26-.12,.41-.77,0-1.31,.34-1.34,.36-.02,.01-.03,.03-.05,.05-.11,.12-.14,.3-.04,.44,.01,.02,.04,.02,.06,.03,.12,.11,.3,.15,.44,.05Z"/><path class="ac" d="M294.74,297.25c-.07,0-.14,0-.21-.01l.44,4.33v.07c.31-.04,.69,.03,1.11,.04,.3,0,.62-.02,.96-.15,0,0,2.35-.61,3.2-.66l.22-3.78c-.44,.1-.89,.16-1.36,.16h-4.35Z"/><path class="m" d="M292.03,257.45c.41,2.95,.22,9.87,.02,17.2-.16,6-.33,12.2-.22,17.18,.04,2.01,.13,3.58,.24,4.79-.3-.15-.58-.34-.84-.53,.27,.2,.54,.39,.84,.54,.74,.37,1.58,.59,2.46,.62,.07,0,.14,.01,.21,.01h4.35c.47,0,.92-.06,1.36-.16,2.61-.61,4.53-2.95,4.45-5.71-.24-7.95-.54-22.44,.02-33.64,.63-12.33-.53-35.64-1.13-46.22-.04-.63-.07-1.2-.1-1.73-4.93,1.02-9.86,1.69-14.78,2,.75,13.21,2.34,40.09,3.11,45.67Z"/><path class="m" d="M285.85,221.37c.84,13.59,2.1,32.48,2.88,37.17,.91,5.48,.5,23.43,.2,32.83-.06,1.7,.65,3.23,1.82,4.31-.07-1.07-.13-2.34-.16-3.83-.11-5.01,.06-11.23,.22-17.24,.2-7.28,.38-14.15-.01-17-.77-5.61-2.37-32.55-3.12-45.77-.61,.03-1.22,.07-1.83,.08-.19,0-.38,0-.57,.01,.06,1.04,.13,2.19,.2,3.47,.11,1.8,.23,3.82,.36,5.97Z"/><path class="h" d="M290.8,274.61c-.16,6.01-.33,12.23-.22,17.24,.03,1.5,.09,2.76,.16,3.83h0c.15,.15,.31,.27,.48,.39,.27,.2,.54,.38,.84,.53-.11-1.21-.2-2.77-.24-4.79-.11-4.98,.06-11.18,.22-17.18,.2-7.33,.39-14.25-.02-17.2-.77-5.58-2.36-32.46-3.11-45.67-.41,.03-.83,.04-1.24,.06,.75,13.22,2.35,40.16,3.12,45.77,.39,2.85,.21,9.73,.01,17Z"/><path class="m" d="M296.07,301.67c-.43,0-.8-.08-1.11-.04-.37,.05-.64,.28-.79,1.03-.35,1.81,.46,7.58,.46,7.58,0,0,8.85,2.14,14.02,1.49,1.79-.22,1.78-4.72-1.15-5.28-.29-.05-.67-.27-1.12-.57h0l-.02-.02s-.03-.02-.06-.04c-.21-.14-.84-.47-1.69-.12-.89,.36-1.67,1.5-1.68,1.51-.05,.08-.13,.13-.22,.15-.09,.02-.19,0-.28-.05-.16-.11-.21-.33-.1-.49,.04-.05,.92-1.32,2-1.77,.19-.08,.37-.13,.54-.16-.25-.15-.85-.42-1.65-.1-.89,.36-1.68,1.5-1.68,1.51-.05,.08-.13,.13-.22,.15-.09,.02-.19,0-.28-.05-.16-.11-.21-.33-.1-.49,.04-.05,.92-1.32,2-1.76,.4-.16,.76-.21,1.08-.2l-.08-.08c-.19-.13-.84-.5-1.72-.14-.89,.36-1.67,1.5-1.68,1.51-.05,.08-.13,.13-.22,.15-.09,.02-.19,0-.28-.05-.16-.11-.21-.33-.1-.49,.04-.05,.92-1.32,2-1.77,.33-.13,.63-.19,.91-.2-.2-.19-.4-.36-.59-.53-.93-.84-1.68-1.49-1.93-1.49-.03,0-.08,0-.12,0-.85,.05-3.2,.66-3.2,.66-.34,.13-.67,.15-.96,.15Z"/><path class="d" d="M299.95,304.85c-.11,.16-.07,.38,.1,.49,.08,.06,.19,.07,.28,.05,.09-.02,.17-.07,.22-.15,0-.01,.79-1.15,1.68-1.51,.88-.36,1.53,0,1.72,.14,.03,.02,.06,.04,.06,.04,.04,.03,.08,.03,.13,.04-.03,0-.07,0-.1,0-.32,0-.69,.04-1.08,.2-1.09,.44-1.97,1.71-2,1.76-.11,.16-.07,.38,.1,.49,.08,.06,.18,.07,.28,.05,.09-.02,.17-.07,.22-.15,0-.01,.8-1.15,1.68-1.51,.8-.32,1.4-.05,1.65,.1-.17,.03-.35,.08-.54,.16-1.09,.44-1.97,1.71-2,1.77-.11,.16-.07,.38,.1,.49,.08,.06,.18,.07,.28,.05,.09-.02,.17-.07,.22-.15,0-.01,.79-1.15,1.68-1.51,.85-.34,1.48-.02,1.69,.12,.03,.02,.05,.03,.06,.04l.02,.02h0c.15,.12,.37,.11,.5-.04,.13-.15,.11-.37-.04-.5-.03-.02-.54-.43-1.32-.49,.07-.14,.06-.31-.06-.41-.03-.02-.46-.38-1.14-.48,.07-.02,.14-.04,.19-.09,.13-.15,.11-.37-.04-.5-.03-.03-.66-.54-1.61-.5-.28,.01-.58,.06-.91,.2-1.09,.44-1.97,1.71-2,1.77Z"/><path class="w" d="M285.85,121.72h0c-.81,.58-1.83,1.06-2.9,.97-.68-.06-1.31-.33-1.87-.7h0c-1.48-.97-2.45-2.59-2.45-2.59v-.18c-.06-.09-.11-.17-.14-.22-3.47,2.4-16.01,7.76-18.51,11.12h0c-.08,.1-.15,.27-.22,.47h0l-13.43,19.37,.29,1.16,.31,1.25h0l2.41,9.73,.84,3.38,.43,1.74,7.33-11.7s0,.08,0,.12c0,.25-.01,.49-.02,.75,.19-.41,.42-.88,.68-1.41,.3-.61,.63-1.27,.98-1.95,.12-.22,.23-.45,.35-.67,.42-.79,.85-1.58,1.28-2.29,.4-.68,.8-1.3,1.16-1.77,.13-.17,.37-.2,.54-.08,.17,.12,.21,.36,.08,.53-.52,.69-1.13,1.71-1.74,2.81-1.07,1.93-2.14,4.14-2.74,5.41-.13,.27-.24,.5-.32,.68-.11,.23-.17,.36-.17,.37-.03,.07-.08,.12-.14,.16-.48,20.09-.39,44.57-.31,50.69,1.62,.4,3.25,.75,4.87,1.08,4.99,1,9.98,1.62,14.98,1.88,.42,.02,.83,.04,1.25,.06,.74,.03,1.47,.05,2.21,.06,1.48,.03,2.96,.02,4.44-.01,.19,0,.38,0,.57-.01,.61-.02,1.22-.05,1.83-.08,.41-.02,.83-.03,1.24-.06,4.93-.3,9.85-.98,14.78-2,1.36-.28,2.71-.58,4.07-.91,.07-6.23-.07-31.93-.78-52.41v-.04h0c0,.19,.01,.39,.02,.58h0c-.15,0-.29-.08-.36-.23,0,0-.06-.14-.17-.37-.08-.17-.19-.4-.32-.68-.94-2-3.05-6.31-4.48-8.22-.13-.17-.09-.41,.08-.53,.17-.13,.42-.09,.54,.08,1.16,1.54,2.69,4.49,3.76,6.68,.37,.75,.68,1.41,.9,1.89l-.13-3.62c-.01-.31-.03-.61-.04-.91,.01,.28,.02,.56,.04,.85,.05,1.21,.1,2.44,.14,3.7,.17,.37,.29,.63,.35,.75,3.41-.12,6.27-1.65,8.16-3.04h0c1.62-1.18,2.54-2.26,2.54-2.26-3.5-8.87-11.37-18.62-13.01-20.6,0,.02,.01,.05,.02,.07-.11-.38-.22-.66-.34-.82-2.43-3.27-13.3-8.07-17.06-10.53v.82s-.71,.92-1.78,1.68Zm13.34,53.22c.21,.05,.33,.26,.28,.46-.05,.2-1.32,4.89-5.26,9.83-1.89,2.37-4.61,5.01-8.36,7.1-3.47,1.94-7.81,3.42-13.21,3.77h-.03c-.2,0-.37-.15-.39-.35-.01-.21,.15-.39,.36-.4,5.46-.35,9.82-1.88,13.26-3.88,3.44-2,5.95-4.46,7.73-6.67,3.85-4.81,5.13-9.53,5.14-9.58,.05-.2,.27-.33,.47-.27Zm-20.81,13.62c3.38-.89,5.77-2.46,7.47-4.1,3.08-2.97,3.86-6.22,3.87-6.27,.05-.21,.25-.34,.46-.29,.21,.04,.34,.25,.3,.45-.02,.08-.48,2.11-2.18,4.48-.6,.83-1.4,1.77-2.45,2.69-1.7,1.48-4.05,2.91-7.27,3.76-.03,0-.07,.01-.1,.01-.17,0-.33-.11-.37-.28-.06-.2,.07-.41,.27-.47Zm16.68-55.35c.21,0,.38,.18,.38,.39,0,.21-.18,.37-.39,.37h-.01c-3.51-.11-6.59-.92-9.19-1.98-.59-.24-1.15-.5-1.69-.76-1.59-.78-2.95-1.63-4.06-2.42-1.45-1.03-2.59-2.04-3.45-2.88h0c-1.15-1.13-1.78-1.94-1.82-1.99-.13-.17-.09-.41,.08-.53,.17-.13,.42-.09,.54,.08,.02,.03,.64,.82,1.79,1.92h0c1.56,1.51,4.11,3.61,7.55,5.27,.34,.16,.7,.32,1.06,.47,2.63,1.13,5.7,1.96,9.21,2.07Z"/><path class="e" d="M257.87,157c-.01,.39-.02,.79-.03,1.18,.06-.04,.11-.09,.14-.16,0-.01,.06-.14,.17-.37,.08-.17,.19-.41,.32-.68,.6-1.27,1.67-3.48,2.74-5.41,.61-1.1,1.22-2.12,1.74-2.81,.13-.17,.09-.41-.08-.53-.17-.12-.42-.09-.54,.08-.36,.47-.75,1.09-1.16,1.77-.42,.71-.86,1.49-1.28,2.29-.12,.22-.23,.45-.35,.67-.35,.68-.68,1.34-.98,1.95-.26,.52-.48,1-.68,1.41v.03c0,.19-.01,.38-.02,.58Z"/><path class="e" d="M284.78,130.66c-3.44-1.65-5.99-3.75-7.55-5.26h0c-1.14-1.11-1.77-1.9-1.79-1.93-.13-.17-.37-.2-.54-.08-.17,.13-.21,.36-.08,.53,.04,.06,.67,.86,1.82,1.99h0c.86,.84,2,1.85,3.45,2.88,1.11,.79,2.47,1.64,4.06,2.42,.54,.26,1.1,.52,1.69,.76,2.59,1.07,5.68,1.87,9.19,1.98h.01c.21,0,.38-.16,.39-.37,0-.21-.16-.39-.38-.39-3.51-.11-6.58-.94-9.21-2.07-.36-.15-.72-.31-1.06-.47Z"/><path class="e" d="M285.85,191.46c-3.44,2-7.8,3.53-13.26,3.88-.21,.01-.38,.19-.36,.4,.01,.2,.18,.35,.39,.35h.03c5.4-.35,9.74-1.83,13.21-3.77,3.74-2.1,6.47-4.73,8.36-7.1,3.94-4.94,5.21-9.63,5.26-9.83,.05-.2-.07-.41-.28-.46-.21-.05-.42,.07-.47,.27-.01,.05-1.29,4.76-5.14,9.58-1.77,2.21-4.29,4.68-7.73,6.67Z"/><path class="e" d="M278.47,189.3s.07,0,.1-.01c3.21-.85,5.57-2.28,7.27-3.76,1.05-.92,1.86-1.85,2.45-2.69,1.7-2.37,2.16-4.4,2.18-4.48,.05-.21-.09-.41-.3-.45-.21-.04-.42,.09-.46,.29-.01,.05-.79,3.29-3.87,6.27-1.7,1.64-4.09,3.2-7.47,4.1-.21,.05-.33,.26-.27,.47,.05,.17,.2,.28,.37,.28Z"/><path class="ac" d="M307.82,160.71l1.45,7.34c-.53,5.66,3.5,25.74,2.68,28.9-.82,3.17-1.33,7.66-.42,9.83,.87,2.09,1.62,5.46,2.62,3.86,.99-1.61-.25-6.45,.69-6.49,.95-.04,2.72,4.15,1.52,8.48-1.2,4.33,1.39,5.77,1.4,3.57,.01-2.19,2.05-4.66,2.29-7.99,.22-3.12-2.53-10.45-2.53-10.45,0,0,1.72-19.07,.67-28.42-.38-3.38-1.31-8.65-2.35-14-1.75,1.96-4.55,4.45-8.03,5.37Z"/><path class="a`" d="M307.31,156.4v.02c-.1,0-.21,0-.32,0h0v.04l.85,4.24c3.48-.91,6.28-3.41,8.03-5.37-.13-.66-.26-1.32-.39-1.98h0c-1.9,1.39-4.75,2.92-8.16,3.04Z"/><path class="a`" d="M306.96,155.65h0c-.04-1.25-.09-2.49-.14-3.7v.06l.13,3.62v.02h0Z"/><path class="e" d="M307.31,156.42v-.02c-.06-.12-.19-.38-.36-.75h0v-.02c-.23-.48-.55-1.14-.91-1.89-1.07-2.19-2.6-5.15-3.76-6.68-.13-.17-.37-.21-.54-.08-.17,.12-.21,.36-.08,.53,1.44,1.91,3.54,6.22,4.48,8.22,.13,.27,.23,.5,.32,.68,.11,.23,.17,.36,.17,.37,.06,.14,.21,.23,.36,.23h0c0-.19,0-.39-.02-.58h0c.11,0,.22,0,.33,0Z"/><path class="a`" d="M294.12,101.82s0,.09-.01,.13c0,.04,0,.07,0,.11h0c-.04,.45-.08,.91-.13,1.38-.03,.27-.07,.54-.11,.82,.84-.89,1.82-1.27,1.88-1.3,.15-.06,.32,.02,.38,.17,.06,.15-.02,.31-.17,.37-.01,0-.65,.26-1.3,.81,.47,.3,.71,.64,.72,.66,.09,.13,.05,.31-.09,.4-.05,.03-.1,.05-.16,.05-.1,0-.19-.05-.25-.13,0,0-.23-.31-.66-.55-.21,.23-.4,.48-.56,.78-.02,.1-.03,.19-.04,.29-.16,.88-.37,1.77-.63,2.62,3.07,.56,4.75-4.91,3.43-6.83-.6-.88-1.3-.92-1.89-.69-.13,.05-.25,.11-.36,.18-.01,.25-.03,.5-.04,.75Z"/><path class="f" d="M294.88,105.27c.06,.08,.15,.13,.25,.13,.05,0,.11-.01,.16-.05,.14-.09,.18-.26,.09-.4-.01-.02-.25-.36-.72-.66,.65-.55,1.29-.8,1.3-.81,.15-.06,.23-.22,.17-.37-.06-.15-.23-.22-.38-.17-.06,.02-1.05,.41-1.88,1.3-.06,.41-.12,.83-.19,1.25,.16-.3,.35-.55,.56-.78,.43,.24,.66,.55,.66,.55Z"/><path class="a`" d="M272.91,105.49v-.02c-.16-.29-.35-.53-.55-.75-.43,.24-.66,.55-.66,.55-.06,.08-.15,.13-.25,.13-.05,0-.11-.01-.16-.05-.14-.09-.18-.26-.09-.4,.01-.02,.25-.36,.72-.66-.65-.55-1.29-.8-1.3-.81-.15-.06-.23-.22-.17-.37,.06-.15,.23-.22,.38-.17,.06,.02,1.02,.4,1.85,1.26-.09-.58-.17-1.18-.23-1.78-.01-.13-.03-.25-.05-.38-.03-.29-.06-.58-.08-.87,0-.06-.01-.13-.02-.19-.06-.03-.13-.07-.19-.09-.61-.26-1.33-.24-1.96,.67-1.34,1.95,.39,7.49,3.52,6.8-.15-.44-.28-.86-.4-1.26-.14-.49-.27-1.04-.38-1.63Z"/><path class="f" d="M270.48,103.12c-.06,.15,.02,.31,.17,.37,.01,0,.65,.26,1.3,.81-.47,.3-.71,.64-.72,.66-.09,.13-.05,.31,.09,.4,.05,.03,.1,.05,.16,.05,.1,0,.19-.05,.25-.13,0,0,.23-.31,.66-.55,.2,.22,.39,.46,.54,.75-.08-.4-.14-.82-.21-1.25-.83-.86-1.79-1.24-1.85-1.26-.15-.06-.32,.02-.38,.17Z"/><path class="ac" d="M278.61,119.23v.18s.97,1.61,2.45,2.58h0c.56,.37,1.19,.64,1.87,.7,1.07,.09,2.09-.39,2.9-.97h0c1.07-.76,1.78-1.68,1.78-1.68v-2.36c-.62,.09-1.21,.15-1.78,.2h0c-.05,0-.1,0-.16,0h0c-1.43,.1-2.68,.06-3.74-.15h0c-1.41-.27-2.51-.82-3.31-1.69v1.69h0v1.49Z"/><path class="a`" d="M281.93,117.74c1.07,.21,2.31,.25,3.74,.15h0c.05,0,.1,0,.16,0h0c.57-.05,1.15-.11,1.78-.2v-1.95c-.23,.11-.46,.2-.7,.29-3.61,1.26-6.3,.81-8.31-.46v.49c.8,.87,1.9,1.42,3.31,1.69h0Z"/><path class="ac" d="M286.89,112.37c.41-.21,.82-.53,1.22-.91h0c.05-.29,.29-1.11-.1-1.78-.43-.73-1.63-1.28-4.74-.75-2.56-.34-3.84,.05-4.47,.61-.82,.73-.53,1.73-.53,1.73,.66,.59,1.26,1.02,1.66,1.24,1.29,.71,2.57,.97,3.49,.93,.91-.04,1.16,.15,3.46-1.07Zm-6.99-2.44c-.05-.18-.09-.35-.12-.51h7.41c-.04,.18-.09,.38-.16,.59-.37,1.19-1.28,2.76-3.56,2.76s-3.23-1.54-3.58-2.83Z"/><path class="ac" d="M276.22,91.7c1.68-.63,3.76-1.2,6.03-1.37-2.27,.16-4.35,.73-6.03,1.37-2.18,.82-3.69,2.72-4.03,4.92,.34-2.2,1.85-4.1,4.03-4.92Z"/><path class="ac" d="M294.22,99.61c.02-.75,.02-1.46,0-2.08-.02-1.11-.34-2.18-.91-3.1,.56,.92,.88,1.99,.91,3.1,.01,.63,.01,1.33,0,2.08Z"/><path class="ac" d="M282.25,107.84h.03c.32,.11,.65,.16,.97,.16s.68-.05,1-.16c0,0,5-1.62,6.19,.53,.02,.04,.05,.07,.07,.1,.04-.06,.08-.15,.14-.26,.6-1.25,2.06-5.65,2.34-6.15,.06-.64,.08-1.23,0-1.63-.28-1.39-1.98-2.87-1.59-4.2,.39-1.34,.97-3.07-.09-3.31-1.06-.24-5.43-.28-8.14-.19-2.7,.09-6.58-.43-8.14,.77-1.56,1.19,2.92,3.59-.54,4.63-1.09,.33-.88,2.63-.74,3.93h0c.2,.61,1.06,3.53,1.69,5.3,.22,.62,.42,1.11,.54,1.29,.09-.21,.22-.38,.36-.53,1.54-1.62,5.91-.29,5.91-.29Zm5.69-3.87c-.42,0-.76-.52-.76-1.17s.34-1.17,.76-1.17,.76,.52,.76,1.17-.34,1.17-.76,1.17Zm3-4.46c.19,.48,.17,.95,.02,1.42-1.65-.66-4.93-.38-4.93-.38l-.22-1.22c2.23-.95,5.13,.18,5.13,.18Zm-8.59,7.06c.26,.1,.9,.27,1.17,.11,.05-.03,.13-.09,.14-.27,.11-1-.17-4.36-.18-4.39-.01-.16,.11-.3,.27-.31,.16-.01,.3,.1,.32,.26,.01,.14,.29,3.44,.18,4.5-.04,.4-.25,.6-.43,.7-.19,.11-.41,.15-.64,.15-.49,0-.98-.19-1.06-.22-.15-.06-.22-.23-.16-.37,.06-.15,.23-.22,.38-.16Zm-5.83-7.06s2.9-1.12,5.13-.18l-.22,1.22s-3.28-.27-4.93,.38c-.15-.47-.17-.94,.02-1.42Zm1.74,3.27c0-.64,.34-1.17,.76-1.17s.76,.52,.76,1.17-.34,1.17-.76,1.17-.76-.52-.76-1.17Z"/><path class="ac" d="M294.16,100.99v.07c-.02,.25-.03,.5-.05,.75h0c.02-.26,.03-.5,.04-.75v-.07Z"/><path class="ac" d="M272.42,102.06c-.03-.29-.06-.58-.08-.87,.03,.29,.05,.58,.08,.87h0Z"/><path class="u" d="M286.92,116.02c.24-.08,.48-.18,.7-.29,2.78-1.3,4.42-4.13,5.37-7.32,.25-.86,.46-1.74,.63-2.62,.02-.1,.03-.19,.04-.29,.07-.42,.14-.83,.19-1.25,.04-.27,.08-.54,.11-.82,.05-.47,.1-.93,.13-1.38h0s0-.07,0-.11c0-.04,.01-.09,.01-.13h0c.02-.25,.03-.5,.05-.75v0c.12-.07,.24-.13,.36-.18,.07-.57,.11-1.16,.11-1.77,0-6.71-3.57-12.14-11.78-12.14-6.85,0-10.9,5.08-10.9,11.79,0,.74,.07,1.45,.18,2.14,.07,.03,.13,.06,.19,.09,0,.06,.01,.13,.02,.19,.03,.29,.05,.58,.08,.87h0c.01,.13,.03,.25,.05,.38,.07,.61,.15,1.2,.23,1.78,.06,.43,.13,.85,.21,1.25v.02c.12,.59,.25,1.14,.39,1.63,.12,.4,.25,.82,.4,1.26,.86,2.51,2.32,5.53,4.91,7.18,2.01,1.28,4.7,1.73,8.31,.46Zm7.3-18.49c.01,.63,.01,1.33,0,2.08,.02-.75,.02-1.46,0-2.08-.02-1.11-.34-2.18-.91-3.1,.56,.92,.88,1.99,.91,3.1Zm-22.03-.91c.34-2.2,1.85-4.1,4.03-4.92,1.68-.63,3.76-1.2,6.03-1.37-2.27,.16-4.35,.73-6.03,1.37-2.18,.82-3.69,2.72-4.03,4.92Zm4.15,11.5c-.14,.15-.27,.32-.36,.53-.12-.19-.32-.67-.54-1.29-.63-1.77-1.49-4.68-1.69-5.3h0c-.15-1.3-.36-3.6,.74-3.93,3.46-1.04-1.02-3.43,.54-4.63,1.56-1.2,5.44-.68,8.14-.77,2.72-.09,7.08-.05,8.14,.19,1.06,.24,.48,1.97,.09,3.31-.39,1.34,1.3,2.82,1.59,4.2,.08,.4,.06,.99,0,1.63-.28,.51-1.75,4.9-2.34,6.15-.05,.11-.1,.2-.14,.26-.02-.04-.05-.07-.07-.1-1.19-2.14-6.19-.53-6.19-.53-.33,.1-.66,.16-1,.16s-.66-.05-.97-.15h-.03s-4.37-1.34-5.91,.28Zm1.93,3.15s-.3-1.01,.53-1.73c.63-.55,1.9-.95,4.47-.61,3.1-.52,4.3,.03,4.74,.75,.4,.67,.15,1.48,.1,1.78h0c-.4,.38-.81,.69-1.22,.91-2.3,1.22-2.55,1.03-3.46,1.07-.92,.04-2.2-.22-3.49-.93-.4-.22-1-.65-1.66-1.24Z"/><path class="u" d="M287.95,101.63c-.42,0-.76,.52-.76,1.17s.34,1.17,.76,1.17,.76-.52,.76-1.17-.34-1.17-.76-1.17Z"/><path class="u" d="M279.78,102.77c0-.64-.34-1.17-.76-1.17s-.76,.52-.76,1.17,.34,1.17,.76,1.17,.76-.52,.76-1.17Z"/><path class="u" d="M290.97,100.92c.15-.47,.17-.94-.02-1.42,0,0-2.9-1.12-5.13-.18l.22,1.22s3.28-.27,4.93,.38Z"/><path class="u" d="M281.43,100.54l.22-1.22c-2.23-.95-5.13,.18-5.13,.18-.19,.48-.17,.95-.02,1.42,1.65-.66,4.93-.38,4.93-.38Z"/><path class="a`" d="M282.13,107.09c.08,.03,.57,.22,1.06,.22,.22,0,.45-.04,.64-.15,.17-.1,.38-.3,.43-.7,.11-1.05-.16-4.36-.18-4.5-.01-.16-.15-.28-.32-.26-.16,.01-.28,.15-.27,.31,0,.03,.28,3.39,.18,4.39-.02,.17-.09,.24-.14,.27-.28,.16-.91,0-1.17-.11-.15-.06-.32,.01-.38,.16-.06,.15,.01,.31,.16,.37Z"/><path class="d" d="M287.03,110c.07-.21,.12-.41,.16-.59h-7.41c.03,.16,.07,.34,.12,.51,.35,1.3,1.22,2.83,3.58,2.83s3.19-1.56,3.56-2.76Z"/><path class="d" d="M30.71,299.65c-.59-.02-1.24-.04-1.91-.07-.56-.03-1.15-.06-1.76-.1v11.31h3.67v-11.14Z"/><path class="d" d="M30.21,286.59c.14,.04,.3,.1,.49,.17v-1.24l-1.06-.38c.1-1.27,.45-2.46,1-3.58l.07,.03v-32.62h6.77c.64-3.13,1.31-6.24,1.98-9.21-1.26-.85-2.48-1.66-3.54-2.33-.05-.03-.09-.08-.14-.11h-1.32c-6.25-.02-11.6,4.88-12.72,11.64h5.3v39.02c1.47-.85,2.66-1.51,2.99-1.45,.05,.01,.11,.03,.18,.04Z"/><path class="d" d="M83.79,250.67v-1.7h5.3c-.14-.85-.35-1.68-.62-2.46-1.01-2.97-2.9-5.42-5.27-7.04-1.99-1.36-4.34-2.15-6.82-2.14h-3.31c-2.28,1-5.08,.77-7.62,.15,.52,2.56,.69,6.63,.63,11.5h14.05v61.82h3.67v-60.12Z"/><path class="x" d="M34.28,265.59h-3.57v3.54h2.93c.2-1.14,.42-2.32,.64-3.54Z"/><polygon class="x" points="51.64 269.13 51.49 267.67 51.28 265.59 46.1 265.59 44.69 269.13 49.84 269.13 51.64 269.13"/><path class="x" d="M65.3,265.59c-.04,.54-.08,1.09-.12,1.63-.05,.64-.1,1.27-.14,1.91h15.09v-3.54h-14.83Z"/><path class="y" d="M36.08,191.39h.31c.08-.44,.19-.89,.33-1.38l3.43-7.4,.59,8.78h30.84l.89-8.6,2.83,6.03c.4,.99,.71,1.91,.93,2.77,1.25,.48,2.08,1.77,1.83,3.19l-3.4,19.88c3.18-2.84,12.39-11.93,11.73-21.31-.01-.21-.04-.42-.06-.63-.51-5.41-2.65-11.23-4.99-16.2h0c-3.29-6.99-6.97-12.29-6.97-12.29-3.32-1.4-6.78-2.44-10.32-3.09h0c-.9-.16-1.79-.31-2.7-.42-.24,0-.49,.02-.73,.04-.22,.36-1.9,2.99-4.13,3.18-2.39,.21-4.51-2.6-4.51-2.6v-.16c-.43,0-.85-.01-1.27-.03-.5-.02-.99-.06-1.47-.11-3.17,.65-6.36,1.77-10.31,3.41,0,0-11.25,15-12.74,28.08-.76,6.63,6.14,15.62,10.1,20.16l-3.06-17.91c-.3-1.77,1.06-3.39,2.86-3.39Zm11.41-20.47c3.87-.05,7.81-1.61,10.74-3.11,2.74-1.41,4.59-2.77,4.63-2.8,.18-.13,.43-.1,.56,.08,.13,.18,.1,.43-.08,.56-.15,.11-1.88,1.39-4.45,2.74-2.59,1.36-6.03,2.79-9.59,3.21-.59,.07-1.19,.11-1.79,.12-.22,0-.4-.17-.4-.39,0-.22,.17-.4,.39-.4Z"/><path class="y" d="M71.65,219.61c1.63,1.17,3.12,2.56,4.21,4.18,.02,0,.04,0,.06-.01l-1.38-7.09c-.26,1.48-1.41,2.65-2.89,2.93Z"/><path class="y" d="M36.72,216.06v-.83l-.25-1.48-1.6,5.08c.6-.49,1.35-.91,2.19-1.26-.21-.46-.34-.97-.34-1.51Z"/><path class="p" d="M47.5,171.72c.6,0,1.2-.05,1.79-.12,3.57-.42,7.01-1.85,9.59-3.21,2.58-1.35,4.3-2.63,4.45-2.74,.18-.13,.21-.38,.08-.56-.13-.18-.38-.21-.56-.08-.04,.03-1.89,1.39-4.63,2.8-2.93,1.5-6.87,3.06-10.74,3.11-.22,0-.4,.18-.39,.4,0,.22,.18,.4,.4,.39Z"/><path class="ac" d="M55.61,303.87c.58,0,1.32,.15,2.15-.2,0,0,2.39-.72,3.56-.91l.12-1.16-6.1-.14,.27,2.41Z"/><path class="m" d="M58.41,234.69l-1.07,2.69-4.62,11.59-2.49,6.24,1.04,10.38,.21,2.07,.15,1.47,.94,9.3,1.95,19.41,7.7,.1c.59-5.1,1.88-16.81,2.81-28.81,.05-.64,.1-1.27,.14-1.91,.04-.54,.08-1.09,.12-1.63,.26-3.68,.48-7.33,.62-10.76,.08-2.05,.14-4.01,.16-5.87,.06-4.87-.11-8.94-.63-11.5-.15-.04-.29-.08-.44-.12-3.62-.97-6.6-2.66-6.6-2.66Z"/><path class="m" d="M39.46,239.76c.19-.82,.37-1.63,.56-2.42,1.29-5.5,2.59-10.4,3.81-13.92,.53-1.53,1.04-2.79,1.54-3.74h-5.03c-1.46,0-2.71-.87-3.28-2.11-.84,.36-1.59,.77-2.19,1.26h-.02c-4.84,3.97-3.92,15.24,.93,18.5,.05,.03,.09,.08,.14,.11,1.06,.67,2.28,1.47,3.54,2.33Z"/><path class="h" d="M54.02,297.84c-.09,.63-.12,1.25-.09,1.88,.03,.57,.11,1.15,.25,1.72l1.16,.03,6.1,.14,.94,.02c.26-.8,.41-1.61,.38-2.43-.02-.41-.06-.83-.19-1.24h-.34l-7.7-.1h-.51Z"/><path class="d" d="M38.6,215.23h11.57c5.31-2.55,11.31-.48,11.31-.48,0,0,.57,.16,1.49,.48h11.59l.1-.58,3.4-19.88c.24-1.41-.58-2.71-1.83-3.19-.32-.12-.66-.2-1.02-.2H36.08c-1.8,0-3.16,1.62-2.86,3.39l3.06,17.91,.18,1.05,.25,1.48h1.88Zm17.13-14.36c1.82,0,3.29,1.47,3.29,3.29s-1.47,3.29-3.29,3.29-3.29-1.47-3.29-3.29,1.47-3.29,3.29-3.29Z"/><path class="v" d="M74.54,216.68c.04-.2,.06-.41,.06-.63v-.83h-11.63c1.97,.69,5.55,2.13,8.67,4.38,1.48-.28,2.63-1.44,2.89-2.93Z"/><path class="v" d="M49.48,215.59c.23-.13,.46-.25,.69-.36h-13.45v.83c0,.54,.13,1.05,.34,1.51,.57,1.24,1.82,2.11,3.28,2.11h5.03c.27-.52,.54-.95,.79-1.27,1-1.24,2.14-2.15,3.31-2.82Z"/><circle class="v" cx="55.73" cy="204.15" r="3.29"/><path class="ac" d="M31.21,285.7l-.24-.08-.09,.38-.17,.71v.06h0c1.23,.48,3.24,1.5,3.24,1.5,.62,.39,1.23,.47,1.76,.53l.57-1.3-5.07-1.79Z"/><path class="n" d="M77.49,230.6c.39-2.61-.33-4.87-1.63-6.81-1.09-1.62-2.58-3.01-4.21-4.18-3.13-2.25-6.71-3.69-8.67-4.38-.92-.32-1.49-.48-1.49-.48,0,0-6-2.06-11.31,.48-.23,.11-.46,.23-.69,.36-1.18,.67-2.31,1.58-3.31,2.82-.26,.32-.52,.75-.79,1.27-.49,.95-1.01,2.22-1.54,3.74-1.22,3.52-2.52,8.42-3.81,13.92-.19,.8-.37,1.6-.56,2.42-.67,2.97-1.33,6.08-1.98,9.21-1.16,5.68-2.26,11.44-3.21,16.62-.22,1.21-.44,2.4-.64,3.54-.98,5.48-1.75,10.02-2.19,12.7l2.97,1.02,4.23,1.45,3.22-8.08,2.83-7.09,1.41-3.54,4.14-10.38,2.49-6.24,4.62-11.59,1.07-2.69s2.98,1.7,6.6,2.66c.15,.04,.29,.08,.44,.12,2.54,.63,5.34,.85,7.62-.14,2.16-.93,3.86-2.94,4.42-6.73Z"/><path class="h" d="M31.21,285.7l5.07,1.79,1.34,.47c.77-1.06,1.34-2.19,1.37-3.54l-.35-.12-4.23-1.45-2.97-1.02-.73-.25-.07-.03c-.56,1.12-.9,2.32-1,3.58l1.08,.38,.26,.09,.24,.08Z"/><path class="m" d="M30.71,299.65c2.29,.06,3.86,.03,3.86,.03,0,0,1.59-4.31,2.29-7.27,.18-.79,.31-1.48,.32-1.97,.03-1.46-.6-1.53-1.47-1.64-.53-.06-1.14-.14-1.76-.53,0,0-2.01-1.02-3.24-1.49h-.01c-.18-.08-.35-.13-.49-.17-.07-.02-.13-.03-.18-.04-.32-.06-1.51,.59-2.99,1.45-.21,.12-.44,.25-.66,.38,.21,.06,.43,.15,.66,.26,.14,.07,.27,.13,.41,.23,.04,.03,.07,.06,.11,.09,1.16,.87,1.87,2.56,1.9,2.63,.09,.23-.02,.49-.25,.58-.12,.05-.25,.04-.36-.01-.1-.05-.19-.13-.23-.24,0-.02-.63-1.51-1.57-2.23-.04-.03-.07-.06-.1-.09-.02-.01-.04-.02-.06-.04-.97-.62-1.83-.36-2.1-.25-.04,.02-.08,.05-.12,.07,.4,.08,.84,.23,1.29,.54,.1,.07,.19,.15,.28,.23,.31,.27,.59,.58,.82,.9,.56,.77,.88,1.54,.9,1.59,.09,.23-.02,.49-.25,.58-.12,.05-.25,.04-.36-.01-.1-.05-.19-.13-.23-.24,0,0-.03-.06-.06-.14-.17-.37-.72-1.48-1.5-2.08-.04-.03-.08-.07-.12-.1-.9-.61-1.72-.44-2.07-.32,.2,.09,.41,.2,.63,.34,.3,.2,.57,.47,.81,.75,.74,.87,1.17,1.91,1.2,1.97,.09,.23-.02,.49-.25,.58-.12,.05-.25,.04-.36-.01-.1-.05-.19-.13-.23-.24,0-.01-.39-.95-1.02-1.7-.2-.23-.41-.45-.65-.61-.96-.65-1.82-.42-2.12-.3-.04,.02-.07,.03-.09,.03l-.03,.02s-.02,0-.03,0c-.62,.25-1.15,.41-1.52,.4-3.78-.09-4.99,5.46-2.84,6.22,.19,.07,.39,.13,.59,.19,2.77,.87,6.4,1.3,9.61,1.52,.6,.04,1.19,.07,1.76,.1,.68,.03,1.32,.06,1.91,.07Z"/><path class="d" d="M21.27,291.12s.05-.02,.09-.03c.3-.12,1.17-.35,2.12,.3,.24,.16,.46,.38,.65,.61,.63,.75,1.02,1.69,1.02,1.7,.05,.11,.13,.19,.23,.24,.11,.05,.24,.06,.36,.01,.23-.09,.34-.35,.25-.58-.02-.06-.46-1.1-1.2-1.97-.24-.28-.51-.54-.81-.75-.21-.15-.42-.26-.63-.34,.35-.12,1.17-.29,2.07,.32,.04,.03,.08,.07,.12,.1,.77,.6,1.33,1.71,1.5,2.08,.03,.08,.06,.13,.06,.14,.05,.11,.13,.19,.23,.24,.11,.05,.24,.06,.36,.01,.23-.09,.34-.35,.25-.58-.02-.05-.34-.82-.9-1.59-.23-.32-.51-.64-.82-.9-.09-.08-.18-.16-.28-.23-.45-.31-.89-.46-1.29-.54-.02,0-.03,0-.05,0,.03,0,.06-.01,.09-.03,0,0,.04-.02,.08-.04,.26-.11,1.13-.37,2.1,.25,.02,.01,.04,.02,.06,.04,.04,.03,.07,.06,.1,.09,.94,.72,1.56,2.21,1.57,2.23,.05,.11,.13,.19,.23,.24,.11,.05,.24,.06,.36,.01,.23-.09,.34-.35,.25-.58-.03-.07-.74-1.77-1.9-2.63-.04-.03-.07-.06-.11-.09-.14-.09-.27-.16-.41-.23-.23-.12-.45-.21-.66-.26-1.16-.31-2.08,.16-2.12,.18-.22,.12-.3,.39-.18,.6,.04,.07,.1,.12,.16,.16-.85-.04-1.45,.27-1.49,.29-.18,.1-.26,.3-.21,.49-.97-.13-1.7,.23-1.74,.25-.22,.12-.3,.39-.18,.6,.12,.21,.37,.29,.59,.19,0,0,.02,0,.03,0l.03-.02Z"/><path class="m" d="M61.31,302.76c-1.17,.19-3.56,.91-3.56,.91-.83,.34-1.57,.19-2.15,.2-.51,0-.89,.12-1.11,.78-.05,.15-.1,.32-.13,.53-.34,2.2,.91,9.11,.91,9.11,0,0,10.77,2.17,16.97,1.14,2.15-.35,1.93-5.77-1.64-6.31-.34-.05-.81-.29-1.36-.63,0,0-.02,0-.02-.01l-.03-.02s-.04-.03-.08-.05c-.27-.16-1.04-.52-2.04-.07-1.06,.48-1.95,1.88-1.96,1.9-.06,.1-.16,.16-.26,.19-.11,.03-.23,.01-.34-.05-.2-.12-.27-.38-.14-.58,.04-.07,1.04-1.64,2.33-2.22,.22-.1,.44-.17,.65-.22-.31-.17-1.05-.46-1.99-.04-1.05,.48-1.95,1.88-1.96,1.9-.06,.1-.15,.16-.26,.19-.11,.03-.23,.01-.34-.05-.2-.12-.27-.38-.14-.58,.04-.07,1.04-1.64,2.33-2.22,.47-.21,.91-.29,1.3-.29l-.11-.09c-.23-.15-1.03-.56-2.08-.09-1.06,.48-1.95,1.88-1.96,1.9-.06,.1-.16,.16-.26,.19-.11,.03-.23,.01-.34-.05-.2-.12-.27-.38-.14-.58,.04-.07,1.04-1.64,2.33-2.22,.39-.18,.75-.25,1.09-.28-.16-.13-.31-.26-.46-.39-1.29-1.09-2.34-1.94-2.66-1.93-.11,0-.25,.02-.41,.04Z"/><path class="d" d="M61.43,307.54c-.13,.2-.06,.46,.14,.58,.1,.06,.23,.08,.34,.05,.1-.03,.2-.09,.26-.19,0-.01,.9-1.42,1.96-1.9,1.04-.47,1.84-.06,2.08,.09,.04,.03,.07,.04,.07,.05,.02,.02,.05,.03,.08,.04-.02,0-.03,0-.05,0-.39,0-.83,.08-1.3,.29-1.29,.58-2.29,2.15-2.33,2.22-.12,.2-.06,.46,.14,.58,.1,.06,.23,.08,.34,.05,.1-.03,.2-.09,.26-.19,0-.01,.91-1.42,1.96-1.9,.94-.43,1.69-.13,1.99,.04-.21,.05-.42,.12-.65,.22-1.29,.58-2.29,2.16-2.33,2.22-.13,.2-.06,.46,.14,.58,.1,.06,.23,.08,.34,.05,.1-.03,.2-.09,.26-.19,0-.01,.9-1.42,1.96-1.9,1-.45,1.78-.09,2.04,.07,.03,.02,.06,.04,.08,.05l.03,.02s.02,0,.02,.01c.19,.13,.44,.1,.58-.08,.15-.18,.12-.45-.07-.59-.04-.03-.66-.49-1.59-.53,.08-.17,.04-.38-.12-.5-.03-.03-.55-.42-1.35-.52,.07-.03,.13-.06,.17-.12,.15-.18,.12-.45-.07-.6-.04-.03-.82-.62-1.97-.52-.33,.03-.7,.1-1.09,.28-1.29,.58-2.29,2.16-2.33,2.22Z"/><polygon class="u" points="51.99 157.11 51.99 157.11 51.99 157.11 51.99 157.11"/><path class="u" d="M48.56,153.93s.02,.03,.04,.05c-.02-.03-.03-.06-.05-.08v.03Z"/><path class="u" d="M51.99,161.18v-1.97c-1.37-.13-2.53-.44-3.13-1.08h0c-1.4-1.48-1.95-5.49-2.16-8.19-.02-.24-.04-.46-.05-.68h0c-.03-.42-.05-.79-.06-1.09h0c0-.12,0-.22-.01-.31-.01-.32-.01-.52-.02-.56h0l.03,.25c-.04-.34-.08-.69-.1-1.05-.02-.32-.03-.67-.04-1.02h0c-.02-.67-.02-1.37,.02-2.13,.05-1,.18-2.09,.36-3.26,1.26-.16,2.68-.67,2.68-.67l1.41-4.04,.61,4.04s2.13,.55,4.1-.08c.23-.07,.45-.16,.67-.27l.07-.39,.61-3.35,.64,2.26,.46,1.63s3.3,.79,4.72,.3l.33-3.9,.94,3.95s.69,.13,1.49,.19c-.05,.82-.07,2.75-.03,4.17,0,.27,.02,.52,.03,.74,.02,.39,.04,.69,.08,.83,.11,.48,.41,.56,.72,.07,.21-.33,.44-.93,.62-1.86,.07-.36,.14-.78,.19-1.25,.52-.13,1.08,0,1.59,.76,.86,1.27,.41,4.09-.87,5.65-.28,3.18-1.21,6.94-3.92,8.51-1.04,.6-2.01,.93-2.91,1.1h0c-.14,.03-.28,.05-.42,.06v2.17l-.03,.04c.25-.01,.49-.03,.73-.04,.77-.03,1.51-.04,2.2-.03h0c.26,0,.52,0,.76,.02,6.63,.38,5.45-8.17,5.95-15.58s-4.09-14.51-4.09-14.51l-.08,.06c-.56-.95-1.28-1.78-2.22-2.35-2.04-1.22-7.98-2.82-13.59,.19-1.13,.6-2.08,1.48-2.82,2.52-.03-.08-.05-.13-.05-.13,0,0-3.36,4.01-4.75,11.2h0c-.07,.38-.14,.75-.2,1.15-.56,3.6-1.21,6.77-1.31,9.41-.07,1.88,.15,3.48,.88,4.78,.03,.05,.04,.1,.06,.14,.02,.03,.04,.05,.06,.08,.4,.63,.94,1.18,1.64,1.65,.06,.04,.12,.08,.18,.12,.11,.07,.21,.14,.32,.21,.12,.07,.23,.11,.35,.17,1.31,.67,2.87,1.05,4.57,1.22,.48,.05,.97,.09,1.47,.11,.42,.02,.84,.03,1.27,.03Z"/><path class="ab" d="M66.92,149.69c.02,.06,.04,.12,.04,.19,0,.36-.29,.66-.66,.66-.34,0-.61-.26-.65-.59-.09,0-.19-.02-.28-.04-.83,2.47-2.23,5.43-4.72,7.04v1.17h0v.44c.14-.02,.28-.04,.42-.06h0c.9-.16,1.87-.5,2.91-1.1,2.7-1.57,3.63-5.32,3.92-8.51-.28,.35-.61,.62-.97,.81Z"/><path class="a`" d="M67.95,144.65c.08-.04,.14-.06,.15-.07,.14-.05,.31,.02,.36,.16,.05,.15-.02,.31-.16,.36,0,0-.13,.05-.32,.15-.24,.13-.58,.34-.92,.64,.45,.29,.68,.63,.69,.64,.08,.13,.05,.3-.08,.39-.05,.03-.1,.04-.15,.04-.09,0-.18-.05-.24-.13,0,0-.22-.3-.63-.54-.19,.21-.37,.45-.52,.73v.03c-.11,.57-.24,1.11-.38,1.6-.11,.39-.24,.81-.38,1.24,.1,.02,.19,.03,.28,.04,0-.02-.01-.04-.01-.06,0-.36,.3-.66,.66-.66,.3,0,.54,.2,.62,.47,.36-.19,.69-.46,.97-.81,1.28-1.56,1.72-4.39,.87-5.65-.5-.75-1.07-.88-1.59-.76-.06,.47-.12,.88-.19,1.25-.18,.93-.4,1.52-.62,1.86-.01,.08-.03,.16-.04,.25,.63-.67,1.33-1.04,1.63-1.17Z"/><path class="f" d="M66.47,146.21c-.14-.06-.21-.23-.14-.37,.06-.14,.23-.21,.37-.14,.14,.06,.25,.13,.36,.21,.34-.3,.68-.51,.92-.64,.19-.1,.32-.15,.32-.15,.15-.06,.22-.22,.16-.36-.06-.15-.22-.22-.36-.16-.01,0-.07,.03-.15,.07-.3,.14-1,.51-1.63,1.17-.06,.41-.12,.83-.19,1.22,.15-.28,.33-.52,.52-.73-.06-.03-.11-.07-.18-.1Z"/><path class="f" d="M66.32,145.83c-.06,.14,0,.31,.14,.37,.07,.03,.12,.07,.18,.1,.41,.24,.63,.54,.63,.54,.05,.08,.14,.13,.24,.13,.05,0,.1-.01,.15-.04,.13-.08,.17-.26,.08-.39-.01-.02-.24-.35-.69-.64-.11-.07-.22-.14-.36-.21-.14-.06-.31,0-.37,.14Z"/><path class="ac" d="M60.65,160.65v-2.54h0v-.69c-.12,.13-.25,.24-.38,.35h0c-.34,.31-.72,.59-1.16,.81-1.67,.86-4.02,1.08-7.12,.62h0v2.13s2.12,2.81,4.51,2.6c2.22-.19,3.91-2.82,4.13-3.18l.03-.04v-.07Z"/><path class="a`" d="M59.85,157.4h0c-.82,.4-1.74,.65-2.77,.72-1.28,.08-2.74-.12-4.41-.72-.23-.08-.46-.18-.67-.28v2.1c3.1,.46,5.45,.23,7.12-.62,.44-.22,.82-.5,1.16-.81h0c.13-.12,.26-.22,.38-.35v-.48c-.26,.17-.52,.32-.8,.46Z"/><path class="ac" d="M46.63,147.88c0,.07,.02,.13,.03,.19,.03,.19,.06,.37,.09,.55,.02,.14,.05,.28,.07,.41,.06,.29,.13,.57,.19,.84,.01,.06,.03,.12,.04,.17,.01,.05,.03,.09,.04,.13,.08,.28,.16,.55,.24,.8,.03,.1,.07,.19,.1,.29,.06,.19,.13,.37,.19,.54,.04,.1,.07,.19,.11,.29,.06,.16,.12,.31,.19,.45,.04,.09,.08,.18,.11,.26,.06,.13,.12,.26,.17,.39,.12,.26,.23,.49,.33,.71,.02,.03,.03,.06,.05,.08,.2,.31,.41,.6,.63,.88,.04,.05,.08,.09,.11,.13,.21,.25,.42,.49,.65,.71,.03,.03,.07,.07,.1,.1,.25,.23,.52,.45,.8,.65,.06,.04,.12,.08,.18,.12,.29,.2,.6,.38,.92,.53h0c.22,.1,.44,.2,.67,.28,1.67,.6,3.13,.8,4.41,.72,1.04-.07,1.96-.32,2.77-.72h0c.28-.14,.55-.29,.8-.46,2.49-1.61,3.9-4.57,4.72-7.04,.14-.43,.27-.85,.38-1.24,.14-.48,.26-1.02,.37-1.6v-.03c.08-.39,.14-.81,.2-1.22,.01-.08,.03-.16,.04-.25-.31,.49-.61,.41-.72-.07-.03-.15-.06-.45-.08-.83-.01-.22-.02-.47-.03-.74-.04-1.42-.01-3.35,.03-4.17-.8-.05-1.49-.19-1.49-.19l-.94-3.95-.33,3.9c-1.41,.49-4.72-.3-4.72-.3l-.46-1.63-.64-2.26-.61,3.35-.07,.39c-.22,.11-.45,.19-.67,.27-1.97,.63-4.1,.08-4.1,.08l-.61-4.04-1.41,4.04s-1.42,.51-2.68,.67c-.19,1.17-.31,2.26-.36,3.26-.04,.76-.04,1.46-.02,2.13h0c.01,.35,.02,.69,.04,1.02,.03,.36,.06,.71,.1,1.05l.04,.31v.03Zm4.95-2.17c-.4,0-.73-.51-.73-1.15s.33-1.14,.73-1.14,.73,.51,.73,1.14-.33,1.15-.73,1.15Zm5.8,9.49h0s-.03,.07-.07,.09c-.02,.01-.49,.28-1.09,.35-.09,.01-.18,.03-.28,.03-.69,0-1.29-.37-1.32-.39-.07-.05-.11-.12-.12-.2,0-.06,0-.13,.03-.19,.08-.13,.25-.17,.39-.09,0,0,.25,.14,.57,.23,.14,.04,.29,.07,.45,.07,.25,0,.47-.06,.66-.12,.06-.02,.11-.04,.15-.05,.1-.04,.17-.08,.21-.1h0l.05-.03c.13-.08,.31-.04,.39,.1,0,.01,0,.03,0,.04,.03,.09,.02,.18-.04,.25Zm3.19-9.49c-.4,0-.73-.51-.73-1.15s.33-1.14,.73-1.14,.73,.51,.73,1.14-.33,1.15-.73,1.15Zm-1.78-5.4c1.29,0,2.51,.3,3.11,.47,.35,.1,.68,.28,.92,.56,.16,.18,.27,.39,.25,.58-1.09-.44-3.39-.56-4.26-.52-.27,.01-.51-.18-.56-.44h0c-.06-.34,.2-.64,.54-.64Zm.48,10.68c-.06,.34-.16,.71-.32,1.09-.22,.53-.57,1.05-1.1,1.42-.45,.31-1.02,.51-1.79,.53h0s-.05,0-.08,0c-2.36,0-3.07-1.93-3.29-3.01h0v-.03h6.58Zm-3.87-7.02c.01-.16,.15-.27,.3-.26,.16,.01,.27,.15,.26,.3,0,.03-.27,3.33-.17,4.31,.02,.17,.09,.23,.14,.26,.26,.16,.87,0,1.13-.11,.14-.06,.31,.01,.37,.15,.06,.14-.01,.31-.15,.37-.07,.03-.54,.21-1.02,.21-.22,0-.43-.04-.61-.15-.16-.1-.37-.3-.41-.69-.11-1.03,.16-4.28,.17-4.41Zm-6.18-2.66c.24-.28,.57-.46,.92-.56,.6-.17,1.83-.46,3.11-.47,.34,0,.6,.3,.54,.63h0s-.02,.07-.04,.11c-.06,.16-.19,.28-.35,.32-.05,.02-.11,.03-.17,.02-.88-.04-3.18,.08-4.26,.52-.02-.19,.09-.4,.25-.58Z"/><path class="u" d="M51.58,143.42c-.4,0-.73,.51-.73,1.14s.33,1.15,.73,1.15,.73-.51,.73-1.15-.33-1.14-.73-1.14Z"/><path class="u" d="M60.56,143.42c-.4,0-.73,.51-.73,1.14s.33,1.15,.73,1.15,.73-.51,.73-1.15-.33-1.14-.73-1.14Z"/><path class="u" d="M53.23,141.37c.06,0,.11,0,.17-.02,.16-.04,.29-.16,.35-.32,.01-.03,.03-.06,.04-.1h0c.06-.34-.2-.64-.54-.64-1.29,0-2.51,.3-3.11,.47-.35,.1-.68,.28-.92,.56-.16,.18-.27,.39-.25,.58,1.09-.44,3.39-.56,4.26-.52Z"/><path class="u" d="M58.8,141.39c.88-.04,3.18,.08,4.26,.52,.02-.19-.09-.4-.25-.58-.24-.28-.57-.46-.92-.56-.6-.17-1.83-.46-3.11-.47-.34,0-.6,.3-.54,.63h0c.05,.27,.29,.46,.56,.45Z"/><path class="a`" d="M55.63,149.07c.18,.11,.4,.15,.61,.15,.47,0,.95-.18,1.02-.21,.14-.06,.21-.22,.15-.37-.06-.14-.22-.21-.37-.15-.25,.1-.86,.26-1.13,.11-.05-.03-.12-.09-.14-.26-.1-.98,.17-4.28,.17-4.31,.01-.15-.1-.29-.26-.3-.16-.01-.29,.1-.3,.26-.01,.14-.28,3.38-.17,4.41,.04,.39,.24,.59,.41,.69Z"/><path class="d" d="M52.68,151.02h0c.22,1.08,.93,3.01,3.29,3.01,.03,0,.05,0,.08,0h0c.76-.01,1.34-.22,1.79-.53,.53-.37,.88-.88,1.1-1.42,.15-.37,.25-.75,.32-1.09h-6.59v.03Z"/><path class="a`" d="M57.4,154.9c-.08-.13-.25-.18-.39-.1l-.05,.03h0s-.11,.05-.21,.1c-.05,.02-.1,.04-.15,.05-.19,.06-.41,.12-.66,.12-.16,0-.31-.03-.45-.07-.32-.09-.57-.23-.57-.23-.13-.08-.31-.04-.39,.09-.04,.06-.04,.13-.03,.19,.01,.08,.05,.15,.12,.2,.03,.02,.63,.39,1.32,.39,.1,0,.19-.02,.28-.03,.59-.08,1.06-.34,1.09-.35,.03-.02,.04-.06,.07-.09h0c.05-.08,.07-.16,.04-.25,0-.01,0-.03,0-.04Z"/><path class="u" d="M46.63,147.88v0l.02,.2h0c.03,.19,.06,.36,.1,.54-.03-.18-.06-.36-.09-.55,0-.07-.02-.13-.03-.19Z"/><path class="u" d="M46.83,149.03c.06,.29,.13,.57,.19,.84,.01,.06,.03,.12,.04,.17-.01-.05-.03-.12-.04-.17-.07-.27-.13-.55-.19-.84Z"/><path class="ab" d="M51.99,157.11h0c-.32-.15-.63-.34-.92-.53-.06-.04-.12-.08-.18-.12-.28-.2-.55-.41-.8-.65-.04-.03-.07-.07-.1-.1-.23-.22-.45-.46-.65-.71-.04-.04-.08-.09-.11-.13-.22-.28-.43-.57-.63-.88-.01-.02-.02-.03-.04-.05v-.03c-.11-.21-.22-.45-.34-.71-.06-.12-.11-.25-.17-.39-.04-.08-.07-.17-.11-.26-.06-.14-.12-.3-.19-.45-.04-.09-.07-.19-.11-.29-.07-.17-.13-.36-.19-.54-.03-.1-.07-.19-.1-.29-.08-.25-.16-.52-.24-.8-.01-.04-.03-.08-.04-.13-.01-.05-.03-.12-.04-.17-.07-.27-.13-.55-.19-.84-.03-.13-.05-.27-.07-.41-.03-.18-.07-.35-.1-.54h0l-.03-.2v-.03l-.04-.31-.03-.26h0c0,.05,0,.26,.02,.57,0,.09,0,.19,.01,.3h0c.01,.31,.03,.68,.06,1.09h0c.01,.22,.03,.45,.05,.69,.22,2.71,.77,6.72,2.16,8.19h0c.6,.64,1.76,.95,3.13,1.08h0v-2.1Z"/><path class="d" d="M66.3,150.54c.36,0,.66-.29,.66-.66,0-.07-.02-.12-.04-.19-.08-.27-.32-.47-.62-.47-.36,0-.66,.29-.66,.66,0,.02,.01,.04,.01,.06,.03,.33,.3,.59,.65,.59Z"/><path class="y" d="M95.99,82.98c2.54,0,4.61-2.07,4.61-4.61s-2.07-4.61-4.61-4.61-4.61,2.07-4.61,4.61,2.07,4.61,4.61,4.61Zm0-7.78c1.75,0,3.17,1.42,3.17,3.17s-1.42,3.17-3.17,3.17-3.17-1.42-3.17-3.17,1.42-3.17,3.17-3.17Z"/><path class="w" d="M79.39,66.8c2.54,0,4.61-2.07,4.61-4.61s-2.07-4.61-4.61-4.61-4.61,2.07-4.61,4.61,2.07,4.61,4.61,4.61Zm0-7.78c1.75,0,3.17,1.42,3.17,3.17s-1.42,3.17-3.17,3.17-3.17-1.42-3.17-3.17,1.42-3.17,3.17-3.17Z"/><path class="k" d="M47.66,58.31c2.54,0,4.61-2.07,4.61-4.61s-2.07-4.61-4.61-4.61-4.61,2.07-4.61,4.61,2.07,4.61,4.61,4.61Zm0-7.78c1.75,0,3.17,1.42,3.17,3.17s-1.42,3.17-3.17,3.17-3.17-1.42-3.17-3.17,1.42-3.17,3.17-3.17Z"/><path class="w" d="M70.46,47.22c.4,0,.72-.32,.72-.72v-3.19c0-.4-.32-.72-.72-.72s-.72,.32-.72,.72v3.19c0,.4,.32,.72,.72,.72Z"/><path class="w" d="M70.46,41.64c.4,0,.72-.32,.72-.72v-3.19c0-.4-.32-.72-.72-.72s-.72,.32-.72,.72v3.19c0,.4,.32,.72,.72,.72Z"/><path class="w" d="M65.99,42.84h2.87c.4,0,.72-.32,.72-.72s-.32-.72-.72-.72h-2.87c-.4,0-.72,.32-.72,.72s.32,.72,.72,.72Z"/><path class="w" d="M72.08,42.84h2.87c.4,0,.72-.32,.72-.72s-.32-.72-.72-.72h-2.87c-.4,0-.72,.32-.72,.72s.32,.72,.72,.72Z"/><path class="k" d="M74.6,92.74c-.4,0-.72,.32-.72,.72v3.19c0,.4,.32,.72,.72,.72s.72-.32,.72-.72v-3.19c0-.4-.32-.72-.72-.72Z"/><path class="k" d="M75.32,87.88c0-.4-.32-.72-.72-.72s-.72,.32-.72,.72v3.19c0,.4,.32,.72,.72,.72s.72-.32,.72-.72v-3.19Z"/><path class="k" d="M70.12,92.99h2.87c.4,0,.72-.32,.72-.72s-.32-.72-.72-.72h-2.87c-.4,0-.72,.32-.72,.72s.32,.72,.72,.72Z"/><path class="k" d="M76.21,91.55c-.4,0-.72,.32-.72,.72s.32,.72,.72,.72h2.87c.4,0,.72-.32,.72-.72s-.32-.72-.72-.72h-2.87Z"/><path class="s" d="M99.16,65.1c.4,0,.72-.32,.72-.72v-3.19c0-.4-.32-.72-.72-.72s-.72,.32-.72,.72v3.19c0,.4,.32,.72,.72,.72Z"/><path class="s" d="M99.16,59.52c.4,0,.72-.32,.72-.72v-3.19c0-.4-.32-.72-.72-.72s-.72,.32-.72,.72v3.19c0,.4,.32,.72,.72,.72Z"/><path class="s" d="M94.68,60.72h2.87c.4,0,.72-.32,.72-.72s-.32-.72-.72-.72h-2.87c-.4,0-.72,.32-.72,.72s.32,.72,.72,.72Z"/><path class="s" d="M100.77,60.72h2.87c.4,0,.72-.32,.72-.72s-.32-.72-.72-.72h-2.87c-.4,0-.72,.32-.72,.72s.32,.72,.72,.72Z"/><path class="y" d="M47.61,94.43c2.54,0,4.61-2.07,4.61-4.61s-2.07-4.61-4.61-4.61-4.61,2.07-4.61,4.61,2.07,4.61,4.61,4.61Zm0-7.78c1.75,0,3.17,1.42,3.17,3.17s-1.42,3.17-3.17,3.17-3.17-1.42-3.17-3.17,1.42-3.17,3.17-3.17Z"/><path class="j" d="M30.81,79.2c2.54,0,4.61-2.07,4.61-4.61s-2.07-4.61-4.61-4.61-4.61,2.07-4.61,4.61,2.07,4.61,4.61,4.61Zm0-7.78c1.75,0,3.17,1.42,3.17,3.17s-1.42,3.17-3.17,3.17-3.17-1.42-3.17-3.17,1.42-3.17,3.17-3.17Z"/><path class="s" d="M24.73,96.34c0,.4,.32,.72,.72,.72h3.19c.4,0,.72-.32,.72-.72s-.32-.72-.72-.72h-3.19c-.4,0-.72,.32-.72,.72Z"/><path class="s" d="M19.87,97.06h3.19c.4,0,.72-.32,.72-.72s-.32-.72-.72-.72h-3.19c-.4,0-.72,.32-.72,.72s.32,.72,.72,.72Z"/><path class="s" d="M24.25,95.45c.4,0,.72-.32,.72-.72v-2.87c0-.4-.32-.72-.72-.72s-.72,.32-.72,.72v2.87c0,.4,.32,.72,.72,.72Z"/><path class="s" d="M24.25,97.23c-.4,0-.72,.32-.72,.72v2.87c0,.4,.32,.72,.72,.72s.72-.32,.72-.72v-2.87c0-.4-.32-.72-.72-.72Z"/><path class="j" d="M58.51,71.42c0,.4,.32,.72,.72,.72h3.19c.4,0,.72-.32,.72-.72s-.32-.72-.72-.72h-3.19c-.4,0-.72,.32-.72,.72Z"/><path class="j" d="M53.65,72.14h3.19c.4,0,.72-.32,.72-.72s-.32-.72-.72-.72h-3.19c-.4,0-.72,.32-.72,.72s.32,.72,.72,.72Z"/><path class="j" d="M58.04,70.53c.4,0,.72-.32,.72-.72v-2.87c0-.4-.32-.72-.72-.72s-.72,.32-.72,.72v2.87c0,.4,.32,.72,.72,.72Z"/><path class="j" d="M58.04,72.31c-.4,0-.72,.32-.72,.72v2.87c0,.4,.32,.72,.72,.72s.72-.32,.72-.72v-2.87c0-.4-.32-.72-.72-.72Z"/><polygon class="x" points="256.27 47.99 256.04 48.05 256.01 48.06 256.27 47.99 256.27 47.99"/><path class="x" d="M254.19,48.39c-.33,.08-.52,.39-.44,.7,.06,.21,.23,.36,.44,.41,.09,.02,.19,.02,.28,0l.1-1.2c-.12,.03-.25,.06-.39,.09Z"/><path class="l" d="M217.68,75.2c-.58,.99-1.14,2.02-1.66,3.06-.14,.29-.01,.63,.29,.76,.04,.02,.07,.03,.11,.04,.28,.07,.57-.06,.7-.31,.51-1.02,1.06-2.03,1.63-3,.16-.28,.05-.63-.24-.78-.3-.15-.67-.05-.83,.23Z"/><path class="l" d="M213.67,85.36s.03,0,.05,.01c.31,.07,.62-.09,.73-.37,.38-1.07,.8-2.13,1.24-3.16,.13-.29-.03-.63-.34-.75-.31-.12-.67,.02-.79,.32-.45,1.05-.88,2.13-1.27,3.22-.11,.3,.06,.62,.38,.73Z"/><path class="l" d="M210.51,98.62s.05,.01,.07,.01c.05,0,.09,0,.14,0,.27-.03,.51-.22,.54-.49,.15-1.12,.33-2.25,.54-3.34,.06-.31-.16-.61-.5-.66-.33-.05-.65,.15-.71,.47-.18,.96-.33,1.95-.47,2.94-.02,.15-.05,.3-.07,.45-.04,.29,.16,.56,.45,.63Z"/><path class="l" d="M212.96,87.51h-.01c-.32-.08-.65,.1-.74,.4-.15,.51-.3,1.03-.44,1.54-.16,.59-.31,1.19-.46,1.79-.07,.3,.13,.6,.45,.68h.02c.33,.07,.66-.12,.73-.43,.14-.59,.29-1.18,.45-1.76,.14-.5,.28-1.01,.43-1.51,.09-.3-.1-.62-.42-.71Z"/><path class="l" d="M219.72,73.03c.06,.03,.12,.06,.18,.07,.25,.06,.52-.03,.67-.25,.64-.95,1.31-1.88,2.01-2.79,.2-.26,.14-.61-.14-.8-.27-.19-.65-.13-.85,.13-.71,.92-1.4,1.88-2.05,2.85-.18,.27-.09,.62,.19,.79Z"/><path class="l" d="M247.34,51.69c.12,.03,.26,.02,.38-.03,1.11-.43,2.24-.83,3.36-1.19,.32-.1,.49-.43,.38-.73-.11-.3-.46-.46-.77-.36-1.14,.37-2.29,.77-3.43,1.21-.31,.12-.46,.46-.33,.75,.08,.17,.23,.29,.41,.34Z"/><path class="l" d="M240.81,54.65c.15,.03,.31,.02,.45-.06,1.04-.55,2.11-1.07,3.19-1.56,.3-.14,.43-.48,.28-.77-.15-.28-.51-.4-.82-.27-1.09,.5-2.19,1.03-3.25,1.59-.29,.15-.4,.5-.24,.78,.08,.14,.23,.24,.38,.28Z"/><path class="l" d="M229.11,62.64c.19,.05,.41,0,.57-.14,.87-.76,1.77-1.51,2.69-2.22,.26-.2,.3-.56,.08-.81-.22-.24-.6-.28-.86-.08-.94,.73-1.86,1.49-2.75,2.27-.25,.22-.26,.58-.03,.81,.08,.08,.19,.14,.29,.16Z"/><path class="l" d="M234.7,58.31c.17,.04,.36,.01,.51-.09,.96-.66,1.96-1.29,2.97-1.9,.28-.17,.37-.52,.19-.79-.18-.27-.56-.35-.84-.17-1.03,.62-2.05,1.27-3.03,1.94-.27,.19-.33,.54-.13,.8,.09,.11,.21,.19,.34,.22Z"/><path class="l" d="M224.15,67.6c.22,.05,.47-.01,.62-.19,.76-.86,1.56-1.71,2.37-2.52,.23-.23,.22-.59-.03-.81-.25-.22-.63-.21-.86,.02-.83,.83-1.65,1.7-2.42,2.58-.22,.24-.18,.6,.08,.81,.07,.06,.15,.09,.24,.11Z"/><polygon class="y" points="285.92 40.71 253.57 36.07 254.81 45.62 285.92 40.71"/><polygon class="y" points="285.93 40.71 285.92 40.71 285.92 40.71 285.93 40.71"/><polygon class="q" points="254.58 48.29 254.48 49.5 254.46 49.79 254.77 49.43 255.96 48.07 255.96 48.07 256.01 48.06 256.04 48.05 256.27 47.99 285.92 40.71 285.92 40.71 285.93 40.71 285.92 40.71 254.81 45.62 254.58 48.29"/><polygon class="i" points="256.57 48.94 255.96 48.07 254.77 49.43 254.46 49.79 257.14 49.76 257.13 49.74 256.57 48.94"/><polygon class="y" points="256.27 47.99 256.01 48.06 255.96 48.07 255.96 48.07 256.57 48.94 257.13 49.74 257.14 49.76 262.08 56.78 285.93 40.71 259.72 47.15 256.27 47.99"/></g></g></g></svg>