<?xml version="1.0" encoding="UTF-8"?><svg xmlns="http://www.w3.org/2000/svg" viewBox="0 0 30.08 30"><defs><style>.d{fill:#92c156;}</style></defs><g id="a"/><g id="b"><g id="c"><g><path class="d" d="M29.41,.67c-.98-.98-2.69-.87-3.82,.26l-1.36,1.36,3.56,3.56,1.36-1.36c1.12-1.12,1.24-2.83,.26-3.82Z"/><path class="d" d="M23.32,3.12l-13.04,13.04c-.35,.35-.61,.78-.76,1.26l-1.02,3.26c-.16,.5,.32,.97,.82,.82l3.26-1.02c.47-.15,.91-.41,1.26-.76L26.88,6.68l-3.56-3.56Z"/><path class="d" d="M23.04,14.39v10.23c0,.85-.69,1.54-1.54,1.54H5.38c-.85,0-1.54-.69-1.54-1.54V8.5c0-.85,.69-1.54,1.54-1.54H15.61c.41,0,.8-.16,1.09-.45l.75-.75c.97-.97,.28-2.63-1.09-2.63H3.09c-1.7,0-3.09,1.38-3.09,3.09V26.91c0,1.7,1.38,3.09,3.09,3.09H23.8c1.7,0,3.09-1.38,3.09-3.09V13.63c0-1.37-1.66-2.06-2.63-1.09l-.75,.75c-.29,.29-.45,.68-.45,1.09Z"/></g></g></g></svg>