<?xml version="1.0" encoding="UTF-8"?><svg xmlns="http://www.w3.org/2000/svg" viewBox="0 0 58.97 50"><defs><style>.d{fill:#606060;}</style></defs><g id="a"/><g id="b"><g id="c"><g><path class="d" d="M0,34.55c.25-.84,.4-1.73,.76-2.51,1.42-3.02,3.81-4.76,7.16-4.99,1.67-.12,3.36-.02,5.09-.02-.04,.16-.08,.3-.11,.45-.19,1.28-.53,2.57-.55,3.85-.06,5.54-.03,11.08-.02,16.63,0,.66,.13,1.32,.21,2.04h-1.99c-1.69,0-3.38-.04-5.06,0-2.78,.09-5.07-1.77-5.44-4.42,0-.03-.04-.06-.06-.09,0-3.65,0-7.29,0-10.94Z"/><path class="d" d="M29.46,49.99c-3.86,0-7.71,0-11.57,0-1.54,0-2.13-.58-2.13-2.1,0-5.56-.01-11.12,0-16.69,.01-4.18,2.65-7.5,6.69-8.44,.57-.13,1.18-.19,1.77-.19,3.49-.02,6.98-.04,10.47,0,4.07,.04,7.36,2.69,8.28,6.66,.15,.65,.2,1.33,.2,1.99,.02,5.6,.01,11.2,0,16.8,0,1.33-.64,1.96-1.98,1.96-3.91,0-7.83,0-11.74,0Z"/><path class="d" d="M29.49,0c5.61,.01,10.21,4.59,10.22,10.17,0,5.64-4.58,10.26-10.22,10.29-5.61,.03-10.29-4.68-10.25-10.33C19.29,4.54,23.89-.01,29.49,0Z"/><path class="d" d="M46.49,49.96c.04-1.33,.11-2.63,.12-3.93,.01-4.7,0-9.4,0-14.1,0-1.58-.12-3.14-.64-4.65-.02-.07-.02-.15-.03-.21,.05-.04,.08-.08,.11-.07,2.01,.05,4.05-.1,6.02,.2,3.89,.6,6.78,4.09,6.85,8.04,.06,3.2,.05,6.41,0,9.61-.03,2.75-1.98,4.95-4.65,5.08-2.62,.13-5.25,.03-7.8,.03Z"/><path class="d" d="M19.15,17.2c-.05,4.23-3.51,7.67-7.67,7.63-4.23-.04-7.66-3.49-7.62-7.68,.03-4.25,3.5-7.66,7.73-7.61,4.21,.05,7.61,3.49,7.56,7.66Z"/><path class="d" d="M55.1,17.16c.02,4.2-3.41,7.64-7.63,7.67-4.17,.03-7.62-3.41-7.66-7.64-.04-4.19,3.4-7.64,7.63-7.65,4.22,0,7.65,3.4,7.67,7.62Z"/></g></g></g></svg>