<?xml version="1.0" encoding="UTF-8"?><svg xmlns="http://www.w3.org/2000/svg" viewBox="0 0 480 369.29"><defs><style>.d{fill:#fff;}.e{fill:#3c3c48;}.f{fill:#4c4c4c;}.g{fill:#85af4a;}.h{fill:#92c156;}.i{fill:#f34336;}.j{stroke:#fff;stroke-linecap:round;stroke-linejoin:round;stroke-width:0px;}.j,.k{fill:none;}.l{fill:#dedede;}.m{fill:#e1e3e6;}.n{fill:#60408e;}.o{fill:#24a7aa;}.p{fill:#ffae39;}.q{fill:#fcbb8c;}.r{fill:#efa13a;}.s{fill:#15819b;}.t{fill:#e6765d;}.u{fill:#008ebb;}.v{fill:#606060;}.w{fill:#7a7a7a;}.x{fill:#6f499b;}.y{fill:#5c5c69;}.a`{fill:#1a100e;}.aa{fill:#fb927e;}</style></defs><g id="a"/><g id="b"><g id="c"><g><path class="k" d="M14.73,25.96c1.81,0,3.29-1.48,3.29-3.29s-1.48-3.29-3.29-3.29-3.29,1.48-3.29,3.29,1.48,3.29,3.29,3.29Z"/><path class="k" d="M366.4,154.22c-5.13,1.69-14.68,4.38-22.28,6.07,1.23,.8,2.39,1.65,3.44,2.55h0s.07,.06,.1,.09c.22,.19,.45,.38,.66,.58,.36,.33,.67,.71,.94,1.11,3.32,3.87,5.02,8.71,2.47,14.65-.65,1.52-1.32,2.72-2.01,3.74-.31,1.92-.63,3.8-.86,5.57,4.05,.91,8.03,2.87,10.98,5.2,1.8,1.42,3.25,3.22,4.44,5.26,2.87-9.37,6.07-18.8,9.07-26.23l4.64-18.76-.77-13.02c-1.85,3.43-3.58,6.32-4.74,8.31-1.01,1.74-4.18,4.24-6.09,4.87Z"/><path class="k" d="M28.25,41.73c1.81,0,3.29-1.48,3.29-3.29s-1.48-3.29-3.29-3.29-3.29,1.48-3.29,3.29,1.48,3.29,3.29,3.29Z"/><path class="k" d="M310.23,292.29c-8.51-.2-15.6-1.03-21.33-2.32l-.82,3.55-2.1,9.09c3.6,13.92,4.8,33.06,4.8,33.06l-.98,.12,.14,4.01c6.93,.1,13.75,.22,20.43,.36l-.11-43.24v-4.62Z"/><path class="k" d="M227.55,87.45c.02,.67-.25,1.32-.25,1.32,1.16,.22,.29,2.71,.29,2.71,.44-.12,.73-.04,.93,.15l.05-4.29c-.35,0-.7,.04-1.03,.11Z"/><path class="k" d="M340.9,289.19c-5.09,1.65-10.95,2.63-17.67,2.94-1.57,.07-3.1,.12-4.59,.16l-.05,4.37-.48,43.66c12.12,.28,23.78,.63,34.87,1.03l-11.38-49.15-.7-3.01Z"/><path class="k" d="M376.49,283.89s-1.32,10.89-3.68,24c-1.91,10.56-4.68,27.71-5.69,34,13.7,.58,26.4,1.24,37.88,1.99,.02-.29,.05-.57,.1-.79,.27-1.41,.81-1.68,1.55-1.68-.75-4.93-3.91-26.17-4.62-37.88-.61-10.02-.5-21.48-.5-21.48-.99-8.7-2.22-17.4-3.43-25.92-.35-2.49-.7-4.96-1.04-7.42-3.88-.04-7.82-.31-11.75-.82-.58,2.56-1.2,5.2-1.83,7.91-2.06,8.89-4.39,18.5-6.98,28.09Z"/><circle class="k" cx="288.4" cy="55.23" r="3.29"/><path class="k" d="M77.79,34.41c2.6,2.09,6.42,1.68,8.51-.92,2.09-2.6,1.68-6.42-.92-8.51-2.6-2.09-6.42-1.68-8.51,.92-2.09,2.6-1.68,6.42,.92,8.51Z"/><path class="k" d="M405.78,26.36c2.27-2.45,2.13-6.28-.32-8.55-2.45-2.27-6.28-2.13-8.55,.32-2.27,2.45-2.13,6.28,.32,8.55,2.45,2.27,6.28,2.13,8.55-.32Z"/><path class="k" d="M436.29,48.06c1.24-1.34,1.16-3.43-.17-4.67-1.34-1.24-3.43-1.16-4.67,.17-1.24,1.34-1.16,3.43,.17,4.67,1.34,1.24,3.43,1.16,4.67-.17Z"/><path class="k" d="M280.49,213.94v2.64c0,1.18-.96,2.14-2.14,2.14h13.42c.4-1.9,.81-3.89,1.22-5.95-4.18,.5-8.5,.88-12.5,1.17Z"/><path class="k" d="M110.49,13.64c1.42,1.14,3.51,.92,4.65-.5,1.14-1.42,.92-3.51-.5-4.65-1.42-1.14-3.51-.92-4.65,.5-1.14,1.42-.92,3.51,.5,4.65Z"/><path class="k" d="M271.59,71c0,1.82,1.48,3.29,3.29,3.29s3.29-1.48,3.29-3.29-1.48-3.29-3.29-3.29-3.29,1.48-3.29,3.29Z"/><path class="k" d="M224.2,239.37v-4.83h9.42v15.86c.25-.38,.51-.69,.79-.92,5-4.1,38.92-4.85,51.72-4.99-.16-.86-.16-1.74,.08-2.65,.6-2.3,1.34-5.13,2.16-8.43-2.27,.74-4.66,1.13-7.09,1.13h-103.7c2.13,4.41,4.12,8.8,5.73,12.82,4.49,11.28-23.79,23.94-46.72,32.15-.81,.29-1.62,.57-2.41,.85-1.55,23.79-5.97,54.37-5.97,54.37l-2.92,.21-.46,5.47c.13,0,.26-.01,.35,0,.19,0,.62,.28,1.2,.71,29.33-.98,62.3-1.58,97.29-1.69,.33-.88,.53-1.88,.53-3.01v-97.03Z"/><path class="k" d="M336.77,156.3s-.08-.04-.12-.05c-.13-.06-.24-.11-.36-.16,.12,.06,.23,.1,.36,.16,.04,.02,.08,.04,.12,.05Z"/><path class="k" d="M358.13,329.6c1.41-15.72,3.72-41.26,4.15-45.04,.37-3.14,1.17-9.64,2.1-17.1-3.38,8.14-8.49,14.24-15.73,18.34l.67,3.1,8.8,40.7Z"/><path class="k" d="M278.42,335.18l-1.03,4.44c1.29,.01,2.57,.03,3.84,.05l-.55-2.82-1.9,.23c-.1-.61-.22-1.24-.37-1.89Z"/><path class="k" d="M251.39,276.79c-1.9,8.52-4.56,14.99-5.05,17.37-2.83,13.53-4.06,41.47-4.06,41.47-.68,.07-1.38,.11-2.08,.14l-.33,3.64c10.11,0,20.06,.06,29.82,.15l3.91-18.08c-6.4-14.71-16.81-32.54-22.22-44.68Z"/><path class="k" d="M100.92,157.93c.43-.16,1.02-.43,1.54-.65-.1-11.82-.37-26.39-.59-37.27-3.26,1-6.57,1.9-9.96,2.69v25.85c2.27,4.56,3.94,7.93,3.94,7.93l-.2,.11,.62,.58c1.29,1.21,2.99,1.37,4.65,.75Z"/><path class="k" d="M280.94,287.58c-.34-.13-.68-.27-1.01-.41,.26,.49,.51,1,.77,1.52l.24-1.11Z"/><path class="k" d="M103.62,277.2c.9,.28,1.24,.92,1.3,1.76l4.18-1.31v-1.13s1.48-.75,3.89-2.02c-.88-16.39-2.68-38.75-4.02-54.38-.27-3.16-.52-6.03-.74-8.53-1.42-.17-2.22-.28-2.22-.28,0,0-3.18-19.16-3.49-37.18-.36,.15-.8,.22-1.35,.08,0,0-1.21,1.54-2.83,.74-1.1-.55-3.77-1.91-6.42-6.47v108.99c2.5-.3,9.27-1.02,11.71-.26Z"/><path class="k" d="M114.49,335.69s-.9-24.88-.98-46.55c0-.66-.01-1.38-.03-2.12-2.75,.81-4.38,1.26-4.38,1.26v-1.07l-2.87,.77c.43,.53,.76,1.12,.75,1.67-.02,.59-1.32,2.74-2.97,5.41,.24,1.52-.49,2.62-.53,2.68-.18,.27-.54,.34-.81,.16-.08-.06-.14-.14-.19-.22-.05,1.09-.54,1.83-.57,1.88-.15,.22-.42,.3-.66,.22,.04,1.27-.54,2.15-.57,2.2-.18,.27-.54,.34-.81,.16-.03-.02-.05-.05-.07-.07-1.37,2.43-2.44,4.63-2.64,5.98-.61,4.14-3.63,3.55-5.25,2.87v31.59c7.74-.38,15.86-.73,24.33-1.04l.1-5.9-1.86,.13Z"/><polygon class="k" points="335.5 151.17 335.5 151.17 335.5 151.17 335.5 151.17"/><polygon class="k" points="306.29 159.71 306.29 159.7 306.28 159.69 306.29 159.71"/><path class="k" d="M296.3,193.53c-2.68,2.12-5.11,3.88-7.25,5.3,2.33-.47,4.56-.96,6.64-1.43,.08-.52,.17-1.03,.25-1.56,.12-.78,.24-1.54,.36-2.3Z"/><path class="k" d="M134.79,262.17c.6-.37,1.2-.72,1.79-1.09,8.62-5.38,16.34-10.99,18.05-14.67l-18.16-26.82-2.16-3.19c.28,11.32,.64,30,.47,45.78Z"/><polygon class="k" points="333.03 152.25 333.03 152.25 332.99 152.87 333.03 152.25"/><path class="k" d="M332.86,154.61c.08,.03,.15,.06,.24,.1-.08-.03-.17-.07-.24-.1h0Z"/><path class="l" d="M380.38,20.89l.25,6.6,6.74-.25c.48,1.35,1.16,2.64,2.04,3.83l-3.93,4.23,4.84,4.49,4.1-4.42c1.2,.64,2.47,1.09,3.78,1.37l.24,6.37,6.6-.25-.23-6.18c1.55-.37,3.05-1,4.43-1.87l4.42,4.1,4.49-4.84-4.23-3.92c1.08-1.72,1.78-3.61,2.09-5.54l6.18-.23-.25-6.6-6.37,.24c-.38-1.28-.93-2.51-1.65-3.66l4.1-4.42-4.84-4.49-3.92,4.23c-1.72-1.08-3.6-1.78-5.54-2.09l-.2-5.41-6.6,.24,.21,5.6c-1.63,.48-3.19,1.24-4.6,2.28l-4.23-3.93-4.49,4.84,4.42,4.1c-.89,1.68-1.43,3.5-1.63,5.34l-6.22,.23Zm16.54-2.76c2.27-2.45,6.11-2.59,8.55-.32,2.45,2.27,2.59,6.11,.32,8.55-2.27,2.45-6.11,2.59-8.55,.32-2.45-2.27-2.59-6.11-.32-8.55Z"/><path class="l" d="M422.41,45.07l.13,3.61,3.69-.14c.26,.74,.63,1.44,1.11,2.09l-2.15,2.31,2.65,2.46,2.24-2.41c.66,.35,1.35,.6,2.06,.75l.13,3.48,3.61-.13-.13-3.38c.85-.2,1.67-.55,2.42-1.02l2.41,2.24,2.46-2.65-2.31-2.14c.59-.94,.97-1.97,1.14-3.03l3.38-.13-.13-3.61-3.48,.13c-.21-.7-.51-1.37-.9-2l2.24-2.41-2.65-2.46-2.14,2.31c-.94-.59-1.97-.97-3.03-1.14l-.11-2.95-3.61,.13,.11,3.06c-.89,.26-1.74,.68-2.51,1.25l-2.31-2.15-2.46,2.65,2.41,2.24c-.49,.92-.78,1.91-.89,2.92l-3.4,.13Zm9.04-1.51c1.24-1.34,3.34-1.41,4.67-.17,1.34,1.24,1.41,3.34,.17,4.67-1.24,1.34-3.34,1.41-4.67,.17-1.34-1.24-1.42-3.34-.17-4.67Z"/><path class="l" d="M60.56,28.25l.71,6.57,6.15-.66c.59,1.87,1.55,3.64,2.87,5.18l-3.62,4.49,5.14,4.14,3.78-4.69c1.5,.66,3.07,1.07,4.66,1.21l.66,6.15,6.57-.71-.68-6.34c1.25-.47,2.44-1.1,3.54-1.9l4.69,3.78,4.14-5.14-4.49-3.62c.7-1.3,1.19-2.68,1.46-4.08l6.71-.72-.71-6.57-6.19,.67c-.46-1.8-1.25-3.51-2.38-5.05l3.78-4.69-5.14-4.14-3.62,4.49c-1.55-.83-3.2-1.35-4.88-1.59l-.6-5.57-6.57,.71,.58,5.38c-1.87,.59-3.64,1.55-5.18,2.87l-4.49-3.62-4.14,5.14,4.69,3.78c-.55,1.25-.92,2.54-1.11,3.86l-6.34,.68Zm16.31-2.35c2.09-2.6,5.91-3.01,8.51-.92,2.6,2.09,3.01,5.91,.92,8.51-2.09,2.6-5.91,3.01-8.51,.92-2.6-2.09-3.01-5.91-.92-8.51Z"/><path class="l" d="M101.07,10.28l.39,3.59,3.36-.36c.32,1.02,.85,1.99,1.57,2.83l-1.98,2.46,2.81,2.26,2.07-2.57c.82,.36,1.68,.58,2.54,.66l.36,3.36,3.59-.39-.37-3.47c.68-.25,1.33-.6,1.93-1.04l2.56,2.07,2.26-2.81-2.46-1.98c.38-.71,.65-1.46,.8-2.23l3.67-.39-.39-3.59-3.38,.36c-.25-.98-.69-1.92-1.3-2.76l2.07-2.57-2.81-2.26-1.98,2.46c-.85-.45-1.75-.74-2.67-.87l-.33-3.04-3.59,.39,.32,2.94c-1.02,.32-1.99,.85-2.83,1.57l-2.46-1.98-2.26,2.81,2.57,2.07c-.3,.68-.5,1.39-.6,2.11l-3.47,.37Zm8.91-1.28c1.14-1.42,3.23-1.65,4.65-.5,1.42,1.14,1.65,3.23,.5,4.65-1.14,1.42-3.23,1.65-4.65,.5-1.42-1.14-1.65-3.23-.5-4.65Z"/><path class="l" d="M276.74,342.47c1.63-1.05,2.86-1.79,3.28-1.81,.5-.03,1.04,.25,1.54,.62l-.31-1.61c-1.28-.02-2.56-.03-3.84-.05l-.66,2.85Z"/><path class="l" d="M421.15,345.21c1.04,.17,1.69,.73,1.74,.76,.2,.17,.24,.44,.13,.67,1.22,.11,2,.75,2.05,.79,.24,.2,.26,.56,.06,.8-.2,.23-.53,.25-.77,.07,.69,.49,1.29,.83,1.74,.91,4.63,.91,4.63,8.14,1.81,8.5-8.15,1.03-22.1-2.43-22.1-2.43,0,0-1.08-7.89-.81-11.4-11.48-.74-24.17-1.41-37.88-1.99-.1,.64-.19,1.17-.25,1.57,.8,.09,1.4,.43,1.62,1.3,.73,2.85-1.2,13.01-1.2,13.01,0,0-28.86-1.79-30.56-2.56-1.49-.68-1.29-5.54,2.67-5.91,1.26-.12,3.37-1.01,5.7-2.17-.02-.02-.05-.04-.06-.07-.16-.26-.07-.59,.18-.75,.05-.03,.91-.52,2.08-.42-.07-.23,.02-.49,.23-.62,.05-.03,.76-.45,1.78-.44-.08-.04-.15-.1-.2-.18-.16-.26-.07-.59,.18-.75,.06-.03,1.12-.65,2.52-.36,.51-.28,1-.55,1.47-.8l-.32-1.4c-11.09-.4-22.75-.74-34.87-1.03l-.13,11.71c-.02,1.24-.97,2.24-2.14,2.24h-3.31c-1.18,0-2.13-1.01-2.14-2.26l-.03-11.86c-6.68-.14-13.5-.26-20.43-.36l.09,2.49c.78,.03,1.38,.33,1.66,1.16,.95,2.76-.14,12.99-.14,12.99,0,0-28.73,.54-30.47-.09-1.53-.55-1.72-5.38,2.17-6.07,1.08-.19,2.74-1.01,4.61-2.09l1.87-8.62c-9.76-.09-19.72-.14-29.82-.15l-.07,.77c.69,.07,1.22,.38,1.49,1.14,.29,.84,.39,2.38,.39,4.11,1.13,.33,1.92,.43,1.92,.43h.08c4.82,0,8.72,3.9,8.72,8.72h-46.95c0-4.82,3.9-8.72,8.72-8.72h.08s7.38-.97,9.43-6.43c-34.99,.12-67.96,.71-97.29,1.69,.84,.63,2.01,1.61,3.31,2.74,1.19,.16,1.93,.8,1.98,.85,.23,.21,.25,.58,.04,.81-.02,.02-.05,.03-.07,.05,.08,.07,.16,.14,.23,.21,.81,.25,1.3,.68,1.34,.71,.18,.16,.23,.41,.15,.62l.08,.08c1.16,.17,1.89,.8,1.94,.84,.23,.21,.25,.58,.04,.81-.02,.02-.05,.03-.07,.05,1.4,1.24,2.56,2.26,3.14,2.68,3.11,2.28,2.34,5.47-.53,5.75-8.31,.83-22.34-1.82-22.34-1.82,0,0-1.05-9.46-.4-12.4,.23-1.02,.57-1.44,1.03-1.59v-.02c-8.46,.32-16.58,.66-24.33,1.04v11.99H1.43v-1.81c-.94,.54-1.43,1.09-1.43,1.65,0,8.25,105.77,14.95,236.24,14.95s236.24-6.69,236.24-14.95c0-3.51-19.11-6.73-51.09-9.28h0c-.06,.08-.15,.12-.23,.15Z"/><path class="l" d="M420.59,345.12s-.04-.03-.09-.07c.04,.04,.09,.08,.13,.12,.02,0,.04,0,.07,0-.03-.02-.07-.03-.1-.06Z"/><path class="p" d="M288.4,60.02c2.64,0,4.8-2.15,4.8-4.8s-2.15-4.8-4.8-4.8-4.8,2.15-4.8,4.8,2.15,4.8,4.8,4.8Zm0-8.09c1.81,0,3.29,1.48,3.29,3.29s-1.48,3.29-3.29,3.29-3.29-1.48-3.29-3.29,1.48-3.29,3.29-3.29Z"/><path class="p" d="M270.09,71c0,2.64,2.15,4.8,4.8,4.8s4.8-2.15,4.8-4.8-2.15-4.8-4.8-4.8-4.8,2.15-4.8,4.8Zm8.09,0c0,1.82-1.48,3.29-3.29,3.29s-3.29-1.48-3.29-3.29,1.48-3.29,3.29-3.29,3.29,1.48,3.29,3.29Z"/><path class="p" d="M269.47,55.23c.42,0,.75-.34,.75-.75v-3.32c0-.42-.34-.75-.75-.75s-.75,.34-.75,.75v3.32c0,.42,.34,.75,.75,.75Z"/><path class="p" d="M269.47,49.42c.42,0,.75-.34,.75-.75v-3.32c0-.42-.34-.75-.75-.75s-.75,.34-.75,.75v3.32c0,.42,.34,.75,.75,.75Z"/><path class="p" d="M264.82,50.67h2.98c.42,0,.75-.34,.75-.75s-.34-.75-.75-.75h-2.98c-.42,0-.75,.34-.75,.75s.34,.75,.75,.75Z"/><path class="p" d="M271.15,50.67h2.98c.42,0,.75-.34,.75-.75s-.34-.75-.75-.75h-2.98c-.42,0-.75,.34-.75,.75s.34,.75,.75,.75Z"/><path class="p" d="M295.49,78.75c.42,0,.75-.34,.75-.75v-3.32c0-.42-.34-.75-.75-.75s-.75,.34-.75,.75v3.32c0,.42,.34,.75,.75,.75Z"/><path class="p" d="M295.49,72.94c.42,0,.75-.34,.75-.75v-3.32c0-.42-.34-.75-.75-.75s-.75,.34-.75,.75v3.32c0,.42,.34,.75,.75,.75Z"/><path class="p" d="M290.08,73.43c0,.42,.34,.75,.75,.75h2.98c.42,0,.75-.34,.75-.75s-.34-.75-.75-.75h-2.98c-.42,0-.75,.34-.75,.75Z"/><path class="p" d="M297.16,74.18h2.98c.42,0,.75-.34,.75-.75s-.34-.75-.75-.75h-2.98c-.42,0-.75,.34-.75,.75s.34,.75,.75,.75Z"/><path class="p" d="M14.73,27.47c2.64,0,4.8-2.15,4.8-4.8s-2.15-4.8-4.8-4.8-4.8,2.15-4.8,4.8,2.15,4.8,4.8,4.8Zm0-8.09c1.81,0,3.29,1.48,3.29,3.29s-1.48,3.29-3.29,3.29-3.29-1.48-3.29-3.29,1.48-3.29,3.29-3.29Z"/><path class="p" d="M28.25,43.23c2.64,0,4.8-2.15,4.8-4.8s-2.15-4.8-4.8-4.8-4.8,2.15-4.8,4.8,2.15,4.8,4.8,4.8Zm0-8.09c1.81,0,3.29,1.48,3.29,3.29s-1.48,3.29-3.29,3.29-3.29-1.48-3.29-3.29,1.48-3.29,3.29-3.29Z"/><path class="p" d="M33.65,22.67c.42,0,.75-.34,.75-.75v-3.32c0-.42-.34-.75-.75-.75s-.75,.34-.75,.75v3.32c0,.42,.34,.75,.75,.75Z"/><path class="p" d="M33.65,16.86c.42,0,.75-.34,.75-.75v-3.32c0-.42-.34-.75-.75-.75s-.75,.34-.75,.75v3.32c0,.42,.34,.75,.75,.75Z"/><path class="p" d="M35.33,18.11h2.98c.42,0,.75-.34,.75-.75s-.34-.75-.75-.75h-2.98c-.42,0-.75,.34-.75,.75s.34,.75,.75,.75Z"/><path class="p" d="M29,18.11h2.98c.42,0,.75-.34,.75-.75s-.34-.75-.75-.75h-2.98c-.42,0-.75,.34-.75,.75s.34,.75,.75,.75Z"/><path class="p" d="M7.64,46.19c.42,0,.75-.34,.75-.75v-3.32c0-.42-.34-.75-.75-.75s-.75,.34-.75,.75v3.32c0,.42,.34,.75,.75,.75Z"/><path class="p" d="M7.64,40.38c.42,0,.75-.34,.75-.75v-3.32c0-.42-.34-.75-.75-.75s-.75,.34-.75,.75v3.32c0,.42,.34,.75,.75,.75Z"/><path class="p" d="M9.32,41.62h2.98c.42,0,.75-.34,.75-.75s-.34-.75-.75-.75h-2.98c-.42,0-.75,.34-.75,.75s.34,.75,.75,.75Z"/><path class="p" d="M2.99,41.62h2.98c.42,0,.75-.34,.75-.75s-.34-.75-.75-.75H2.99c-.42,0-.75,.34-.75,.75s.34,.75,.75,.75Z"/><path class="o" d="M253.59,137.98h26.66l8.05,2.89c.83,.3,1.62-.52,1.3-1.33l-3.04-7.86v-11.89c0-1.94-1.57-3.52-3.52-3.52h-29.45c-1.94,0-3.52,1.57-3.52,3.52v14.68c0,1.94,1.57,3.52,3.52,3.52Zm22.19-12.98c1.4,0,2.54,1.14,2.54,2.54s-1.14,2.54-2.54,2.54-2.54-1.14-2.54-2.54,1.14-2.54,2.54-2.54Zm-8.05,0c1.4,0,2.54,1.14,2.54,2.54s-1.14,2.54-2.54,2.54-2.54-1.14-2.54-2.54,1.14-2.54,2.54-2.54Zm-8.05,0c1.4,0,2.54,1.14,2.54,2.54s-1.14,2.54-2.54,2.54-2.54-1.14-2.54-2.54,1.14-2.54,2.54-2.54Z"/><path class="d" d="M275.78,130.09c1.4,0,2.54-1.14,2.54-2.54s-1.14-2.54-2.54-2.54-2.54,1.14-2.54,2.54,1.14,2.54,2.54,2.54Z"/><path class="d" d="M267.73,130.09c1.4,0,2.54-1.14,2.54-2.54s-1.14-2.54-2.54-2.54-2.54,1.14-2.54,2.54,1.14,2.54,2.54,2.54Z"/><path class="d" d="M259.68,130.09c1.4,0,2.54-1.14,2.54-2.54s-1.14-2.54-2.54-2.54-2.54,1.14-2.54,2.54,1.14,2.54,2.54,2.54Z"/><path class="u" d="M328.17,64.62h26.66l8.05,2.89c.83,.3,1.62-.52,1.3-1.33l-3.04-7.86v-11.89c0-1.94-1.57-3.52-3.52-3.52h-29.45c-1.94,0-3.52,1.57-3.52,3.52v14.68c0,1.94,1.57,3.52,3.52,3.52Zm22.19-12.98c1.4,0,2.54,1.14,2.54,2.54s-1.14,2.54-2.54,2.54-2.54-1.14-2.54-2.54,1.14-2.54,2.54-2.54Zm-8.05,0c1.4,0,2.54,1.14,2.54,2.54s-1.14,2.54-2.54,2.54-2.54-1.14-2.54-2.54,1.14-2.54,2.54-2.54Zm-8.05,0c1.4,0,2.54,1.14,2.54,2.54s-1.14,2.54-2.54,2.54-2.54-1.14-2.54-2.54,1.14-2.54,2.54-2.54Z"/><path class="d" d="M350.36,56.72c1.4,0,2.54-1.14,2.54-2.54s-1.14-2.54-2.54-2.54-2.54,1.14-2.54,2.54,1.14,2.54,2.54,2.54Z"/><path class="d" d="M342.31,56.72c1.4,0,2.54-1.14,2.54-2.54s-1.14-2.54-2.54-2.54-2.54,1.14-2.54,2.54,1.14,2.54,2.54,2.54Z"/><path class="d" d="M334.25,56.72c1.4,0,2.54-1.14,2.54-2.54s-1.14-2.54-2.54-2.54-2.54,1.14-2.54,2.54,1.14,2.54,2.54,2.54Z"/><path class="p" d="M160.11,68.63l8.05-2.89h26.66c1.94,0,3.52-1.57,3.52-3.52v-14.68c0-1.94-1.57-3.52-3.52-3.52h-29.45c-1.94,0-3.52,1.57-3.52,3.52v11.89l-3.04,7.86c-.32,.82,.47,1.63,1.3,1.33Zm28.62-15.87c1.4,0,2.54,1.14,2.54,2.54s-1.14,2.54-2.54,2.54-2.54-1.14-2.54-2.54,1.14-2.54,2.54-2.54Zm-8.05,0c1.4,0,2.54,1.14,2.54,2.54s-1.14,2.54-2.54,2.54-2.54-1.14-2.54-2.54,1.14-2.54,2.54-2.54Zm-8.05,0c1.4,0,2.54,1.14,2.54,2.54s-1.14,2.54-2.54,2.54-2.54-1.14-2.54-2.54,1.14-2.54,2.54-2.54Z"/><path class="d" d="M172.63,57.85c1.4,0,2.54-1.14,2.54-2.54s-1.14-2.54-2.54-2.54-2.54,1.14-2.54,2.54,1.14,2.54,2.54,2.54Z"/><path class="d" d="M180.68,57.85c1.4,0,2.54-1.14,2.54-2.54s-1.14-2.54-2.54-2.54-2.54,1.14-2.54,2.54,1.14,2.54,2.54,2.54Z"/><path class="d" d="M188.73,57.85c1.4,0,2.54-1.14,2.54-2.54s-1.14-2.54-2.54-2.54-2.54,1.14-2.54,2.54,1.14,2.54,2.54,2.54Z"/><polygon class="v" points="21.1 354.5 21.1 348.16 21.1 122.29 1.43 122.29 1.43 352.7 1.43 354.5 21.1 354.5"/><path class="w" d="M81.41,124.78c-.36,.06-.73,.12-1.1,.17,.07,.14,.14,.29,.22,.46,1.9,4,7.51,15.33,11.39,23.14v-25.85c-3.42,.8-6.91,1.5-10.51,2.08Z"/><path class="w" d="M21.1,354.5H91.92v-43.58s-.05-.02-.08-.03c-1.6-.7-.86-33.31-.86-33.31,0,0,.35-.05,.94-.12v-108.99c-1.15-1.99-2.3-4.6-3.31-8l-.71,.39s-1.12-1.41-2.88-3.64v17.05c0,2.03-1.28,3.68-2.86,3.68H36.14c-1.58,0-2.86-1.65-2.86-3.68v-35.75c0-2.03,1.28-3.68,2.86-3.68h31.59c-1.21-1.63-2.26-3.08-3.05-4.23-2.05-2.98-2.97-5.83-3-8.32h-8.2v.13h-21.16v-.13h-11.21v232.22Zm12.17-161.07c0-2.03,1.28-3.68,2.86-3.68h46.01c1.58,0,2.86,1.65,2.86,3.68v35.75c0,2.04-1.28,3.68-2.86,3.68H36.14c-1.58,0-2.86-1.65-2.86-3.68v-35.75Zm0,54.91c0-2.03,1.28-3.68,2.86-3.68h46.01c1.58,0,2.86,1.65,2.86,3.68v35.75c0,2.03-1.28,3.68-2.86,3.68H36.14c-1.58,0-2.86-1.65-2.86-3.68v-35.75Zm0,54.91c0-2.03,1.28-3.68,2.86-3.68h46.01c1.58,0,2.86,1.65,2.86,3.68v35.75c0,2.03-1.28,3.68-2.86,3.68H36.14c-1.58,0-2.86-1.65-2.86-3.68v-35.75Z"/><path class="v" d="M67.73,134.83h-31.59c-1.58,0-2.86,1.65-2.86,3.68v35.75c0,2.03,1.28,3.68,2.86,3.68h46.01c1.58,0,2.86-1.65,2.86-3.68v-17.05c-3.12-3.95-8.25-10.48-12.77-16.39-1.63-2.13-3.17-4.17-4.52-5.99Zm1.69,9.28c0,.83-.52,1.5-1.17,1.5h-16.87c-.64,0-1.17-.67-1.17-1.5v-.86c0-.83,.52-1.5,1.17-1.5h16.87c.64,0,1.17,.67,1.17,1.5v.86Z"/><path class="o" d="M68.25,141.76h-16.87c-.64,0-1.17,.67-1.17,1.5v.86c0,.83,.52,1.5,1.17,1.5h16.87c.64,0,1.17-.67,1.17-1.5v-.86c0-.83-.52-1.5-1.17-1.5Z"/><path class="v" d="M36.14,232.87h46.01c1.58,0,2.86-1.65,2.86-3.68v-35.75c0-2.03-1.28-3.68-2.86-3.68H36.14c-1.58,0-2.86,1.65-2.86,3.68v35.75c0,2.04,1.28,3.68,2.86,3.68Zm14.08-34.7c0-.83,.52-1.5,1.17-1.5h16.87c.64,0,1.17,.67,1.17,1.5v.86c0,.83-.52,1.5-1.17,1.5h-16.87c-.64,0-1.17-.67-1.17-1.5v-.86Z"/><path class="o" d="M51.38,200.53h16.87c.64,0,1.17-.67,1.17-1.5v-.86c0-.83-.52-1.5-1.17-1.5h-16.87c-.64,0-1.17,.67-1.17,1.5v.86c0,.83,.52,1.5,1.17,1.5Z"/><path class="v" d="M36.14,287.78h46.01c1.58,0,2.86-1.65,2.86-3.68v-35.75c0-2.03-1.28-3.68-2.86-3.68H36.14c-1.58,0-2.86,1.65-2.86,3.68v35.75c0,2.03,1.28,3.68,2.86,3.68Zm14.08-34.7c0-.83,.52-1.5,1.17-1.5h16.87c.64,0,1.17,.67,1.17,1.5v.86c0,.83-.52,1.5-1.17,1.5h-16.87c-.64,0-1.17-.67-1.17-1.5v-.86Z"/><path class="o" d="M51.38,255.44h16.87c.64,0,1.17-.67,1.17-1.5v-.86c0-.83-.52-1.5-1.17-1.5h-16.87c-.64,0-1.17,.67-1.17,1.5v.86c0,.83,.52,1.5,1.17,1.5Z"/><path class="v" d="M36.14,342.69h46.01c1.58,0,2.86-1.65,2.86-3.68v-35.75c0-2.03-1.28-3.68-2.86-3.68H36.14c-1.58,0-2.86,1.65-2.86,3.68v35.75c0,2.03,1.28,3.68,2.86,3.68Zm14.08-34.7c0-.83,.52-1.5,1.17-1.5h16.87c.64,0,1.17,.67,1.17,1.5v.86c0,.83-.52,1.5-1.17,1.5h-16.87c-.64,0-1.17-.67-1.17-1.5v-.86Z"/><path class="o" d="M51.38,310.35h16.87c.64,0,1.17-.67,1.17-1.5v-.86c0-.83-.52-1.5-1.17-1.5h-16.87c-.64,0-1.17,.67-1.17,1.5v.86c0,.83,.52,1.5,1.17,1.5Z"/><polygon class="p" points="53.47 102.71 53.47 102.71 56.39 102.71 56.39 98.83 49.75 98.83 49.75 98.83 36.03 98.83 36.03 98.83 29.4 98.83 29.4 102.71 32.32 102.71 32.32 102.71 53.47 102.71"/><polygon class="p" points="53.47 122.41 53.47 122.29 53.47 103.44 32.32 106.28 32.32 122.29 32.32 122.41 53.47 122.41"/><polygon class="r" points="53.47 102.71 53.47 102.71 32.32 102.71 32.32 102.71 32.32 106.28 53.47 103.44 53.47 102.71"/><path class="h" d="M31.08,85.16h0c-.29,.37-.52,.92-.67,1.71-.49,2.58,1.29,5.97,2.97,8.48,.31,.47,.62,.9,.92,1.3h6.74l-9.96-11.49Z"/><path class="h" d="M41.89,96.65h.68v-15.85l-10.55-12.18c-2.19,1.68-.86,5.76,1.16,8.85,2.25,3.43,3.82,8.27,2.85,8.35-.72,.06-2.99-1.95-4.47-1.09-.05,.03-.09,.07-.14,.1,.05-.03,.09-.07,.14-.1l10.33,11.93Z"/><path class="h" d="M43.22,96.65h.68l10.33-11.93s.08,.06,.12,.08c-.04-.03-.08-.06-.12-.09-1.48-.86-3.75,1.16-4.47,1.09-.97-.09,.61-4.92,2.86-8.35,2.02-3.09,3.35-7.17,1.16-8.85l-10.55,12.18v15.86Z"/><path class="h" d="M51.49,96.65c.29-.4,.6-.83,.92-1.3,1.68-2.51,3.46-5.9,2.97-8.48-.15-.79-.38-1.34-.67-1.71h0l-9.96,11.49h6.74Z"/><path class="h" d="M53.21,68.27s.07,.04,.1,.05c-.03-.02-.06-.04-.1-.05-.09-.05-.19-.09-.3-.12-3.34-1.23-4.48,3.25-5.89,2.64-1.38-.61,2.85-14.93-3.81-14.96v23.98l9.99-11.54Z"/><path class="h" d="M42.57,79.81v-23.99c-6.66,.03-2.43,14.35-3.81,14.96-1.41,.62-2.55-3.87-5.89-2.64-.1,.04-.2,.08-.3,.12-.04,.02-.08,.04-.12,.07,.04-.02,.08-.04,.12-.07l10,11.54Z"/><path class="h" d="M43.18,55.82c-.09,0-.19,0-.28,0-.1,0-.19,0-.28,0,.09,0,.19,0,.28,0,.1,0,.19,0,.28,0Z"/><path class="g" d="M42.89,80.18l.32-.38v-23.98h0s-.03,0-.04,0c-.09,0-.19,0-.28,0-.1,0-.19,0-.28,0-.01,0-.03,0-.04,0h0v23.99l.32,.37Z"/><polygon class="g" points="43.14 80.89 42.89 80.68 42.65 80.89 42.57 80.8 42.57 96.65 43.22 96.65 43.22 80.8 43.14 80.89"/><path class="g" d="M42.65,80.89l.25-.21,.24,.21,.08-.09,10.55-12.18h0l-.27-.19c-.06-.04-.13-.07-.19-.1-.03-.02-.06-.04-.1-.05l-9.99,11.54-.32,.38-.32-.37-10-11.54s-.08,.04-.12,.07c-.06,.03-.11,.06-.17,.09l-.27,.18h0l10.55,12.19,.08,.09Z"/><path class="g" d="M49.75,98.83h0c.06-.07,.8-.91,1.74-2.18h-6.74l9.96-11.49h0c-.11-.14-.24-.25-.37-.35-.04-.03-.08-.06-.12-.08l-10.33,11.93h-2l-10.33-11.93s-.09,.07-.14,.1c-.12,.09-.24,.2-.35,.33h0l9.96,11.49h-6.74c.93,1.27,1.68,2.11,1.74,2.18h13.72Z"/><polygon class="r" points="254.11 202.68 252.07 195.42 252.07 195.42 254.11 202.68 254.11 202.68"/><path class="r" d="M262.08,203.1l.02,.07c-.6,.19-.71,1.33-.56,2.82,.17,1.7,.67,3.87,1.13,5.62h15.67c1.18,0,2.14,.96,2.14,2.14v.17c4-.29,8.32-.67,12.5-1.17,4.94-.59,9.67-1.34,13.46-2.29,.44-.11,.88-.23,1.29-.34,2.4-.68,9.94-4.5,18.28-9.54,3.02-1.83,6.15-3.81,9.18-5.87,2.41-1.64,4.76-3.32,6.95-5,.81-.62,1.56-1.17,2.27-1.68,2.09-1.53,3.78-2.81,5.32-5.04,.7-1.01,1.36-2.22,2.01-3.74,2.56-5.94,.86-10.78-2.47-14.65-.5-.58-1.04-1.15-1.6-1.69-.03-.03-.07-.07-.1-.1h0c-3.46,2.89-9.74,8.1-16.47,13.5-7.89,6.32-16.4,12.89-21.79,16.32-1.77,1.13-3.22,1.92-4.17,2.24-2.27,.76-5.57,1.62-9.44,2.51-2.08,.48-4.32,.96-6.64,1.43,2.14-1.42,4.57-3.18,7.25-5.3,2.1-13.15,4.73-23.84,6.42-29.39-4.68,7.51-20.09,25.35-25.35,27.1-4.27,1.42-13.64,2.79-22.6,3.87l2.14,7.61c2.96,.11,5.17,.38,5.17,.38Z"/><path class="u" d="M357.03,341.04s.05,0,.08,0c.16-1.79,.54-6.04,1.02-11.45l-8.8-40.7c-2.2,1.13-4.77,2.26-7.73,3.3l11.38,49.15,.32,1.4c1-.54,1.87-.99,2.53-1.3,.57-.26,.99-.42,1.2-.41Z"/><path class="s" d="M349.32,288.9l-.67-3.1c-2.36,1.34-4.93,2.47-7.75,3.39l.7,3.01c2.96-1.04,5.53-2.17,7.73-3.3Z"/><path class="u" d="M310.24,296.91l.11,43.24,.03,11.86c0,1.25,.96,2.26,2.14,2.26h3.31c1.17,0,2.12-1,2.14-2.24l.13-11.71,.48-43.66c-2.63,.18-5.41,.27-8.34,.25Z"/><path class="s" d="M318.58,296.66l.05-4.37c-2.95,.07-5.74,.07-8.4,0v4.62c2.94,.02,5.72-.07,8.36-.25Z"/><path class="u" d="M284.28,297.02c.62,1.7,1.18,3.59,1.69,5.57l2.1-9.09c-2.12-.67-4.16-1.44-6.16-2.26,.83,1.83,1.63,3.75,2.37,5.78Z"/><path class="s" d="M281.91,291.25c2,.82,4.04,1.59,6.16,2.26l.82-3.55c-3.02-.68-5.66-1.48-7.96-2.38l-.24,1.11c.41,.83,.81,1.68,1.21,2.56Z"/><path class="u" d="M359.85,193.78c-2.95-2.33-6.93-4.3-10.98-5.2-.21,1.61-.36,3.12-.38,4.47-.03,2.02-.22,6.27-.65,11.69,4.63,14.24,1,48.9-13.38,67.3-9.66,12.36-41.61,10.15-59.81,6.3,1.52,2.24,3.4,5.24,5.28,8.84,.33,.14,.66,.28,1.01,.41,2.29,.9,4.94,1.7,7.96,2.38,5.74,1.29,12.82,2.13,21.33,2.32,2.66,.06,5.46,.06,8.4,0,1.5-.03,3.02-.09,4.59-.16,6.72-.3,12.58-1.28,17.67-2.94,2.82-.92,5.4-2.05,7.75-3.39,7.24-4.11,12.35-10.2,15.73-18.34,.63-5.03,1.31-10.51,1.96-15.7,.36-2.87,.71-5.65,1.03-8.22-4.43-1.66-8.58-3.73-12.26-6.26-.11-.9,.1-2.77,.58-5.37,1.32-7.2,4.65-19.97,8.61-32.87-1.19-2.04-2.64-3.84-4.44-5.26Z"/><path class="s" d="M339.81,248.65c-3.5,19.12-10.76,26.16-25.74,26.16-19.47,0-42.67-.89-42.67-.89,0,0,1.34,1.61,3.25,4.41,18.2,3.85,50.15,6.06,59.81-6.3,14.38-18.4,18-53.06,13.38-67.3-1.01,12.74-3.33,31.95-8.02,43.91h0Z"/><path class="q" d="M233.62,335.27v1.14c0,1.12,.2,2.11,.52,2.99,.21,.57,.49,1.1,.8,1.58,1.74-.24,3.57-.94,4.85-.81l.07-.77,.33-3.64c-2.1,.08-4.27-.04-6.58-.5Z"/><path class="u" d="M234.95,340.97c.43,.66,.95,1.23,1.51,1.72,1.67,1.47,3.74,2.29,5.21,2.72,0-1.73-.1-3.27-.39-4.11-.26-.77-.8-1.07-1.49-1.14-1.28-.13-3.11,.57-4.85,.81Z"/><path class="v" d="M258.52,249.3c3.51-.84,15.6-1.15,29.43-1.2-.95-1.14-1.58-2.35-1.82-3.6-12.8,.14-46.72,.89-51.72,4.99-.28,.23-.54,.54-.79,.92v84.87c2.31,.46,4.48,.58,6.58,.5,.7-.03,1.39-.07,2.08-.14,0,0,1.23-27.94,4.06-41.47,.5-2.38,3.16-8.85,5.05-17.37-1.94-4.35-3.24-7.98-3.47-10.45-1.14-12.12,1.14-14.77,10.61-17.04Z"/><path class="p" d="M313.85,157.66s.36,1.02,.7,2.27l.17-1.06c-.52-.65-.87-1.22-.87-1.22Z"/><path class="p" d="M344.12,160.29c-.57-.37-1.16-.73-1.75-1.07-.18-.11-.37-.21-.55-.32-.41-.23-.81-.46-1.21-.68-.22-.12-.43-.23-.65-.35-.39-.2-.77-.4-1.15-.59-.19-.1-.39-.2-.57-.29-.5-.25-1-.48-1.47-.7-.04-.02-.08-.04-.12-.05-.13-.06-.24-.11-.36-.16-.35-.16-.7-.32-1.02-.46-1.02,5.13-2.47,12.35-4.18,20.7,6.74-5.4,13.01-10.6,16.47-13.49-1.05-.9-2.21-1.75-3.44-2.55h0Z"/><path class="p" d="M292.98,212.77c-.41,2.06-.81,4.05-1.22,5.95h13.35l1.32-8.24c-3.79,.96-8.52,1.71-13.46,2.29Z"/><path class="p" d="M295.94,195.83c-.08,.53-.16,1.04-.25,1.56,3.86-.89,7.17-1.75,9.44-2.51,.96-.32,2.4-1.11,4.17-2.24l1.96-12.24,1.86-11.6,.76-4.72c-1.55-1.24-3.77-5.24-3.77-5.24,0,0,2.46,5.65,.68,6.13-1.75,.47-4.44-5.11-4.51-5.26h0c.07,.15,2.41,5.12,.85,5.16-.08,0-.15,0-.25-.02-.2-.05-.39-.13-.56-.23-1.24-.69-1.76-2.44-1.92-3.22-.8,.87-1.39,1.78-1.68,2.74-1.68,5.55-4.31,16.24-6.42,29.39-.12,.76-.24,1.52-.36,2.3Z"/><path class="p" d="M319.77,248.3c11.53,.16,20.02,.35,20.04,.35,4.7-11.96,7.02-31.17,8.02-43.91,.43-5.42,.62-9.67,.65-11.69,.02-1.36,.17-2.87,.38-4.47,.24-1.77,.55-3.65,.86-5.57-1.53,2.23-3.23,3.51-5.32,5.04-.71,.52-1.46,1.06-2.27,1.68-2.18,1.68-4.53,3.36-6.95,5-3.03,2.06-6.16,4.04-9.18,5.87-1.66,7.75-3.39,15.69-5.11,23.32v1.05c0,.65-.24,1.24-.62,1.71-1.77,7.76-3.52,15.12-5.16,21.56,1.59,.02,3.14,.04,4.64,.06Z"/><path class="p" d="M286.21,241.84c-.23,.91-.24,1.79-.08,2.65,.24,1.26,.87,2.46,1.82,3.6,1.2,0,2.42,0,3.65,0,2.91,0,5.86,0,8.81,.02l3.28-20.44h-6c-2.63,2.66-5.84,4.61-9.32,5.74-.82,3.3-1.56,6.13-2.16,8.43Z"/><path class="p" d="M347.67,162.93c.57,.54,1.1,1.1,1.6,1.69-.27-.41-.59-.78-.94-1.11-.21-.2-.44-.38-.66-.58Z"/><path class="d" d="M316.61,155.18h0c1.11,2.13,1.79,5.42,.87,5.66-.85,.21-1.99-.98-2.76-1.96l-.17,1.06c.53,1.92,1.04,4.37,.19,4.51-.24,.04-.54-.11-.86-.37l-.76,4.72-1.86,11.6-1.96,12.24c5.39-3.42,13.9-10,21.79-16.32,1.71-8.35,3.16-15.57,4.18-20.7h0c-.38-.17-.73-.32-1.07-.46-.12-.05-.25-.11-.37-.16l-.12-.05c-.18-.07-.35-.14-.51-.21l-.1-.04c-.08-.03-.16-.06-.24-.1l-.16,2.17s-4.21,2.87-7.67,2.92c-3.45,.05-4.85-2.92-4.85-2.92l.24-3.34,.02-.25-.4-.03s-.4,.13-1.08,.37c.25,.13,.51,.29,.78,.51,0,0-1.25,.63-3.12,1.14Z"/><path class="d" d="M307.73,210.13c-.42,.12-.85,.23-1.29,.34l-1.32,8.24h13.09c1.49,0,2.7,1.21,2.7,2.7v2.5c1.72-7.63,3.46-15.57,5.11-23.32-8.35,5.04-15.89,8.86-18.28,9.54Z"/><path class="d" d="M315.12,248.24c1.64-6.44,3.39-13.8,5.16-21.56-.5,.6-1.24,.99-2.08,.99h-14.52l-3.28,20.44c5.04,.03,10.05,.07,14.72,.13Z"/><path class="q" d="M280.69,336.85l.55,2.82,.31,1.61c.96,.72,1.74,1.8,1.74,1.8,2.11,.49,4.9-.88,6.71-.81l-.09-2.49-.14-4.01-9.09,1.08Z"/><path class="u" d="M283.3,343.08s-.79-1.08-1.74-1.8c-.5-.37-1.04-.65-1.54-.62-.42,.02-1.65,.76-3.28,1.81l.66-2.85,1.03-4.44c-.88-3.96-2.61-8.65-4.82-13.72l-3.91,18.08-1.87,8.62c-1.87,1.08-3.53,1.9-4.61,2.09-3.89,.69-3.69,5.52-2.17,6.07,1.74,.63,30.47,.09,30.47,.09,0,0,1.09-10.22,.14-12.99-.28-.83-.88-1.12-1.66-1.16-1.81-.08-4.6,1.29-6.71,.81Zm-4.28,4.64c-.14,.07-.29,.09-.43,.04-.13-.04-.24-.13-.31-.26,0-.02-.94-1.68-2.15-2.43-.06-.04-.12-.09-.19-.12-1.5-.78-2.66,.01-2.71,.04-.03,.02-.07,.03-.1,.05,.51,.02,1.07,.14,1.67,.45,.38,.2,.73,.47,1.05,.77,1.02,.94,1.7,2.15,1.73,2.22,.14,.26,.05,.59-.21,.74-.14,.07-.29,.09-.43,.04-.13-.04-.24-.13-.31-.26,0-.01-.43-.77-1.07-1.49-.36-.41-.8-.81-1.26-1.06-1.16-.6-2.11-.27-2.5-.07,.26,.07,.52,.18,.8,.32,1.19,.62,2.14,1.95,2.56,2.61,.14,.21,.22,.36,.23,.38,.14,.26,.05,.59-.21,.74-.09,.05-.19,.06-.29,.06-.05,0-.09,0-.14-.01-.13-.04-.24-.13-.31-.26-.01-.02-1.04-1.87-2.34-2.55-1.5-.78-2.66,.01-2.71,.04-.22,.16-.51,.12-.69-.06-.02-.02-.05-.04-.07-.06-.18-.24-.12-.58,.12-.76,.05-.03,.86-.58,2.03-.58-.08-.22-.02-.48,.18-.63,.04-.03,.72-.5,1.73-.58-.08-.04-.16-.09-.21-.17-.18-.24-.12-.58,.12-.76,.05-.04,1.05-.73,2.47-.56,.41,.05,.85,.17,1.32,.41,.02,.01,.04,.01,.06,.02,1.58,.83,2.74,2.9,2.78,2.99,.14,.26,.05,.59-.21,.74Z"/><path class="d" d="M276.45,343.99s-.04-.01-.06-.02c-.47-.24-.91-.36-1.32-.41-1.41-.17-2.41,.52-2.47,.56-.24,.17-.3,.51-.12,.76,.06,.08,.13,.13,.21,.17-1.01,.08-1.69,.55-1.73,.58-.2,.15-.27,.41-.18,.63-1.17,0-1.98,.54-2.03,.58-.24,.18-.3,.51-.12,.76,.02,.03,.05,.04,.07,.06,.19,.18,.47,.22,.69,.06,.05-.03,1.21-.82,2.71-.04,1.29,.68,2.32,2.53,2.34,2.55,.07,.13,.18,.22,.31,.26,.04,.01,.09,.01,.14,.01,.1,0,.2,0,.29-.06,.26-.14,.36-.47,.21-.74-.01-.02-.09-.17-.23-.38-.42-.66-1.36-1.98-2.56-2.61-.27-.14-.54-.24-.8-.32,.4-.2,1.35-.53,2.5,.07,.47,.24,.9,.64,1.26,1.06,.64,.72,1.07,1.48,1.07,1.49,.07,.13,.18,.21,.31,.26,.14,.04,.29,.03,.43-.04,.26-.14,.36-.47,.21-.74-.04-.07-.72-1.28-1.73-2.22-.32-.3-.67-.57-1.05-.77-.61-.32-1.17-.43-1.67-.45,.04-.02,.07-.02,.1-.05,.05-.03,1.21-.82,2.71-.04,.06,.03,.12,.08,.19,.12,1.2,.75,2.14,2.41,2.15,2.43,.07,.13,.18,.22,.31,.26,.14,.04,.29,.03,.43-.04,.26-.14,.36-.47,.21-.74-.05-.09-1.2-2.16-2.78-2.99Z"/><path class="w" d="M314.07,274.81c14.98,0,22.24-7.04,25.74-26.16h0s-8.52-.19-20.04-.35c-1.5-.02-3.05-.04-4.64-.06-4.67-.06-9.68-.1-14.72-.13-2.95-.01-5.9-.02-8.81-.02-1.23,0-2.44,0-3.65,0-13.82,.05-25.91,.36-29.43,1.2-9.47,2.27-11.74,4.92-10.61,17.04,.23,2.47,1.54,6.1,3.47,10.45,5.41,12.13,15.81,29.97,22.22,44.68,2.2,5.06,3.94,9.76,4.82,13.72,.14,.65,.27,1.28,.37,1.89l1.9-.23,9.09-1.08,.98-.12s-1.2-19.14-4.8-33.06c-.51-1.99-1.08-3.87-1.69-5.57-.73-2.03-1.54-3.95-2.37-5.78-.4-.88-.8-1.73-1.21-2.56-.26-.51-.51-1.02-.77-1.52-1.88-3.6-3.76-6.61-5.28-8.84-1.91-2.81-3.25-4.41-3.25-4.41,0,0,23.2,.89,42.67,.89Z"/><path class="e" d="M312.03,128.86s.04,.07,.06,.1c.07-.02,.14-.03,.2-.04-.09-.03-.17-.05-.26-.06Z"/><path class="aa" d="M313.35,136.06c-.05-.44-.08-.89-.12-1.33-.41,.26-.63,.53-.64,.54-.09,.11-.22,.17-.35,.16-.08,0-.15-.03-.21-.08-.18-.13-.22-.39-.08-.57,.02-.02,.38-.49,1.07-.87-.84-.84-1.7-1.25-1.71-1.26-.2-.09-.29-.34-.2-.54,.09-.2,.34-.29,.54-.2,.06,.03,.72,.34,1.47,.98-.05-1.13-.06-2.24-.04-3.31,0-.09,0-.17,0-.26-.24-.17-.5-.32-.78-.42-.07,.01-.14,.02-.2,.04-.41,.13-.84,.41-1.25,.94-1.75,2.23-.68,8.41,2.42,9.75-.09-1.72,.09-3.59,.09-3.59Z"/><path class="t" d="M311.1,132.12c-.09,.2,0,.44,.2,.54,.02,0,.87,.42,1.71,1.26,.05-.03,.1-.06,.15-.08-.02-.31-.04-.62-.05-.93-.76-.64-1.42-.95-1.47-.98-.2-.09-.44,0-.54,.2Z"/><path class="t" d="M311.94,134.78c-.13,.18-.1,.43,.08,.57,.06,.05,.14,.07,.21,.08,.13,0,.27-.05,.35-.16,0,0,.23-.28,.64-.54-.02-.21-.03-.43-.05-.64,0-.09,0-.17-.01-.26-.05,.03-.1,.06-.15,.08-.69,.38-1.05,.84-1.07,.87Z"/><path class="q" d="M332.86,154.61l.13-1.74,.05-.63c-.17,.07-.34,.13-.5,.2-.84,.66-1.82,1.15-2.98,1.43-.05,.02-.09,.05-.14,.07-1.52,.76-2.76,1.25-4.34,.91-.57-.12-1.26-.47-2-.93-.85-.13-1.72-.28-2.65-.48l-.24,3.34s1.4,2.98,4.85,2.92c3.46-.05,7.67-2.92,7.67-2.92l.16-2.17h0Z"/><path class="aa" d="M329.56,153.88c1.16-.28,2.14-.77,2.98-1.43-1.16,.49-2.12,1-2.98,1.43Z"/><path class="aa" d="M323.07,153.93c-.3-.18-.61-.38-.92-.59-.53-.36-1.08-.74-1.64-1.13l-.07,.98-.02,.25c.93,.21,1.81,.36,2.65,.48Z"/><path class="q" d="M324.09,130.38l-6.15-.45c-.56-.04-1.06,.38-1.1,.95l-.05,.67c-.08,1.15,.29,2.25,1.04,3.12,.74,.85,1.77,1.37,2.89,1.45h.15c.95,.06,1.85-.27,2.68-.96,.83-.7,1.35-1.75,1.43-2.89l.06-.79c.04-.57-.39-1.06-.95-1.1Zm-2.45,2.03c-.07,.91-.59,1.61-1.17,1.57-.58-.04-.99-.81-.93-1.72,.07-.91,.59-1.61,1.17-1.57,.58,.04,.99,.81,.93,1.72Z"/><path class="q" d="M338.07,132.15c0,.09,.01,.18,0,.27l-.06,.79c-.1,1.33-.71,2.57-1.69,3.39-.97,.82-2.04,1.2-3.19,1.14h-.16c-1.32-.11-2.52-.71-3.39-1.71-.88-1.01-1.31-2.31-1.22-3.65l.05-.67s0-.03,0-.05c0-.02,0-.04,.01-.06-.36-.12-.89-.26-1.45-.3-.51-.04-.94,.01-1.24,.07,0,.04,0,.07,0,.11,0,.01,0,.02,0,.03l-.06,.79c-.1,1.33-.71,2.57-1.69,3.39-.97,.82-2.04,1.2-3.19,1.14h-.16c-1.32-.11-2.52-.71-3.39-1.71-.88-1.01-1.31-2.31-1.22-3.65l.05-.67c.01-.16,.04-.32,.1-.46h0c-.33-.17-.92-.43-1.6-.64,0,.06,0,.11,0,.17-.07,1.96,.32,4.75,.46,5.65,.03,.18,.05,.29,.05,.29,0,0,.03,.38,.12,.99,.1,.66,.27,1.6,.53,2.63,.45,1.77,1.18,3.81,2.36,5.23,.82,.99,2.33,2.31,4.01,3.3,1.66,.97,3.49,1.62,5.03,1.33,.99-.18,2.2-.58,3.45-1.13,2.69-1.18,5.56-3.1,6.71-5.23,1.69-3.12,1.58-5.61,1.58-5.61,0,0-.06-2.89,.28-4.7,.06-.33,.16-.68,.28-1.05-.3,.08-.54,.17-.72,.24-.17,.06-.56,.26-.66,.31Zm-11.66-.04c.03-.22,.24-.37,.46-.34,.22,.03,.37,.24,.34,.46,0,.05-.74,4.76-.69,6.18,0,.25,.1,.34,.17,.39,.36,.26,1.26,.09,1.63-.04,.21-.07,.44,.05,.51,.26,.07,.21-.05,.44-.26,.51-.11,.04-.8,.25-1.49,.2-.31-.02-.62-.1-.86-.27-.23-.16-.5-.47-.52-1.03-.05-1.5,.67-6.13,.7-6.33Zm1.64,16.09s-.97,.49-2.01,.41c-.72-.05-1.35-.38-1.66-.57-.11-.07-.19-.12-.2-.13-.18-.13-.22-.38-.09-.57,.13-.18,.39-.22,.57-.09,0,0,.69,.49,1.44,.54,.82,.06,1.58-.32,1.59-.32,.2-.1,.44-.02,.55,.18,.09,.17,.04,.36-.1,.48-.03,.02-.05,.05-.08,.06Zm-1.81-1.7c-3.7-.27-4.58-3.41-4.79-5.1l10.25,.74c-.5,1.9-1.74,4.62-5.45,4.36Z"/><path class="q" d="M329.1,132.44c-.08,1.15,.29,2.25,1.04,3.12,.74,.85,1.77,1.37,2.89,1.45h.15c.95,.06,1.85-.27,2.68-.96,.83-.7,1.35-1.75,1.43-2.89l.06-.79c.04-.57-.38-1.06-.95-1.1l-6.15-.45c-.56-.04-1.06,.38-1.1,.95l-.05,.67Zm2.69,.71c.07-.91,.59-1.61,1.17-1.57,.58,.04,.99,.81,.93,1.72-.07,.91-.59,1.61-1.17,1.57-.58-.04-.99-.81-.93-1.72Z"/><path class="q" d="M340,126.99c-2.81-2.93-1.3-3.05-2.22-5.64-.76-2.13-6.28-3.63-9.61-2.34-3.49,1.36-6.86,.38-8.35,.62-1.49,.23-3.63,2.11-3.23,4.04,.41,1.93-1.3,2.96-1.83,4.88-.04,.13-.06,.27-.09,.43,.71,.2,1.32,.46,1.71,.65,.08,.04,.15,.07,.21,.1h0s.07-.06,.11-.09c.34-.3,.79-.48,1.28-.44l6.15,.45c.35,.03,.66,.15,.92,.35,.23,.17,.41,.41,.53,.68,.35-.07,.85-.13,1.46-.08,.65,.05,1.24,.21,1.65,.34,.19-.31,.47-.54,.81-.68,.25-.1,.52-.17,.8-.15l6.15,.45c.34,.02,.64,.15,.89,.33,.11,.08,.22,.17,.31,.27,.08,.1,.15,.2,.21,.31,.15-.08,.4-.21,.51-.26,.11-.04,.25-.1,.42-.15,.25-.08,.56-.17,.93-.24,.52-1.47,1.05-3.01,.28-3.81Zm-22.24,1.89c-.17-.73-.15-1.46,.19-2.18,0,0,4.48-1.41,7.73,.29l-.47,1.84s-4.89-.77-7.45,.05Zm12.39,.29l-.2-1.88c3.44-1.2,7.64,.83,7.64,.83,.23,.75,.14,1.47-.13,2.17-2.39-1.18-7.31-1.12-7.31-1.12Z"/><path class="e" d="M320.7,130.69c-.58-.04-1.1,.66-1.17,1.57-.07,.91,.35,1.68,.93,1.72,.58,.04,1.1-.66,1.17-1.57,.07-.91-.35-1.68-.93-1.72Z"/><path class="e" d="M332.73,134.87c.58,.04,1.1-.66,1.17-1.57,.07-.91-.35-1.68-.93-1.72-.58-.04-1.1,.66-1.17,1.57-.07,.91,.35,1.68,.93,1.72Z"/><path class="e" d="M337.6,128.12s-4.2-2.02-7.64-.83l.2,1.88s4.92-.06,7.31,1.12c.27-.7,.36-1.42,.13-2.17Z"/><path class="e" d="M325.69,126.99c-3.25-1.69-7.73-.29-7.73-.29-.34,.72-.36,1.45-.19,2.18,2.55-.83,7.45-.05,7.45-.05l.47-1.84Z"/><path class="aa" d="M326.23,139.47c.25,.17,.55,.25,.86,.27,.68,.05,1.38-.17,1.49-.2,.21-.07,.33-.3,.26-.51-.07-.21-.3-.33-.51-.26-.38,.12-1.27,.29-1.63,.04-.07-.05-.16-.14-.17-.39-.04-1.42,.69-6.13,.69-6.18,.03-.22-.12-.43-.34-.46-.22-.04-.43,.12-.46,.34-.03,.2-.75,4.83-.7,6.33,.02,.56,.29,.87,.52,1.03Z"/><path class="d" d="M326.24,146.5c3.71,.27,4.96-2.45,5.45-4.36l-10.25-.74c.21,1.69,1.09,4.83,4.79,5.1Z"/><path class="aa" d="M328.23,147.66c-.1-.2-.35-.28-.55-.18,0,0-.77,.38-1.59,.32-.75-.05-1.43-.54-1.44-.54-.18-.13-.44-.09-.57,.09-.13,.18-.09,.44,.09,.57,0,0,.08,.06,.2,.13,.31,.19,.94,.51,1.66,.57,1.05,.08,1.97-.39,2.01-.41,.03-.02,.06-.04,.08-.06,.13-.12,.18-.31,.1-.48Z"/><path class="e" d="M314.67,128.99c.02-.15,.05-.3,.09-.43,.53-1.93,2.24-2.96,1.83-4.88-.4-1.93,1.74-3.81,3.23-4.04,1.49-.23,4.86,.74,8.35-.62,3.33-1.3,8.85,.2,9.61,2.34,.92,2.58-.59,2.71,2.22,5.64,.77,.81,.24,2.34-.28,3.81,.91-.18,2.16-.28,3.65,.01,.42,.08,.85,.19,1.3,.34v.04c.11,.01,.22,.04,.34,.07,2.66-1.49,3.88-5.72,2.23-7.2-2.94-2.65-.47-6.61-3.1-8.23-2.63-1.61,.68-4.22-2.1-6.53-2.78-2.3-4.68-1.9-7.28-1.07-2.6,.83-3.86-3.14-8.64-3.55-4.78-.41-6.62,2.83-7.76,4.51-1.14,1.68-3.69,1.83-5.37,3.26-1.68,1.44,.81,4.77-.63,5.89-1.44,1.12-1.02,2.91-.31,4.32,.71,1.41-.47,1.8-.34,4.63,.03,.67,.14,1.15,.29,1.49,.36-.07,.72-.09,1.09-.07,.55,.03,1.09,.13,1.58,.27Z"/><path class="q" d="M344.66,131.21s-.09,0-.14-.01c-.14,0-.29-.01-.43,0-.07,0-.13,.02-.2,.03-.11,.02-.21,.04-.32,.07-.09,.03-.18,.05-.28,.08-.03,.01-.07,.02-.1,.03-.24,.09-.47,.2-.68,.32-.68,.4-1.24,.96-1.64,1.63,0,.11-.04,2.01-.13,4.2-.05,1.4-.12,2.9-.21,4.12,0,.1-.01,.21-.02,.31,.04-.09,.08-.19,.12-.28,4.27,1.28,7.28-6.52,5.62-9.41-.33-.58-.76-.9-1.23-1.04-.11-.04-.23-.06-.35-.07h0Zm.45,3.15c.21-.06,.44,.06,.5,.27,.06,.21-.06,.44-.27,.5-.02,0-.92,.29-1.88,1,.63,.47,.92,.99,.93,1.01,.11,.2,.03,.44-.16,.55-.07,.04-.15,.05-.22,.05-.13,0-.26-.08-.33-.21,0,0-.29-.46-.87-.85-.29,.29-.57,.62-.81,1,0,.01-.02,.03-.03,.04-.16,.27-.31,.56-.42,.88-.06,.18-.23,.28-.41,.27-.04,0-.07-.01-.11-.02-.21-.08-.32-.31-.24-.52,.09-.25,.2-.48,.32-.71,.36-.69,.83-1.25,1.32-1.7,1.23-1.12,2.59-1.54,2.67-1.57Z"/><path class="aa" d="M341.12,137.61c-.12,.22-.23,.46-.32,.71-.08,.21,.03,.44,.24,.52,.04,.01,.07,.02,.11,.02,.18,.01,.35-.09,.41-.27,.12-.32,.26-.61,.42-.88,0-.01,.02-.03,.03-.04,.24-.38,.52-.72,.81-1,.58,.39,.86,.85,.87,.85,.07,.13,.19,.2,.33,.21,.08,0,.15,0,.22-.05,.2-.11,.27-.35,.16-.55-.01-.03-.31-.54-.93-1.01,.95-.71,1.86-.99,1.88-1,.21-.06,.34-.29,.27-.5-.06-.21-.29-.34-.5-.27-.09,.03-1.44,.45-2.67,1.57-.49,.45-.96,1.01-1.32,1.7Z"/><path class="j" d="M344.08,131.2c-.07,0-.13,.02-.2,.03"/><path class="j" d="M343.56,131.3c.11-.03,.21-.05,.32-.07"/><path class="j" d="M344.52,131.2c-.14,0-.29-.01-.43,0"/><path class="d" d="M313.08,129.34c.06,.04,.11,.08,.16,.12,.24,.02,.47,.06,.7,.1,.13,.03,.26,.06,.38,.09,.1,.02,.19,.05,.28,.08,.69,.21,1.27,.47,1.6,.64h0c-.06,.15-.09,.3-.1,.46l-.05,.67c-.1,1.34,.34,2.64,1.22,3.65,.87,1,2.07,1.6,3.39,1.69h.16c1.14,.07,2.21-.31,3.19-1.13,.98-.82,1.59-2.06,1.69-3.39l.06-.79s0-.02,0-.03c0-.04,0-.07,0-.11,.3-.06,.72-.1,1.24-.07,.56,.04,1.09,.18,1.45,.3,0,.02-.01,.04-.01,.06,0,.01,0,.03,0,.05l-.05,.67c-.1,1.34,.33,2.64,1.22,3.65,.87,1,2.07,1.6,3.39,1.69h.16c1.14,.07,2.21-.31,3.19-1.13,.98-.82,1.59-2.06,1.69-3.39l.06-.79c0-.09,0-.18,0-.27,.1-.05,.49-.24,.66-.31,.18-.07,.42-.15,.72-.24,.37-.1,.83-.2,1.38-.24,.61-.05,1.33-.03,2.15,.12,.07-.02,.13-.04,.2-.07,.03-.01,.07-.02,.1-.03,.09-.03,.19-.06,.28-.08,.11-.03,.21-.05,.32-.07,.07-.01,.14-.02,.2-.03,.15-.01,.29-.01,.43,0,.05,0,.09,0,.14,.01h0v-.05c-.44-.15-.87-.25-1.29-.34-1.48-.29-2.73-.2-3.65-.01-.36,.07-.68,.16-.93,.24-.17,.05-.31,.11-.42,.15-.12,.05-.36,.17-.51,.26-.06-.11-.13-.21-.21-.31-.09-.1-.19-.19-.31-.27-.25-.18-.56-.31-.89-.33l-6.15-.45c-.29-.02-.55,.04-.8,.15-.33,.14-.62,.38-.81,.68-.4-.13-1-.29-1.65-.34-.6-.04-1.1,.01-1.46,.08-.12-.27-.3-.5-.53-.68-.26-.2-.57-.32-.92-.35l-6.15-.45c-.49-.04-.94,.14-1.28,.44-.04,.03-.08,.06-.11,.09h0c-.06-.03-.13-.06-.21-.1-.4-.19-1.01-.46-1.71-.65-.49-.14-1.03-.24-1.58-.27-.36-.02-.73,0-1.09,.07-.02,0-.05,0-.07,.01v.03s.07,.02,.1,.02c.09,.02,.18,.04,.26,.06,.28,.09,.54,.24,.78,.42Zm17.17,1.49l6.15,.45c.57,.04,.99,.53,.95,1.1l-.06,.79c-.08,1.14-.6,2.19-1.43,2.89-.83,.69-1.73,1.02-2.68,.97h-.15c-1.12-.09-2.15-.6-2.89-1.46-.75-.86-1.12-1.97-1.04-3.12l.05-.67c.04-.57,.53-.99,1.1-.95Zm-5.27,1.44c-.08,1.14-.61,2.19-1.43,2.89-.83,.69-1.73,1.02-2.68,.97h-.15c-1.12-.09-2.15-.6-2.89-1.46-.75-.86-1.12-1.97-1.04-3.12l.05-.67c.04-.57,.53-.99,1.1-.95l6.15,.45c.56,.04,.99,.53,.95,1.1l-.06,.79Z"/><path class="e" d="M323.07,153.93c.74,.45,1.43,.81,2,.93,1.59,.34,2.82-.15,4.34-.91,.05-.02,.09-.05,.14-.07,.86-.43,1.81-.94,2.98-1.43,.16-.07,.33-.14,.5-.2h0v-.14c.67-.26,1.5-.57,2.47-.93h0c3.19-1.95,4.47-5.76,4.8-7.44,.07-.37,.14-.99,.2-1.74,0-.1,.01-.21,.02-.31,.09-1.22,.16-2.72,.21-4.12,.08-2.19,.12-4.09,.13-4.2,.4-.67,.96-1.24,1.64-1.63,.22-.13,.44-.23,.68-.32-.07,.02-.13,.04-.2,.07-.82-.15-1.54-.16-2.15-.12-.55,.04-1.01,.14-1.38,.24-.12,.37-.22,.73-.28,1.05-.33,1.81-.28,4.7-.28,4.7,0,0,.11,2.49-1.58,5.61-1.15,2.13-4.02,4.04-6.71,5.23-1.25,.55-2.46,.94-3.45,1.13-1.54,.29-3.37-.36-5.03-1.33-1.69-.99-3.19-2.31-4.01-3.3-1.18-1.42-1.91-3.46-2.36-5.23-.26-1.03-.43-1.97-.53-2.63-.09-.61-.12-.99-.12-.99,0,0-.02-.11-.05-.29-.13-.9-.52-3.69-.46-5.65,0-.06,0-.11,0-.17-.09-.03-.18-.05-.28-.08-.13-.03-.25-.06-.38-.09-.23-.05-.46-.09-.7-.1-.05-.04-.11-.08-.16-.12,0,.09,0,.17,0,.26-.02,1.07,0,2.17,.04,3.31,.01,.31,.03,.62,.05,.93,0,.09,0,.17,.01,.26,.01,.21,.03,.42,.05,.64,.03,.44,.07,.89,.12,1.33,0,0-.19,1.87-.09,3.59,.04,.67,.12,1.33,.27,1.84,.54,1.81,1.52,7.32,4.68,9.2,.77,.46,1.55,.99,2.31,1.52,.56,.39,1.11,.77,1.64,1.13,.32,.21,.62,.41,.92,.59Z"/><polygon class="q" points="255.09 206.16 254.11 202.68 254.11 202.68 255.09 206.16 256.62 211.62 256.62 211.62 255.09 206.16"/><path class="q" d="M262.1,203.18l-.02-.07s-2.21-.28-5.17-.38l.95,3.39,1.55,5.51h3.26c-.46-1.75-.96-3.92-1.13-5.62-.15-1.5-.05-2.63,.56-2.82Z"/><path class="w" d="M289.79,227.54h8.03l-.14,.13h20.52c.84,0,1.58-.39,2.08-.99,.38-.47,.62-1.06,.62-1.71v-3.55c0-1.49-1.21-2.7-2.7-2.7h-59.59l-32.55,.19-.05-.19h-56.57c1.52,2.81,3.11,5.82,4.7,8.93l115.64-.11Z"/><path class="v" d="M288.37,233.41c3.48-1.13,6.68-3.08,9.32-5.74l.14-.14h-8.03l-115.64,.12v.02c1.17,2.26,2.32,4.57,3.43,6.87h103.7c2.43,0,4.82-.39,7.09-1.13Z"/><path class="w" d="M234.95,340.97c-.32-.48-.59-1-.8-1.58-.33-.88-.52-1.87-.52-2.99v-98.76l-9.42,1.72v97.03c0,1.13-.2,2.13-.53,3.01-2.06,5.46-9.43,6.43-9.43,6.43h-.08c-4.82,0-8.72,3.9-8.72,8.72h46.95c0-4.82-3.9-8.72-8.72-8.72h-.08s-.79-.1-1.92-.43c-1.48-.43-3.54-1.25-5.21-2.72-.56-.5-1.08-1.07-1.51-1.72Z"/><polygon class="v" points="224.2 234.54 224.2 239.37 233.62 237.65 233.62 234.54 224.2 234.54"/><path class="e" d="M258.62,218.72l-.52-1.84-1.48-5.26-1.53-5.46-.98-3.47-2.04-7.26-5.66-20.16c-.45-1.58-1.89-2.68-3.54-2.68h-24.39c-2.41,0-4.17,2.29-3.55,4.62l11.09,41.52,.05,.19,32.55-.19Zm-24.58-26.17c2.53,0,5.03,1.9,5.9,4.35,.07,.2,.15,.4,.2,.61,.18,.8,.15,1.54-.03,2.21-.44,1.62-1.84,2.75-3.78,2.75-2.74,0-5.47-2.22-6.11-4.96-.63-2.74,1.07-4.96,3.81-4.96Z"/><path class="a`" d="M255.09,206.16l1.53,5.46h0l1.48,5.26,.52,1.84h19.73c1.18,0,2.14-.96,2.14-2.14v-2.81c0-1.18-.96-2.14-2.14-2.14h-18.93l-1.55-5.51-.95-3.39-2.14-7.61-5.57-19.84c-.45-1.59-1.89-2.68-3.54-2.68h-2.79c1.65,0,3.09,1.1,3.54,2.68l5.66,20.16,2.04,7.26,.98,3.47Z"/><path class="y" d="M236.33,202.47c1.94,0,3.34-1.12,3.78-2.75,.18-.67,.22-1.41,.03-2.21-.05-.21-.13-.41-.2-.61-.87-2.45-3.37-4.35-5.9-4.35-2.74,0-4.44,2.22-3.81,4.96,.63,2.74,3.37,4.96,6.11,4.96Z"/><polygon class="h" points="189.85 210.69 190.08 213.31 190.46 217.67 190.55 218.69 202.99 218.69 203.38 214.21 203.69 210.61 204.04 206.56 204.06 206.39 189.48 206.39 189.85 210.69"/><polygon class="h" points="188.86 199.31 188.89 199.61 204.65 199.61 204.72 198.88 205.05 195.06 205.25 192.79 188.29 192.79 188.63 196.71 188.86 199.31"/><polygon class="m" points="189.24 203.7 189.47 206.32 189.48 206.39 204.06 206.39 204.37 202.86 204.65 199.61 188.89 199.61 189.24 203.7"/><polygon class="p" points="206.12 189.48 204.71 189.48 188.83 189.48 187.42 189.48 187.42 192.79 206.12 192.79 206.12 189.48"/><path class="r" d="M204.71,188.15c0-.82-.66-1.48-1.48-1.48h-12.93c-.82,0-1.48,.66-1.48,1.48v1.33h15.88v-1.33Z"/><path class="q" d="M104.92,278.96c.14,1.95-1.25,4.99-.66,7.25,0,0,1.16,.79,1.96,1.78l2.87-.77v-9.57l-4.18,1.31Z"/><path class="o" d="M97.16,308.05c.2-1.35,1.27-3.55,2.64-5.98-.2-.19-.25-.5-.09-.74,.03-.05,.85-1.33-.04-2.92-.77-1.37-2.8-2.42-2.82-2.43-.14-.07-.24-.19-.29-.33-.05-.15-.04-.31,.03-.46,.15-.29,.5-.4,.79-.25,.1,.05,2.36,1.23,3.3,2.9,.16,.29,.28,.57,.37,.84,.2-.44,.53-1.47-.16-2.69-.77-1.37-2.8-2.42-2.82-2.43-.14-.07-.24-.19-.28-.33-.05-.15-.04-.31,.03-.46,.15-.29,.5-.4,.79-.25,.1,.05,2.36,1.23,3.3,2.9,.36,.63,.51,1.23,.55,1.77,.01-.03,.02-.07,.04-.1,.03-.05,.85-1.33-.04-2.92-.77-1.37-2.8-2.42-2.82-2.43-.14-.07-.24-.19-.29-.33-.05-.15-.04-.31,.03-.46,.15-.29,.5-.4,.79-.25,.1,.05,2.36,1.23,3.3,2.9,.29,.52,.44,1.01,.51,1.46,1.65-2.67,2.95-4.82,2.97-5.41,.02-.55-.31-1.14-.75-1.67-.8-.99-1.96-1.78-1.96-1.78-.59-2.26,.79-5.3,.66-7.25-.06-.84-.4-1.48-1.3-1.76-2.43-.76-9.21-.04-11.71,.26-.59,.07-.94,.12-.94,.12,0,0-.74,32.61,.86,33.31,.02,.01,.05,.02,.08,.03,1.62,.68,4.64,1.27,5.25-2.87Z"/><path class="d" d="M100.19,290.71c-.29-.15-.64-.03-.79,.25-.08,.15-.08,.31-.03,.46,.05,.14,.15,.26,.29,.33,.02,.01,2.05,1.06,2.82,2.43,.89,1.59,.07,2.87,.04,2.92-.02,.03-.03,.06-.04,.1-.04-.54-.19-1.14-.55-1.77-.94-1.68-3.21-2.85-3.3-2.9-.29-.15-.64-.03-.79,.25-.08,.15-.08,.31-.03,.46,.05,.14,.15,.26,.28,.33,.02,.01,2.05,1.07,2.82,2.43,.68,1.22,.36,2.26,.16,2.69-.09-.27-.21-.55-.37-.84-.94-1.68-3.21-2.85-3.3-2.9-.29-.15-.64-.03-.79,.25-.08,.15-.08,.31-.03,.46,.05,.14,.15,.26,.29,.33,.02,.01,2.05,1.06,2.82,2.43,.89,1.59,.07,2.87,.04,2.92-.16,.24-.11,.55,.09,.74,.02,.02,.04,.05,.07,.07,.27,.18,.63,.11,.81-.16,.04-.05,.62-.93,.57-2.2,.24,.08,.51,0,.66-.22,.03-.05,.52-.79,.57-1.88,.04,.09,.1,.16,.19,.22,.27,.18,.63,.11,.81-.16,.04-.06,.76-1.16,.53-2.68-.07-.46-.22-.95-.51-1.46-.94-1.68-3.21-2.85-3.3-2.9Z"/><path class="v" d="M136.58,261.07v4.01c11.47-6.65,19.17-14.33,22.08-17.48,.4-.43,.44-1.07,.11-1.56l-12.47-18.39-2.93-4.32-3.21-4.74-3.69,.97,18.16,26.82c-1.71,3.69-9.43,9.29-18.05,14.67Z"/><path class="v" d="M143.38,221.48l4.2,6.19,12.07,17.8c.6,.89,.52,2.07-.21,2.86-2.98,3.23-10.97,11.18-22.85,17.97v13.21c22.93-8.21,51.21-20.87,46.72-32.15-1.6-4.03-3.59-8.42-5.73-12.82-1.11-2.3-2.26-4.61-3.42-6.87v-.02c-1.6-3.11-3.19-6.12-4.71-8.93-1.33-2.46-2.6-4.76-3.74-6.81l-24.47,6.42,2.14,3.15Z"/><path class="v" d="M113.08,276.4c-.03-.63-.06-1.26-.1-1.9-2.41,1.27-3.89,2.02-3.89,2.02v11.77s1.63-.45,4.38-1.26c0-.32-.01-.65-.02-.99-.06-2.78-.2-6.05-.38-9.64Z"/><path class="q" d="M117.2,341.43c.73,.07,1.62,.26,2.64-.09h.02c.2-.05,3.54-.84,4.96-.93l.46-5.47-7.34,.52-1.02,.07-.58,.04-.1,5.9v.02s.04-.01,.05-.02c.27-.07,.57-.07,.9-.03Z"/><path class="o" d="M124.83,340.4c-1.43,.1-4.76,.88-4.96,.93h-.02c-1.02,.36-1.91,.17-2.64,.1-.34-.03-.64-.04-.9,.03-.02,0-.04,.01-.05,.02-.45,.15-.8,.57-1.03,1.59-.65,2.94,.4,12.4,.4,12.4,0,0,14.03,2.65,22.34,1.82,2.87-.29,3.64-3.47,.53-5.75-.58-.42-1.74-1.44-3.14-2.68-.22,.18-.53,.18-.74-.01-.04-.04-1.17-1.01-2.84-.37-1.44,.55-2.75,2.37-2.76,2.39-.09,.13-.22,.2-.36,.23-.15,.03-.31,0-.44-.1-.26-.18-.32-.54-.13-.8,.06-.09,1.52-2.12,3.28-2.8,.3-.12,.6-.19,.87-.24-.39-.26-1.35-.72-2.64-.23-1.43,.55-2.75,2.37-2.76,2.39-.09,.12-.22,.2-.36,.23-.15,.03-.31,0-.44-.1-.26-.18-.32-.54-.13-.8,.06-.09,1.52-2.12,3.28-2.8,.67-.26,1.28-.31,1.81-.27-.04-.02-.07-.03-.1-.06-.04-.04-1.17-1.01-2.84-.37-1.44,.55-2.75,2.37-2.76,2.39-.09,.13-.22,.2-.36,.23-.15,.03-.31,0-.44-.1-.26-.18-.32-.54-.13-.8,.06-.09,1.52-2.12,3.28-2.8,.77-.3,1.46-.33,2.04-.25-1.3-1.13-2.47-2.11-3.31-2.74-.58-.43-1.01-.71-1.2-.71-.1,0-.22,0-.35,0Z"/><path class="o" d="M131.87,345.76c-.08-.07-.16-.14-.23-.21-.05,.04-.11,.08-.17,.1,.15,.03,.27,.07,.4,.11Z"/><path class="o" d="M133.44,347.17l-.08-.08s-.03,.04-.04,.06c.04,0,.08,0,.12,.01Z"/><path class="d" d="M127.65,344.1c-1.76,.67-3.22,2.71-3.28,2.8-.18,.26-.12,.62,.13,.8,.13,.09,.29,.12,.44,.1,.14-.03,.27-.11,.36-.23,.01-.02,1.32-1.84,2.76-2.39,1.67-.64,2.79,.33,2.84,.37,.03,.03,.07,.04,.1,.06-.53-.04-1.14,.01-1.81,.27-1.76,.67-3.22,2.71-3.28,2.8-.18,.26-.12,.62,.13,.8,.13,.09,.29,.12,.44,.1,.14-.03,.27-.11,.36-.23,.01-.02,1.33-1.84,2.76-2.39,1.29-.49,2.24-.03,2.64,.23-.28,.05-.57,.12-.87,.24-1.76,.68-3.22,2.71-3.28,2.8-.18,.26-.12,.62,.13,.8,.13,.09,.29,.12,.44,.1,.14-.03,.27-.11,.36-.23,.01-.02,1.32-1.84,2.76-2.39,1.67-.64,2.79,.33,2.84,.37,.21,.19,.53,.19,.74,.01,.02-.02,.05-.03,.07-.05,.21-.23,.2-.6-.04-.81-.04-.04-.78-.67-1.94-.84-.04,0-.08,0-.12-.01,.01-.02,.03-.04,.04-.06,.08-.21,.03-.46-.15-.62-.04-.03-.53-.46-1.34-.71-.13-.04-.26-.08-.4-.11,.06-.02,.12-.05,.17-.1,.02-.02,.05-.03,.07-.05,.21-.23,.2-.6-.04-.81-.05-.04-.79-.69-1.98-.85-.58-.08-1.27-.05-2.04,.25Z"/><path class="v" d="M113.08,276.4c.18,3.59,.31,6.85,.38,9.64,0,.34,.01,.66,.02,.99,.01,.74,.02,1.46,.03,2.12,.08,21.67,.98,46.55,.98,46.55l1.86-.13,.58-.04,1.02-.07,7.34-.52,2.92-.21s4.42-30.57,5.97-54.37c.22-3.45,.39-6.76,.47-9.81,.03-1.05,.05-2.12,.07-3.21,0-.4,.01-.81,.02-1.21,.02-1.3,.04-2.62,.05-3.96,.17-15.78-.19-34.46-.47-45.78,0-.15,0-.3-.01-.45-.07,.02-.17,.05-.24,.07-3.74,1.07-12.18,2.47-19.37,3.42,.78,9.13,2.39,29.59,3.39,52.34,.2,4.51,.37,9.1,.51,13.72,.49,16.37,.52,32.97-.4,46.66-.08,1.12-.16,2.22-.24,3.3l-1.02,.07c.09-1.08,.17-2.19,.25-3.32,.93-13.6,.9-30.11,.42-46.41-.13-4.54-.3-9.05-.49-13.49-.99-22.88-2.62-43.53-3.41-52.74-1.69,.22-3.29,.41-4.73,.56,1.34,15.63,3.14,37.98,4.02,54.38,.03,.64,.07,1.28,.1,1.9Z"/><path class="f" d="M131.71,212.53c-10.38,.38-19.46-.47-23.49-.94,.22,2.5,.47,5.37,.74,8.53,1.43-.15,3.04-.34,4.73-.56,.78,9.21,2.41,29.86,3.41,52.74,.19,4.44,.36,8.95,.49,13.49,.48,16.3,.51,32.81-.42,46.41-.08,1.12-.16,2.23-.25,3.32l1.02-.07c.09-1.08,.17-2.18,.24-3.3,.92-13.69,.89-30.29,.4-46.66-.14-4.61-.31-9.21-.51-13.72-1-22.75-2.61-43.21-3.39-52.34,7.19-.95,15.63-2.35,19.37-3.42,.08-.02,.17-.05,.24-.07,0,.14,0,.3,.01,.45l2.16,3.19,3.69-.97,3.21,4.74,2.93,4.32,12.47,18.39c.33,.49,.28,1.13-.11,1.56-2.9,3.14-10.61,10.83-22.08,17.48v-4.01c-.59,.37-1.2,.73-1.79,1.09-.01,1.34-.03,2.66-.05,3.96,0,.41-.01,.81-.02,1.21-.02,1.09-.05,2.17-.07,3.21-.08,3.05-.25,6.36-.47,9.81,.8-.28,1.6-.56,2.41-.85v-13.21c11.88-6.79,19.87-14.75,22.85-17.97,.73-.79,.82-1.96,.21-2.86l-12.07-17.8-4.2-6.19-2.14-3.15,24.47-6.42c-1.23-2.21-2.32-4.12-3.19-5.63-8.39,3.96-18.74,5.61-28.3,6.14-.84,.05-1.68,.09-2.5,.12Z"/><path class="q" d="M218.46,104.89s4.64-2.39,8.62-5.51c-.09-.02-.18-.03-.26-.05,.36-.14,.74-.37,1.14-.74,.08-.07,.15-.14,.23-.22,.1-.1,.18-.22,.26-.34,.37-.51,.59-1.09,.66-1.59,.01-.1,.04-.2,.04-.29,0-.39,.02-1.07-.15-1.42-.18-.37-.63-.04-.06-1.44,0,0,.13-1.17-.4-1.65-.2-.18-.5-.27-.93-.15,0,0,.88-2.49-.29-2.71,0,0,.26-.65,.25-1.32-.01-.54-.2-1.09-.88-1.32-1.85-.62-3.34,.96-4.21,2.25-.53,.78-.82,1.46-.82,1.46,0,0-.63,1.84-.65,3.06-.05-.36-.08-.72-.07-1.09,.01-1.01,.23-1.97,.6-2.85l-1.23,1.43s-1.02-.66-.35-3.21c.67-2.54-.2-4.47-1.77-1.68-1.77,3.15-2.34,6.45-3.65,8.6-.92,1.53-.57,3.59-.28,4.66l-1.93,2.05,4.45,5.55,1.71-1.49Zm5.69-9.76c-.28,.51-.76,1.46-.9,2.25-.3-.29-.58-.61-.83-.94,.77,.04,1.42-.8,1.73-1.3Zm.34,3.22c.92-.54,1.92-1.89,1.92-1.89,0,0-.84,1.43-1.12,2.33-.28-.13-.54-.28-.8-.44Zm-1.56-5.51c-.41,.76-.97,1.91-1.09,2.71-.31-.57-.55-1.18-.7-1.82,.48,.89,1.29-.09,1.79-.89Z"/><path class="i" d="M228.19,98.37c-.08,.08-.16,.15-.23,.22-.4,.37-.78,.6-1.14,.74,.09,.02,.17,.04,.26,.05,.44,.08,.89,.14,1.35,.14l.02-1.49c-.08,.11-.16,.23-.26,.34Z"/><path class="i" d="M220.99,92.91c.02-1.22,.65-3.06,.65-3.06,0,0,.3-.67,.82-1.46,.87-1.29,2.36-2.88,4.21-2.25,.68,.23,.87,.78,.88,1.32,.33-.07,.67-.12,1.03-.11l.04-3.03h0c-3.18-.04-5.94,1.89-7.1,4.66-.37,.88-.59,1.84-.6,2.85,0,.37,.03,.73,.07,1.09Z"/><path class="i" d="M222.94,92.84c-.5,.8-1.31,1.79-1.79,.89,.16,.64,.39,1.25,.7,1.82,.11-.8,.67-1.95,1.09-2.71Z"/><path class="i" d="M224.5,98.36c.26,.16,.52,.31,.8,.44,.28-.9,1.12-2.33,1.12-2.33,0,0-1,1.34-1.92,1.89Z"/><path class="i" d="M222.42,96.44c.25,.34,.52,.65,.83,.94,.15-.78,.63-1.74,.9-2.25-.31,.51-.96,1.35-1.73,1.3Z"/><path class="i" d="M228.53,91.63c.53,.48,.4,1.65,.4,1.65-.57,1.4-.12,1.07,.06,1.44,.17,.36,.16,1.03,.15,1.42,0,.09-.02,.19-.04,.29-.07,.51-.29,1.08-.66,1.59l-.02,1.49-.03,2.16,16.87,.22,.28-21.98-16.87-.22-.06,4.6-.04,3.03-.05,4.29Z"/><path class="n" d="M190.36,138.76c4.33-.72,26.8-31.86,26.8-31.86l-.42-.52-4.45-5.55-.81-1.01s-6.94,6.71-14.09,13.74c-5.27,5.17-9.04,9.36-10.39,10.9-.36,.41-.55,.63-.55,.63-.15-.11-.3-.21-.45-.32-10.65-7.69-32.46-22.44-32.47-22.45,0,0,.72,11.6,1.56,23.6,6.64,4.48,23.49,14.8,35.27,12.83Z"/><path class="n" d="M135.55,109.88c.2,.01,.4,.02,.6,.02,.24,0,.44-.2,.44-.45,0-.24-.2-.44-.45-.44-6.08,.06-11.72-7.29-11.77-7.36-.15-.2-.43-.23-.62-.09-.2,.15-.23,.43-.09,.62,.23,.31,5.62,7.32,11.89,7.7Z"/><path class="n" d="M119.66,192.25s.03,0,.05,0c16.93-.92,25.25-28.26,25.59-29.43,.07-.23-.06-.48-.3-.55-.23-.07-.48,.06-.55,.3-.08,.28-8.48,27.91-24.79,28.8-.24,.01-.43,.22-.42,.47,.01,.23,.19,.41,.42,.42Z"/><path class="n" d="M126.43,183.32c-.22,.12-.3,.38-.18,.6,.08,.14,.22,.22,.36,.23,.08,0,.16-.01,.24-.05,9.31-4.99,11.08-12.88,11.15-13.22,.05-.24-.1-.47-.34-.52-.24-.05-.47,.1-.53,.34-.02,.08-1.77,7.83-10.7,12.62Z"/><path class="e" d="M113.26,68.58s.04,.02,.05,.02c-.02-.12-.04-.24-.05-.36-.18,.02-.36,.05-.53,.09-.21,.05-.41-.08-.46-.29-.05-.2,.08-.41,.29-.46,.2-.05,.4-.08,.6-.1-.05-.36-.09-.71-.14-1.07,.04,.35,.09,.71,.14,1.07,1.27-.14,2.62,.15,3.71,.52-.49-1.46-.98-2.98-.21-3.77,2.03-2.05,1.86-2.73,1.93-3.86,.03-.47,.09-1.02,.38-1.77,.8-2.13,6.36-3.57,9.69-2.22,2.35,.95,4.65,.84,6.36,.74,.83-.05,1.53-.09,2.02,0,1.5,.25,3.62,2.17,3.19,4.1-.43,1.93,1.27,2.99,1.78,4.93,.02,.06,.03,.14,.04,.21,.47-.25,1.01-.47,1.62-.61h0c.05-.01,.11-.02,.17-.03,.05-.7,.07-1.41,.02-2.13-.18-3.03-1.16-5.81-2.72-8.18,3.91-3.48,3.07-8.01-5.61-10.86-9.22-3.03-15.16,.29-18.15,.99-2.99,.7-5.96,3.67-6.33,7.6-.25,2.62,.29,5.52,.68,7.16-.37,1.63-.52,3.36-.41,5.14,.06,1.02,.21,2,.42,2.96,.48-.09,.99-.02,1.49,.15Zm4.71-13.43c-1.52,.69-2.78,1.77-3.68,3.09,.9-1.32,2.16-2.4,3.68-3.09,1.68-.76,3.67-1.49,5.85-1.99-2.18,.5-4.17,1.23-5.85,2Zm20.54-.55c-.44-.21-.87-.4-1.31-.58,.43,.18,.87,.37,1.3,.58h0Zm.11,.06c.67,.34,1.29,.75,1.84,1.23-.55-.48-1.17-.89-1.84-1.23Zm4.88,7.29c.01,.15,.02,.32,.03,.47-.01-.16-.02-.32-.03-.47-.04-.52-.14-1.02-.27-1.51,.13,.49,.23,1,.27,1.52Z"/><path class="aa" d="M143.7,66.75c0,.13,0,.26,0,.4,0,.06,0,.12,0,.18,0,.5,0,1.01-.02,1.52,0,.11,0,.21,0,.32,0,.08-.01,.17-.01,.25-.01,.37-.03,.74-.05,1.11,.76-.62,1.42-.93,1.48-.95,.21-.09,.45,0,.54,.21,.09,.21,0,.45-.2,.54-.02,0-.88,.41-1.74,1.24,.69,.39,1.05,.86,1.06,.89,.13,.18,.09,.44-.09,.57-.07,.05-.14,.07-.22,.08-.13,0-.27-.05-.35-.17,0,0-.22-.28-.62-.54-.04,.44-.07,.88-.13,1.33-.16,1.28-.37,2.56-.66,3.81,3.64-.62,5.1-7.53,3.24-9.96-.72-.94-1.47-1.14-2.15-1.01-.03,0-.05,.01-.08,.02,0,.06,0,.12,0,.18Z"/><path class="t" d="M144.09,72.93c.09,.12,.22,.17,.35,.17,.08,0,.15-.03,.22-.08,.18-.13,.22-.39,.09-.57-.02-.02-.38-.5-1.06-.89,.86-.83,1.72-1.23,1.74-1.24,.21-.09,.3-.33,.2-.54-.09-.21-.33-.3-.54-.21-.06,.03-.72,.33-1.48,.95,0,.17-.02,.34-.03,.51h0c0,.15-.01,.3-.03,.45,0,.08-.02,.16-.02,.23-.02,.22-.04,.44-.06,.66,.4,.27,.62,.54,.62,.54Z"/><path class="q" d="M128.82,97.55c5.79,.11,7.33-3.74,7.33-3.74l-.16-2.72c-6.04,1.26-10.2,.86-12.67-1.58l-.04-.69c2.9,1.65,6.68,2.06,11.6-.03,.33-.14,.65-.3,.95-.46,3.75-2.06,5.79-6.21,6.85-10.8,.29-1.25,.5-2.53,.66-3.81,.05-.44,.09-.89,.13-1.33,.02-.22,.05-.44,.06-.66,0-.08,.02-.16,.02-.23,.01-.15,.02-.3,.03-.45l-.56,.03-.45,.03-.65,.04c.14-1.16,.27-2.53,.24-3.65,0-.1,0-.2,0-.29-.56,.33-.97,.68-1.19,.89,.15,.3,.26,.62,.34,.96,.07,.28,.12,.56,.14,.86,.04,.7-.07,1.38-.3,2-.65,1.75-2.28,3.05-4.26,3.18-2.69,.17-5.01-1.88-5.17-4.57-.03-.42,.02-.82,.09-1.22-.25-.28-1.01-1.06-1.98-1-.97,.06-1.7,.92-1.93,1.24,.12,.38,.22,.78,.25,1.2,.17,2.69-1.88,5.01-4.57,5.17-2.69,.17-5.01-1.88-5.17-4.57-.04-.62,.05-1.21,.23-1.77-.27-.14-.78-.39-1.45-.64,.11,.36,.21,.7,.26,1.02,.14,.84,.18,1.25,.2,2.16v.46l-2.07,.12c-.06-.42-.13-.84-.23-1.25-.3-1.24-.73-2.36-2.02-2.83-.02-.12-.03-.24-.05-.36h0c.02,.12,.04,.24,.05,.36-.02,0-.03-.02-.05-.02-.5-.17-1.01-.24-1.49-.15-.55,.1-1.05,.42-1.44,1.08-1.79,3.02,.91,11.9,5.57,9.62,.04,.11,.08,.22,.13,.33,1.42,3.41,3.67,7.33,7.26,9.36l.32,5.46s1.74,3.2,5.22,3.27Zm-.96-21.49c.07-.21,.3-.33,.52-.25,.38,.13,1.27,.31,1.64,.06,.07-.05,.17-.14,.18-.39,.06-1.43-.61-6.17-.61-6.22-.03-.22,.12-.43,.35-.46,.22-.03,.43,.12,.46,.35,.03,.2,.69,4.87,.62,6.37-.02,.57-.3,.87-.53,1.03-.25,.17-.56,.24-.87,.26-.69,.04-1.38-.19-1.49-.22-.21-.07-.33-.3-.25-.52Zm4.1,4.55l3.26-.19c-.23,1.69-1.16,4.84-4.88,5.06-3.65,.22-4.89-2.4-5.39-4.31-.01-.05-.03-.09-.04-.14l7.05-.42Zm-17.1-4.1c-.18-.02-.32-.16-.35-.35-.11-.84-.44-1.56-.83-2.16-.65,.26-1.03,.65-1.03,.65-.09,.11-.23,.16-.37,.14-.07-.01-.15-.04-.21-.09-.17-.15-.19-.4-.04-.58,.02-.02,.41-.46,1.13-.8-.79-.9-1.62-1.37-1.64-1.37-.2-.11-.27-.36-.16-.55,.11-.2,.36-.27,.55-.16,.04,.02,.46,.26,.99,.7,.37,.31,.8,.72,1.19,1.24,.51,.67,.95,1.51,1.16,2.53,.02,.12,.05,.23,.07,.35,.03,.22-.13,.43-.35,.46-.01,0-.02,0-.03,0-.03,0-.05,0-.08,0Z"/><path class="aa" d="M123.28,88.82l.04,.69c2.47,2.44,6.63,2.84,12.67,1.58l-.16-2.76c-.31,.17-.62,.32-.95,.46-4.92,2.09-8.69,1.68-11.6,.03Z"/><path class="q" d="M143.52,62.41c-.01-.15-.02-.32-.03-.47-.04-.52-.14-1.02-.27-1.52,.13,.49,.23,1,.27,1.51,.01,.15,.02,.31,.03,.47Z"/><path class="q" d="M113.02,66.43c.04,.35,.09,.71,.14,1.07h0c-.05-.36-.1-.72-.14-1.07Z"/><path class="q" d="M120.13,67.32c-.2,.08-.4,.16-.61,.24-.27-.71-.59-1.04-.35-1.8,0,0,4.28-1.99,7.74-.73l-.19,1.58s-.66-.11-1.69-.11c1.07,.42,1.97,1.21,2.52,2.23,.43-.48,1.2-1.14,2.22-1.2,1-.06,1.8,.48,2.27,.91,.42-1.07,1.2-1.96,2.21-2.51-1.44,.11-2.42,.39-2.42,.39l-.37-1.55c3.29-1.66,7.78-.18,7.78-.18,.28,.62,.12,.97-.05,1.52,.54,.34,1,.79,1.37,1.32,.31-.28,.82-.69,1.5-1.05-.01-.07-.02-.15-.04-.21-.51-1.94-2.21-3-1.78-4.93,.43-1.94-1.69-3.85-3.19-4.1-.49-.08-1.19-.04-2.02,0-1.72,.1-4.01,.21-6.36-.74-3.33-1.35-8.9,.09-9.69,2.22-.28,.76-.35,1.3-.38,1.77-.07,1.13,.1,1.81-1.93,3.86-.78,.79-.29,2.3,.21,3.77,.92,.31,1.66,.66,2.05,.86,.3-.59,.71-1.12,1.21-1.55Z"/><path class="q" d="M123.01,66.93c-2.27,.14-4,2.1-3.85,4.37,.14,2.27,2.1,4,4.37,3.85,2.27-.14,4-2.1,3.85-4.37-.14-2.27-2.1-4-4.37-3.85Zm.87,5.33c-.58,.03-1.1-.68-1.15-1.59-.05-.91,.37-1.68,.96-1.72,.58-.03,1.1,.68,1.15,1.59,.05,.91-.37,1.68-.96,1.72Z"/><path class="q" d="M136.32,66.1c-2.27,.14-4,2.1-3.85,4.37,.14,2.27,2.1,4,4.37,3.85s4-2.1,3.85-4.37c-.14-2.27-2.1-4-4.37-3.85Zm-.11,5.44c-.58,.03-1.1-.68-1.15-1.59-.05-.91,.37-1.68,.96-1.72,.58-.03,1.1,.68,1.15,1.59,.05,.91-.37,1.68-.96,1.72Z"/><path class="q" d="M138.61,54.66c.67,.34,1.29,.75,1.84,1.23-.55-.48-1.17-.89-1.84-1.23Z"/><path class="q" d="M114.28,58.23c.9-1.32,2.16-2.4,3.68-3.09,1.68-.76,3.67-1.49,5.85-2-2.18,.5-4.17,1.23-5.85,1.99-1.52,.69-2.78,1.77-3.68,3.09Z"/><path class="q" d="M138.5,54.6h0c-.43-.21-.87-.4-1.3-.58,.43,.18,.87,.37,1.31,.58Z"/><path class="q" d="M143.68,68.85c0,.19-.01,.38-.02,.57,0-.08,.01-.17,.01-.25,0-.11,0-.21,0-.32Z"/><path class="q" d="M143.7,66.75c0,.14,0,.27,0,.41,0,.06,0,.11,0,.17,0-.06,0-.12,0-.18,0-.14,0-.26,0-.4Z"/><path class="e" d="M136.02,68.22c-.58,.03-1.01,.8-.96,1.72,.05,.91,.57,1.63,1.15,1.59,.58-.03,1.01-.8,.96-1.72-.05-.91-.57-1.63-1.15-1.59Z"/><path class="e" d="M123.68,68.95c-.58,.03-1.01,.8-.96,1.72,.05,.91,.57,1.63,1.15,1.59,.58-.03,1.01-.8,.96-1.72-.05-.91-.57-1.63-1.15-1.59Z"/><path class="e" d="M139.24,64.59s-4.49-1.47-7.78,.18l.37,1.55s.97-.28,2.42-.39c.61-.33,1.29-.55,2.02-.6,1.07-.07,2.07,.23,2.91,.76,.17-.54,.33-.9,.05-1.52Z"/><path class="e" d="M126.92,65.04c-3.46-1.26-7.74,.73-7.74,.73-.24,.76,.08,1.09,.35,1.8,.2-.09,.4-.17,.61-.24,.77-.65,1.74-1.09,2.83-1.16,.73-.05,1.44,.09,2.08,.34,1.02,0,1.69,.11,1.69,.11l.19-1.58Z"/><path class="aa" d="M128.12,76.58c.11,.04,.81,.26,1.49,.22,.31-.02,.62-.09,.87-.26,.23-.16,.51-.46,.53-1.03,.07-1.51-.59-6.17-.62-6.37-.03-.22-.24-.38-.46-.35-.22,.03-.38,.24-.35,.46,0,.05,.68,4.79,.61,6.22-.01,.25-.11,.34-.18,.39-.37,.25-1.27,.07-1.64-.06-.21-.07-.45,.04-.52,.25-.07,.21,.04,.44,.25,.52Z"/><path class="d" d="M130.34,85.48c3.73-.22,4.65-3.37,4.88-5.06l-3.26,.19-7.05,.42s.03,.09,.04,.14c.5,1.91,1.74,4.53,5.39,4.31Z"/><path class="e" d="M143.69,66.55c-.59,.15-1.11,.39-1.54,.65,0,.09,0,.2,0,.29,.02,1.11-.1,2.49-.24,3.65l.65-.04,.45-.03,.56-.03h0c.01-.17,.02-.34,.03-.51,.02-.37,.04-.74,.05-1.11,0-.19,.01-.38,.02-.57,.01-.51,.02-1.02,.02-1.52,0-.06,0-.11,0-.17,0-.14,0-.27,0-.41,0-.06,0-.12,0-.18,.03,0,.05-.01,.08-.02v-.03s-.05,.02-.08,.02h0Z"/><path class="e" d="M113.26,68.25c.02,.12,.03,.24,.05,.36,1.29,.47,1.73,1.59,2.02,2.83,.1,.41,.17,.83,.23,1.25l2.08-.12v-.46c-.04-.91-.07-1.32-.21-2.16-.05-.32-.15-.66-.26-1.02-1.09-.42-2.57-.83-3.91-.68Z"/><path class="aa" d="M115.33,76.05c-.02-.12-.04-.23-.07-.35-.2-1.02-.65-1.86-1.16-2.53-.39-.52-.82-.93-1.19-1.24-.53-.44-.94-.67-.99-.7-.2-.11-.44-.03-.55,.16-.11,.2-.04,.45,.16,.55,.01,0,.85,.48,1.64,1.37-.72,.33-1.11,.78-1.13,.8-.15,.17-.13,.43,.04,.58,.06,.05,.13,.08,.21,.09,.13,.02,.27-.03,.37-.14,0,0,.38-.39,1.03-.65,.39,.59,.72,1.31,.83,2.16,.03,.19,.17,.32,.35,.35,.03,0,.05,0,.08,0,.01,0,.02,0,.03,0,.22-.03,.38-.24,.35-.46Z"/><path class="d" d="M143.68,65.76c-.61,.14-1.15,.36-1.62,.61-.68,.36-1.19,.77-1.5,1.05-.37-.53-.83-.97-1.37-1.32-.84-.54-1.84-.83-2.91-.76-.74,.05-1.41,.26-2.02,.6-1.01,.55-1.79,1.44-2.21,2.51-.47-.43-1.27-.97-2.27-.91-1.01,.06-1.78,.72-2.22,1.2-.55-1.02-1.44-1.81-2.52-2.23-.64-.25-1.34-.39-2.08-.34-1.09,.07-2.06,.5-2.83,1.16-.5,.43-.91,.95-1.21,1.55-.38-.2-1.12-.55-2.05-.86-1.1-.37-2.44-.66-3.71-.52h0c-.2,.02-.4,.05-.6,.1-.2,.05-.33,.25-.29,.46,.05,.2,.25,.33,.46,.29,.17-.04,.35-.07,.53-.09h0c1.34-.14,2.82,.27,3.91,.68,.67,.25,1.18,.51,1.45,.64-.18,.56-.27,1.15-.23,1.77,.17,2.69,2.49,4.73,5.17,4.57,2.69-.17,4.73-2.49,4.57-5.17-.03-.42-.12-.82-.25-1.2,.24-.32,.96-1.18,1.93-1.24,.97-.06,1.74,.71,1.98,1-.08,.4-.12,.8-.09,1.22,.17,2.69,2.49,4.73,5.17,4.57,1.98-.12,3.61-1.43,4.26-3.18,.23-.62,.35-1.29,.3-2-.02-.3-.07-.58-.14-.86-.08-.34-.19-.66-.34-.96,.22-.2,.62-.55,1.19-.89,.43-.25,.95-.49,1.54-.65h0s.05-.02,.08-.02c.62-.15,1.31-.21,2.06-.08,.21,.04,.4-.1,.44-.31,.04-.21-.1-.4-.31-.44-.77-.13-1.47-.09-2.11,.03-.06,.01-.11,.02-.17,.03h0Zm-20.15,9.39c-2.27,.14-4.23-1.59-4.37-3.85-.14-2.27,1.59-4.23,3.85-4.37,2.27-.14,4.23,1.59,4.37,3.85,.14,2.27-1.59,4.23-3.85,4.37Zm13.31-.83c-2.27,.14-4.23-1.59-4.37-3.85-.14-2.27,1.59-4.23,3.85-4.37,2.27-.14,4.23,1.59,4.37,3.85,.14,2.27-1.59,4.23-3.85,4.37Z"/><path class="q" d="M98.34,174.94c1.62,.81,2.83-.74,2.83-.74,.55,.14,.99,.07,1.35-.08,.71-.29,1.06-.91,1.06-.91,2.57,.62,3.06-1.09,3.06-1.09,0,0,1.09,.31,2.02-1.22,.93-1.52-.32-3.07-1.51-4.89-1.19-1.82-4.79-5.11-3.63-5.52,1.16-.41,2.47-1.14,3.43-1.79,.85-.57,2.53-2.04,1.8-2.64-.73-.6-3.79,.61-5.31,.88-.23,.04-.57,.17-.95,.33-.53,.22-1.12,.49-1.54,.65-1.66,.61-3.35,.46-4.65-.75l-.62-.58-3.74,2.05-3.31,1.82c1.01,3.4,2.16,6.02,3.31,8,2.65,4.56,5.32,5.92,6.42,6.47Z"/><path class="x" d="M67.73,134.83c1.35,1.82,2.89,3.86,4.52,5.99,4.52,5.91,9.65,12.44,12.77,16.39,1.76,2.23,2.88,3.64,2.88,3.64l.71-.39,3.31-1.82,3.74-2.05,.2-.11s-1.68-3.37-3.94-7.93c-3.88-7.81-9.49-19.14-11.39-23.14-2.52-2.04-7.15-2.81-7.2-2.82-.18-.03-.32-.15-.39-.31-.04-.09-.06-.19-.05-.29,.05-.29,.31-.48,.6-.43,.12,.02,1.39,.23,2.98,.73,1.62,.51,3.57,1.31,4.94,2.5,3.6-.58,7.09-1.28,10.51-2.08,3.39-.79,6.7-1.69,9.96-2.69,.22,10.88,.49,25.45,.59,37.27,.38-.16,.73-.29,.95-.33,1.52-.27,4.58-1.48,5.31-.88,.73,.6-.95,2.07-1.8,2.64-.96,.65-2.27,1.38-3.43,1.79-1.16,.41,2.44,3.7,3.63,5.52,1.19,1.82,2.44,3.37,1.51,4.89-.93,1.52-2.02,1.22-2.02,1.22,0,0-.48,1.71-3.06,1.09,0,0-.34,.62-1.06,.91,.31,18.02,3.49,37.18,3.49,37.18,0,0,.81,.12,2.22,.28,4.03,.47,13.1,1.32,23.49,.94,.83-.03,1.66-.07,2.5-.12,9.56-.53,19.91-2.18,28.3-6.14,.48-.23,.97-.45,1.44-.7,0,0-5.64-39.03-7.65-63.43-.39-4.69-.81-10.5-1.21-16.22-.84-12-1.56-23.6-1.56-23.6h0l-17.37-8.51s-1.54,3.85-7.33,3.74c-3.47-.07-5.22-3.27-5.22-3.27l-22.08,9.95c-11.16,3.33-29.39,8.73-33.58,9.77-3.85,.95-6.32,4.1-6.27,8.28,.03,2.49,.95,5.35,3,8.32,.79,1.15,1.84,2.6,3.05,4.23Zm69.94,35.52c.24,.05,.39,.29,.34,.52-.07,.33-1.84,8.22-11.15,13.22-.08,.04-.16,.06-.24,.05-.15,0-.29-.09-.36-.23-.12-.22-.03-.48,.18-.6,8.93-4.79,10.69-12.54,10.7-12.62,.05-.24,.28-.39,.53-.34Zm-13.92-68.8c.19-.15,.47-.11,.62,.09,.06,.07,5.69,7.42,11.77,7.36,.24,0,.44,.19,.45,.44,0,.24-.19,.44-.44,.45-.2,0-.4,0-.6-.02-6.27-.38-11.65-7.39-11.89-7.7-.15-.2-.11-.47,.09-.62Zm-4.09,89.8c16.31-.89,24.71-28.52,24.79-28.8,.07-.23,.32-.37,.55-.3,.23,.07,.37,.32,.3,.55-.35,1.16-8.67,28.51-25.59,29.43-.02,0-.03,0-.05,0-.22-.01-.4-.19-.42-.42-.01-.24,.17-.45,.42-.47Z"/><path class="n" d="M81.41,124.78c-1.37-1.19-3.32-1.99-4.94-2.5-1.58-.49-2.86-.71-2.98-.73-.29-.05-.55,.15-.6,.43-.02,.1,0,.2,.05,.29,.07,.16,.2,.28,.39,.31,.05,0,4.68,.78,7.2,2.82-.08-.17-.15-.32-.22-.46,.37-.06,.73-.12,1.1-.17Z"/><path class="g" d="M335.5,151.17h0c-.96,.36-1.8,.67-2.46,.93v.14h-.01l-.05,.63-.13,1.74h0c.07,.03,.16,.06,.24,.1l.1,.04c.16,.06,.33,.13,.51,.21l.12,.05c.12,.05,.25,.1,.37,.16,.33,.14,.69,.29,1.07,.46h0c.32,.14,.67,.3,1.02,.46,.12,.06,.23,.1,.36,.16,.04,.02,.08,.04,.12,.05,.47,.22,.96,.45,1.47,.7,.19,.09,.38,.19,.57,.29,.38,.19,.76,.38,1.15,.59,.21,.11,.43,.23,.65,.35,.4,.22,.81,.44,1.21,.68,.18,.11,.37,.21,.55,.32,.59,.35,1.17,.7,1.75,1.07h0c7.6-1.7,17.15-4.38,22.28-6.07,1.91-.63,5.08-3.14,6.09-4.87,1.16-1.99,2.89-4.88,4.74-8.31l-2.33-39.44c-.02,.23-1,14.64-11.05,39.12h0c-.09,.23-.19,.46-.28,.68,0,0-.18,.08-.51,.23h0c-.21,.1-19.02,6.4-27.56,9.54h0Z"/><path class="q" d="M398.09,256.14c1.21,8.52,2.44,17.22,3.43,25.92,0,0-.1,11.46,.5,21.48,.71,11.7,3.87,32.94,4.62,37.88,.78,0,1.79,.29,2.96-.14,0,0,2.94-.78,4.53-1,.23-7.24,1.6-51.16,1.48-56.23-.12-4.77-.34-17.54-.53-29.81-.04-2.4-.08-4.77-.12-7.07-5.49,1.08-11.6,1.62-17.91,1.56,.34,2.46,.69,4.93,1.04,7.42Z"/><path class="x" d="M406.64,341.41c-.74,0-1.27,.27-1.55,1.68-.04,.22-.07,.5-.1,.79-.27,3.51,.81,11.4,.81,11.4,0,0,13.94,3.46,22.1,2.43,2.82-.36,2.82-7.59-1.81-8.5-.44-.09-1.05-.43-1.74-.91,0,0-.02,0-.03-.02l-.04-.03s-.05-.04-.1-.07c-.34-.23-1.33-.75-2.67-.2-1.4,.58-2.64,2.4-2.65,2.42-.08,.13-.21,.21-.35,.24-.15,.03-.3,0-.44-.08-.26-.17-.33-.53-.15-.78,.06-.09,1.45-2.13,3.16-2.84,.3-.12,.58-.2,.85-.26-.39-.24-1.35-.67-2.6-.16-1.4,.58-2.64,2.4-2.66,2.42-.08,.13-.21,.21-.35,.24-.15,.03-.3,0-.44-.08-.26-.17-.33-.53-.15-.78,.06-.09,1.45-2.13,3.16-2.84,.63-.26,1.2-.34,1.71-.32-.04-.04-.09-.08-.13-.12-.03-.02-.06-.04-.11-.07-.38-.23-1.29-.64-2.48-.19-.04,.01-.08,.02-.12,.04-1.4,.58-2.64,2.4-2.65,2.42-.08,.13-.21,.21-.35,.24-.15,.03-.3,0-.44-.08-.26-.17-.33-.53-.15-.78,.04-.06,.77-1.11,1.8-1.97,.41-.34,.87-.66,1.36-.86,.52-.21,.99-.3,1.43-.32-1.88-1.76-3.48-3.25-3.96-3.26-.17,0-.42,.02-.7,.06-1.59,.22-4.53,1-4.53,1-1.17,.44-2.18,.14-2.96,.14Z"/><path class="d" d="M415.99,344.64c-1.03,.86-1.75,1.91-1.8,1.97-.17,.26-.11,.61,.15,.78,.13,.09,.29,.11,.44,.08,.14-.03,.26-.11,.35-.24,.01-.02,1.25-1.84,2.65-2.42,.04-.02,.08-.02,.12-.04,1.19-.44,2.1-.04,2.48,.19,.04,.03,.08,.05,.11,.07,.05,.04,.09,.06,.09,.07,.03,.03,.07,.04,.1,.06-.02,0-.04,0-.07,0-.51-.02-1.08,.06-1.71,.32-1.72,.71-3.1,2.75-3.16,2.84-.17,.26-.11,.61,.15,.78,.13,.09,.29,.11,.44,.08,.14-.03,.26-.11,.35-.24,.01-.02,1.26-1.85,2.66-2.42,1.25-.52,2.21-.09,2.6,.16-.27,.05-.56,.13-.85,.26-1.71,.71-3.1,2.75-3.16,2.84-.17,.26-.11,.61,.15,.78,.13,.09,.29,.11,.44,.08,.14-.03,.26-.11,.35-.24,.01-.02,1.25-1.84,2.65-2.42,1.34-.55,2.33-.03,2.67,.2,.04,.03,.08,.05,.1,.07l.04,.03s.02,.01,.03,.02c.24,.18,.57,.15,.77-.07,.2-.24,.18-.59-.06-.8-.05-.04-.83-.68-2.05-.79,.11-.22,.07-.5-.13-.67-.04-.04-.7-.59-1.74-.76,.09-.03,.17-.08,.23-.15h0c.2-.24,.18-.59-.06-.8-.05-.05-1.04-.87-2.54-.8-.44,.02-.92,.1-1.43,.32-.49,.2-.95,.52-1.36,.86Z"/><path class="q" d="M364.38,267.46c-.93,7.46-1.73,13.96-2.1,17.1-.44,3.78-2.74,29.32-4.15,45.04-.49,5.41-.86,9.65-1.02,11.45,.38,.03,.76,.22,1.12,.49,1.04,.78,1.9,2.19,1.9,2.19,.35,.11,.72,.17,1.11,.19,1.9,.12,4.14-.63,5.65-.46,.06-.4,.15-.92,.25-1.57,1.01-6.29,3.78-23.45,5.69-34,2.36-13.11,3.68-24,3.68-24,2.59-9.59,4.92-19.2,6.98-28.09,.63-2.71,1.25-5.35,1.83-7.91-5.47-.72-10.88-1.92-15.97-3.65-.66-.23-1.32-.46-1.97-.71-.32,2.57-.67,5.35-1.03,8.22-.65,5.2-1.33,10.67-1.96,15.7Z"/><path class="x" d="M361.23,343.92c-.39-.02-.76-.08-1.11-.19,0,0-.86-1.41-1.9-2.19-.36-.27-.74-.46-1.12-.49-.03,0-.05,0-.08,0-.21,0-.63,.15-1.2,.41-.66,.3-1.53,.76-2.53,1.3-.47,.25-.96,.52-1.47,.8,.42,.09,.88,.25,1.35,.55,.18,.12,.36,.25,.53,.4,1.22,1.06,1.99,2.74,2.02,2.83,.12,.28,0,.6-.27,.72-.14,.06-.3,.06-.43,0-.13-.05-.23-.15-.29-.28,0,0-.18-.38-.47-.86-.38-.63-.96-1.44-1.67-1.88-1.44-.91-2.67-.21-2.72-.18-.03,.02-.07,.03-.11,.04,.51,.06,1.06,.22,1.64,.59,1.52,.96,2.51,3.13,2.55,3.22,.12,.28,0,.6-.27,.72-.14,.06-.3,.06-.43,0-.13-.05-.23-.15-.29-.28,0-.02-.9-1.97-2.14-2.75-1.11-.7-2.09-.44-2.51-.28,.25,.09,.51,.22,.77,.38,1.52,.96,2.51,3.13,2.55,3.22,.12,.28,0,.6-.27,.72-.14,.06-.3,.06-.43,0-.13-.05-.23-.15-.29-.28,0-.02-.89-1.96-2.14-2.75-1.44-.91-2.67-.21-2.72-.18-.23,.14-.52,.08-.69-.12-2.33,1.16-4.44,2.05-5.7,2.17-3.95,.37-4.15,5.24-2.67,5.91,1.69,.77,30.56,2.56,30.56,2.56,0,0,1.93-10.16,1.2-13.01-.22-.87-.82-1.22-1.62-1.3-1.51-.17-3.75,.58-5.65,.46Z"/><path class="d" d="M345.79,347.25s1.28-.73,2.72,.18c1.24,.78,2.13,2.73,2.14,2.75,.06,.13,.17,.23,.29,.28,.13,.05,.29,.06,.43,0,.27-.12,.4-.45,.27-.72-.04-.09-1.03-2.26-2.55-3.22-.26-.17-.52-.29-.77-.38,.41-.17,1.39-.42,2.51,.28,1.24,.78,2.13,2.73,2.14,2.75,.06,.13,.17,.23,.29,.28,.13,.05,.29,.06,.43,0,.28-.12,.4-.45,.27-.72-.04-.09-1.03-2.26-2.55-3.22-.58-.37-1.14-.53-1.64-.59,.04-.01,.07-.02,.11-.04,.05-.03,1.28-.73,2.72,.18,.71,.44,1.29,1.26,1.67,1.88,.29,.48,.46,.85,.47,.86,.06,.13,.17,.23,.29,.28,.13,.05,.29,.06,.43,0,.28-.12,.4-.45,.27-.72-.04-.08-.81-1.77-2.02-2.83-.17-.15-.34-.28-.53-.4-.47-.3-.92-.46-1.35-.55-1.4-.29-2.46,.32-2.52,.36-.26,.16-.34,.49-.18,.75,.05,.08,.12,.14,.2,.18-1.02,0-1.73,.41-1.78,.44-.22,.13-.3,.38-.23,.62-1.18-.1-2.03,.39-2.08,.42-.26,.16-.34,.49-.18,.75,.02,.03,.04,.04,.06,.07,.17,.2,.46,.26,.69,.12Z"/><path class="e" d="M387.92,97.94l.22-.06,2.36-.61s0-.02,0-.03c0-.23,.2-.42,.43-.41,.16,0,.29,.1,.36,.23l2.47-.64,.41-6.2c-3.44-2.23-5.93-7.16-6.87-12.06-.26-.04-.5-.11-.74-.21-.15,.09-.31,.15-.5,.14-.47-.03-.82-.43-.79-.9,0-.04,.02-.08,.03-.11-2.01-2.05-2.56-6.34-1.15-8.07,.73-.9,1.5-1.05,2.19-.88-.02,1.16,0,2.38,.04,3.63,0,.22,.02,.44,.03,.66,.1,.09,.19,.07,.3-.09,.01-.02,.02-.04,.03-.06,.03-.04,.05-.09,.08-.14,.49-.85,.72-1.97,.96-3.14,.48-2.3,1.06-4.81,3.88-5.87,3.33-1.26,4.68-4.21,4.68-4.21,.66,1.31,2.5,2.6,2.5,2.6,0,0,4.69,3.21,9.63,5.5,3.85,1.78,4.72,3.42,4.72,3.42-1.36,2.26-.94,5.93,.09,6.3,.61,.22,.89-1.82,1.28-4.8,.02-.14,.06-.27,.13-.38h0c.11-.2,.29-.34,.49-.47,.24-.21,.56-.46,.92-.68,.35-.22,.74-.41,1.13-.51,.8-.21,1.63-.06,2.23,.96,1.21,2.08-.27,6.98-2.91,8.16,.02,.08,.04,.16,.03,.24-.03,.47-.44,.82-.9,.79-.44-.03-.76-.39-.78-.82-.24-.04-.49-.12-.74-.22,.02,.33,.02,.66-.08,.95-1.24,3.55-3.44,7.78-7.13,10.13l-.09,1.32-.07,1.04-.26,3.93s1.16,.34,2.75,.81c.06-.21,.28-.34,.5-.29,.23,.06,.36,.29,.3,.51v.02c.86,.26,1.8,.54,2.73,.82h0c.34,.1,.69,.21,1.04,.32,2.35,.73,5,1.64,7.39,2.64,.38,.16,.75,.32,1.11,.48,.43-.24,2.15-1.2,3.5-1.96,2.7-16.54-2.81-9.75-3.23-23.52-.15-4.86-.41-11.58-.41-11.58-.74-14.57-15.43-17.23-15.43-17.23-17.68-3.56-23.74,11.13-24.21,19.36-.03,.56-.04,1.13-.04,1.7v.05c-.23,3.43,1.9,12.13,1.83,18.94-.03,3.21-.27,7.35-.36,11.57l3.47-.97,.43-.12Z"/><path class="g" d="M409.41,163.85c-8.54-.32-15.74-4.45-20.26-7.87-4.93-3.72-7.86-7.41-7.89-7.45-.14-.18-.41-.21-.59-.07-.18,.14-.21,.41-.07,.59,.03,.04,3.02,3.8,8.02,7.58,4.63,3.5,11.99,7.73,20.76,8.06h0c.23,0,.43-.17,.44-.41,0-.23-.17-.43-.41-.44Z"/><path class="g" d="M401.99,166.5c-7.95,.56-16.72-4.83-16.8-4.88-.2-.12-.46-.06-.58,.14s-.06,.46,.14,.58c.34,.21,7.79,4.8,15.4,5.04,.64,.02,1.27,.01,1.91-.03,.23-.02,.41-.22,.39-.45-.02-.23-.22-.41-.45-.39Z"/><path class="g" d="M394.53,119.59c.03,.2,.2,.35,.4,.36,.03,0,.05,0,.08,0,5.06-.79,8.54-2.64,10.87-4.46,2.82-2.21,3.93-4.37,4.01-4.53,.1-.21,.02-.46-.19-.57-.21-.1-.46-.02-.57,.19-.02,.04-1.14,2.24-4.07,4.44-2.23,1.68-5.52,3.36-10.17,4.09-.23,.04-.39,.25-.35,.48Z"/><path class="q" d="M410.09,97.44v.02c-.19,.67-3,10.42-11.25,9.88-.18-.01-.35-.03-.54-.05-7.49-.87-7.8-8.96-7.8-9.94v-.08l-2.36,.61-.22,.06-.43,.12c.7,6.73,2.85,14.72,9.49,15.9,0,0,.02,0,.03,0,1.79,.31,3.45,.01,4.98-.71,5.36-2.53,9.08-10.23,10.83-15h0c-.93-.28-1.87-.56-2.73-.82Z"/><path class="q" d="M391.34,97.27c0,.34-.11,8.35,7.06,9.19,8.12,.95,10.72-8.65,10.87-9.22v-.03c-1.58-.47-2.74-.81-2.74-.81l.26-3.93c-2.52,2.46-6.76,3.11-12.89,1.79l.26-4.01c.64,.42,1.31,.75,2.01,.96,4.53,1.35,8.05,.64,10.77-1.09,3.69-2.35,5.89-6.58,7.13-10.13,.1-.3,.1-.62,.08-.95,.25,.11,.5,.18,.74,.22,0-.03-.01-.05-.01-.08,.03-.47,.44-.82,.9-.79,.38,.03,.68,.31,.76,.66,2.64-1.18,4.12-6.08,2.91-8.16-.6-1.03-1.43-1.17-2.23-.96-.4,.1-.78,.3-1.13,.51-.36,.22-.67,.47-.92,.68-.2,.12-.38,.27-.49,.46h0c-.06,.12-.11,.25-.13,.39-.39,2.98-.67,5.02-1.28,4.8-1.03-.37-1.45-4.04-.09-6.3,0,0-.87-1.64-4.72-3.42-4.94-2.29-9.63-5.5-9.63-5.5,0,0-1.85-1.28-2.5-2.6,0,0-1.36,2.95-4.68,4.21-2.81,1.07-3.39,3.57-3.88,5.87-.25,1.18-.48,2.3-.96,3.14-.03,.05-.05,.1-.08,.14,0,.07,0,.14,0,.21,0,.24,.02,.48,.03,.72,0,.03,0,.07,0,.1,0,.04,0,.09,0,.13,.05,.94,.12,1.9,.23,2.86,.07,.62,.17,1.25,.29,1.87,.94,4.9,3.44,9.83,6.87,12.06l-.41,6.2-2.47,.64s.03,.06,.03,.1c0,.03,.02,.07,.02,.1Zm27.16-24.72c.19-.06,.39,.05,.45,.24,.06,.19-.05,.39-.24,.45-.01,0-.82,.26-1.67,.9,.56,.42,.83,.87,.84,.9,.1,.17,.03,.4-.14,.49-.06,.03-.13,.05-.2,.04-.12,0-.23-.07-.29-.19,0,0-.26-.41-.78-.75-.45,.45-.86,1.01-1.11,1.73-.06,.16-.21,.25-.37,.24-.03,0-.07,0-.1-.02-.19-.07-.29-.27-.22-.46,.94-2.67,3.71-3.54,3.83-3.58Zm-13.61,0c.06-.93,.59-1.65,1.18-1.61,.59,.04,1.02,.82,.96,1.75-.06,.93-.59,1.65-1.18,1.61-.59-.04-1.02-.82-.96-1.75Zm-5.46,13.35c-3.5-.23-4.36-3.01-4.57-4.51l9.67,.63c-.45,1.69-1.6,4.11-5.1,3.88Zm-2.21,1.26c.13-.19,.39-.23,.58-.1,0,0,.41,.28,.94,.44,.17,.05,.35,.09,.54,.1,.3,.02,.59-.02,.84-.08,.45-.1,.77-.26,.77-.26,.2-.1,.45-.02,.56,.18,.02,.04,.02,.07,.03,.11,.04,.18-.04,.36-.21,.45-.04,.02-.98,.5-2.05,.43-1.01-.07-1.86-.67-1.9-.69-.09-.06-.15-.16-.17-.26-.02-.11,0-.22,.07-.32Zm7.36-19.4c1.85,.08,3.57,.5,4.41,.73,.49,.14,.94,.37,1.24,.71,.2,.22,.33,.47,.27,.69-1.5-.58-4.79-.86-6.06-.87-.39,0-.71-.24-.73-.55h0c-.04-.4,.38-.74,.87-.72Zm-7.16,10.35l2.54-5.63c.1-.21,.35-.31,.56-.21,.21,.1,.31,.35,.21,.56l-2.34,5.18,1.43,.34c.23,.05,.37,.28,.31,.51-.05,.2-.24,.34-.44,.32-.02,0-.05,0-.07-.01l-1.91-.45c-.27-.06-.41-.36-.3-.61Zm-7.55-9.78c-.03-.22,.14-.45,.37-.64,.35-.29,.82-.46,1.33-.52,.87-.11,2.63-.27,4.47-.09,.49,.05,.85,.44,.76,.82h0c-.07,.32-.42,.5-.81,.45-1.26-.18-4.55-.37-6.12-.02Zm3.48,3.45c.06-.93,.59-1.65,1.18-1.61,.59,.04,1.02,.82,.96,1.75-.06,.93-.59,1.65-1.18,1.61-.59-.04-1.02-.82-.96-1.75Z"/><path class="d" d="M398.3,107.29c.18,.02,.36,.04,.54,.05,8.25,.54,11.06-9.21,11.24-9.88v-.04c.07-.22-.07-.45-.29-.51-.22-.05-.44,.07-.5,.29v.03c-.16,.57-2.76,10.17-10.88,9.22-7.17-.84-7.07-8.85-7.06-9.19,0-.04-.01-.07-.02-.1,0-.03-.02-.07-.03-.1-.07-.13-.2-.23-.36-.23-.23,0-.42,.18-.43,.41,0,0,0,.02,0,.03v.08c0,.97,.31,9.06,7.8,9.94Z"/><path class="v" d="M373.36,172.81c-3,7.43-6.2,16.86-9.07,26.23-3.96,12.9-7.29,25.67-8.61,32.87,3.2,1.87,7.34,3.91,12.43,5.69,.51,.18,1.03,.36,1.56,.53,4.86,1.58,10.54,2.9,17.03,3.62,1.17,.13,2.35,.25,3.57,.34,2.05,.15,4.01,.25,5.91,.31,7.29,.22,13.52-.18,18.68-.86,3.57-.47,6.65-1.07,9.2-1.7-.49-12.3-.63-40.2-7.58-65.65v-.02c-16.05,3.48-30.27,2.66-43.12-1.36Z"/><path class="f" d="M396.19,242.39c-1.9-.06-3.87-.16-5.91-.31-1.22-.09-2.41-.21-3.57-.34-6.49-.72-12.17-2.04-17.03-3.62-.53-.17-1.04-.35-1.56-.53-5.09-1.78-9.24-3.81-12.43-5.69-.48,2.6-.69,4.47-.58,5.37,3.68,2.53,7.83,4.6,12.26,6.26,.65,.24,1.31,.48,1.97,.71,5.09,1.73,10.5,2.93,15.97,3.65,3.92,.52,7.87,.78,11.75,.82,6.3,.06,12.41-.48,17.91-1.56,3.41-.67,6.58-1.54,9.4-2.6-.13-1.1-.22-2.7-.3-4.71-2.55,.62-5.62,1.22-9.2,1.7-5.16,.68-11.38,1.08-18.68,.86Z"/><path class="aa" d="M386.77,73.45s0-.09,0-.13c-.57,.28-.88,.63-.88,.64-.08,.11-.21,.16-.34,.15-.07,0-.15-.03-.21-.07-.17-.12-.21-.36-.08-.52,.02-.02,.36-.45,1.03-.8-.82-.77-1.66-1.15-1.67-1.15-.2-.09-.28-.31-.2-.5,.09-.19,.32-.27,.52-.18,.06,.02,.7,.31,1.44,.9-.05-1.25-.06-2.47-.04-3.63-.69-.18-1.45-.03-2.19,.88-1.41,1.73-.85,6.03,1.15,8.07,.09-.41,.45-.71,.87-.68,.47,.03,.82,.44,.79,.9-.02,.28-.18,.51-.4,.65,.23,.1,.48,.17,.74,.21-.12-.63-.22-1.25-.29-1.87-.11-.96-.18-1.92-.23-2.86Z"/><path class="d" d="M386.96,77.32c.03-.47-.32-.87-.79-.9-.43-.03-.79,.27-.87,.68,0,.04-.03,.07-.03,.11-.03,.47,.32,.87,.79,.9,.19,.01,.35-.05,.5-.14,.22-.14,.38-.37,.4-.65Z"/><path class="t" d="M384.41,71.06c-.09,.19,0,.41,.2,.5,.01,0,.85,.38,1.67,1.15-.66,.35-1.01,.78-1.03,.8-.13,.17-.09,.4,.08,.52,.06,.04,.14,.07,.21,.07,.13,0,.26-.04,.34-.15,0,0,.31-.36,.88-.64,0-.03,0-.07,0-.1-.01-.24-.02-.48-.03-.72,0-.07,0-.14,0-.21-.01,.02-.02,.04-.03,.06-.1,.16-.2,.18-.3,.09-.01-.22-.02-.44-.03-.66-.74-.58-1.38-.87-1.44-.9-.2-.09-.43,0-.52,.18Z"/><path class="aa" d="M396.18,91.19c-.7-.21-1.37-.54-2.01-.96l-.26,4.01c6.12,1.32,10.36,.67,12.89-1.79l.07-1.04,.09-1.32c-2.72,1.73-6.23,2.44-10.77,1.09Z"/><path class="aa" d="M397.71,78.72l1.91,.45s.05,0,.07,.01c.2,.01,.39-.12,.44-.32,.05-.23-.09-.45-.31-.51l-1.43-.34,2.34-5.18c.1-.21,0-.46-.21-.56-.21-.09-.46,0-.56,.21l-2.54,5.63c-.11,.25,.03,.54,.3,.61Z"/><path class="e" d="M395.47,71.93c.06-.93-.37-1.71-.96-1.75-.59-.04-1.12,.68-1.18,1.61-.06,.93,.37,1.71,.96,1.75,.59,.04,1.12-.68,1.18-1.61Z"/><path class="e" d="M407.02,72.69c.06-.93-.37-1.71-.96-1.75-.59-.04-1.12,.68-1.18,1.61-.06,.93,.37,1.71,.96,1.75,.59,.04,1.12-.68,1.18-1.61Z"/><path class="e" d="M396.79,67.91h0c.09-.39-.27-.79-.76-.83-1.85-.19-3.6-.02-4.47,.09-.51,.07-.98,.23-1.33,.52-.23,.19-.39,.42-.37,.64,1.57-.36,4.86-.16,6.12,.02,.39,.05,.73-.13,.81-.44Z"/><path class="e" d="M404.44,69.03c1.27,0,4.56,.29,6.06,.87,.06-.22-.07-.47-.27-.69-.3-.34-.75-.57-1.24-.71-.84-.24-2.56-.65-4.41-.73-.49-.02-.91,.31-.87,.71h0c.03,.32,.34,.56,.73,.56Z"/><path class="d" d="M399.43,85.9c3.51,.23,4.65-2.19,5.1-3.88l-9.67-.63c.22,1.5,1.07,4.28,4.57,4.51Z"/><path class="aa" d="M399.21,88.43c1.07,.07,2.01-.41,2.05-.43,.17-.09,.24-.27,.21-.45,0-.04-.01-.07-.03-.11-.1-.2-.35-.28-.56-.18,0,0-.33,.16-.77,.26-.25,.06-.54,.1-.84,.08-.19-.01-.37-.05-.54-.1-.53-.16-.93-.44-.94-.44-.19-.13-.44-.09-.58,.1-.07,.1-.09,.21-.07,.32,.02,.1,.07,.2,.17,.26,.04,.03,.89,.63,1.9,.69Z"/><path class="d" d="M415.79,78.36c-.47-.03-.87,.32-.9,.79,0,.03,.01,.06,.01,.08,.02,.43,.34,.79,.78,.82,.47,.03,.87-.32,.9-.79,0-.08-.01-.16-.03-.24-.08-.36-.38-.64-.76-.66Z"/><path class="aa" d="M414.67,76.13c-.07,.19,.03,.4,.22,.46,.03,.01,.06,.02,.1,.02,.16,.01,.31-.08,.37-.24,.25-.71,.66-1.28,1.11-1.73,.52,.34,.78,.75,.78,.75,.06,.11,.17,.18,.29,.19,.07,0,.14,0,.2-.04,.18-.1,.24-.32,.14-.49-.01-.02-.28-.48-.84-.9,.85-.64,1.66-.9,1.67-.9,.19-.06,.3-.26,.24-.45-.06-.19-.26-.3-.45-.24-.12,.04-2.88,.91-3.83,3.58Z"/><path class="q" d="M306.32,164.62c.17,.1,.36,.18,.56,.23,.1,.02,.17,.02,.25,.02,1.56-.04-.78-5.01-.85-5.16h0c.07,.15,2.76,5.73,4.51,5.26,1.78-.48-.68-6.13-.68-6.13,0,0,2.21,3.99,3.77,5.24,.32,.26,.62,.4,.86,.37,.85-.14,.34-2.59-.19-4.51-.35-1.25-.7-2.27-.7-2.27,0,0,.36,.56,.87,1.22,.78,.98,1.92,2.18,2.76,1.96,.91-.23,.23-3.53-.87-5.66h0c1.87-.51,3.12-1.14,3.12-1.14-.27-.22-.53-.38-.78-.51-1.53-.8-2.62-.03-3.13,.49-1.37-1.33-3.27,.74-3.27,.74,0,0-2.82,.26-3.36,1.48,0,0-2.66-.1-3.68,1.04,0,0-2,.84-1.2,3.75,0,0,.02,.15,.07,.38,.17,.77,.68,2.53,1.92,3.22Z"/><path class="h" d="M461.63,43.56s-.47-.51-1-1.32h0c-.48,1.41-7.67,22.52-14.3,35.53-.19,.36-.37,.72-.56,1.07-.35,.66-.69,1.3-1.04,1.91-.15,.26-.3,.52-.45,.78-.21,.35-.41,.69-.63,1.03-6.18,9.97-14.04,15.02-16.08,16.22-.12,.07-.83,.47-1.7,.96-1.35,.76-3.07,1.71-3.5,1.96-.36-.16-.73-.32-1.11-.48-2.39-1-5.05-1.9-7.39-2.64-.35-.11-.7-.22-1.04-.32-1.74,4.77-5.47,12.48-10.83,15-1.53,.72-3.19,1.02-4.98,.71-.01,0-.02,0-.03,0-6.65-1.18-8.79-9.17-9.49-15.9l.43-.12-.43,.12-3.47,.97-.57,.16-.16,.05-7.25,2.03-1.13,.32h0l2.33,39.45,.77,13.02-4.64,18.76c12.85,4.02,27.07,4.84,43.12,1.36v.02c-.11-.69-.23-1.37-.34-2.05-.26-1.6-.51-3.16-.74-4.68-.3-2.02-.56-3.96-.77-5.79-.14-1.23-.25-2.4-.33-3.52-.09-1.18-.13-2.29-.13-3.32,.87-2.54,1.68-5.02,2.45-7.44,.38-1.23,.76-2.43,1.13-3.62,1.16-3.81,2.19-7.43,3.11-10.83,.33-1.23,.65-2.44,.95-3.61,.71-2.76,1.34-5.33,1.89-7.71,1.41-.79,3.2-1.87,4.19-2.74,6.18-5.41,21.59-18.16,27.16-30.08,3.54-7.57,12.21-43.62,12.28-44.15h0c-.28,.71-.49,1.41-.6,2.11,0,0-3.68-1.08-5.1-3.19Zm-56.57,71.45c2.93-2.2,4.05-4.4,4.07-4.44,.1-.21,.36-.3,.57-.19,.21,.1,.3,.36,.19,.57-.08,.16-1.19,2.32-4.01,4.53-2.32,1.82-5.81,3.67-10.87,4.46-.03,0-.05,0-.08,0-.2,0-.37-.15-.4-.36-.04-.23,.12-.45,.35-.48,4.66-.73,7.94-2.41,10.17-4.09Zm-3.01,52.33c-.63,.04-1.27,.05-1.91,.03-7.61-.25-15.06-4.83-15.4-5.04-.2-.12-.26-.38-.14-.58s.38-.26,.58-.14c.09,.05,8.86,5.45,16.8,4.88,.24-.02,.43,.16,.45,.39,.02,.23-.16,.43-.39,.45Zm7.33-2.65h0c-8.77-.32-16.13-4.56-20.76-8.06-5.01-3.78-7.99-7.55-8.02-7.58-.14-.18-.11-.45,.07-.59,.18-.14,.45-.11,.59,.07,.03,.04,2.96,3.73,7.89,7.45,4.53,3.42,11.72,7.56,20.26,7.87,.23,0,.42,.2,.41,.44,0,.23-.2,.41-.44,.41Z"/><path class="q" d="M474.62,32.21s5.81-5.44,5.34-6c-.78-.91-6.98,3.37-6.98,3.37,0,0,7.43-6.43,6.13-7.03-1.3-.6-7.15,4.66-7.15,4.66,2.31-2.3,3.21-3.77,3.51-4.7,.18-.57-.52-1.01-.97-.61-1.62,1.48-5.09,4.69-6.7,6.56-1.83,2.12-4.75,4.43-4.75,4.43-1.28-2.33-.32-7.82-2.02-5.83-2.03,2.38-1.76,7.71-1.88,10.72-.07,1.72,.75,3.37,1.46,4.46,.53,.81,1,1.32,1,1.32,1.41,2.11,5.1,3.19,5.1,3.19,.11-.7,.32-1.41,.6-2.12,2.7-6.73,12.35-13.62,12.59-14.1,.89-1.85-5.29,1.67-5.29,1.67Z"/></g></g></g></svg>