<?xml version="1.0" encoding="UTF-8"?><svg xmlns="http://www.w3.org/2000/svg" viewBox="0 0 9.36 12"><defs><style>.d{fill:none;}.e{fill:#51a4a8;}</style></defs><g id="a"/><g id="b"><g id="c"><g><path class="d" d="M5.16,8.15c.33-.21,.47-.62,.34-.98-.11-.3-.33-.49-.65-.55-.05,0-.1-.01-.15-.01h0s-.01,0-.02,0c0,0-.01,0-.02,0h0s-.1,0-.15,.01c-.32,.06-.54,.25-.65,.55-.14,.36,0,.77,.34,.98,.04,.03,.05,.05,.04,.1-.1,.43-.2,.85-.3,1.28-.01,.05-.03,.11-.02,.17,.02,.09,.09,.14,.2,.14,.18,0,.35,0,.53,0,0,0,.02,0,.03,0,0,0,.02,0,.03,0,.18,0,.35,0,.53,0,.1,0,.18-.05,.2-.14,0-.05,0-.11-.02-.17-.1-.43-.2-.85-.3-1.28-.01-.05,0-.07,.04-.1Z"/><path class="d" d="M7.11,3.64c-.02-.75-.32-1.37-.9-1.85-.29-.24-.63-.4-1-.48-.17-.04-.34-.06-.51-.06-.17,0-.34,.02-.51,.06-.37,.08-.71,.24-1,.48-.58,.48-.88,1.1-.9,1.85,0,.31,0,.61,0,.92,0,.02,0,.04,0,.05,.01,0,.02,0,.04,0,.74,0,1.48,0,2.22,0h.26c.74,0,1.48,0,2.22,0,.04,0,.07,0,.08-.03h0s0-.02,0-.02c0-.31,0-.61,0-.92Z"/><path class="e" d="M9.35,5.54c-.04-.39-.24-.67-.6-.83-.12-.05-.25-.08-.39-.12v-.03c0-.34,0-.67,0-1.01,0-.33-.06-.66-.16-.98-.26-.84-.77-1.49-1.49-1.98-.37-.25-.78-.42-1.22-.51-.26-.06-.52-.09-.79-.09-.26,0-.53,.03-.79,.09-.44,.1-.85,.26-1.22,.51-.73,.49-1.23,1.14-1.49,1.98-.1,.32-.16,.65-.16,.98,0,.34,0,.67,0,1.01v.02h-.04c-.14,.04-.27,.07-.39,.12-.35,.16-.56,.44-.6,.83-.02,.16,0,.32,0,.48v4.98c0,.55,.45,1,1,1,1.15,0,2.9,0,3.66,0h.04c.76,0,2.51,0,3.66,0,.55,0,1-.45,1-1V6.02c0-.16,0-.32,0-.48Zm-4.23,2.71c.1,.43,.2,.85,.3,1.28,.01,.05,.03,.11,.02,.17-.02,.09-.09,.14-.2,.14-.18,0-.35,0-.53,0,0,0-.02,0-.03,0,0,0-.02,0-.03,0-.18,0-.35,0-.53,0-.1,0-.18-.05-.2-.14,0-.05,0-.11,.02-.17,.1-.43,.2-.85,.3-1.28,.01-.05,0-.07-.04-.1-.33-.21-.47-.62-.34-.98,.11-.3,.33-.49,.65-.55,.05,0,.1-.01,.15-.01h0s.01,0,.02,0c0,0,.01,0,.02,0h0s.1,0,.15,.01c.32,.06,.54,.25,.65,.55,.14,.36,0,.77-.34,.98-.04,.03-.05,.05-.04,.1Zm1.99-3.66s-.03,.03-.08,.03c-.74,0-1.48,0-2.22,0h-.26c-.74,0-1.48,0-2.22,0-.02,0-.03,0-.04,0,0-.01,0-.03,0-.05,0-.31,0-.61,0-.92,.02-.75,.32-1.37,.9-1.85,.29-.24,.63-.4,1-.48,.17-.04,.34-.06,.51-.06,.17,0,.34,.02,.51,.06,.37,.08,.71,.24,1,.48,.58,.48,.88,1.1,.9,1.85,0,.31,0,.61,0,.92,0,0,0,.02,0,.02h0Z"/></g></g></g></svg>