<?xml version="1.0" encoding="UTF-8"?><svg xmlns="http://www.w3.org/2000/svg" viewBox="0 0 11.6 12"><defs><style>.d{fill:#51a4a8;}</style></defs><g id="a"/><g id="b"><g id="c"><g><path class="d" d="M4.15,12h-.3c-.08-.03-.16-.05-.24-.08-.94-.31-1.89-.63-2.83-.95C.24,10.8,0,10.47,0,9.91,0,6.97,0,4.03,0,1.09c0-.05,0-.09,0-.14C.02,.43,.47,0,.98,0c.91,0,1.83,0,2.74,0,.94,0,1.87,0,2.81,0,.75,0,1.42,.62,1.45,1.36,.02,.56,0,1.12,0,1.68,0,.15-.07,.26-.18,.35-.16,.12-.34,.15-.52,.07-.19-.08-.29-.24-.29-.44,0-.48,0-.96,0-1.44,0-.37-.2-.57-.56-.57-.7,0-1.39,0-2.09,0-.03,0-.07,0-.11,0,0,.01,.01,.02,.02,.02,.55,.23,.73,.51,.73,1.11,0,2.4,0,4.8,0,7.21v.15h.15c.43,0,.85,0,1.28,0,.39,0,.58-.19,.58-.59,0-.62,0-1.23,0-1.85,0-.07,0-.13,.02-.2,.06-.23,.29-.39,.52-.36,.26,.03,.45,.22,.45,.48,0,.67,0,1.34,0,2,0,.86-.66,1.51-1.52,1.51-.45,0-.9,0-1.35,0h-.13c0,.19,0,.37,0,.54-.01,.31-.14,.57-.4,.75-.13,.09-.3,.14-.45,.21Z"/><path class="d" d="M11.6,5.11c-.09,.12-.17,.26-.28,.37-.61,.62-1.22,1.23-1.84,1.84-.13,.13-.29,.21-.47,.17-.25-.04-.41-.25-.41-.51,0-.45,0-.89,0-1.34,0-.04,0-.08,0-.15-.05,0-.1,0-.14,0-.61,0-1.21,0-1.82,0-.28,0-.48-.16-.53-.4-.06-.32,.17-.6,.5-.6,.61,0,1.23,0,1.84,0,.04,0,.09,0,.14,0,0-.05,0-.09,0-.13,0-.44,0-.88,0-1.32,0-.23,.09-.41,.31-.5,.22-.09,.41-.03,.58,.13,.65,.65,1.3,1.3,1.94,1.95,.07,.07,.12,.18,.17,.27v.21Z"/></g></g></g></svg>