<?xml version="1.0" encoding="UTF-8"?><svg xmlns="http://www.w3.org/2000/svg" viewBox="0 0 11.44 12"><defs><style>.f{fill:#51a4a8;}</style></defs><g id="a"/><g id="b"><g id="c"><g id="d"><g id="e"><path class="f" d="M4.73,0h1.97c.39,.11,.58,.39,.64,.78,.04,.25,.11,.49,.16,.73,.01,.07,.05,.11,.12,.14,.31,.17,.62,.35,.92,.54,.06,.04,.1,.05,.17,.03,.29-.1,.58-.18,.87-.27,.39-.12,.72,0,.93,.36,.27,.47,.54,.93,.81,1.4,.21,.36,.15,.72-.15,1-.22,.21-.45,.41-.67,.62-.04,.03-.06,.1-.06,.15,0,.36,0,.72,0,1.07,0,.05,.02,.12,.06,.15,.22,.21,.45,.41,.67,.62,.3,.28,.36,.64,.15,1-.27,.47-.54,.93-.81,1.4-.2,.35-.54,.48-.93,.36-.29-.09-.58-.18-.87-.27-.07-.02-.11,0-.17,.03-.3,.18-.61,.36-.92,.54-.06,.04-.1,.07-.12,.14-.06,.29-.13,.59-.19,.88-.09,.4-.38,.63-.79,.63h-1.59c-.43,0-.71-.23-.8-.64-.06-.29-.13-.58-.19-.87-.01-.07-.05-.11-.12-.14-.31-.17-.62-.35-.92-.53-.06-.04-.1-.05-.17-.03-.29,.1-.58,.18-.87,.27-.39,.12-.73,0-.93-.36-.27-.47-.54-.93-.81-1.4-.21-.36-.15-.71,.15-1,.22-.21,.45-.41,.67-.62,.04-.03,.06-.1,.06-.15,0-.36,0-.72,0-1.07,0-.05-.02-.12-.06-.15-.22-.21-.45-.41-.67-.62-.3-.28-.36-.64-.15-1,.27-.46,.54-.93,.8-1.39,.21-.36,.54-.49,.94-.37,.29,.09,.58,.18,.87,.27,.05,.01,.12,0,.17-.03,.31-.17,.61-.36,.92-.53,.06-.04,.1-.07,.12-.14,.07-.32,.14-.63,.21-.95,.05-.22,.19-.38,.39-.48,.06-.03,.13-.05,.19-.08h0Zm3.48,6.07c.06-1.35-1.03-2.51-2.42-2.57-1.36-.06-2.52,1.03-2.58,2.42-.06,1.36,1.03,2.51,2.43,2.57,1.35,.06,2.51-1.03,2.57-2.43Z"/></g></g></g></g></svg>