<?xml version="1.0" encoding="UTF-8"?><svg xmlns="http://www.w3.org/2000/svg" viewBox="0 0 12 12"><defs><style>.d{fill:#51a4a8;}</style></defs><g id="a"/><g id="b"><g id="c"><g><path class="d" d="M6,0c3.32,0,6,2.69,6,6.02,0,3.3-2.7,5.99-6,5.98C2.67,11.99,0,9.31,0,5.97,0,2.68,2.7,0,6,0Zm3.84,9.55c1.29-1.34,1.85-3.55,.99-5.59C9.95,1.88,7.78,.51,5.38,.79,3.18,1.05,1.34,2.7,.87,4.91c-.18,.83-.15,1.66,.07,2.48,.23,.82,.63,1.54,1.21,2.17,.02-.11,.04-.2,.07-.29,.3-1.15,.97-1.98,2.07-2.46,.18-.08,.35-.07,.52,.02,.8,.45,1.59,.45,2.39,0,.16-.09,.32-.1,.49-.03,.75,.32,1.33,.82,1.73,1.54,.21,.38,.34,.78,.43,1.22Z"/><path class="d" d="M6,1.9c1.32,0,2.39,1.08,2.39,2.4,0,1.32-1.07,2.39-2.4,2.39-1.33,0-2.4-1.08-2.39-2.41,0-1.32,1.08-2.39,2.4-2.38Z"/></g></g></g></svg>