<?xml version="1.0" encoding="UTF-8"?><svg xmlns="http://www.w3.org/2000/svg" viewBox="0 0 51.35 50"><defs><style>.d{fill:#606060;}</style></defs><g id="a"/><g id="b"><g id="c"><g><path class="d" d="M43.31,37.88c0,3.26,0,6.52,0,9.77,0,1.56-.47,2.07-2.03,2.29-.92,.13-1.83,.01-2.75,0-2.21-.01-4.41,0-6.62,0-1.06,0-1.34-.29-1.34-1.33,0-3.17,0-6.35,0-9.52,0-.38-.07-.52-.49-.52-2.91,.02-5.81,.01-8.72-.01-.47,0-.54,.16-.54,.57,.02,3.11,0,6.21,0,9.32,0,1.23-.26,1.48-1.51,1.48-2.16,0-4.31,0-6.47,0-.95,0-1.9,.12-2.85-.01-1.44-.21-1.93-.75-1.95-2.27-.01-.95,0-1.9,0-2.86,0-5.55,0-11.09,0-16.64,0-.56,.14-.98,.58-1.39,5.6-5.09,11.17-10.2,16.75-15.31,.24-.22,.38-.2,.61,0,5.06,4.64,10.13,9.26,15.19,13.89,.6,.55,1.21,1.11,1.82,1.64,.22,.19,.3,.4,.3,.69,0,3.39,0,6.78,0,10.17Z"/><path class="d" d="M14.83,5.28c0,1,0,2,0,3.01,0,.17-.11,.41,.09,.49,.16,.06,.27-.16,.39-.27,1.61-1.48,3.22-2.96,4.83-4.44,1.13-1.04,2.26-2.09,3.4-3.11,1.39-1.24,2.65-1.31,4.09-.14,1.12,.92,2.16,1.94,3.23,2.92,5.62,5.14,11.23,10.28,16.86,15.41,.91,.83,1.85,1.64,2.72,2.52,1.14,1.16,1.22,2.94,.2,4.19-1.04,1.27-2.74,1.53-4.14,.63-.68-.44-1.21-1.04-1.81-1.58-2.59-2.36-5.17-4.74-7.76-7.11-3.58-3.28-7.18-6.55-10.75-9.84-.4-.36-.63-.35-1.01,0-3.03,2.8-6.06,5.59-9.11,8.37-2.03,1.86-4.08,3.7-6.11,5.56-1.48,1.35-2.95,2.71-4.41,4.08-.81,.76-1.75,1.18-2.87,1-1.3-.2-2.12-1.02-2.51-2.24-.38-1.19-.08-2.27,.82-3.12,1.8-1.7,3.61-3.38,5.46-5.01,.96-.85,1.89-1.74,2.84-2.6,.16-.14,.17-.31,.17-.5,0-3.52-.01-7.05-.02-10.57,0-.45-.02-.9,.1-1.34,.15-.57,.45-.81,1.04-.82,.99,0,1.97,0,2.96,0,.87,0,1.29,.4,1.3,1.28,.02,1.07,0,2.14,0,3.21Z"/></g></g></g></svg>