<?xml version="1.0" encoding="UTF-8"?><svg xmlns="http://www.w3.org/2000/svg" viewBox="0 0 25 12.01"><defs><style>.d{fill:#fff;}</style></defs><g id="a"/><g id="b"><g id="c"><g><path class="d" d="M24.75,5.28c-.07-.09-.15-.18-.25-.25C16.54-1.68,8.46-1.68,.5,5.03c-.55,.41-.66,1.19-.25,1.74,.07,.09,.15,.18,.25,.25,3.99,3.32,7.99,4.98,12,4.98s8.01-1.66,12-4.98c.55-.41,.66-1.19,.25-1.74ZM1.91,6.03c1.68-1.41,3.57-2.56,5.6-3.39-1.4,2.05-1.4,4.75,0,6.79-2.04-.83-3.93-1.98-5.61-3.4Zm10.59,4.36c-2.41,0-4.36-1.95-4.36-4.36S10.09,1.66,12.5,1.66s4.36,1.95,4.36,4.36-1.95,4.36-4.36,4.36Zm4.99-.97c1.4-2.05,1.4-4.75,0-6.79,2.04,.83,3.93,1.98,5.61,3.4-1.68,1.41-3.57,2.56-5.6,3.39Z"/><path class="d" d="M12.5,4.21c-.99,0-1.79,.8-1.79,1.79s.8,1.79,1.79,1.79,1.79-.8,1.79-1.79-.8-1.79-1.79-1.79Z"/></g></g></g></svg>