<?xml version="1.0" encoding="UTF-8"?><svg xmlns="http://www.w3.org/2000/svg" viewBox="0 0 25 18.17"><defs><style>.d{fill:#fff;}</style></defs><g id="a"/><g id="b"><g id="c"><path class="d" d="M24.75,8.34c-.07-.09-.15-.18-.25-.25-2.09-1.76-4.18-3.04-6.28-3.88l3.19-3.19c.23-.23,.23-.61,0-.85s-.61-.23-.85,0l-3.58,3.58C11.48,2.04,5.96,3.49,.5,8.09c-.55,.41-.66,1.19-.25,1.74,.07,.09,.15,.18,.25,.25,2.1,1.75,4.2,3.02,6.3,3.85l-3.21,3.21c-.23,.23-.23,.61,0,.85,.12,.12,.27,.18,.42,.18s.31-.06,.42-.18l3.61-3.61c1.48,.45,2.96,.69,4.45,.69,4.01,0,8.01-1.66,12-4.98,.55-.41,.66-1.19,.25-1.74ZM7.51,5.7c-1.4,2.05-1.4,4.75,0,6.79-2.04-.83-3.93-1.98-5.61-3.4,1.68-1.41,3.57-2.56,5.6-3.39Zm.63,3.39c0-2.41,1.95-4.36,4.36-4.36,.99,0,1.89,.34,2.62,.89l-1.84,1.84c-.24-.12-.5-.19-.78-.19-.99,0-1.79,.8-1.79,1.79,0,.28,.07,.54,.19,.78l-1.86,1.86c-.55-.73-.89-1.63-.89-2.62Zm4.36,4.36c-.99,0-1.89-.34-2.62-.89l1.87-1.87c.23,.11,.48,.17,.75,.17,.99,0,1.79-.8,1.79-1.79,0-.27-.06-.52-.17-.75l1.84-1.84c.55,.73,.89,1.63,.89,2.62,0,2.41-1.95,4.36-4.36,4.36Zm4.99-.97c1.4-2.05,1.4-4.75,0-6.79,2.04,.83,3.93,1.98,5.61,3.4-1.68,1.41-3.57,2.56-5.6,3.39Z"/></g></g></svg>