<?xml version="1.0" encoding="UTF-8"?><svg xmlns="http://www.w3.org/2000/svg" viewBox="0 0 5.03 18"><defs><style>.d{fill:#fff;}</style></defs><g id="a"/><g id="b"><g id="c"><g><path class="d" d="M4.73,.02c-.7,0-1.39-.02-2.09-.02C1.84,0,1.04,0,.25,0,.14,0,.06,.05,.03,.14,0,.22,0,.3,0,.38c.02,.34,.05,.69,.07,1.03,.08,1.09,.16,2.18,.25,3.28,.08,1.11,.16,2.22,.24,3.32,.08,1.13,.17,2.26,.26,3.39,.02,.23,.03,.46,.05,.7,.02,.21,.1,.28,.3,.28,.45,0,.9,0,1.35,0h0c.47,0,.94,0,1.41,0,.11,0,.17-.05,.2-.14,.02-.06,.03-.14,.04-.2,.04-.47,.07-.93,.1-1.4,.07-.96,.15-1.92,.22-2.88,.05-.7,.1-1.4,.15-2.1,.07-.91,.13-1.82,.2-2.73,.04-.58,.09-1.16,.13-1.74,.02-.29,.04-.57,.06-.86,.01-.22-.08-.31-.3-.31Z"/><path class="d" d="M2.55,14.25c-1.04,0-1.88,.84-1.88,1.88,0,1.04,.84,1.88,1.88,1.87,1.04,0,1.87-.84,1.87-1.88,0-1.04-.84-1.87-1.88-1.87Z"/></g></g></g></svg>