<?xml version="1.0" encoding="UTF-8"?><svg xmlns="http://www.w3.org/2000/svg" viewBox="0 0 167.99 50"><defs><style>.d{fill:#bdbdbd;}</style></defs><g id="a"/><g id="b"><g id="c"><g><path class="d" d="M46.59,14.94c.07-2.59-.96-4.14-3.19-5.24C37.26,6.67,31.17,3.58,25.08,.49c-1.16-.59-2.23-.68-3.42-.08C15.22,3.67,8.79,6.9,2.34,10.11,.64,10.96-.04,12.25,.02,14.13c.08,2.95,.02,5.91,.02,8.87,0,2.77,.09,5.55-.03,8.31-.1,2.28,.62,3.76,2.82,4.81,6,2.87,11.92,5.91,17.8,9,1.94,1.02,3.59,.92,5.48-.08,5.8-3.06,11.62-6.09,17.5-8.98,2.11-1.04,3-2.45,2.96-4.77-.09-5.45-.13-10.9,.02-16.35Zm-7.04-.55c-.09,.4-.77,.73-1.25,.97-4.45,2.24-8.91,4.46-13.38,6.68-.75,.37-1.55,.77-2.38,.36-5.28-2.58-10.54-5.18-16.5-8.12,5.97-2.95,11.23-5.57,16.5-8.15,.82-.4,1.63-.02,2.38,.36,4.46,2.23,8.92,4.45,13.37,6.7,.53,.27,1.44,.38,1.25,1.19Z"/><path class="d" d="M138.66,16.61c0-4.17-.78-4.73-4.91-4.28-1.78,.19-1.84,1.63-2.42,2.77-5.14-5.59-13.78-3.54-16.47,2.35-2.27,4.96-2.49,10.08-.56,15.08,1.58,4.1,4.84,6.33,9.45,6.46,2.82,.08,5.17-.86,7.26-2.81,.85,3.28,.45,5.4-1.18,6.91-1.76,1.63-3.85,1.58-6,1.13-1.03-.21-1.76-.91-2.54-1.59-1.32-1.16-6.6-1.39-7.01-.26-.84,2.33,.72,4.03,2.41,5.05,5.36,3.24,11.07,3.36,16.7,.78,4.86-2.23,5.14-6.88,5.23-11.36,.14-6.74,.04-13.48,.04-20.22Zm-12.77,16.62c-3.48-.04-5.57-3-5.52-7.84,.05-5.28,2.32-7.96,6.31-7.45,3.22,.41,4.85,2.96,4.84,7.56,0,4.83-2.14,7.77-5.64,7.73Z"/><path class="d" d="M154.53,11.68c-8.35,.32-13.64,5.48-13.63,14.03,.02,8.42,5.41,14.2,13.28,14.24,8.33,.04,13.93-5.65,13.8-14.3-.11-6.89-4.23-14.32-13.45-13.96Zm6.2,14.51c-.35,5.18-3.08,8.15-7.08,7.69-3.61-.41-5.53-3.16-5.54-7.96-.01-4.56,1.55-7.33,4.66-8.19,.53-.15,1.08-.27,1.63-.28,3.93-.07,6.67,3.72,6.33,8.74Z"/><path class="d" d="M98.58,11.75c-8.24,0-13.52,5.34-13.6,13.79-.09,8.41,5.51,14.37,13.51,14.38,8.31,0,13.6-5.48,13.59-14.13,0-8.68-5.15-14.04-13.5-14.04Zm5.73,17.89c-.78,2.72-2.66,4.13-5.46,4.27-2.87,.14-4.75-1.38-5.8-3.86-1.08-2.54-1.14-5.19-.33-7.86,.87-2.88,3.07-4.72,5.76-4.75,2.88-.03,4.81,1.5,5.83,4.58,.44,1.33,.6,2.7,.69,4.11-.22,1.17-.35,2.37-.68,3.51Z"/><path class="d" d="M59.41,20.94c0-4.98,.11-9.96-.04-14.94-.08-2.83,1.46-3.09,3.67-3.1,2.22,0,3.71,.29,3.67,3.1-.12,7.56-.05,15.13-.03,22.69,0,3.41,.22,3.61,3.61,3.63,3.87,.02,7.75,.08,11.62,0,2.6-.06,2.97,1.41,3.01,3.54,.04,2.24-.78,3.15-3.07,3.11-6.46-.09-12.92-.09-19.37,0-2.26,.03-3.14-.82-3.09-3.09,.1-4.98,.03-9.96,.03-14.94Z"/></g></g></g></svg>