<?xml version="1.0" encoding="UTF-8"?><svg xmlns="http://www.w3.org/2000/svg" viewBox="0 0 347.42 339.49"><defs><style>.d{fill:#fcd7c7;}.e{fill:#fff;}.f{fill:#b5c7e2;}.g{isolation:isolate;}.h{fill:#f34336;}.i{fill:#dedede;}.j{fill:#dcdfe6;mix-blend-mode:multiply;}.k{fill:#fabba0;}.l{fill:#2f406e;}.m{fill:#ffae39;}.n{fill:#91c056;}.o{fill:none;}.p{fill:#008ebb;}.q{fill:#606060;}.r{fill:#e7f3f7;}.s{fill:#6f499b;}.t{fill:#d3eaf0;}.u{fill:#fbc9b3;}</style></defs><g class="g"><g id="a"/><g id="b"><g id="c"><g><path class="o" d="M268.19,60.79c.03,1.87,.33,3.38,2.4,4,.02-1.35,.05-2.7,.11-4h-2.51Z"/><path class="o" d="M320.26,163.12c.62,.26,1.04,.79,1.35,1.4,2.02-2.01,12.64-13.16,11.7-24.04-.44-5.08-6.28-10.54-12.11-14.78-1.25,13.17-2.84,27.73-2.73,33.02,.02,1.15,.08,2.63,.15,4.33,.56-.13,1.12-.15,1.65,.07Z"/><path class="i" d="M241.69,170.49v-13.7c-.36,.07-.73,.12-1.09,.17l1.09,13.53Z"/><path class="i" d="M14.32,309.97V14.43H227.37V57.28l5.93,12.81,.29-.02,.06,.79h0l5.39,66.8c.89-.28,1.77-.65,2.65-1.11V16.13c0-8.91-7.22-16.13-16.13-16.13H16.13C7.22,0,0,7.22,0,16.13V322.59c0,8.91,7.22,16.13,16.13,16.13H224.29l-2.32-28.75H14.32Z"/><path class="e" d="M33.97,272.74h25.3v-21.49l-14.18,20.13-9.54-8.56c-.62-.55-.67-1.5-.11-2.12,.55-.62,1.5-.67,2.12-.12l7.03,6.3,13.7-19.46h-24.31v25.3Z"/><path class="e" d="M210.78,45.12l3.35-11.99c.05-.18,.15-.32,.25-.44,.13-.14,.28-.25,.45-.3,.08-.03,.17-.05,.26-.05h0c.1,0,.2,0,.3,.03h0c.1,.02,.19,.06,.28,.11,.03,.02,.05,.04,.07,.06,.06,.04,.12,.08,.17,.14,.08,.08,.14,.18,.2,.29l11.25,24.31V14.43H14.32V309.97H221.97l-12.58-156.01c-3.35-2.29-5.28-5.78-6.38-9.3-.71-2.25,.74-4.59,1.62-4.91,1.14-.41,2.34-.64,3.55-.71l-5.36-66.5,.29-.02,7.66-27.41h0ZM75.11,61.16h39.76v5.34h-39.76v-5.34Zm0,46.29h56.08v5.34h-56.08v-5.34Zm0,46.29h19.14v5.34h-19.14v-5.34Zm0,46.29h60.98v5.34h-60.98v-5.34Zm-7.86,39.88l-5.98,8.49v26.33H31.97v-29.3h27.72l5.1-7.25c.48-.68,1.41-.84,2.09-.36,.68,.48,.84,1.41,.36,2.09Zm0-46.29l-5.98,8.49v26.33H31.97v-29.3h27.72l5.1-7.25c.48-.68,1.41-.84,2.09-.36,.68,.48,.84,1.41,.36,2.09Zm0-46.29l-5.98,8.49v26.33H31.97v-29.3h27.72l5.1-7.25c.48-.68,1.41-.84,2.09-.36,.68,.48,.84,1.41,.36,2.09Zm0-46.4l-5.98,8.49v26.33H31.97v-29.3h27.72l5.1-7.25c.48-.68,1.41-.84,2.09-.36,.68,.48,.84,1.41,.36,2.09Zm0-46.29l-5.98,8.49v26.33H31.97v-29.3h27.72l5.1-7.25c.48-.68,1.41-.84,2.09-.36,.68,.48,.84,1.41,.36,2.09Zm7.86,191.68h32.34v5.34h-32.34v-5.34Zm107.79,27.41H75.33v-1.61h107.57v1.61Zm0-7.47H75.33v-1.61h107.57v1.61Zm0-7.47H75.33v-1.61h107.57v1.61Zm0-31.35H75.33v-1.61h107.57v1.61Zm0-7.47H75.33v-1.61h107.57v1.61Zm0-7.47H75.33v-1.61h107.57v1.61Zm-41.62-7.12v-5.34h27.89v5.34h-27.89Zm41.62-24.22H75.33v-1.61h107.57v1.61Zm0-7.47H75.33v-1.61h107.57v1.61Zm0-7.47H75.33v-1.61h107.57v1.61Zm-82.27-7.12v-5.34h44.36v5.34h-44.36Zm82.27-24.22H75.33v-1.61h107.57v1.61Zm0-7.47H75.33v-1.61h107.57v1.61Zm0-7.47H75.33v-1.61h107.57v1.61Zm0-31.35H75.33v-1.61h107.57v1.61Zm0-7.47H75.33v-1.61h107.57v1.61Zm0-7.47H75.33v-1.61h107.57v1.61Zm-62.69-7.12v-5.34h48.96v5.34h-48.96Zm62.69-29.48H75.11v-8h107.79v8Z"/><path class="e" d="M33.97,180.16h25.3v-21.49l-14.18,20.13-9.54-8.56c-.62-.55-.67-1.5-.11-2.12,.55-.62,1.5-.67,2.12-.12l7.03,6.3,13.7-19.46h-24.31v25.3Z"/><path class="e" d="M33.97,87.46h25.3v-21.49l-14.18,20.13-9.54-8.56c-.62-.55-.67-1.5-.11-2.12,.55-.62,1.5-.67,2.12-.12l7.03,6.3,13.7-19.46h-24.31v25.3Z"/><path class="e" d="M33.97,133.75h25.3v-21.49l-14.18,20.13-9.54-8.56c-.62-.55-.67-1.5-.11-2.12,.55-.62,1.5-.67,2.12-.12l7.03,6.3,13.7-19.46h-24.31v25.3Z"/><path class="e" d="M33.97,226.45h25.3v-21.49l-14.18,20.13-9.54-8.56c-.62-.55-.67-1.5-.11-2.12,.55-.62,1.5-.67,2.12-.12l7.03,6.3,13.7-19.46h-24.31v25.3Z"/><rect class="s" x="75.11" y="29.03" width="107.79" height="8"/><rect class="i" x="75.33" y="118.31" width="107.57" height="1.61"/><rect class="i" x="75.33" y="125.78" width="107.57" height="1.61"/><rect class="i" x="75.33" y="133.25" width="107.57" height="1.61"/><rect class="p" x="75.11" y="107.45" width="56.08" height="5.34"/><polygon class="i" points="59.27 133.75 33.97 133.75 33.97 108.45 58.29 108.45 59.7 106.45 31.97 106.45 31.97 135.75 61.27 135.75 61.27 109.43 59.27 112.27 59.27 133.75"/><path class="h" d="M66.89,98.84c-.68-.48-1.61-.31-2.09,.36l-5.1,7.25-1.41,2-13.7,19.46-7.03-6.3c-.62-.55-1.57-.5-2.12,.12-.55,.62-.5,1.56,.11,2.12l9.54,8.56,14.18-20.13,2-2.84,5.98-8.49c.48-.68,.31-1.61-.36-2.09Z"/><rect class="i" x="75.33" y="210.89" width="107.57" height="1.61"/><rect class="i" x="75.33" y="218.36" width="107.57" height="1.61"/><rect class="i" x="75.33" y="225.83" width="107.57" height="1.61"/><rect class="p" x="75.11" y="200.03" width="60.98" height="5.34"/><rect class="p" x="141.28" y="200.03" width="27.89" height="5.34"/><polygon class="i" points="59.27 226.45 33.97 226.45 33.97 201.15 58.29 201.15 59.7 199.15 31.97 199.15 31.97 228.45 61.27 228.45 61.27 202.12 59.27 204.96 59.27 226.45"/><path class="h" d="M66.89,191.54c-.68-.48-1.61-.31-2.09,.36l-5.1,7.25-1.41,2-13.7,19.46-7.03-6.3c-.62-.55-1.57-.5-2.12,.12-.55,.62-.5,1.56,.11,2.12l9.54,8.56,14.18-20.13,2-2.84,5.98-8.49c.48-.68,.31-1.61-.36-2.09Z"/><rect class="i" x="75.33" y="257.18" width="107.57" height="1.61"/><rect class="i" x="75.33" y="264.65" width="107.57" height="1.61"/><rect class="i" x="75.33" y="272.12" width="107.57" height="1.61"/><rect class="p" x="75.11" y="246.33" width="32.34" height="5.34"/><polygon class="i" points="59.27 272.74 33.97 272.74 33.97 247.44 58.29 247.44 59.7 245.44 31.97 245.44 31.97 274.74 61.27 274.74 61.27 248.41 59.27 251.25 59.27 272.74"/><path class="h" d="M66.89,237.83c-.68-.48-1.61-.31-2.09,.36l-5.1,7.25-1.41,2-13.7,19.46-7.03-6.3c-.62-.55-1.57-.5-2.12,.12-.55,.62-.5,1.56,.11,2.12l9.54,8.56,14.18-20.13,2-2.84,5.98-8.49c.48-.68,.31-1.61-.36-2.09Z"/><polygon class="i" points="59.27 87.46 33.97 87.46 33.97 62.16 58.29 62.16 59.7 60.16 31.97 60.16 31.97 89.46 61.27 89.46 61.27 63.14 59.27 65.98 59.27 87.46"/><rect class="i" x="75.33" y="72.02" width="107.57" height="1.61"/><rect class="i" x="75.33" y="79.49" width="107.57" height="1.61"/><rect class="i" x="75.33" y="86.96" width="107.57" height="1.61"/><rect class="p" x="75.11" y="61.16" width="39.76" height="5.34"/><rect class="p" x="120.21" y="61.16" width="48.96" height="5.34"/><path class="h" d="M66.89,52.55c-.68-.48-1.61-.31-2.09,.36l-5.1,7.25-1.41,2-13.7,19.46-7.03-6.3c-.62-.55-1.57-.5-2.12,.12-.55,.62-.5,1.56,.11,2.12l9.54,8.56,14.18-20.13,2-2.84,5.98-8.49c.48-.68,.31-1.61-.36-2.09Z"/><rect class="i" x="75.33" y="164.6" width="107.57" height="1.61"/><rect class="i" x="75.33" y="172.07" width="107.57" height="1.61"/><rect class="i" x="75.33" y="179.54" width="107.57" height="1.61"/><rect class="p" x="75.11" y="153.74" width="19.14" height="5.34"/><rect class="p" x="100.63" y="153.74" width="44.36" height="5.34"/><polygon class="i" points="59.27 180.16 33.97 180.16 33.97 154.86 58.29 154.86 59.7 152.86 31.97 152.86 31.97 182.16 61.27 182.16 61.27 155.83 59.27 158.67 59.27 180.16"/><path class="h" d="M66.89,145.25c-.68-.48-1.61-.31-2.09,.36l-5.1,7.25-1.41,2-13.7,19.46-7.03-6.3c-.62-.55-1.57-.5-2.12,.12-.55,.62-.5,1.56,.11,2.12l9.54,8.56,14.18-20.13,2-2.84,5.98-8.49c.48-.68,.31-1.61-.36-2.09Z"/><path class="q" d="M258.94,338.55c-.45,1.89,21.59,.45,22.48-.22,.58-.43-.07-4.4-.59-7.12h-10.53c-2.45,1.25-10.98,5.72-11.36,7.34Z"/><path class="q" d="M328.42,330.99l-10.4,.44-.03-.16c-.48,2.72-1.05,6.64-.47,7.07,.9,.65,22.95,1.76,22.48-.13-.41-1.64-9.26-6.08-11.58-7.22Z"/><path class="n" d="M265.61,102.76c.03-.11,.08-.24,.14-.37-.48,.85-1.03,2-1.58,3.49-2.47,6.62-8.11,17.29-15.13,24.81-2.54,2.72-4.94,4.62-7.34,5.87-.88,.45-1.76,.82-2.65,1.11l1.56,19.29c.36-.05,.73-.1,1.09-.17,2.05-.38,4.12-1.09,6.16-2.21,7.84-4.32,13.93-12.12,18.21-19.23-.4-16.94-.67-31.67-.44-32.59Z"/><path class="n" d="M266.75,100.83c.09-.12,.18-.23,.28-.35-.07,.08-.16,.2-.28,.35Z"/><path class="s" d="M328.42,330.99h.06l-9.69-143.61-51.36,.29s-.03-1.13-.09-3.12h-.06l2.89,146.66h10.68l11.57-134.42,25.56,134.48,.03,.16,10.4-.44Z"/><path class="r" d="M286.53,104.65s-.8-2.16-.97-3.66l-3.42,4.49-3.75-11.86c-.09,.03-.17,.05-.26,.08l5.99,18.59,2.41-7.65Z"/><path class="r" d="M291.13,101.04c-.42,1.78-2.36,4.13-2.36,4.13l.86,8.7,14.92-19.81c-.41-.1-.81-.2-1.19-.29l-8.6,12.08-3.63-4.8Z"/><path class="k" d="M288.17,97.48c.08-.06,.13-.1,.13-.1,0,0,.05,.02,.13,.07l10.56-9.08-.09-15.06c-.5,2.39-2.05,4.54-7.14,7.75-2.52,1.59-5.6,3.2-8.66,3.88l-.26,4.98,5.32,7.56Z"/><path class="q" d="M295.77,50.42c2.01,2.01,.91,6.89,.24,9.17,3.87,0,6.55,.01,6.55,.01,.3,0,.54,.24,.54,.54,0,.3-.24,.54-.54,.54,0,0-.37,0-.97,0,.16,.24,.31,.52,.41,.87,1.33,4.75-3.41,5.19-3.41,5.19,0,0,.4,1.84,.49,3.76,1.25-1.09,3.24-3.25,4.18-6.58,1.56-5.49,3.27-16.66-1.63-22.4-6.01-7.05-24.4-10.61-30.9-6.64-3.77,2.3-5.23,9.92,.99,13.68,1.27-.05,21.46-.73,24.05,1.86Z"/><path class="q" d="M295.62,60.81s.1-.06,.26-.14c-.07,0-.14,0-.21,0-.03,.08-.05,.14-.05,.14Z"/><path class="u" d="M286.01,65.09c4.36,0,4.88-1.84,4.91-4.3h-9.82c.03,2.46,.55,4.3,4.91,4.3Z"/><path class="u" d="M278.01,60.79h-7.31c-.05,1.3-.09,2.65-.11,4,.65,.19,1.47,.3,2.51,.3,4.36,0,4.88-1.84,4.91-4.3Z"/><path class="u" d="M298.9,73.31c.05-.26,.1-.51,.13-.78,.08-.63,.08-1.33,.05-2.03-.09-1.92-.49-3.76-.49-3.76,0,0,4.75-.45,3.41-5.19-.1-.35-.25-.63-.41-.87-1.29,0-3.65,0-5.71-.01-.17,.09-.26,.14-.26,.14,0,0,.02-.06,.05-.14-2.01,0-3.67,0-3.67,0-.02,2.7-.59,5.51-5.98,5.51s-5.97-2.82-5.99-5.53h-.94c-.02,2.71-.57,5.53-5.99,5.53-.42,0-.84-.02-1.26-.06-.38-.04-.76-.09-1.13-.18-.04-.01-.09-.03-.13-.04-.01,6.33,.54,12.65,2.48,15.54,2.54,3.77,6.27,4.35,10.04,3.51,3.05-.68,6.13-2.28,8.66-3.88,5.09-3.22,6.64-5.37,7.14-7.75Zm-25.98-1.65h15.58s-1.34,5.34-8.31,5.64-7.27-5.64-7.27-5.64Z"/><path class="u" d="M296.01,59.59c.67-2.28,1.77-7.16-.24-9.17-2.59-2.59-22.78-1.9-24.05-1.86h-.06s-.6,4.89-.9,10.98c5.61,.01,17.7,.03,25.25,.05Z"/><path class="l" d="M271.84,66.11c.42,.04,.84,.06,1.26,.06,5.41,0,5.97-2.82,5.99-5.53h.94c.02,2.71,.57,5.53,5.99,5.53s5.96-2.81,5.98-5.51c0,0,1.67,0,3.67,0,.07,0,.14,0,.21,0,2.06,0,4.42,0,5.71,.01,.6,0,.97,0,.97,0,.3,0,.54-.24,.54-.54,0-.3-.24-.54-.54-.54,0,0-2.68,0-6.55-.01-7.55-.01-19.64-.04-25.25-.05-1.89,0-3.05,0-3.05,0-.34,0-.51,.38-.56,.67-.04,.22-.03,.45-.03,.68,0,.24,.02,.48,.03,.72,.02,.24,.05,.47,.08,.71,.04,.23,.09,.46,.15,.68,.06,.22,.14,.44,.24,.65,.1,.21,.21,.41,.34,.6,.14,.2,.29,.38,.46,.54,.18,.18,.39,.33,.6,.47,.24,.15,.49,.28,.76,.38,.26,.1,.53,.18,.8,.25,.04,.01,.09,.03,.13,.04,.37,.08,.75,.14,1.13,.18Zm19.08-5.32c-.03,2.46-.55,4.3-4.91,4.3s-4.88-1.84-4.91-4.3h9.82Zm-22.73,0h9.82c-.03,2.46-.55,4.3-4.91,4.3-1.04,0-1.86-.11-2.51-.3-2.06-.62-2.37-2.13-2.4-4Z"/><path class="h" d="M291.13,101.04l-2.71-3.58h0c-.08-.05-.13-.07-.13-.07,0,0-.05,.04-.13,.1l.04,.05-2.64,3.47c.18,1.49,.97,3.66,.97,3.66l-2.41,7.65,2.01,6.23,3.51-4.66-.86-8.7s1.94-2.34,2.36-4.13Z"/><polygon class="t" points="288.43 97.45 288.42 97.46 291.13 101.04 294.77 105.84 303.37 93.76 303.85 93.08 299.03 88.33 298.99 88.36 288.43 97.45"/><path class="n" d="M318.79,187.37h1.16s-.2-3.19-.45-7.51c-2.31-1.33-4.23-3.28-6.07-5.23-1.05-1.12-2.16-2.39-2.2-3.92-.03-1.11,.51-2.15,1.15-3.05,1.3-1.82,3.1-3.3,5.15-4.22,.35-.16,.71-.29,1.09-.38-.07-1.69-.13-3.18-.15-4.33-.11-5.29,1.47-19.86,2.73-33.02-6.04-4.39-12.08-7.48-12.08-7.48l6.45-20.7s2.5,.84,6.52,3.56c-3.68-3.75-17.42-7.19-17.43-7.19,0,0,.6,.26,1.55,.7l-20.98,28.53-8.67-29.58c.21-.07,.43-.13,.64-.19-3.7,.93-7.98,4.47-10.17,7.11-.1,.12-.19,.24-.28,.35-.47,.6-.81,1.13-1,1.56-.06,.13-.11,.26-.14,.37-.23,.92,.04,15.65,.44,32.59,.45,19.19,1.06,41.2,1.29,49.2,.06,1.98,.09,3.12,.09,3.12l51.36-.29Z"/><polygon class="n" points="286.12 118.52 286.12 118.52 284.12 112.3 278.13 93.7 277.96 93.19 286.12 118.52"/><path class="n" d="M309.12,118.23s6.03,3.09,12.08,7.48c5.83,4.24,11.67,9.69,12.11,14.78,.94,10.88-9.68,22.02-11.7,24.04,.21,.42,.37,.88,.5,1.32,1.07,3.59,2.91,9.8,1.19,13.5,1.82-1.12,8.23-5.43,15.05-14.52,8.07-10.76,11.92-22.87,6.68-35.9-3.99-9.92-13.8-21.23-21.44-26.78-.52-.38-1.01-.72-1.49-1.04-4.03-2.72-6.52-3.56-6.52-3.56l-6.45,20.7Z"/><path class="f" d="M285.23,123.12l20.98-28.53c-.95-.44-1.55-.7-1.55-.7h0l-.11,.15-14.92,19.81-3.51,4.66h0l-8.16-25.33c-.25,.04-.51,.1-.77,.17-.21,.06-.42,.12-.64,.19l8.67,29.58Z"/><polygon class="t" points="285.56 101 288.2 97.53 288.17 97.48 282.85 89.92 282.56 89.52 278.35 93.52 278.39 93.62 282.14 105.49 285.56 101"/><path class="k" d="M322.11,165.84c-.13-.44-.29-.9-.5-1.32-.31-.61-.72-1.14-1.35-1.4-.52-.22-1.09-.2-1.65-.07-.37,.09-.74,.23-1.09,.38-2.05,.92-3.84,2.39-5.15,4.22-.64,.9-1.18,1.94-1.15,3.05,.04,1.53,1.15,2.81,2.2,3.92,1.84,1.95,3.76,3.9,6.07,5.23,.4,.23,.82,.45,1.24,.64,.32,.14,.67,.28,1.02,.25,.68-.05,1.18-.67,1.48-1.28,.02-.04,.03-.09,.05-.13,1.72-3.7-.12-9.91-1.19-13.5Z"/><path class="e" d="M288.5,71.66h-15.58s.3,5.93,7.27,5.64,8.31-5.64,8.31-5.64Z"/><polygon class="d" points="226.87 70.61 218.83 44.47 210.78 45.12 203.12 72.53 227.16 70.59 227.16 70.59 226.87 70.61"/><polygon class="d" points="233.3 70.09 233.3 70.09 227.37 57.28 216.12 32.97 233.3 70.09"/><path class="d" d="M214.84,32.39c-.17,.05-.32,.16-.45,.3,.13-.14,.28-.25,.45-.3Z"/><path class="m" d="M247.63,324.5l-24.33,1.96-.69-8.58,24.33-1.96-.7-8.7-24.33,1.96-.69-8.58,24.33-1.96-18.39-228.05-24.03,1.94-.29,.02,5.36,66.5c1.03-.06,2.06-.02,3.08,.17,1.09,.2,2.2,.57,2.95,1.39,1.04,1.13,1.12,2.82,1.14,4.35,.04,3.15,.01,6.39-1.17,9.3-.13,.33-.29,.66-.56,.89-.53,.44-1.33,.38-1.96,.11-.83-.36-1.58-.81-2.28-1.29l12.58,156.01,2.32,28.75,.06,.77,30.76-2.48h0l-6.43,.52-1.05-13.03Z"/><polygon class="m" points="233.3 70.09 233.59 70.07 233.3 70.09 233.3 70.09 233.3 70.09"/><rect class="t" x="253.72" y="315.39" height="8.61" transform="translate(-24.88 21.43) rotate(-4.61)"/><rect class="t" x="222.92" y="316.88" width="24.41" height="8.61" transform="translate(-25.06 19.94) rotate(-4.61)"/><polygon class="t" points="251.98 298.12 251.98 298.12 252.07 299.24 251.98 298.12"/><rect class="t" x="221.52" y="299.61" width="24.41" height="8.61" transform="translate(-23.67 19.77) rotate(-4.61)"/><path class="p" d="M215.1,32.33c-.09,0-.17,.02-.26,.05-.17,.05-.32,.16-.45,.3-.11,.12-.2,.26-.25,.44l-3.35,11.99h0l8.05-.65-3.73-12.14Z"/><path class="p" d="M215.68,32.47c-.09-.05-.18-.09-.28-.11,.1,.02,.19,.06,.28,.11Z"/><path class="p" d="M215.4,32.36c-.1-.02-.2-.03-.3-.03,.1,0,.2,0,.3,.03Z"/><path class="p" d="M215.92,32.68c-.05-.06-.11-.1-.17-.14,.06,.04,.12,.08,.17,.14Z"/><rect class="j" x="254.59" y="323.96" height="13.07"/><polygon class="j" points="253.37 315.4 253.37 315.4 252.07 299.24 252.2 300.84 253.37 315.4"/><rect class="j" x="246.83" y="170.28" width="0" height="128.05"/><rect class="i" x="236.35" y="70.76" height="67.02" transform="translate(-7.61 19.33) rotate(-4.61)"/><rect class="j" x="236.35" y="70.76" height="67.02" transform="translate(-7.61 19.33) rotate(-4.61)"/><rect class="i" x="241.14" y="156.94" width="0" height="13.57" transform="translate(-12.38 19.91) rotate(-4.61)"/><rect class="j" x="241.14" y="156.94" width="0" height="13.57" transform="translate(-12.38 19.91) rotate(-4.61)"/><polygon class="i" points="233.66 70.86 233.59 70.07 233.66 70.86 233.66 70.86"/><polygon class="j" points="233.66 70.86 233.59 70.07 233.66 70.86 233.66 70.86"/><path class="e" d="M215.68,32.47s.05,.04,.07,.06c-.03-.02-.05-.04-.07-.06Z"/><path class="j" d="M215.68,32.47s.05,.04,.07,.06c-.03-.02-.05-.04-.07-.06Z"/><polygon class="e" points="215.1 32.33 215.1 32.33 215.1 32.33 215.1 32.33"/><polygon class="j" points="215.1 32.33 215.1 32.33 215.1 32.33 215.1 32.33"/><path class="e" d="M215.4,32.36h0Z"/><path class="j" d="M215.4,32.36h0Z"/><path class="e" d="M215.92,32.68c.08,.08,.14,.18,.2,.29-.05-.11-.12-.21-.2-.29Z"/><path class="j" d="M215.92,32.68c.08,.08,.14,.18,.2,.29-.05-.11-.12-.21-.2-.29Z"/><rect class="n" x="239.82" y="137.64" height="19.36"/><rect class="j" x="239.82" y="137.64" height="19.36"/><polygon class="d" points="233.3 70.09 216.12 32.97 221.35 44.27 218.83 44.47 226.87 70.61 227.16 70.59 227.16 70.59 233.3 70.09"/><polygon class="j" points="233.3 70.09 216.12 32.97 221.35 44.27 218.83 44.47 226.87 70.61 227.16 70.59 227.16 70.59 233.3 70.09"/><rect class="m" x="248.15" y="324.22" width="6.45" height="13.07" transform="translate(-25.76 21.27) rotate(-4.61)"/><rect class="j" x="248.15" y="324.22" width="6.45" height="13.07" transform="translate(-25.76 21.27) rotate(-4.61)"/><polygon class="m" points="253.37 315.4 252.2 300.84 252.67 306.7 246.24 307.22 246.94 315.92 253.37 315.4"/><polygon class="j" points="253.37 315.4 252.2 300.84 252.67 306.7 246.24 307.22 246.94 315.92 253.37 315.4"/><polygon class="m" points="233.66 70.86 233.66 70.86 233.59 70.07 233.3 70.09 233.3 70.09 227.16 70.59 245.55 298.64 251.98 298.12 241.69 170.49 240.6 156.96 239.04 137.67 233.66 70.86"/><polygon class="j" points="233.66 70.86 233.66 70.86 233.59 70.07 233.3 70.09 233.3 70.09 227.16 70.59 245.55 298.64 251.98 298.12 241.69 170.49 240.6 156.96 239.04 137.67 233.66 70.86"/><polygon class="t" points="246.94 315.92 247.63 324.5 254.06 323.98 254.06 323.98 253.37 315.4 253.37 315.4 246.94 315.92"/><polygon class="j" points="246.94 315.92 247.63 324.5 254.06 323.98 254.06 323.98 253.37 315.4 253.37 315.4 246.94 315.92"/><polygon class="t" points="245.55 298.64 246.24 307.22 252.67 306.7 252.2 300.84 252.07 299.24 251.98 298.12 251.98 298.12 245.55 298.64"/><polygon class="j" points="245.55 298.64 246.24 307.22 252.67 306.7 252.2 300.84 252.07 299.24 251.98 298.12 251.98 298.12 245.55 298.64"/><path class="p" d="M215.75,32.53s-.05-.04-.07-.06c-.09-.05-.18-.09-.28-.11h0c-.1-.02-.2-.03-.3-.03h0l3.73,12.14,2.52-.2-5.23-11.3c-.05-.11-.12-.21-.2-.29-.05-.06-.11-.1-.17-.14Z"/><path class="j" d="M215.75,32.53s-.05-.04-.07-.06c-.09-.05-.18-.09-.28-.11h0c-.1-.02-.2-.03-.3-.03h0l3.73,12.14,2.52-.2-5.23-11.3c-.05-.11-.12-.21-.2-.29-.05-.06-.11-.1-.17-.14Z"/><path class="k" d="M203.02,144.67c1.1,3.51,3.04,7.01,6.38,9.3,.7,.48,1.44,.93,2.28,1.29,.63,.27,1.43,.33,1.96-.11,.27-.23,.43-.56,.56-.89,1.18-2.92,1.21-6.16,1.17-9.3-.02-1.54-.11-3.22-1.14-4.35-.75-.82-1.86-1.19-2.95-1.39-1.01-.19-2.05-.23-3.08-.17-1.21,.07-2.41,.3-3.55,.71-.89,.32-2.33,2.66-1.62,4.91Z"/></g></g></g></g></svg>