<?xml version="1.0" encoding="UTF-8"?><svg xmlns="http://www.w3.org/2000/svg" viewBox="0 0 50.03 50"><defs><style>.d{fill:#606060;}</style></defs><g id="a"/><g id="b"><g id="c"><g><path class="d" d="M50.03,35.07c-.16,.89-.27,1.8-.48,2.68-1.57,6.61-7.4,11.62-14.17,12.19-8.24,.69-15.54-4.71-17.26-12.79-1.87-8.75,4.06-17.53,12.89-19.09,8.69-1.54,16.88,3.98,18.7,12.61,.14,.68,.22,1.38,.33,2.06v2.34Zm-14.62-4.13h2.91c-.12-2-1.12-3.34-2.95-4.12v-3.14h-2.92v3.15c-.18,.09-.35,.16-.51,.24-2.04,1.03-2.98,3.41-2.11,5.51,.74,1.8,2.15,2.71,4.1,2.79,.8,.04,1.4,.62,1.45,1.38,.04,.73-.49,1.4-1.23,1.53-.71,.13-1.41-.33-1.64-1.07-.04-.12-.07-.24-.1-.37h-2.87c-.02,1.6,.86,3.12,2.3,3.83,.52,.26,.65,.54,.62,1.07-.04,.8-.01,1.61-.01,2.41h2.93c0-.9,.02-1.78,0-2.65-.01-.37,.09-.56,.44-.73,2.57-1.23,3.3-4.48,1.51-6.68-.88-1.09-2.05-1.6-3.45-1.64-.79-.02-1.39-.64-1.42-1.4-.03-.72,.49-1.36,1.21-1.5,.71-.14,1.42,.31,1.65,1.05,.04,.12,.07,.25,.1,.37Z"/><path class="d" d="M17.98,0c1.03,.13,2.07,.22,3.09,.4,2.85,.48,5.57,1.35,7.94,3.05,.69,.5,1.35,1.09,1.91,1.74,2.1,2.44,2.02,5.4-.16,7.76-1.52,1.65-3.42,2.7-5.52,3.38-6.45,2.1-12.87,2-19.2-.5-1.65-.65-3.14-1.59-4.35-2.91-2.27-2.47-2.26-5.46,.01-7.93,1.55-1.69,3.51-2.73,5.62-3.5C9.53,.69,11.81,.25,14.14,.09,14.28,.08,14.42,.03,14.56,0h3.42Z"/><path class="d" d="M0,15.43c3.48,3.08,7.58,4.4,11.97,4.98,1.38,.18,2.79,.27,4.18,.28,1.38,.02,2.76-.11,4.16-.18-.05,.07-.11,.16-.18,.24-1.52,1.59-2.74,3.39-3.62,5.41-.14,.32-.31,.42-.65,.42-3.8-.1-7.48-.72-10.9-2.46-1.51-.77-2.86-1.74-3.87-3.14C.38,19.98-.02,18.86,0,17.61c.01-.7,0-1.39,0-2.18Z"/><path class="d" d="M17.88,44.15c-.78,0-1.43,.01-2.08,0-3.61-.09-7.12-.67-10.41-2.24-1.68-.8-3.19-1.83-4.3-3.36C.37,37.55-.02,36.44,0,35.19c.01-.69,0-1.39,0-2.1,.83,.6,1.6,1.22,2.43,1.74,2.56,1.6,5.39,2.49,8.35,2.97,1.38,.22,2.78,.29,4.17,.45,.17,.02,.45,.14,.48,.26,.51,1.95,1.29,3.77,2.45,5.65Z"/><path class="d" d="M15.24,29.48l-.48,5.79c-.37-.03-.88-.05-1.39-.1-2.97-.29-5.83-.97-8.5-2.35-1.38-.72-2.63-1.61-3.61-2.85C.42,28.9-.03,27.69,0,26.31c.02-.66,0-1.33,0-2.07,4.43,3.83,9.73,4.94,15.23,5.24Z"/></g></g></g></svg>