<?xml version="1.0" encoding="utf-8"?>
<!-- Generator: Adobe Illustrator 26.1.0, SVG Export Plug-In . SVG Version: 6.00 Build 0)  -->
<svg version="1.1" id="Capa_1" xmlns="http://www.w3.org/2000/svg" xmlns:xlink="http://www.w3.org/1999/xlink" x="0px" y="0px"
	 viewBox="0 0 281.2 281.2" style="enable-background:new 0 0 281.2 281.2;" xml:space="preserve">
<style type="text/css">
	.st0{fill:#6F499B;}
</style>
<g>
	<path class="st0" d="M231.6,80v-0.8c0-49-38.9-79.2-94.3-79.2c-32,0-57.4,9-77.8,23c-11.8,8.1-12.9,25.9-4.2,37.4l6.3,8.3
		c8.7,11.4,24.2,12.5,36.8,5.6c11.5-6.3,23.1-9.8,34-9.8c18.1,0,28.3,7.9,28.3,20.8v0.4c0,16.2-15.5,39.4-59.2,43.2l-1.5,1.7
		c-0.8,0.9,0.2,13.2,2.3,27.4l1.7,11.6c2.1,14.2,14.1,25.7,26.7,25.7s23.8-5.4,25.1-12.1c1.3-6.7,2.3-12.1,2.3-12.1
		C199.9,160.9,231.6,127.5,231.6,80z"/>
	<path class="st0" d="M118.4,217.1c-14.4,0-26,11.6-26,26v12.1c0,14.4,11.6,26,26,26h22.3c14.4,0,26-11.6,26-26v-12.1
		c0-14.4-11.6-26-26-26H118.4z"/>
</g>
</svg>
