<?xml version="1.0" encoding="UTF-8"?><svg xmlns="http://www.w3.org/2000/svg" viewBox="0 0 600 600.07"><defs><style>.e{fill:#92c156;}.f{fill:#dedede;}.g{fill:#ffae39;}.h{fill:none;}.i{fill:#999;}.j{fill:#efefef;}.k{fill:#6f499b;}</style></defs><g id="a"/><g id="b"><g id="c"><rect class="g" width="600" height="600"/></g><g id="d"><g><path class="h" d="M338.85,107.43c-.27-.08-.54-.16-.81-.23,.12-.15,.23-.29,.34-.43l-.02-.03c-.12,.15-.24,.3-.36,.45,.29,.08,.57,.16,.85,.25h0Z"/><path class="j" d="M293.47,416.57s.06-.11,.05-.17c-2.17-19.11-10.85-21.93-10.85-21.93l.2-.2-36.15,22.5c-.07,.05-.14,.04-.2,.02-.18-.03-.29-.28-.1-.42l12.89-9.28,31.12-22.49c0-.07-.01-.13-.06-.19l-50.25-52.14c-.08-.08-.2-.09-.29-.04l-18.44,11.51c-.08,.05-.12,.13-.11,.22l7.6,83.36c.02,.17,.2,.27,.35,.18l8.99-5.15c.13-.08,.3,0,.34,.15,4.52,18.26,10.12,36.72,15.84,57.54,9.82,35.8,22.33,69.92,31.01,90.83,.1,.24,.45,.16,.45-.1v-108.78c0-7.72-.15-36.1,7.63-45.44Z"/><path class="j" d="M362.57,417.02c.25,.17,0,.55-.26,.39h-.01s-.02,0-.03-.01l-36.97-23.12s-.05-.02-.07-.02c-.04,0-.07,0-.11,.02-2.36,1.16-9.83,6.07-11.73,22.13,0,.06,.01,.12,.05,.17,7.77,9.35,7.62,37.71,7.62,45.43l.34,106.28-.25,6c.11,.05,.25,.03,.31-.11,8.73-21.27,22.34-59.01,32.81-97.19,5.5-20.07,11.04-37.97,14.88-54.65,.04-.16,.22-.23,.35-.14l8.12,5.26c.15,.1,.35,0,.36-.19l3.8-84.07c0-.09-.04-.17-.12-.21l-19.08-10.77c-.09-.05-.21-.04-.28,.04l-47.96,50.52c-.1,.1-.08,.27,.04,.35h.04l48.14,33.88Z"/><path class="f" d="M514.74,393.98c-4.01-5.73-11.11-5.96-11.69-5.97-.03,0-.05,0-.08-.02l-115.51-45.97s-.02,0-.03-.02l-26.95-15.81c-.07-.04-.11-.11-.12-.19-.35-5.71-.53-11.62-.45-17.47,0-.06,.02-.11,.06-.15,4.75-5.15,8.89-10.92,12.15-17.24,5.22-10.13,8.73-22.7,11.62-36.07,.02-.09,.09-.16,.18-.17,2.85-.57,5.97-2.41,9.1-5.08,6.83-5.83,9.75-39.87,11.7-52.51,1.09-7.06-1.47-10.47-5.81-11.1-.13-.02-.22-.13-.2-.26,3.4-18.98,6.34-49.55-3.89-71.53-15.89-34.12-41.55-46.31-57.44-37.78-.06,.03-.11,.07-.17,.1-3.53-2.66-9.38-5.02-19.38-7.41-30.55-7.31-53.77-7.31-83.1,15.84-23.08,18.22-32.99,35.34-31.77,68.25,.52,14.06,1.49,24.78,2.43,32.45,.02,.13-.08,.24-.22,.25-4.82,.31-7.77,3.7-6.61,11.19,1.95,12.64,4.88,46.68,11.7,52.51,3.26,2.78,6.51,4.67,9.45,5.15,.09,.02,.17,.09,.18,.18,2.56,12.78,5.56,24.32,8.9,31.62,3.05,6.67,6.85,12.76,11.19,18.22,.03,.04,.05,.09,.05,.14,.17,7.1,.13,14.43-.12,21.6,0,.08-.05,.15-.12,.19l-25.7,15.08h-.03l-115.52,49.03s-.05,.02-.08,.02c-.59,.01-7.67,.25-11.68,5.98-4.19,5.97-31.72,92.58-36.77,202.61,0,.13-.13,.36,0,.36l235.49,.07,.72-.07h.72l-1.1-29.22c0,.26-.35,.33-.45,.1-8.68-20.91-21.18-55.03-31.01-90.83-5.71-20.83-11.31-39.28-15.84-57.54-.04-.15-.21-.22-.34-.15l-8.99,5.15c-.15,.08-.33-.01-.35-.18l-7.6-83.36c0-.09,.03-.17,.11-.22l18.44-11.51c.09-.06,.22-.04,.29,.04l50.25,52.14c.05,.05,.07,.12,.06,.19h0l23.98-1.44h-.02c-.12-.09-.13-.26-.04-.37l47.96-50.52c.07-.08,.19-.1,.28-.04l19.08,10.77c.08,.04,.12,.13,.12,.21l-3.8,84.07c0,.18-.21,.28-.36,.19l-8.12-5.26c-.14-.09-.32-.02-.35,.14-3.85,16.68-9.38,34.59-14.88,54.65-10.48,38.18-24.08,75.92-32.81,97.19-.06,.14-.2,.16-.31,.11l-1.05,25.7h.91l.67,.07,227.94-.03c.13,0,.48,.09,.48-.04-5.05-110.04-31.19-200.04-35.37-206.02ZM233.06,112.93c.12-.15,.24-.3,.36-.45,.16,.23,.33,.46,.49,.7-.28-.08-.56-.17-.85-.25Zm105.3-6.2l.02,.03,.02-.02c.16,.23,.33,.46,.49,.7h-.04c-.28-.09-.56-.18-.85-.26,.12-.15,.24-.3,.36-.45Z"/><path class="i" d="M246.51,416.79c-.15-.06-.23-.28-.06-.41l12.85-9.29-12.89,9.28c-.19,.14-.08,.38,.1,.42Z"/><path class="i" d="M293.51,416.58s.06-.11,.05-.17c-2.17-19.11-10.85-21.93-10.85-21.93l.29-.29-.14,.09-.2,.2s8.67,2.82,10.85,21.93c0,.06-.01,.12-.05,.17-7.78,9.34-7.63,37.72-7.63,45.44v108.78l.04-108.77c0-7.72-.15-36.1,7.63-45.44Z"/><path class="i" d="M362.27,417.4s.02,0,.03,0l-36.96-23.11s-.07-.03-.11-.04c.03,0,.05,.01,.07,.02l36.97,23.12Z"/><path class="k" d="M233.06,112.93c.29,.08,.57,.16,.85,.25-.16-.23-.33-.46-.49-.7-.12,.15-.24,.3-.36,.45Z"/><path class="e" d="M338.85,107.43h.04c-.16-.22-.33-.45-.49-.69l-.02,.02c-.11,.14-.22,.28-.34,.43,.27,.08,.54,.16,.81,.23Z"/><path class="g" d="M321.16,574.3l.25-6-.34-106.28c0-7.72,.15-36.08-7.62-45.43-.04-.05-.06-.11-.05-.17,1.9-16.06,9.37-20.97,11.73-22.13,.04-.02,.07-.02,.11-.02,.04,0,.08,.01,.11,.04l36.96,23.11h.01c.26,.17,.51-.21,.26-.38l-48.14-33.87h-.02l-23.98,1.44h0l-31.12,22.5-12.85,9.29c-.17,.13-.09,.34,.06,.41,.06,.02,.13,.03,.2-.02l36.15-22.5,.14-.09-.29,.29s8.67,2.82,10.85,21.93c0,.06-.01,.12-.05,.17-7.78,9.34-7.63,37.72-7.63,45.44l-.04,108.77,1.1,29.22v.02l33.17-.02,1.05-25.7Z"/></g></g></g></svg>