<?xml version="1.0" encoding="UTF-8"?><svg xmlns="http://www.w3.org/2000/svg" viewBox="0 0 50.01 50"><defs><style>.d{fill:#fff;}</style></defs><g id="a"/><g id="b"><g id="c"><path class="d" d="M48.91,43.69c-2.1-2.14-4.23-4.25-6.35-6.36-.68-.68-1.37-1.35-2.06-2.02h0c-1.3-1.36-2.63-2.7-4-4,.18-.28,.36-.56,.53-.84,1.75-2.81,2.72-5.88,2.92-9.17,.18-2.88-.22-5.7-1.26-8.41-1.71-4.42-4.6-7.84-8.68-10.21C26.13,.43,21.93-.39,17.5,.17,12.01,.85,7.55,3.45,4.18,7.8,.79,12.18-.55,17.2,.21,22.72c.73,5.28,3.22,9.6,7.37,12.91,3.68,2.93,7.89,4.36,12.62,4.33,3.6-.03,6.91-.97,10.01-2.76,.38-.22,.7-.53,1.14-.63,.14,.13,.28,.26,.42,.4,1.18,1.17,2.37,2.34,3.55,3.51h0c.08,.09,.15,.19,.24,.28,2.69,2.69,5.37,5.38,8.07,8.07,1.24,1.24,2.93,1.52,4.39,.77,2.21-1.15,2.67-4.07,.88-5.89Zm-29-10.06c-7.51-.04-13.65-6.32-13.54-13.85,.1-7.29,6.2-13.53,13.59-13.4,7.55-.17,13.76,6.21,13.7,13.65-.06,7.56-6.18,13.64-13.75,13.6Z"/></g></g></svg>