<?xml version="1.0" encoding="UTF-8"?><svg xmlns="http://www.w3.org/2000/svg" viewBox="0 0 47.68 50"><defs><style>.d{fill:#606060;}</style></defs><g id="a"/><g id="b"><g id="c"><path class="d" d="M19.74,0h8.2c1.63,.47,2.41,1.61,2.67,3.24,.16,1.03,.45,2.03,.67,3.05,.06,.29,.21,.44,.48,.59,1.29,.71,2.57,1.46,3.83,2.23,.25,.15,.43,.21,.71,.12,1.2-.4,2.41-.77,3.62-1.14,1.63-.5,3.02,.03,3.88,1.49,1.13,1.94,2.25,3.88,3.37,5.83,.86,1.49,.63,2.98-.63,4.15-.93,.87-1.88,1.71-2.79,2.59-.15,.14-.23,.41-.23,.62-.02,1.49-.02,2.99,0,4.48,0,.21,.09,.48,.24,.62,.92,.88,1.86,1.72,2.79,2.59,1.26,1.18,1.49,2.66,.63,4.15-1.12,1.94-2.24,3.89-3.37,5.82-.85,1.46-2.24,2-3.88,1.49-1.21-.37-2.42-.75-3.63-1.14-.28-.09-.47-.03-.71,.12-1.26,.76-2.54,1.51-3.83,2.23-.27,.15-.42,.3-.48,.59-.26,1.22-.53,2.44-.81,3.67-.38,1.67-1.57,2.62-3.28,2.62-2.21,0-4.43,0-6.64,0-1.78,0-2.95-.94-3.34-2.67-.27-1.21-.54-2.41-.8-3.62-.06-.29-.21-.45-.48-.6-1.29-.71-2.57-1.46-3.83-2.22-.25-.15-.43-.21-.71-.12-1.2,.4-2.41,.77-3.63,1.14-1.62,.5-3.03-.04-3.87-1.5-1.13-1.94-2.25-3.88-3.37-5.82-.86-1.49-.63-2.97,.63-4.15,.93-.87,1.88-1.71,2.79-2.59,.15-.14,.23-.41,.23-.62,.02-1.49,.02-2.99,0-4.48,0-.21-.09-.48-.23-.62-.92-.88-1.86-1.72-2.79-2.59-1.26-1.18-1.49-2.67-.63-4.15,1.11-1.93,2.23-3.86,3.35-5.78,.87-1.5,2.26-2.04,3.9-1.53,1.21,.37,2.41,.77,3.63,1.12,.21,.06,.5,0,.7-.12,1.29-.72,2.55-1.49,3.84-2.2,.27-.15,.41-.31,.48-.6,.29-1.32,.58-2.64,.89-3.95,.22-.92,.8-1.59,1.64-2.01,.26-.13,.53-.22,.8-.33Zm14.52,25.31c.25-5.64-4.28-10.45-10.08-10.72-5.65-.27-10.51,4.3-10.75,10.1-.23,5.67,4.3,10.48,10.13,10.73,5.63,.24,10.44-4.3,10.7-10.11Z"/></g></g></svg>