<?xml version="1.0" encoding="UTF-8"?><svg xmlns="http://www.w3.org/2000/svg" viewBox="0 0 28 32.66"><defs><style>.d{fill:#24a7aa;}</style></defs><g id="a"/><g id="b"><g id="c"><g><g><path class="d" d="M24.89,3.05c-.01-1.76-1.37-3.04-3.16-3.04C15.56,0,9.39,0,3.22,0,1.35,0,.01,1.31,.01,3.18c-.01,7.72-.01,15.44,0,23.16,0,1.72,1.09,3.07,2.79,3.15,2.58,.13,5.17,.07,7.86,.07-.55-.87-1.05-1.69-1.36-2.57-.17-.49-.47-.58-.93-.57-1.47,.02-2.93-.03-4.4,.03-.72,.03-.85-.22-.84-.88,.02-7.22,.03-14.44,0-21.67,0-.7,.2-.86,.88-.86,5.62,.03,11.23,.04,16.85,0,.84,0,.99,.27,.98,1.04-.03,1.76-.02,3.51-.02,5.27,0,.79,0,1.58,0,2.38,0,.4,0,.81,0,1.21,0,.23-.04,.48,.1,.68,.13,.18,.36,.24,.55,.31,.25,.1,.49,.21,.72,.33,.48,.24,.91,.53,1.34,.83,.06,.04,.12,.09,.19,.13l.09,.07s.09,.05,.09,.07c0-4.22,.02-8.26,0-12.3Z"/><path class="d" d="M16.66,15.44c-1.52,.32-2.83,1.05-3.83,2.04-.99,1-1.72,2.32-2.04,3.83-.77,3.64,1.79,7.56,5.48,8.41,.59,.14,1.18,.18,1.78,.18,1.25,.02,2.43-.27,3.5-.91,.36-.21,.56-.18,.85,.11,1.11,1.13,1.93,1.92,3.05,3.04,.7,.7,.71,.71,1.74-.32,1.03-1.03,1.02-1.05,.32-1.74-1.12-1.12-1.91-1.94-3.04-3.05-.29-.29-.33-.49-.11-.85,.63-1.07,.92-2.25,.91-3.5,0-.6-.05-1.19-.18-1.78-.86-3.69-4.77-6.25-8.41-5.48Zm6.39,7.18c.01,1.37-.57,2.65-1.51,3.58-.93,.93-2.21,1.52-3.58,1.51-2.78-.03-5.08-2.34-5.06-5.11,.01-1.36,.59-2.62,1.5-3.53,.92-.91,2.17-1.49,3.53-1.5,2.76-.02,5.08,2.27,5.11,5.06Z"/></g><rect class="d" x="6.39" y="5.76" width="12.13" height="2.49" rx="1.15" ry="1.15"/><rect class="d" x="6.39" y="10.57" width="12.13" height="2.49" rx="1.15" ry="1.15"/><rect class="d" x="6.39" y="15.44" width="4.55" height="2.49" rx="1.15" ry="1.15"/></g></g></g></svg>