<?xml version="1.0" encoding="UTF-8"?><svg xmlns="http://www.w3.org/2000/svg" viewBox="0 0 50.01 50"><defs><style>.d{fill:#606060;}</style></defs><g id="a"/><g id="b"><g id="c"><path class="d" d="M0,24.95C.03,11.15,11.25-.05,24.99,0c13.9,.05,25.03,11.21,25.02,25.06-.01,13.88-11.23,24.97-25.23,24.94C11.12,49.97-.03,38.71,0,24.95Zm22.52-6.24h0c0,1.97,.03,3.95-.01,5.92-.03,1.33,.51,2.23,1.72,2.78,.8,.36,1.57,.78,2.36,1.18,2.41,1.2,4.81,2.42,7.23,3.61,1.67,.82,3.45-.12,3.69-1.93,.14-1.03-.42-2.02-1.49-2.56-2.65-1.34-5.3-2.67-7.96-3.97-.44-.22-.57-.47-.56-.93,.02-3.36,.03-6.72-.01-10.08,0-.57-.19-1.21-.48-1.7-.56-.92-1.71-1.24-2.74-.92-1,.31-1.71,1.2-1.73,2.27-.02,2.11,0,4.22,0,6.33Z"/></g></g></svg>