<?xml version="1.0" encoding="UTF-8"?><svg xmlns="http://www.w3.org/2000/svg" viewBox="0 0 30 29.99"><defs><style>.d{fill:#92c156;}</style></defs><g id="a"/><g id="b"><g id="c"><path class="d" d="M0,14.97C.02,6.69,6.75-.03,14.99,0c8.34,.03,15.01,6.72,15.01,15.03,0,8.33-6.74,14.98-15.14,14.96C6.67,29.98-.02,23.22,0,14.97Zm13.51-3.74h0c0,1.18,.02,2.37,0,3.55-.02,.8,.31,1.34,1.03,1.67,.48,.22,.94,.47,1.41,.71,1.44,.72,2.89,1.45,4.34,2.16,1,.49,2.07-.07,2.21-1.16,.08-.62-.25-1.21-.89-1.53-1.59-.8-3.18-1.6-4.78-2.38-.26-.13-.34-.28-.34-.56,.01-2.02,.02-4.03,0-6.05,0-.34-.11-.73-.29-1.02-.34-.55-1.02-.74-1.64-.55-.6,.19-1.03,.72-1.04,1.36-.01,1.27,0,2.53,0,3.8Z"/></g></g></svg>