<?xml version="1.0" encoding="utf-8"?>
<!-- Generator: Adobe Illustrator 26.1.0, SVG Export Plug-In . SVG Version: 6.00 Build 0)  -->
<svg version="1.1" id="Layer_1" xmlns="http://www.w3.org/2000/svg" xmlns:xlink="http://www.w3.org/1999/xlink" x="0px" y="0px"
	 viewBox="0 0 489.1 489.1" style="enable-background:new 0 0 489.1 489.1;" xml:space="preserve">
<style type="text/css">
	.st0{fill:#FFFFFF;}
</style>
<g>
	<g>
		<path class="st0" d="M486,456.7L263.4,11.5c-7.8-14.5-29.9-15.9-37.5,0L2.3,459.9C-4.1,469.7,3,489,21,489h447.3
			C484.5,490.2,494.4,470.9,486,456.7z M53.2,448.4L244.7,65.6l190.4,382.8H53.2z"/>
		<path class="st0" d="M223.9,177.9v125.9c0,11.4,9.4,20.8,20.8,20.8c11.4,0,19.8-9.4,20.8-20.8V177.9c0-11.4-9.4-20.8-20.8-20.8
			S223.9,166.5,223.9,177.9z"/>
		<path class="st0" d="M244.7,347.5c-11.4,0-20.8,9.4-20.8,20.8v13.5c0,11.4,9.4,20.8,20.8,20.8c11.4,0,19.8-9.4,20.8-20.8v-13.5
			C265.5,356.9,256.1,347.5,244.7,347.5z"/>
	</g>
</g>
</svg>
